<svg width="116" height="18" viewBox="0 0 116 18" fill="none" xmlns="http://www.w3.org/2000/svg">
<path d="M24.5123 4.32C24.5123 3.87698 24.4865 3.63507 24.2336 3.35235C24.0756 3.15124 24.1819 2.96179 24.3658 2.96179H26.6588V4.74845C26.6588 6.5118 28.357 7.54649 29.8942 8.07112L29.3253 9.16119C29.1529 9.48471 28.5035 9.3623 27.3628 8.65113C26.7134 8.24892 26.0898 7.70971 25.6789 7.14427C25.1876 7.85544 24.5784 8.44711 23.8773 8.91928C23.0699 9.45557 22.0355 9.96854 21.8631 9.63045L21.2539 8.46168C23.0182 7.76217 24.5152 6.59341 24.5152 4.88544V4.32H24.5123ZM33.236 13.7197V15.2382H25.6675C24.0641 15.2382 23.4262 14.8214 23.4262 13.4632V11.5133C23.4262 11.2451 23.3343 11.044 23.1475 10.8138C22.9866 10.6127 23.0958 10.4232 23.2797 10.4232H25.5324V13.1805C25.5324 13.5972 25.6646 13.7197 26.0755 13.7197H33.2331H33.236ZM30.9287 11.1111V4.1189C30.9287 3.64964 30.8482 3.40773 30.5982 3.12501C30.4402 2.9239 30.5465 2.74902 30.7448 2.74902H33.0119V11.114H30.9315L30.9287 11.1111Z" fill="#C4C8D4"/>
<path d="M37.6215 3.74292C37.6215 3.27075 37.5956 3.05798 37.3428 2.74903C37.1704 2.54792 37.2767 2.37305 37.4749 2.37305H39.7421V3.87991H42.7505V5.35762H41.3598C41.7707 5.82979 42.0235 6.40688 42.0235 7.09182C42.0235 8.78522 40.7908 10.0764 38.5898 10.0764C36.3888 10.0764 35.1561 8.78522 35.1561 7.09182C35.1561 6.39231 35.3946 5.81522 35.7911 5.35762H34.4004V3.87991H37.6215V3.74583V3.74292ZM46.0664 13.7197V15.2382H38.63C37.0267 15.2382 36.3888 14.8214 36.3888 13.4632V12.0525C36.3888 11.7844 36.2968 11.5803 36.1101 11.353C35.952 11.1519 36.0583 10.9624 36.2422 10.9624H38.4979V13.1805C38.4979 13.5973 38.63 13.7197 39.0409 13.7197H46.0664ZM40.0351 7.02187C40.0351 6.10668 39.5064 5.40717 38.5898 5.40717C37.6732 5.40717 37.1445 6.10668 37.1445 7.02187C37.1445 7.88168 37.6617 8.59577 38.5898 8.59577C39.5179 8.59577 40.0351 7.8846 40.0351 7.02187ZM43.8252 11.2976V4.11891C43.8252 3.64965 43.7591 3.43397 43.5062 3.12502C43.3338 2.92391 43.4401 2.74903 43.6384 2.74903H45.9055V5.92306H47.4169V7.44158H45.9055V11.3005H43.8223L43.8252 11.2976Z" fill="#C4C8D4"/>
<path d="M48.4659 13.9089V4.7774C48.4659 4.31981 48.3854 4.09247 48.1354 3.80975C47.9745 3.60864 48.0808 3.41919 48.2676 3.41919H54.6437V4.99309H50.6267V7.86982H54.273V9.44372H50.6267V12.3467H54.9339V13.906H48.4659V13.9089Z" fill="#C4C8D4"/>
<path d="M58.4189 12.3496H62.8066V13.9089H55.7266V12.778L60.1803 4.99309H55.9248V3.41919H62.7118V4.57629C62.7118 4.89982 62.5911 5.16796 62.4475 5.40988L58.4161 12.3496H58.4189Z" fill="#C4C8D4"/>
<path d="M68.7458 8.60997C68.7458 8.1378 68.6654 7.8988 68.4154 7.61608C68.2545 7.41497 68.3636 7.2401 68.5619 7.2401H70.8951V8.96264H76.1305V10.4141H63.4961V8.96264H68.7458V8.61288V8.60997ZM64.1598 6.52601C66.5591 6.12379 68.7458 5.01915 68.7458 3.95823V3.70174C68.7458 3.4744 68.6251 3.25872 68.4412 3.06927C68.2545 2.87982 68.3493 2.67871 68.5475 2.67871H70.8147V3.95532C70.8147 4.8297 72.9094 6.03927 75.3345 6.45606L74.8575 7.66563C74.7512 7.92212 73.9697 7.85508 72.4582 7.27507C71.3721 6.85828 70.4296 6.37445 69.7687 5.75655C69.1711 6.34822 68.4815 6.75044 67.5016 7.1818C66.2028 7.74724 64.7977 8.02996 64.6512 7.6802L64.1598 6.5231V6.52601ZM65.088 12.3349C65.088 12.0667 64.996 11.8627 64.8092 11.6353C64.6512 11.4342 64.7575 11.2448 64.9414 11.2448H67.1942V13.3287C67.1942 13.6115 67.3666 13.7193 67.6051 13.7193H74.8575V15.2378H66.677C65.6569 15.2378 65.0851 14.6199 65.0851 13.7047V12.3319L65.088 12.3349Z" fill="#C4C8D4"/>
<path d="M79.1766 3.95818C79.1766 3.47435 79.0961 3.19163 78.9122 2.94972C78.7542 2.73403 78.8461 2.57373 79.0588 2.57373H81.1937V4.47115H83.4206V5.98967H76.6738V4.47115H79.1794V3.96109L79.1766 3.95818ZM80.1708 6.44726C82.2655 6.44726 83.3401 7.80548 83.3401 9.79617C83.3401 11.7869 82.2655 13.1451 80.1708 13.1451C78.0761 13.1451 77.0014 11.7869 77.0014 9.79617C77.0014 7.80548 78.0761 6.44726 80.1708 6.44726ZM80.1708 7.93955C79.2685 7.93955 78.8864 8.65072 78.8864 9.79617C78.8864 10.9416 79.2714 11.6528 80.1708 11.6528C81.0701 11.6528 81.4552 10.9416 81.4552 9.79617C81.4552 8.65072 81.0701 7.93955 80.1708 7.93955ZM84.1619 4.21466C84.1619 3.73084 84.0815 3.44812 83.8976 3.2062C83.7395 2.99052 83.8315 2.83022 84.0441 2.83022H86.0871V7.22838H87.2135V2.75152H89.1473V15.4068H87.2135V8.88389H86.0871V15.0425H84.1648V4.21175L84.1619 4.21466Z" fill="#C4C8D4"/>
<path d="M93.7336 10.5458C92.1561 10.5458 91.4521 10.0766 91.4521 8.78539V4.53587C91.4521 4.09285 91.3602 3.8626 91.1073 3.55365C90.9493 3.33796 91.0412 3.16309 91.2395 3.16309H93.5066V5.50353H98.9948V3.16309H101.049V10.5458H97.4029V12.6968H102.638V14.2153H90.0039V12.6968H95.2536V10.5458H93.7278H93.7336ZM98.9977 9.03896V6.99581H93.5095V8.23453C93.5095 8.70378 93.6416 9.04188 94.2652 9.04188H98.9977V9.03896Z" fill="#C4C8D4"/>
<path d="M106.481 3.74292C106.481 3.27075 106.455 3.05798 106.202 2.74903C106.03 2.54792 106.136 2.37305 106.334 2.37305H108.601V3.87991H111.61V5.35762H110.245C110.642 5.81522 110.883 6.38065 110.883 7.05102C110.883 8.74441 109.584 9.99478 107.449 9.99478C105.314 9.99478 104.015 8.74441 104.015 7.05102C104.015 6.36608 104.254 5.80064 104.639 5.35762H103.26V3.87991H106.481V3.74583V3.74292ZM108.032 15.3081C106.429 15.3081 105.765 14.9584 105.765 13.6002V11.7844C105.765 11.5162 105.673 11.3122 105.487 11.0849C105.329 10.8837 105.435 10.6943 105.619 10.6943H114.966C115.179 10.6943 115.271 10.7613 115.271 10.9916V15.3081H108.032ZM108.895 6.98398C108.895 6.09793 108.363 5.41008 107.449 5.41008C106.535 5.41008 106.004 6.09502 106.004 6.98398C106.004 7.81756 106.521 8.53164 107.449 8.53164C108.377 8.53164 108.895 7.82048 108.895 6.98398ZM113.23 13.8567V12.1341H107.808V13.3029C107.808 13.7867 107.981 13.8537 108.418 13.8537H113.23V13.8567ZM113.179 9.91609V7.81756H111.414V6.29904H113.179V4.12182C113.179 3.65257 113.113 3.43688 112.86 3.12793C112.687 2.92683 112.794 2.75195 112.992 2.75195H115.259V9.919H113.179V9.91609Z" fill="#C4C8D4"/>
<path d="M9.27782 0.326172C4.55681 0.326172 0.726562 4.21136 0.726562 9.00009C0.726562 13.7888 4.55681 17.674 9.27782 17.674C13.9988 17.674 17.8291 13.7888 17.8291 9.00009C17.8291 4.21136 14.0017 0.326172 9.27782 0.326172ZM9.45597 16.0855C8.43304 16.2313 6.76646 15.9689 5.64009 15.2432C4.65163 14.6107 4.06259 13.818 3.68042 13.0135C3.28964 12.1916 3.10574 11.1948 3.52239 11.2443C3.71778 11.2677 3.88444 11.6407 4.26085 12.1275C4.51658 12.4597 4.75508 12.7395 4.93323 12.7804C5.01368 12.7978 5.07977 12.7599 5.13724 12.6521C5.24356 12.4452 5.38723 12.0546 5.64296 11.7369C5.84984 11.495 6.09983 11.3813 6.24637 11.973C6.31534 12.2674 6.3728 12.5734 6.40441 12.8386C6.45039 13.2146 6.47337 13.4391 6.60268 13.5003C6.72623 13.5615 6.93312 13.4828 7.27218 13.3545C7.51355 13.2642 7.82387 13.1476 8.21753 13.0339C8.57958 12.929 8.80945 12.9844 8.57671 13.5527C8.46752 13.8209 8.35545 14.0482 7.96467 14.6195C7.89571 14.7215 7.91008 14.8206 7.99341 14.9051C8.12558 15.0363 8.42154 15.1966 8.74911 15.3423C9.01059 15.456 9.32092 15.558 9.5278 15.6163C9.84962 15.7095 9.78641 16.0389 9.46171 16.0855H9.45597ZM13.8437 14.2202C13.5247 14.7448 12.8581 15.3132 12.0478 15.6921C11.9242 15.7474 11.7949 15.7299 11.7604 15.6279C11.7317 15.5405 11.8007 15.4385 11.8811 15.3423C12.9357 13.9549 12.1512 12.6813 10.4502 11.6961C9.19162 10.9675 8.39281 10.5478 7.4647 9.99397C4.74646 8.37053 4.22062 6.95402 4.11431 6.11753C3.84708 4.00442 5.57112 2.41887 7.34114 2.03705C7.39574 2.0254 7.53653 2.00208 7.58251 2.12158C7.62848 2.24108 7.52217 2.32852 7.46183 2.36641C6.66877 2.80943 5.89007 3.74794 5.97627 4.79137C6.02225 5.3743 6.26936 6.21371 7.82675 7.33875C8.76635 8.01786 9.91571 8.57455 12.2346 9.98523C14.6856 11.4746 14.4068 13.2933 13.8437 14.2173V14.2202ZM14.2258 6.28657C13.6655 6.98025 13.1081 6.72377 12.6771 5.74445C12.4098 5.1353 12.0564 4.98665 11.8064 5.14696C11.5334 5.32183 11.6426 5.73862 11.9472 6.21954C12.1455 6.53432 12.0564 6.90447 11.8495 7.12307C11.6311 7.35332 11.2777 7.44368 10.8898 7.35915C10.2002 7.20468 9.52206 6.26909 10.0163 4.22302C10.2174 3.39818 9.82664 3.04551 9.57665 2.72782C9.45309 2.57043 9.43873 2.47425 9.48183 2.41013C9.53068 2.34018 9.64561 2.33435 9.84675 2.37807C10.1111 2.43344 10.5048 2.57335 10.8266 2.62289C11.0392 2.65787 11.2806 2.66661 11.5334 2.65495C12.2202 2.62872 12.7288 2.73656 13.246 2.99597C14.1253 3.43899 14.2172 4.1997 13.7258 4.1385C13.5563 4.11809 13.3379 3.98694 13.1569 3.8995C13.0362 3.84121 12.9328 3.8208 12.8552 3.87618C12.7834 3.92864 12.7518 4.0394 12.8035 4.15016C12.9127 4.38333 13.2833 4.50282 13.7833 4.64564C14.6597 4.89047 14.6769 5.71531 14.2201 6.28657H14.2258Z" fill="#C4C8D4"/>
</svg>
