<svg width="88" height="25" viewBox="0 0 88 25" fill="none" xmlns="http://www.w3.org/2000/svg">
<path d="M11 1.5C4.92708 1.5 0 6.42708 0 12.5C0 18.5729 4.92708 23.5 11 23.5C17.0729 23.5 22 18.5729 22 12.5C22 6.42708 17.0766 1.5 11 1.5ZM11.2292 21.4856C9.91331 21.6704 7.76949 21.3377 6.32056 20.4173C5.04906 19.6153 4.29133 18.6099 3.79973 17.5897C3.29704 16.5474 3.06048 15.2833 3.59644 15.3461C3.84778 15.3757 4.06216 15.8488 4.54637 16.4661C4.87534 16.8874 5.18212 17.2423 5.41129 17.294C5.51479 17.3162 5.5998 17.2681 5.67372 17.1314C5.81048 16.869 5.9953 16.3737 6.32426 15.9708C6.59039 15.664 6.91196 15.5198 7.10047 16.2702C7.18918 16.6435 7.2631 17.0316 7.30376 17.3679C7.3629 17.8448 7.39247 18.1294 7.5588 18.207C7.71774 18.2846 7.98387 18.1848 8.42003 18.0222C8.73051 17.9076 9.1297 17.7597 9.63609 17.6156C10.1018 17.4825 10.3975 17.5528 10.0981 18.2735C9.95766 18.6136 9.81351 18.9019 9.31082 19.6263C9.22211 19.7557 9.24059 19.8814 9.34778 19.9886C9.51781 20.1549 9.89852 20.3582 10.3199 20.543C10.6562 20.6872 11.0554 20.8165 11.3216 20.8905C11.7356 21.0087 11.6542 21.4264 11.2366 21.4856H11.2292ZM16.8733 19.12C16.463 19.7853 15.6055 20.506 14.5632 20.9866C14.4042 21.0568 14.2379 21.0346 14.1935 20.9052C14.1566 20.7944 14.2453 20.665 14.3488 20.543C15.7053 18.7836 14.6962 17.1683 12.5081 15.919C10.8891 14.995 9.86156 14.4627 8.66768 13.7604C5.17104 11.7016 4.49462 9.90524 4.35786 8.84442C4.01411 6.16465 6.23185 4.1539 8.50874 3.66969C8.57897 3.65491 8.76008 3.62534 8.81922 3.77688C8.87836 3.92843 8.7416 4.03931 8.66398 4.08737C7.64382 4.64919 6.64214 5.83938 6.75302 7.16263C6.81216 7.90188 7.13004 8.9664 9.1334 10.3931C10.3421 11.2544 11.8206 11.9603 14.8034 13.7493C17.9563 15.6381 17.5978 17.9446 16.8733 19.1163V19.12ZM17.3649 9.0588C16.6442 9.93851 15.9271 9.61324 15.3726 8.3713C15.0289 7.59879 14.5743 7.41028 14.2527 7.61358C13.9015 7.83535 14.042 8.36391 14.4338 8.97379C14.6888 9.37298 14.5743 9.84241 14.3081 10.1196C14.0272 10.4116 13.5726 10.5262 13.0736 10.419C12.1865 10.2231 11.3142 9.03663 11.9499 6.44187C12.2087 5.39583 11.706 4.94859 11.3844 4.5457C11.2255 4.3461 11.207 4.22413 11.2624 4.14281C11.3253 4.0541 11.4731 4.04671 11.7319 4.10215C12.0719 4.17238 12.5783 4.3498 12.9923 4.41263C13.2658 4.45699 13.5763 4.46808 13.9015 4.45329C14.7849 4.42003 15.4392 4.55679 16.1045 4.88575C17.2356 5.44758 17.3538 6.4123 16.7218 6.33468C16.5037 6.3088 16.2228 6.14247 15.9899 6.03159C15.8347 5.95766 15.7016 5.93179 15.6018 6.00202C15.5094 6.06855 15.4688 6.20901 15.5353 6.34946C15.6757 6.64516 16.1526 6.79671 16.7957 6.97782C17.923 7.28831 17.9452 8.33434 17.3575 9.0588H17.3649Z" fill="#0046FF"/>
<path d="M38.302 20.2882V6.24727C38.302 5.95685 38.2733 5.72786 38.2158 5.56031C38.1584 5.38158 38.0493 5.19728 37.8885 5.00738C37.7736 4.88451 37.7392 4.77281 37.7851 4.67228C37.8425 4.57175 37.9344 4.52148 38.0608 4.52148H41.0069V20.2882H38.302ZM26.1211 11.3241C26.1211 10.1848 26.213 9.20736 26.3968 8.39194C26.592 7.57652 26.8907 6.90631 27.2927 6.38131C27.7062 5.84515 28.223 5.45419 28.8433 5.20845C29.4635 4.95153 30.2044 4.82308 31.0658 4.82308C31.9043 4.82308 32.6279 4.95153 33.2367 5.20845C33.8569 5.45419 34.3623 5.83956 34.7528 6.36456C35.1548 6.88956 35.4477 7.55976 35.6315 8.37519C35.8267 9.19061 35.9244 10.168 35.9244 11.3074C35.9244 12.4467 35.8267 13.4297 35.6315 14.2563C35.4477 15.0829 35.1548 15.7587 34.7528 16.2837C34.3623 16.8087 33.8569 17.1996 33.2367 17.4565C32.6279 17.7023 31.9043 17.8251 31.0658 17.8251C30.2044 17.8251 29.4635 17.7023 28.8433 17.4565C28.223 17.1996 27.7062 16.8087 27.2927 16.2837C26.8907 15.7475 26.592 15.0717 26.3968 14.2563C26.213 13.4408 26.1211 12.4635 26.1211 11.3241ZM33.2711 11.3241C33.2711 9.70443 33.0873 8.53715 32.7198 7.82226C32.3637 7.0962 31.8067 6.73318 31.0486 6.73318C30.2331 6.73318 29.6473 7.0962 29.2912 7.82226C28.9352 8.54832 28.7571 9.7156 28.7571 11.3241C28.7571 12.9326 28.9352 14.0999 29.2912 14.8259C29.6473 15.552 30.2331 15.915 31.0486 15.915C31.4276 15.915 31.755 15.8313 32.0306 15.6637C32.3178 15.485 32.5475 15.2113 32.7198 14.8427C32.9036 14.4741 33.0414 13.9994 33.1333 13.4185C33.2252 12.8377 33.2711 12.1395 33.2711 11.3241Z" fill="#0046FF"/>
<path d="M43.5224 7.05152V5.15818H53.4462V7.05152H50.0177V9.83289C50.0177 10.7488 50.2015 11.5643 50.569 12.2792C50.948 12.994 51.4477 13.6531 52.0679 14.2563C52.401 14.5579 52.7628 14.8483 53.1533 15.1275C53.5554 15.4068 53.9574 15.6581 54.3594 15.8815L53.3946 17.3727C53.3256 17.4621 53.205 17.49 53.0327 17.4565C52.8719 17.423 52.6767 17.3448 52.447 17.2219C52.2287 17.0991 51.9818 16.9371 51.7061 16.736C51.4419 16.535 51.1663 16.3172 50.8791 16.0826C50.3278 15.6134 49.8798 15.1666 49.5353 14.7422C49.1907 14.3065 48.9093 13.8541 48.691 13.385C48.5647 13.6531 48.4096 13.9268 48.2259 14.206C48.0421 14.4741 47.8411 14.7422 47.6229 15.0103C47.4161 15.2672 47.1921 15.5185 46.9509 15.7642C46.7212 15.9988 46.4972 16.2166 46.279 16.4177C45.4635 17.1549 44.849 17.6241 44.4355 17.8251C44.0335 18.0262 43.7636 18.0485 43.6257 17.8922L42.4542 16.4512C42.8906 16.1719 43.3213 15.8871 43.7463 15.5967C44.1713 15.2951 44.5561 14.9712 44.9007 14.6249C45.6243 13.9323 46.1871 13.2063 46.5891 12.4467C47.0026 11.6871 47.2094 10.8214 47.2094 9.84965V7.05152H43.5224ZM55.5309 20.2882V6.24727C55.5309 5.95685 55.5022 5.72786 55.4448 5.56031C55.3874 5.38158 55.2783 5.19728 55.1175 5.00738C55.0026 4.88451 54.9681 4.77281 55.0141 4.67228C55.0715 4.57175 55.1634 4.52148 55.2897 4.52148H58.2359V20.2882H55.5309Z" fill="#0046FF"/>
<path d="M74.0866 11.8938C74.0866 12.9214 73.9372 13.8597 73.6386 14.7087C73.34 15.5576 72.8978 16.2892 72.312 16.9036C71.7262 17.5068 71.0026 17.9759 70.1411 18.311C69.2912 18.6461 68.3091 18.8137 67.195 18.8137C66.0808 18.8137 65.093 18.6461 64.2316 18.311C63.3816 17.9759 62.6637 17.5068 62.078 16.9036C61.4922 16.2892 61.05 15.5576 60.7513 14.7087C60.4527 13.8597 60.3034 12.9214 60.3034 11.8938C60.3034 10.8661 60.4527 9.92784 60.7513 9.0789C61.05 8.22997 61.4922 7.50392 62.078 6.90073C62.6637 6.29754 63.3816 5.82839 64.2316 5.49329C65.093 5.15818 66.0808 4.99063 67.195 4.99063C68.3091 4.99063 69.2912 5.15818 70.1411 5.49329C71.0026 5.82839 71.7262 6.29754 72.312 6.90073C72.8978 7.50392 73.34 8.22997 73.6386 9.0789C73.9372 9.92784 74.0866 10.8661 74.0866 11.8938ZM63.0945 11.8938C63.0945 13.4911 63.462 14.7198 64.1971 15.5799C64.9322 16.4289 65.9315 16.8533 67.195 16.8533C68.4469 16.8533 69.4405 16.4289 70.1756 15.5799C70.9107 14.7198 71.2782 13.4911 71.2782 11.8938C71.2782 10.2965 70.9107 9.07332 70.1756 8.22439C69.4405 7.36429 68.4469 6.93424 67.195 6.93424C65.9315 6.93424 64.9322 7.36429 64.1971 8.22439C63.462 9.07332 63.0945 10.2965 63.0945 11.8938Z" fill="#0046FF"/>
<path d="M78.3958 9.01188V9.93342C78.7519 9.59832 79.1481 9.30789 79.5846 9.06215C80.0326 8.81641 80.5609 8.69353 81.1697 8.69353C81.6865 8.69353 82.1632 8.76614 82.5997 8.91135C83.0362 9.04539 83.4152 9.24646 83.7368 9.51454C84.0699 9.78262 84.3283 10.1177 84.5121 10.5199C84.6959 10.9108 84.7878 11.3632 84.7878 11.877V18.4283H82.0828V12.1116C82.0828 11.5754 81.9565 11.1901 81.7038 10.9555C81.4626 10.7097 81.0663 10.5869 80.515 10.5869C80.1359 10.5869 79.7799 10.6595 79.4468 10.8047C79.1137 10.9499 78.7921 11.1566 78.482 11.4246V18.4283H75.777V10.7042C75.777 10.4137 75.7425 10.1847 75.6736 10.0172C75.6162 9.84964 75.5071 9.67651 75.3463 9.49779C75.2314 9.37492 75.197 9.26321 75.2429 9.16268C75.3003 9.06215 75.3922 9.01188 75.5186 9.01188H78.3958Z" fill="#0046FF"/>
</svg>
