<svg width="85" height="98" viewBox="0 0 85 98" fill="none" xmlns="http://www.w3.org/2000/svg">
<rect opacity="0.6" width="85" height="31" rx="6" fill="url(#paint0_linear_7397_12046)"/>
<rect opacity="0.6" y="34" width="85" height="31" rx="6" fill="url(#paint1_linear_7397_12046)"/>
<rect opacity="0.6" y="67" width="85" height="31" rx="6" fill="url(#paint2_linear_7397_12046)"/>
<rect x="23" y="37" width="42" height="21" fill="#315FDA"/>
<path fill-rule="evenodd" clip-rule="evenodd" d="M42 18C25.4315 18 12 31.4315 12 48C12 64.5685 25.4315 78 42 78C58.5685 78 72 64.5685 72 48C72 31.4315 58.5685 18 42 18ZM31 47C29.8954 47 29 47.8954 29 49C29 50.1046 29.8954 51 31 51C32.1046 51 33 50.1046 33 49C33 47.8954 32.1046 47 31 47ZM38 49C38 47.3431 39.3431 46 41 46C42.6569 46 44 47.3431 44 49C44 50.6569 42.6569 52 41 52C39.3431 52 38 50.6569 38 49ZM53 45C50.7909 45 49 46.7909 49 49C49 51.2091 50.7909 53 53 53C55.2091 53 57 51.2091 57 49C57 46.7909 55.2091 45 53 45Z" fill="url(#paint3_linear_7397_12046)"/>
<defs>
<linearGradient id="paint0_linear_7397_12046" x1="42.5" y1="0" x2="42.5" y2="31" gradientUnits="userSpaceOnUse">
<stop stop-color="white" stop-opacity="0.04"/>
<stop offset="1" stop-color="white" stop-opacity="0.54"/>
</linearGradient>
<linearGradient id="paint1_linear_7397_12046" x1="42.5" y1="34" x2="42.5" y2="65" gradientUnits="userSpaceOnUse">
<stop stop-color="white" stop-opacity="0.04"/>
<stop offset="1" stop-color="white" stop-opacity="0.54"/>
</linearGradient>
<linearGradient id="paint2_linear_7397_12046" x1="42.5" y1="67" x2="42.5" y2="98" gradientUnits="userSpaceOnUse">
<stop stop-color="white" stop-opacity="0.04"/>
<stop offset="1" stop-color="white" stop-opacity="0.54"/>
</linearGradient>
<linearGradient id="paint3_linear_7397_12046" x1="42" y1="18" x2="42" y2="78" gradientUnits="userSpaceOnUse">
<stop stop-color="#3160DC"/>
<stop offset="1" stop-color="#A1BAFD"/>
</linearGradient>
</defs>
</svg>
