<svg width="85" height="110" viewBox="0 0 85 110" fill="none" xmlns="http://www.w3.org/2000/svg">
<rect opacity="0.6" y="48" width="85" height="31" rx="6" fill="url(#paint0_linear_7397_8828)"/>
<rect opacity="0.6" y="79" width="85" height="31" rx="6" fill="url(#paint1_linear_7397_8828)"/>
<path fill-rule="evenodd" clip-rule="evenodd" d="M42 0C25.4315 -1.44847e-06 12 13.4315 12 30C12 46.5685 25.4315 60 42 60C58.5685 60 72 46.5685 72 30C72 13.4315 58.5685 1.44847e-06 42 0ZM49.2322 40.7678C50.2085 41.7441 51.7915 41.7441 52.7678 40.7678C53.7441 39.7915 53.7441 38.2085 52.7678 37.2322L45.7855 30.25L52.7678 23.2678C53.7441 22.2915 53.7441 20.7085 52.7678 19.7322C51.7915 18.7559 50.2085 18.7559 49.2322 19.7322L42.25 26.7145L35.2678 19.7322C34.2915 18.7559 32.7085 18.7559 31.7322 19.7322C30.7559 20.7085 30.7559 22.2915 31.7322 23.2678L38.7145 30.25L31.7322 37.2322C30.7559 38.2085 30.7559 39.7915 31.7322 40.7678C32.7085 41.7441 34.2915 41.7441 35.2678 40.7678L42.25 33.7855L49.2322 40.7678Z" fill="url(#paint2_linear_7397_8828)"/>
<defs>
<linearGradient id="paint0_linear_7397_8828" x1="42.5" y1="48" x2="42.5" y2="79" gradientUnits="userSpaceOnUse">
<stop stop-color="white" stop-opacity="0.04"/>
<stop offset="1" stop-color="white" stop-opacity="0.54"/>
</linearGradient>
<linearGradient id="paint1_linear_7397_8828" x1="42.5" y1="79" x2="42.5" y2="110" gradientUnits="userSpaceOnUse">
<stop stop-color="white" stop-opacity="0.04"/>
<stop offset="1" stop-color="white" stop-opacity="0.54"/>
</linearGradient>
<linearGradient id="paint2_linear_7397_8828" x1="42" y1="60" x2="42" y2="-9.53595e-07" gradientUnits="userSpaceOnUse">
<stop stop-color="#91A9ED"/>
<stop offset="1" stop-color="#2558E5"/>
</linearGradient>
</defs>
</svg>
