<svg width="140" height="140" viewBox="0 0 140 140" fill="none" xmlns="http://www.w3.org/2000/svg">
<path d="M41.8628 98.5945H27.7942V42.7775H41.8628V28.8232H13.7256V112.549H41.8628V98.5945ZM98.1374 28.8232V42.7775H112.206V98.5945H98.1374V112.549H126.275V28.8232H98.1374Z" fill="url(#paint0_linear_7397_8837)"/>
<path d="M59.1904 50.6582C60.3395 50.6582 61.4773 50.8845 62.5389 51.3243C63.6005 51.764 64.5651 52.4085 65.3776 53.221C66.1901 54.0335 66.8346 54.9981 67.2744 56.0597C67.7141 57.1213 67.9404 58.2591 67.9404 59.4082V68.1582H59.1904C56.8698 68.1582 54.6442 67.2363 53.0032 65.5954C51.3623 63.9544 50.4404 61.7288 50.4404 59.4082C50.4404 57.0876 51.3623 54.862 53.0032 53.221C54.6442 51.5801 56.8698 50.6582 59.1904 50.6582ZM59.1904 72.2759H67.9404V81.0259C67.9404 82.7564 67.4273 84.4482 66.4658 85.8871C65.5043 87.326 64.1378 88.4475 62.5389 89.1098C60.9401 89.7721 59.1807 89.9453 57.4834 89.6077C55.7861 89.2701 54.227 88.4367 53.0032 87.213C51.7795 85.9893 50.9462 84.4302 50.6086 82.7329C50.2709 81.0356 50.4442 79.2762 51.1065 77.6774C51.7688 76.0785 52.8903 74.712 54.3292 73.7505C55.7681 72.789 57.4598 72.2759 59.1904 72.2759ZM80.8081 50.6582C83.1287 50.6582 85.3543 51.5801 86.9953 53.221C88.6362 54.862 89.5581 57.0876 89.5581 59.4082C89.5581 61.7288 88.6362 63.9544 86.9953 65.5954C85.3543 67.2363 83.1287 68.1582 80.8081 68.1582H72.0581V59.4082C72.0581 57.0876 72.98 54.862 74.6209 53.221C76.2618 51.5801 78.4874 50.6582 80.8081 50.6582ZM72.0581 72.2759H80.8081C82.5387 72.2759 84.2304 72.789 85.6693 73.7505C87.1082 74.712 88.2298 76.0785 88.892 77.6774C89.5543 79.2762 89.7276 81.0356 89.3899 82.7329C89.0523 84.4302 88.219 85.9893 86.9953 87.213C85.7716 88.4367 84.2125 89.2701 82.5151 89.6077C80.8178 89.9453 79.0585 89.7721 77.4596 89.1098C75.8607 88.4475 74.4942 87.326 73.5327 85.8871C72.5713 84.4482 72.0581 82.7564 72.0581 81.0259V72.2759Z" fill="url(#paint1_linear_7397_8837)"/>
<defs>
<linearGradient id="paint0_linear_7397_8837" x1="70" y1="-12.5005" x2="70.0001" y2="112.549" gradientUnits="userSpaceOnUse">
<stop stop-color="#A2E9E5" stop-opacity="0"/>
<stop offset="1" stop-color="#80E0E2"/>
</linearGradient>
<linearGradient id="paint1_linear_7397_8837" x1="55.2625" y1="50.6582" x2="89.3414" y2="93.9477" gradientUnits="userSpaceOnUse">
<stop stop-color="#52E6DD" stop-opacity="0"/>
<stop offset="1" stop-color="#80E0E2"/>
</linearGradient>
</defs>
</svg>
