<svg width="360" height="360" viewBox="0 0 360 360" fill="none" xmlns="http://www.w3.org/2000/svg">
<circle cx="18" cy="18" r="15.75" fill="#0046FF"/>
<path d="M17.8816 11.25V24.5132M11.25 17.8816H24.5132" stroke="white" stroke-width="1.8" stroke-linecap="round" stroke-linejoin="round"/>
<rect x="180" y="36" width="36" height="36" rx="10.8" fill="#00C300"/>
<path d="M201.351 54.6252L195.416 45.7952H190.5V62.2952H195.649V53.4652L201.584 62.2952H206.5V45.7952H201.351V54.6252Z" fill="white"/>
<rect x="144" y="36" width="36" height="36" rx="10.8" fill="#202632"/>
<path d="M163.7 48.4518L164.62 44.1631C164.66 43.9432 164.48 43.7532 164.26 43.8032C162.93 44.0432 161.55 44.453 160.179 45.0329C154.019 47.6221 150.289 52.7106 151.859 56.3895C153.039 59.1486 156.869 60.3283 161.31 59.6385L160.389 63.9272C160.349 64.1471 160.53 64.3371 160.75 64.2871C162.08 64.0472 163.46 63.6373 164.83 63.0575C170.99 60.4682 174.711 55.3798 173.141 51.6909C171.97 48.9417 168.14 47.762 163.7 48.4518Z" fill="white"/>
<rect x="108" y="36" width="36" height="36" rx="10.8" fill="#FAE100"/>
<path d="M126.004 43.7952C119.65 43.7952 114.5 47.8359 114.5 52.8301C114.5 56.0749 116.686 58.9262 119.96 60.5181C119.721 61.4102 119.093 63.7454 118.96 64.2527C118.801 64.8737 119.19 64.865 119.438 64.6988C119.633 64.5676 122.588 62.5734 123.863 61.7075C124.553 61.8125 125.27 61.865 125.996 61.865C132.35 61.865 137.5 57.8242 137.5 52.8301C137.5 47.8359 132.35 43.7952 125.996 43.7952" fill="#371D1E"/>
<rect x="72" y="36" width="36" height="36" rx="10.8" fill="#0046FF"/>
<path d="M90.5 43.7952C84.9792 43.7952 80.5 48.2743 80.5 53.7952C80.5 59.316 84.9792 63.7952 90.5 63.7952C96.0208 63.7952 100.5 59.316 100.5 53.7952C100.5 48.2743 96.0242 43.7952 90.5 43.7952ZM90.7083 61.9639C89.5121 62.1319 87.5632 61.8294 86.246 60.9927C85.0901 60.2636 84.4012 59.3496 83.9543 58.4222C83.4973 57.4746 83.2823 56.3254 83.7695 56.3825C83.998 56.4094 84.1929 56.8395 84.6331 57.4007C84.9321 57.7837 85.211 58.1063 85.4194 58.1534C85.5134 58.1735 85.5907 58.1298 85.6579 58.0055C85.7823 57.7669 85.9503 57.3167 86.2493 56.9504C86.4913 56.6715 86.7836 56.5405 86.955 57.2226C87.0356 57.562 87.1028 57.9148 87.1398 58.2206C87.1935 58.654 87.2204 58.9128 87.3716 58.9833C87.5161 59.0539 87.7581 58.9632 88.1546 58.8153C88.4368 58.7112 88.7997 58.5768 89.2601 58.4457C89.6835 58.3247 89.9523 58.3886 89.6801 59.0438C89.5524 59.353 89.4214 59.6151 88.9644 60.2737C88.8837 60.3913 88.9005 60.5055 88.998 60.603C89.1526 60.7542 89.4987 60.939 89.8817 61.107C90.1875 61.238 90.5504 61.3557 90.7923 61.4229C91.1687 61.5304 91.0948 61.9101 90.7151 61.9639H90.7083ZM95.8394 59.8133C95.4664 60.4182 94.6868 61.0734 93.7392 61.5102C93.5948 61.5741 93.4435 61.5539 93.4032 61.4363C93.3696 61.3355 93.4503 61.2179 93.5444 61.107C94.7776 59.5075 93.8602 58.0391 91.871 56.9034C90.3992 56.0633 89.4651 55.5794 88.3797 54.941C85.2009 53.0694 84.586 51.4363 84.4617 50.4719C84.1492 48.0358 86.1653 46.2078 88.2352 45.7676C88.2991 45.7542 88.4637 45.7273 88.5175 45.8651C88.5712 46.0028 88.4469 46.1036 88.3763 46.1473C87.4489 46.6581 86.5383 47.7401 86.6391 48.943C86.6929 49.6151 86.9819 50.5828 88.8031 51.8798C89.9019 52.6628 91.246 53.3046 93.9577 54.9309C96.8239 56.648 96.498 58.7448 95.8394 59.81V59.8133ZM96.2863 50.6668C95.631 51.4665 94.9792 51.1708 94.4751 50.0418C94.1626 49.3395 93.7493 49.1682 93.457 49.353C93.1378 49.5546 93.2655 50.0351 93.6216 50.5895C93.8535 50.9524 93.7493 51.3792 93.5074 51.6312C93.252 51.8966 92.8387 52.0008 92.3851 51.9034C91.5786 51.7253 90.7856 50.6466 91.3636 48.2878C91.5988 47.3368 91.1418 46.9302 90.8495 46.564C90.705 46.3825 90.6882 46.2716 90.7386 46.1977C90.7957 46.1171 90.9301 46.1104 91.1653 46.1608C91.4745 46.2246 91.9348 46.3859 92.3112 46.443C92.5598 46.4833 92.8421 46.4934 93.1378 46.48C93.9409 46.4497 94.5356 46.5741 95.1405 46.8731C96.1687 47.3839 96.2762 48.2609 95.7016 48.1903C95.5034 48.1668 95.248 48.0156 95.0363 47.9148C94.8952 47.8476 94.7742 47.8241 94.6835 47.8879C94.5995 47.9484 94.5625 48.0761 94.623 48.2038C94.7507 48.4726 95.1841 48.6104 95.7688 48.775C96.7937 49.0573 96.8138 50.0082 96.2796 50.6668H96.2863Z" fill="white"/>
<rect y="36" width="36" height="36" rx="10.8" fill="#EBF0FF"/>
<g clip-path="url(#clip0_487_518)">
<path d="M23.5 41.7952H13.5C11.8431 41.7952 10.5 43.1383 10.5 44.7952V61.7952C10.5 63.452 11.8431 64.7952 13.5 64.7952H23.5C25.1569 64.7952 26.5 63.452 26.5 61.7952V44.7952C26.5 43.1383 25.1569 41.7952 23.5 41.7952Z" fill="#5784FF"/>
<path d="M10.5 58.7951H26.5V62.0951C26.5 63.5863 25.2912 64.7951 23.8 64.7951H13.2C11.7088 64.7951 10.5 63.5863 10.5 62.0951V58.7951Z" fill="white" fill-opacity="0.3"/>
<path d="M18.4987 62.7951C19.0509 62.7951 19.4987 62.3474 19.4987 61.7951C19.4987 61.2429 19.0509 60.7951 18.4987 60.7951C17.9464 60.7951 17.4987 61.2429 17.4987 61.7951C17.4987 62.3474 17.9464 62.7951 18.4987 62.7951Z" fill="white"/>
<path d="M15.5 45.7951H21.5" stroke="white" stroke-width="0.9" stroke-linecap="round"/>
</g>
<rect x="36" y="36" width="36" height="36" rx="10.8" fill="#EBF0FF"/>
<g clip-path="url(#clip1_487_518)">
<path d="M62.0783 46H47.9217C46.3081 46 45 47.2223 45 48.73V56.27C45 57.7777 46.3081 59 47.9217 59H62.0783C63.6919 59 65 57.7777 65 56.27V48.73C65 47.2223 63.6919 46 62.0783 46Z" fill="#5784FF"/>
<path d="M62.0783 46H47.9217C46.3081 46 45 47.2223 45 48.73V56.27C45 57.7777 46.3081 59 47.9217 59H62.0783C63.6919 59 65 57.7777 65 56.27V48.73C65 47.2223 63.6919 46 62.0783 46Z" fill="white" fill-opacity="0.3"/>
<path d="M59.0783 49H44.9217C43.3081 49 42 50.3163 42 51.94V60.06C42 61.6837 43.3081 63 44.9217 63H59.0783C60.6919 63 62 61.6837 62 60.06V51.94C62 50.3163 60.6919 49 59.0783 49Z" fill="#5784FF"/>
<path d="M45 53H59" stroke="white" stroke-width="0.9" stroke-linecap="round" stroke-linejoin="round"/>
<rect x="56" y="57" width="3" height="3" rx="1" fill="white" stroke="white" stroke-width="0.9"/>
</g>
<rect y="72" width="36" height="36" rx="12" fill="#EBF0FF"/>
<g clip-path="url(#clip2_487_518)">
<path d="M14.6869 90.5006H11.8125C10.2592 90.5006 9 91.7598 9 93.3131V96.1875C9 97.7408 10.2592 99 11.8125 99H14.6869C16.2402 99 17.4994 97.7408 17.4994 96.1875V93.3131C17.4994 91.7598 16.2402 90.5006 14.6869 90.5006Z" fill="#AAC6FF"/>
<path d="M14.6869 81H11.8125C10.2592 81 9 82.2592 9 83.8125V86.6869C9 88.2402 10.2592 89.4994 11.8125 89.4994H14.6869C16.2402 89.4994 17.4994 88.2402 17.4994 86.6869V83.8125C17.4994 82.2592 16.2402 81 14.6869 81Z" fill="#AAC6FF"/>
<path d="M24.1879 90.5006H21.3135C19.7602 90.5006 18.501 91.7598 18.501 93.3131V96.1875C18.501 97.7408 19.7602 99 21.3135 99H24.1879C25.7412 99 27.0004 97.7408 27.0004 96.1875V93.3131C27.0004 91.7598 25.7412 90.5006 24.1879 90.5006Z" fill="#0046FF"/>
<path d="M11.25 85.2525H15.2494" stroke="white" stroke-width="1.5" stroke-linecap="round" stroke-linejoin="round"/>
<path d="M24.1879 81H21.3135C19.7602 81 18.501 82.2592 18.501 83.8125V86.6869C18.501 88.2402 19.7602 89.4994 21.3135 89.4994H24.1879C25.7412 89.4994 27.0004 88.2402 27.0004 86.6869V83.8125C27.0004 82.2592 25.7412 81 24.1879 81Z" fill="#AAC6FF"/>
<path d="M20.751 85.2524H24.7504" stroke="white" stroke-width="1.5" stroke-linecap="round" stroke-linejoin="round"/>
<path d="M20.752 93.7517H24.7513" stroke="white" stroke-width="1.5" stroke-linecap="round" stroke-linejoin="round"/>
<path d="M20.752 95.7486H24.7513" stroke="white" stroke-width="1.5" stroke-linecap="round" stroke-linejoin="round"/>
<path d="M13.2524 87.2494V83.25" stroke="white" stroke-width="1.5" stroke-linecap="round" stroke-linejoin="round"/>
<path d="M11.8345 96.165L14.6638 93.3356" stroke="white" stroke-width="1.5" stroke-linecap="round" stroke-linejoin="round"/>
<path d="M14.6638 96.165L11.8345 93.3356" stroke="white" stroke-width="1.5" stroke-linecap="round" stroke-linejoin="round"/>
</g>
<rect x="36" y="72" width="36" height="36" rx="10.8" fill="#EBF0FF"/>
<g clip-path="url(#clip3_487_518)">
<path d="M43.6 82.27V80.6C43.6 79.5 44.5 78.6 45.6 78.6H47.27" stroke="#5784FF" stroke-width="1.2" stroke-linecap="round" stroke-linejoin="round"/>
<path d="M64.37 82.27V80.6C64.37 79.5 63.47 78.6 62.37 78.6H60.7" stroke="#5784FF" stroke-width="1.2" stroke-linecap="round" stroke-linejoin="round"/>
<path d="M43.6 96.93V98.6C43.6 99.7 44.5 100.6 45.6 100.6H47.27" stroke="#5784FF" stroke-width="1.2" stroke-linecap="round" stroke-linejoin="round"/>
<path d="M64.37 96.93V98.6C64.37 99.7 63.47 100.6 62.37 100.6H60.7" stroke="#5784FF" stroke-width="1.2" stroke-linecap="round" stroke-linejoin="round"/>
<path d="M59.84 88.62V84.92C59.84 82.82 58.12 81.1 56.02 81.1H51.66C49.56 81.1 47.84 82.82 47.84 84.92V88.62C46.74 88.62 45.84 89.52 45.84 90.62C45.84 91.72 46.74 92.62 47.84 92.62C47.85 92.62 47.87 92.62 47.88 92.62C48.14 94.94 49.71 96.85 51.84 97.61C52.47 97.83 53.14 97.96 53.84 97.96C54.54 97.96 55.21 97.83 55.84 97.61C57.97 96.86 59.55 94.94 59.8 92.62C59.81 92.62 59.83 92.62 59.84 92.62C60.94 92.62 61.84 91.72 61.84 90.62C61.84 89.52 60.94 88.62 59.84 88.62Z" fill="#5784FF"/>
<path opacity="0.3" d="M55.84 85.24L57.95 87.35L59.84 87.37V84.93C59.84 82.83 58.12 81.11 56.02 81.11H51.66C49.56 81.11 47.84 82.83 47.84 84.93V87.26H53.84L55.84 85.24Z" fill="white"/>
<path d="M55.84 92.51C55.84 93.61 54.94 94.51 53.84 94.51C52.74 94.51 51.84 93.61 51.84 92.51" stroke="white" stroke-width="0.9" stroke-linecap="round" stroke-linejoin="round"/>
</g>
<rect x="72" y="72" width="36" height="36" rx="10.8" fill="#EBF0FF"/>
<g clip-path="url(#clip4_487_518)">
<path d="M87.7203 98.0641C89.9488 95.5527 91.0631 92.1207 90.4742 88.6083" stroke="#5784FF" stroke-width="1.08704" stroke-linecap="round" stroke-linejoin="round"/>
<path d="M88.0281 90.2253C88.1005 92.8351 87.0135 95.2929 85.1473 97.0088" stroke="#5784FF" stroke-width="1.08704" stroke-linecap="round" stroke-linejoin="round"/>
<path d="M93.2098 90.4404C93.2098 89.5288 93.1192 88.6083 92.929 87.6877C92.6481 86.3024 91.2802 85.3997 89.8761 85.6857C88.8253 85.8913 88.0553 86.7046 87.8469 87.6698" stroke="#5784FF" stroke-width="1.08704" stroke-linecap="round" stroke-linejoin="round"/>
<path d="M90.7183 98.4033C91.8506 96.7677 92.6387 94.8998 92.992 92.9157" stroke="#5784FF" stroke-width="1.08704" stroke-linecap="round" stroke-linejoin="round"/>
<path d="M85.0114 92.7733C84.6037 93.8011 83.9333 94.7127 83.0728 95.4188" stroke="#5784FF" stroke-width="1.08704" stroke-linecap="round" stroke-linejoin="round"/>
<path d="M95.5832 93.1576C95.9094 91.2272 95.8822 89.2073 95.4745 87.1785C94.9129 84.4079 92.1771 82.6204 89.3688 83.1745C86.5606 83.7286 84.7488 86.4278 85.3105 89.1984C85.3739 89.4933 85.4101 89.7882 85.4282 90.0832" stroke="#5784FF" stroke-width="1.08704" stroke-linecap="round" stroke-linejoin="round"/>
<path d="M94.1066 97.7317C94.4327 97.0614 94.7226 96.3732 94.9581 95.6671" stroke="#5784FF" stroke-width="1.08704" stroke-linecap="round" stroke-linejoin="round"/>
<path d="M82.6289 88.5008C82.647 88.903 82.6923 89.3052 82.7738 89.7163C83.0637 91.1374 82.5202 92.5316 81.4694 93.4075" stroke="#5784FF" stroke-width="1.08704" stroke-linecap="round" stroke-linejoin="round"/>
<path d="M98.1831 87.6686C98.1378 87.3379 98.0744 87.0072 98.011 86.6766C97.1595 82.5296 93.0558 79.8394 88.8525 80.6795C86.0805 81.2337 83.9516 83.182 83.0638 85.6309" stroke="#5784FF" stroke-width="1.08704" stroke-linecap="round" stroke-linejoin="round"/>
<path d="M97.7393 95.3917C98.156 93.8545 98.3824 92.2458 98.3915 90.6102" stroke="#5784FF" stroke-width="1.08704" stroke-linecap="round" stroke-linejoin="round"/>
</g>
<rect x="108" y="72" width="36" height="36" rx="13.5" fill="#EBF0FF"/>
<g clip-path="url(#clip5_487_518)">
<path d="M120.273 84.2727H131.727V95.7273" stroke="#5784FF" stroke-width="1.4" stroke-miterlimit="10"/>
<path d="M120.273 98.9995C122.08 98.9995 123.545 97.5342 123.545 95.7267C123.545 93.9193 122.08 92.454 120.273 92.454C118.465 92.454 117 93.9193 117 95.7267C117 97.5342 118.465 98.9995 120.273 98.9995Z" fill="#5784FF"/>
<path opacity="0.3" d="M120.273 98.9995C122.08 98.9995 123.545 97.5342 123.545 95.7267C123.545 93.9193 122.08 92.454 120.273 92.454C118.465 92.454 117 93.9193 117 95.7267C117 97.5342 118.465 98.9995 120.273 98.9995Z" fill="white"/>
<path d="M131.727 87.5455C133.535 87.5455 135 86.0802 135 84.2727C135 82.4652 133.535 81 131.727 81C129.92 81 128.455 82.4652 128.455 84.2727C128.455 86.0802 129.92 87.5455 131.727 87.5455Z" fill="#5784FF"/>
<path d="M131.727 99C133.535 99 135 97.5347 135 95.7273C135 93.9198 133.535 92.4545 131.727 92.4545C129.92 92.4545 128.455 93.9198 128.455 95.7273C128.455 97.5347 129.92 99 131.727 99Z" fill="#5784FF"/>
<path d="M120.273 87.5455C122.08 87.5455 123.545 86.0802 123.545 84.2727C123.545 82.4652 122.08 81 120.273 81C118.465 81 117 82.4652 117 84.2727C117 86.0802 118.465 87.5455 120.273 87.5455Z" fill="#5784FF"/>
<path d="M120.273 85.6643C121.041 85.6643 121.664 85.0415 121.664 84.2734C121.664 83.5052 121.041 82.8825 120.273 82.8825C119.504 82.8825 118.882 83.5052 118.882 84.2734C118.882 85.0415 119.504 85.6643 120.273 85.6643Z" fill="white"/>
<path d="M131.727 85.6643C132.495 85.6643 133.118 85.0415 133.118 84.2734C133.118 83.5052 132.495 82.8825 131.727 82.8825C130.959 82.8825 130.336 83.5052 130.336 84.2734C130.336 85.0415 130.959 85.6643 131.727 85.6643Z" fill="white"/>
<path d="M131.727 97.1188C132.495 97.1188 133.118 96.4961 133.118 95.7279C133.118 94.9597 132.495 94.337 131.727 94.337C130.959 94.337 130.336 94.9597 130.336 95.7279C130.336 96.4961 130.959 97.1188 131.727 97.1188Z" fill="white"/>
</g>
<rect x="144" y="72" width="36" height="36" rx="10.8" fill="#EBF0FF"/>
<g clip-path="url(#clip6_487_518)">
<path d="M159.37 83.85V82.43C159.37 80.98 160.55 79.8 162 79.8C163.45 79.8 164.63 80.98 164.63 82.43V83.85" stroke="#5784FF" stroke-width="1.6" stroke-linecap="round" stroke-linejoin="round"/>
<path d="M165.34 83.2H158.66C157.743 83.2 157 83.9432 157 84.86V89.14C157 90.0568 157.743 90.8 158.66 90.8H165.34C166.257 90.8 167 90.0568 167 89.14V84.86C167 83.9432 166.257 83.2 165.34 83.2Z" fill="#5784FF"/>
<path opacity="0.3" d="M165.34 83.2H158.66C157.743 83.2 157 83.9432 157 84.86V89.14C157 90.0568 157.743 90.8 158.66 90.8H165.34C166.257 90.8 167 90.0568 167 89.14V84.86C167 83.9432 166.257 83.2 165.34 83.2Z" fill="white"/>
<path d="M169 92.8H155C152.791 92.8 151 94.5909 151 96.8C151 99.0091 152.791 100.8 155 100.8H169C171.209 100.8 173 99.0091 173 96.8C173 94.5909 171.209 92.8 169 92.8Z" fill="#5784FF"/>
<path d="M155.49 98C156.153 98 156.69 97.4627 156.69 96.8C156.69 96.1373 156.153 95.6 155.49 95.6C154.827 95.6 154.29 96.1373 154.29 96.8C154.29 97.4627 154.827 98 155.49 98Z" fill="white"/>
<path d="M159.83 98C160.493 98 161.03 97.4627 161.03 96.8C161.03 96.1373 160.493 95.6 159.83 95.6C159.167 95.6 158.63 96.1373 158.63 96.8C158.63 97.4627 159.167 98 159.83 98Z" fill="white"/>
<path d="M164.17 98C164.833 98 165.37 97.4627 165.37 96.8C165.37 96.1373 164.833 95.6 164.17 95.6C163.507 95.6 162.97 96.1373 162.97 96.8C162.97 97.4627 163.507 98 164.17 98Z" fill="white"/>
<path d="M168.51 98C169.173 98 169.71 97.4627 169.71 96.8C169.71 96.1373 169.173 95.6 168.51 95.6C167.847 95.6 167.31 96.1373 167.31 96.8C167.31 97.4627 167.847 98 168.51 98Z" fill="white"/>
</g>
<rect x="180" y="72" width="36" height="36" rx="10.8" fill="#EBF0FF"/>
<g clip-path="url(#clip7_487_518)">
<path d="M197.641 89.0113C199.851 89.0113 201.641 87.2381 201.641 85.0519C201.641 82.8657 199.851 81.0925 197.641 81.0925C195.43 81.0925 193.641 82.8657 193.641 85.0519C193.641 87.2381 195.43 89.0113 197.641 89.0113ZM199.665 89.9992H195.617C192.872 89.9992 190.645 92.2258 190.645 94.9788V97.918C190.645 98.4605 191.09 98.9059 191.641 98.9059H203.649C204.2 98.9059 204.645 98.4605 204.645 97.9099V94.9707C204.645 92.2258 202.418 89.9992 199.673 89.9992H199.665Z" fill="#5784FF"/>
<path d="M195.212 94.1683L196.912 95.9902L200.07 92.9133" stroke="white" stroke-width="1.2" stroke-linecap="round" stroke-linejoin="round"/>
</g>
<rect x="216" y="72" width="36" height="36" rx="10.8" fill="#EBF0FF"/>
<g clip-path="url(#clip8_487_518)">
<path d="M239.588 81.2888H227.813C226.419 81.2888 225.289 82.4185 225.289 83.8121V95.5876C225.289 96.9812 226.419 98.1109 227.813 98.1109H239.588C240.982 98.1109 242.112 96.9812 242.112 95.5876V83.8121C242.112 82.4185 240.982 81.2888 239.588 81.2888Z" fill="#5784FF"/>
<path opacity="0.7" d="M239.588 81.2888H227.813C226.419 81.2888 225.289 82.4185 225.289 83.8121V95.5876C225.289 96.9812 226.419 98.1109 227.813 98.1109H239.588C240.982 98.1109 242.112 96.9812 242.112 95.5876V83.8121C242.112 82.4185 240.982 81.2888 239.588 81.2888Z" fill="white"/>
<path d="M225.289 85.4943V83.8121C225.289 82.4159 226.416 81.2888 227.813 81.2888H229.495" stroke="#5784FF" stroke-width="1.17756" stroke-linecap="round" stroke-linejoin="round"/>
<path d="M242.112 85.4943V83.8121C242.112 82.4159 240.985 81.2888 239.588 81.2888H237.906" stroke="#5784FF" stroke-width="1.17756" stroke-linecap="round" stroke-linejoin="round"/>
<path d="M242.112 93.9054V95.5876C242.112 96.9838 240.985 98.1109 239.588 98.1109H237.906" stroke="#5784FF" stroke-width="1.17756" stroke-linecap="round" stroke-linejoin="round"/>
<path d="M225.289 93.9054V95.5876C225.289 96.9838 226.416 98.1109 227.813 98.1109H229.495" stroke="#5784FF" stroke-width="1.17756" stroke-linecap="round" stroke-linejoin="round"/>
<path d="M232.28 86.1588C232.28 85.6943 231.903 85.3177 231.439 85.3177C230.974 85.3177 230.597 85.6943 230.597 86.1588V86.9999C230.597 87.4644 230.974 87.841 231.439 87.841C231.903 87.841 232.28 87.4644 232.28 86.9999V86.1588Z" fill="#5784FF"/>
<path d="M236.806 86.1588C236.806 85.6943 236.429 85.3177 235.965 85.3177C235.5 85.3177 235.123 85.6943 235.123 86.1588V86.9999C235.123 87.4644 235.5 87.841 235.965 87.841C236.429 87.841 236.806 87.4644 236.806 86.9999V86.1588Z" fill="#5784FF"/>
<path d="M237.485 90.2971C237.485 92.3915 235.795 94.0821 233.7 94.0821C231.606 94.0821 229.915 92.3915 229.915 90.2971" stroke="#5784FF" stroke-width="1.17756" stroke-linecap="round" stroke-linejoin="round"/>
<path d="M233.7 88.6065V90.7933" stroke="#5784FF" stroke-width="1.17756" stroke-linecap="round" stroke-linejoin="round"/>
</g>
<rect x="252" y="72" width="36" height="36" rx="10.8" fill="#EBF0FF"/>
<g clip-path="url(#clip9_487_518)">
<path d="M274.554 80.7901H265.807C264.083 80.7901 262.68 82.1838 262.68 83.8983V95.1025C262.68 96.817 264.083 98.2107 265.807 98.2107H273.123L277.689 93.6447V83.8983C277.689 82.1838 276.286 80.7901 274.563 80.7901H274.554Z" fill="#5784FF"/>
<path d="M268.447 85.8055L269.657 87.1166L271.913 84.8978" stroke="white" stroke-width="0.825184" stroke-linecap="round" stroke-linejoin="round"/>
<path d="M266.513 89.9681H273.848" stroke="white" stroke-width="0.825184" stroke-linecap="round" stroke-linejoin="round"/>
<path d="M266.513 92.2786H270.513" stroke="white" stroke-width="0.825184" stroke-linecap="round" stroke-linejoin="round"/>
<path d="M277.68 93.6539H274.013C273.508 93.6539 273.096 94.0665 273.096 94.5708V98.22" fill="#5784FF"/>
<path opacity="0.5" d="M277.68 93.6539H274.013C273.508 93.6539 273.096 94.0665 273.096 94.5708V98.22L277.68 93.6539Z" fill="white"/>
</g>
<path d="M74.25 113.625H105.75V133.875C105.75 136.36 103.735 138.375 101.25 138.375H78.75C76.2647 138.375 74.25 136.36 74.25 133.875V113.625Z" fill="#5784FF"/>
<rect x="74.25" y="113.625" width="31.5" height="4.5" fill="#89A9FF"/>
<g filter="url(#filter0_d_487_518)">
<path d="M85.5 124.875L87.75 130.5L90 126L92.25 130.5L94.5 124.875" stroke="white" stroke-width="1.6875" stroke-linecap="round" stroke-linejoin="round"/>
<path d="M93.9375 127.125H95.625" stroke="white" stroke-width="1.6875" stroke-linecap="round"/>
<path d="M84.375 127.125H86.0625" stroke="white" stroke-width="1.6875" stroke-linecap="round"/>
</g>
<rect x="66" y="109.5" width="33" height="24" rx="6" transform="rotate(90 66 109.5)" fill="#5784FF"/>
<path d="M50.5938 125.187L52.8438 127.437L58.0938 122.187" stroke="white" stroke-width="1.8" stroke-linecap="round" stroke-linejoin="round"/>
<path d="M42 136.5H66V142.5H42V136.5Z" fill="white" fill-opacity="0.3"/>
<rect opacity="0.3" x="51" y="112.5" width="6" height="1.5" rx="0.75" fill="white"/>
<rect x="2.25" y="114.75" width="31.5" height="22.5" rx="4.5" fill="#5784FF"/>
<path d="M2.25 121.5H33.75V124.875H2.25V121.5Z" fill="#89A9FF"/>
<rect x="24.75" y="129.375" width="4.5" height="3.375" rx="1.125" fill="white"/>
<circle cx="54" cy="18" r="14" fill="#0046FF"/>
<path d="M48.3945 18.7224L51.7773 22.3478L59.8913 13.6521" stroke="white" stroke-width="1.63333" stroke-linecap="round" stroke-linejoin="round"/>
<circle cx="54" cy="18" r="17" stroke="#0046FF" stroke-width="2"/>
<defs>
<filter id="filter0_d_487_518" x="82.4062" y="122.906" width="15.1875" height="9.56272" filterUnits="userSpaceOnUse" color-interpolation-filters="sRGB">
<feFlood flood-opacity="0" result="BackgroundImageFix"/>
<feColorMatrix in="SourceAlpha" type="matrix" values="0 0 0 0 0 0 0 0 0 0 0 0 0 0 0 0 0 0 127 0" result="hardAlpha"/>
<feOffset/>
<feGaussianBlur stdDeviation="0.5625"/>
<feComposite in2="hardAlpha" operator="out"/>
<feColorMatrix type="matrix" values="0 0 0 0 0.454167 0 0 0 0 0.2725 0 0 0 0 0 0 0 0 0.15 0"/>
<feBlend mode="normal" in2="BackgroundImageFix" result="effect1_dropShadow_487_518"/>
<feBlend mode="normal" in="SourceGraphic" in2="effect1_dropShadow_487_518" result="shape"/>
</filter>
<clipPath id="clip0_487_518">
<rect width="16" height="23" fill="white" transform="translate(10.5 41.7952)"/>
</clipPath>
<clipPath id="clip1_487_518">
<rect width="23" height="17" fill="white" transform="translate(42 46)"/>
</clipPath>
<clipPath id="clip2_487_518">
<rect width="18" height="18" fill="white" transform="translate(9 81)"/>
</clipPath>
<clipPath id="clip3_487_518">
<rect width="21.97" height="23.2" fill="white" transform="translate(43 78)"/>
</clipPath>
<clipPath id="clip4_487_518">
<rect width="18" height="18.9474" fill="white" transform="translate(80.9351 79.9912)"/>
</clipPath>
<clipPath id="clip5_487_518">
<rect width="18" height="18" fill="white" transform="translate(117 81)"/>
</clipPath>
<clipPath id="clip6_487_518">
<rect width="22" height="21.8" fill="white" transform="translate(151 79)"/>
</clipPath>
<clipPath id="clip7_487_518">
<rect width="14" height="17.8134" fill="white" transform="translate(190.645 81.0923)"/>
</clipPath>
<clipPath id="clip8_487_518">
<rect width="18" height="17.9997" fill="white" transform="translate(224.7 80.7002)"/>
</clipPath>
<clipPath id="clip9_487_518">
<rect width="15" height="17.4297" fill="white" transform="translate(262.68 80.7901)"/>
</clipPath>
</defs>
</svg>
