<svg width="273" height="22" viewBox="0 0 273 22" fill="none" xmlns="http://www.w3.org/2000/svg">
<path d="M30.5717 5.02321C30.5717 4.46587 30.5385 4.16154 30.2135 3.80587C30.0104 3.55287 30.147 3.31454 30.3834 3.31454H33.3305V5.56221C33.3305 7.78054 35.5132 9.08221 37.489 9.74221L36.7578 11.1135C36.5362 11.5205 35.7015 11.3665 34.2353 10.4719C33.4007 9.96587 32.5993 9.28754 32.0712 8.57621C31.4396 9.47087 30.6567 10.2152 29.7555 10.8092C28.7178 11.4839 27.3882 12.1292 27.1666 11.7039L26.3837 10.2335C28.6513 9.35354 30.5754 7.88321 30.5754 5.73454V5.02321H30.5717ZM41.7842 16.8482V18.7585H32.0564C29.9956 18.7585 29.1757 18.2342 29.1757 16.5255V14.0725C29.1757 13.7352 29.0575 13.4822 28.8175 13.1925C28.6107 12.9395 28.751 12.7012 28.9874 12.7012H31.8828V16.1699C31.8828 16.6942 32.0527 16.8482 32.5808 16.8482H41.7805H41.7842ZM38.8185 13.5665V4.77021C38.8185 4.17987 38.7151 3.87554 38.3938 3.51987C38.1907 3.26687 38.3274 3.04688 38.5822 3.04688H41.4961V13.5702H38.8222L38.8185 13.5665Z" fill="#0046FF"/>
<path d="M47.4199 4.29731C47.4199 3.70331 47.3867 3.43564 47.0617 3.04697C46.8401 2.79397 46.9767 2.57397 47.2316 2.57397H50.1455V4.46964H54.0122V6.32864H52.2247C52.7528 6.92264 53.0778 7.64864 53.0778 8.51031C53.0778 10.6406 51.4935 12.265 48.6645 12.265C45.8355 12.265 44.2512 10.6406 44.2512 8.51031C44.2512 7.63031 44.5577 6.90431 45.0674 6.32864H43.2799V4.46964H47.4199V4.30097V4.29731ZM58.2741 16.8483V18.7586H48.7162C46.6554 18.7586 45.8355 18.2343 45.8355 16.5256V14.751C45.8355 14.4136 45.7174 14.157 45.4773 13.871C45.2742 13.618 45.4108 13.3796 45.6472 13.3796H48.5463V16.17C48.5463 16.6943 48.7162 16.8483 49.2443 16.8483H58.2741ZM50.5222 8.42231C50.5222 7.27097 49.8426 6.39097 48.6645 6.39097C47.4864 6.39097 46.8068 7.27097 46.8068 8.42231C46.8068 9.50397 47.4716 10.4023 48.6645 10.4023C49.8574 10.4023 50.5222 9.50764 50.5222 8.42231ZM55.3934 13.8013V4.77031C55.3934 4.17997 55.3085 3.90864 54.9835 3.51997C54.7619 3.26697 54.8985 3.04697 55.1534 3.04697H58.0673V7.03997H60.0099V8.95031H58.0673V13.805H55.3897L55.3934 13.8013Z" fill="#0046FF"/>
<path d="M61.3577 17.0867V5.59905C61.3577 5.02338 61.2543 4.73738 60.933 4.38171C60.7262 4.12871 60.8628 3.89038 61.1029 3.89038H69.298V5.87038H64.135V9.48938H68.8216V11.4694H64.135V15.1214H69.671V17.083H61.3577V17.0867Z" fill="#0046FF"/>
<path d="M74.1512 15.125H79.7907V17.0867H70.6907V15.664L76.4151 5.87038H70.9456V3.89038H79.6688V5.34605C79.6688 5.75305 79.5137 6.09038 79.329 6.39471L74.1475 15.125H74.1512Z" fill="#0046FF"/>
<path d="M87.4242 10.4207C87.4242 9.82665 87.3207 9.52598 86.9994 9.17032C86.7926 8.91732 86.933 8.69732 87.1878 8.69732H90.1866V10.8643H96.9156V12.6903H80.6768V10.8643H87.4242V10.4243V10.4207ZM81.5299 7.79898C84.6137 7.29298 87.4242 5.90332 87.4242 4.56865V4.24598C87.4242 3.95998 87.269 3.68865 87.0327 3.45032C86.7926 3.21198 86.9145 2.95898 87.1693 2.95898H90.0832V4.56498C90.0832 5.66498 92.7755 7.18665 95.8926 7.71098L95.2795 9.23265C95.1428 9.55532 94.1383 9.47098 92.1957 8.74132C90.7997 8.21698 89.5883 7.60832 88.7389 6.83098C87.9707 7.57532 87.0844 8.08132 85.825 8.62398C84.1557 9.33532 82.3498 9.69098 82.1614 9.25098L81.5299 7.79532V7.79898ZM82.7228 15.1067C82.7228 14.7693 82.6046 14.5127 82.3645 14.2267C82.1614 13.9737 82.2981 13.7353 82.5344 13.7353H85.4299V16.357C85.4299 16.7127 85.6514 16.8483 85.958 16.8483H95.2795V18.7587H84.7651C83.454 18.7587 82.7191 17.9813 82.7191 16.83V15.103L82.7228 15.1067Z" fill="#0046FF"/>
<path d="M100.83 4.56857C100.83 3.9599 100.727 3.60424 100.49 3.2999C100.287 3.02857 100.405 2.8269 100.679 2.8269H103.423V5.2139H106.285V7.12424H97.6133V5.2139H100.834V4.57224L100.83 4.56857ZM102.108 7.6999C104.8 7.6999 106.181 9.40857 106.181 11.9129C106.181 14.4172 104.8 16.1259 102.108 16.1259C99.4155 16.1259 98.0343 14.4172 98.0343 11.9129C98.0343 9.40857 99.4155 7.6999 102.108 7.6999ZM102.108 9.57724C100.948 9.57724 100.457 10.4719 100.457 11.9129C100.457 13.3539 100.952 14.2486 102.108 14.2486C103.264 14.2486 103.759 13.3539 103.759 11.9129C103.759 10.4719 103.264 9.57724 102.108 9.57724ZM107.238 4.89124C107.238 4.28257 107.134 3.9269 106.898 3.62257C106.695 3.35124 106.813 3.14957 107.086 3.14957H109.712V8.68257H111.16V3.05057H113.645V18.9712H111.16V10.7652H109.712V18.5129H107.241V4.88757L107.238 4.89124Z" fill="#0046FF"/>
<path d="M119.54 12.8553C117.512 12.8553 116.607 12.265 116.607 10.6406V5.29463C116.607 4.73729 116.489 4.44763 116.164 4.05896C115.961 3.78763 116.079 3.56763 116.334 3.56763H119.248V6.51196H126.302V3.56763H128.943V12.8553H124.256V15.5613H130.985V17.4716H114.746V15.5613H121.493V12.8553H119.532H119.54ZM126.306 10.9596V8.38929H119.252V9.94763C119.252 10.538 119.422 10.9633 120.223 10.9633H126.306V10.9596Z" fill="#0046FF"/>
<path d="M135.926 4.29731C135.926 3.70331 135.893 3.43564 135.568 3.04697C135.347 2.79397 135.483 2.57397 135.738 2.57397H138.652V4.46964H142.519V6.32864H140.765C141.274 6.90431 141.584 7.61564 141.584 8.45897C141.584 10.5893 139.915 12.1623 137.171 12.1623C134.427 12.1623 132.758 10.5893 132.758 8.45897C132.758 7.59731 133.064 6.88597 133.559 6.32864H131.786V4.46964H135.926V4.30097V4.29731ZM137.921 18.8466C135.86 18.8466 135.007 18.4066 135.007 16.698V14.4136C135.007 14.0763 134.889 13.8196 134.649 13.5336C134.446 13.2806 134.582 13.0423 134.819 13.0423H146.832C147.106 13.0423 147.224 13.1266 147.224 13.4163V18.8466H137.921ZM139.029 8.37464C139.029 7.25997 138.346 6.39464 137.171 6.39464C135.997 6.39464 135.313 7.25631 135.313 8.37464C135.313 9.42331 135.978 10.3216 137.171 10.3216C138.364 10.3216 139.029 9.42697 139.029 8.37464ZM144.602 17.0206V14.8536H137.633V16.324C137.633 16.9326 137.854 17.017 138.416 17.017H144.602V17.0206ZM144.535 12.0633V9.42331H142.268V7.51297H144.535V4.77397C144.535 4.18364 144.45 3.91231 144.125 3.52364C143.904 3.27064 144.04 3.05064 144.295 3.05064H147.209V12.067H144.535V12.0633Z" fill="#0046FF"/>
<path d="M255.124 5.14457H251.719V3.2154H261.246V5.14457H257.927V7.97857C257.927 9.83946 258.597 11.2735 259.835 12.4857C260.506 13.1003 261.28 13.6807 262.088 14.1417L261.091 15.6611C260.85 16.0367 259.732 15.3538 258.563 14.2441C257.892 13.6124 256.998 12.5027 256.671 11.6491C256.259 12.6393 255.33 13.8856 254.419 14.7051C253.164 15.8489 252.201 16.5147 251.943 16.1904L250.739 14.7221C251.633 14.1587 252.355 13.5612 253.06 12.8613C254.505 11.4443 255.124 9.97603 255.124 7.99565V5.14457ZM265.613 18.6317H262.914V4.3251C262.914 3.72757 262.828 3.45441 262.501 3.06175C262.294 2.80566 262.415 2.56665 262.673 2.56665H265.613V7.9615H267.849V9.92482H265.613V18.6317Z" fill="black"/>
<path d="M249.105 18.6317H246.406V4.3251C246.406 3.72757 246.32 3.45441 245.993 3.06175C245.769 2.80566 245.907 2.56665 246.165 2.56665H249.105V18.6317ZM245.03 14.1075V15.5416C244.531 15.9001 243.654 15.9855 242.502 15.9855H237.017C235.865 15.9855 234.953 15.2002 234.953 14.0392V10.3346C234.953 9.77117 234.833 9.44679 234.506 9.05413C234.3 8.78097 234.42 8.55903 234.678 8.55903H240.748V5.09335H234.919V3.2154H243.035C243.31 3.2154 243.431 3.30076 243.431 3.59099V10.3858H237.636V13.51C237.636 13.9197 237.842 14.1075 238.289 14.1075H245.03Z" fill="black"/>
<path d="M219.77 10.2492V8.71268C219.77 8.09808 219.666 7.73956 219.426 7.43226C219.219 7.1591 219.34 6.95424 219.615 6.95424H222.521V10.2492H228.729V4.30803C228.729 3.7105 228.643 3.43734 228.316 3.04468C228.092 2.78859 228.23 2.56665 228.488 2.56665H231.377V6.97131H233.371V8.90048H231.377V14.1075H228.729V11.9052C228.213 12.0759 227.525 12.1101 226.7 12.1101H216.743V10.2492H219.77ZM218.669 16.4806V14.7221C218.669 14.3807 218.549 14.1246 218.308 13.8344C218.102 13.5783 218.239 13.3393 218.48 13.3393H221.403V16.0367C221.403 16.3952 221.627 16.5318 221.936 16.5318H231.549V18.4268H220.733C219.409 18.4268 218.669 17.6415 218.669 16.4806ZM224.327 9.15656L224.567 5.36651C224.584 5.1275 224.447 5.00799 224.155 5.00799H217.689V3.16418H225.118C226.957 3.16418 227.301 3.59099 227.164 5.16164L226.871 9.15656H224.327Z" fill="black"/>
<path d="M204.797 16.8903H214.272V18.7H203.353C202.166 18.7 201.719 18.2049 201.719 17.1806V16.0026C201.719 15.4392 201.599 15.1148 201.272 14.7221C201.066 14.449 201.186 14.227 201.444 14.227H211.297V13.271H201.668V11.4784H213.653C213.928 11.4784 214.048 11.5638 214.048 11.854V15.9172H204.47V16.5659C204.47 16.805 204.556 16.8903 204.797 16.8903ZM202.304 7.50055V8.06394C202.304 8.55903 202.493 8.72976 202.974 8.72976H209.526V10.0443C209.027 10.4028 208.15 10.4882 206.998 10.4882H201.668C200.447 10.4882 199.604 9.61752 199.604 8.54196V4.59826C199.604 4.00072 199.518 3.69342 199.174 3.3349C198.968 3.07882 199.105 2.83981 199.363 2.83981H208.339V4.58118H202.304V5.81039H207.291V7.50055H202.304ZM208.683 7.60298V5.67381H211.349V4.30803C211.349 3.7105 211.263 3.43734 210.936 3.04468C210.712 2.78859 210.85 2.56665 211.108 2.56665H214.048V10.5736H211.349V7.60298H208.683Z" fill="black"/>
<path d="M185.142 10.4712V7.63715C185.142 7.07376 185.125 6.80061 184.799 6.40794C184.592 6.13478 184.713 5.91285 184.971 5.91285H187.825V10.4712H191.9V5.91285H194.583V10.4712H196.646V12.4003H191.23V15.2002H198.022V17.1294H181.635V15.2002H188.444V12.4003H182.993V10.4712H185.142ZM196.767 3.30078V5.22995H182.873V3.30078H196.767Z" fill="black"/>
<path d="M179.634 16.7366H176.831V5.14447C176.831 4.56401 176.728 4.27378 176.401 3.91526C176.195 3.65918 176.315 3.42017 176.573 3.42017H179.634V16.7366Z" fill="black"/>
<path d="M164.978 3.44775H170.481C173.335 3.44775 174.917 5.13791 174.917 7.66461C174.917 10.2084 173.335 11.8644 170.481 11.8644H168.039V16.7642H165.236V5.17206C165.236 4.5916 165.133 4.30137 164.806 3.94285C164.6 3.68677 164.737 3.44775 164.978 3.44775ZM168.039 5.44521V9.88402H169.776C171.254 9.88402 172.114 9.16698 172.114 7.66461C172.114 6.16225 171.254 5.44521 169.776 5.44521H168.039Z" fill="black"/>
<path d="M151.05 16.7642L155.452 5.61594C155.727 4.88183 155.658 4.43795 155.452 4.04528C155.229 3.66969 155.315 3.44775 155.779 3.44775H158.341L163.5 16.7642H160.697L159.338 13.0595H155.177L153.836 16.7642H151.05ZM157.24 7.20366L155.899 11.0279H158.599L157.24 7.20366Z" fill="black"/>
<path d="M10.9908 0C4.92298 0 0 4.88767 0 10.912C0 16.9363 4.92298 21.824 10.9908 21.824C17.0587 21.824 21.9817 16.9363 21.9817 10.912C21.9817 4.88767 17.0624 0 10.9908 0ZM11.2198 19.8257C9.90504 20.009 7.76301 19.679 6.31529 18.766C5.04485 17.9703 4.28775 16.973 3.79656 15.961C3.29429 14.927 3.05793 13.673 3.59344 13.7353C3.84457 13.7647 4.05878 14.234 4.54258 14.8463C4.87127 15.2643 5.1778 15.6163 5.40678 15.6677C5.51019 15.6897 5.59513 15.642 5.66899 15.5063C5.80564 15.246 5.9903 14.7547 6.31899 14.355C6.58489 14.0507 6.9062 13.9077 7.09455 14.652C7.18319 15.0223 7.25705 15.4073 7.29767 15.741C7.35676 16.214 7.38631 16.4963 7.5525 16.5733C7.71131 16.6503 7.97721 16.5513 8.41301 16.39C8.72323 16.2763 9.12209 16.1297 9.62805 15.9867C10.0934 15.8547 10.3888 15.9243 10.0897 16.6393C9.94936 16.9767 9.80533 17.2627 9.30306 17.9813C9.21442 18.1097 9.23289 18.2343 9.33999 18.3407C9.50987 18.5057 9.89027 18.7073 10.3113 18.8907C10.6474 19.0337 11.0462 19.162 11.3121 19.2353C11.7258 19.3527 11.6445 19.767 11.2272 19.8257H11.2198ZM16.8593 17.479C16.4493 18.139 15.5925 18.854 14.551 19.3307C14.3922 19.4003 14.226 19.3783 14.1817 19.25C14.1448 19.14 14.2334 19.0117 14.3368 18.8907C15.6922 17.1453 14.684 15.543 12.4976 14.3037C10.88 13.387 9.85334 12.859 8.66045 12.1623C5.16672 10.12 4.49088 8.338 4.35423 7.28567C4.01077 4.62733 6.22666 2.63267 8.50164 2.15233C8.57181 2.13767 8.75278 2.10833 8.81187 2.25867C8.87096 2.409 8.73431 2.519 8.65675 2.56667C7.63744 3.124 6.6366 4.30467 6.74739 5.61733C6.80648 6.35067 7.12409 7.40667 9.12578 8.822C10.3334 9.67633 11.8107 10.3767 14.7911 12.1513C17.9413 14.025 17.5831 16.313 16.8593 17.4753V17.479ZM17.3504 7.49833C16.6303 8.371 15.9138 8.04833 15.3598 6.81633C15.0164 6.05 14.5621 5.863 14.2408 6.06467C13.89 6.28467 14.0303 6.809 14.4218 7.414C14.6766 7.81 14.5621 8.27567 14.2962 8.55067C14.0155 8.84033 13.5613 8.954 13.0627 8.84767C12.1763 8.65333 11.3047 7.47633 11.94 4.90233C12.1985 3.86467 11.6962 3.421 11.3749 3.02133C11.2161 2.82333 11.1976 2.70233 11.253 2.62167C11.3158 2.53367 11.4636 2.52633 11.7221 2.58133C12.0618 2.651 12.5678 2.827 12.9814 2.88933C13.2547 2.93333 13.565 2.94433 13.89 2.92967C14.7726 2.89667 15.4263 3.03233 16.0911 3.35867C17.2212 3.916 17.3394 4.873 16.7078 4.796C16.4899 4.77033 16.2093 4.60533 15.9766 4.49533C15.8215 4.422 15.6885 4.39633 15.5888 4.466C15.4965 4.532 15.4559 4.67133 15.5223 4.81067C15.6627 5.104 16.1391 5.25433 16.7817 5.434C17.9081 5.742 17.9303 6.77967 17.3431 7.49833H17.3504Z" fill="#0046FF"/>
</svg>
