<svg width="640" height="640" viewBox="0 0 640 640" fill="none" xmlns="http://www.w3.org/2000/svg">
<circle cx="160" cy="32" r="32" fill="#F5002C"/>
<path d="M162.76 36.2184C162.76 37.7429 161.524 38.9788 159.999 38.9788C158.475 38.9788 157.239 37.7429 157.239 36.2184L157.239 16.7215C157.239 15.197 158.475 13.9611 159.999 13.9611C161.524 13.9611 162.76 15.197 162.76 16.7215L162.76 36.2184Z" fill="white"/>
<ellipse cx="159.999" cy="44.5858" rx="2.7604" ry="2.80353" transform="rotate(-180 159.999 44.5858)" fill="white"/>
<circle cx="96" cy="32" r="32" fill="#C4C8D4"/>
<path d="M93.2383 25.132C93.2383 23.6075 94.4742 22.3716 95.9987 22.3716C97.5232 22.3716 98.7591 23.6075 98.7591 25.132L98.7591 44.6288C98.7591 46.1534 97.5232 47.3892 95.9987 47.3892C94.4742 47.3892 93.2383 46.1534 93.2383 44.6288L93.2383 25.132Z" fill="white"/>
<ellipse cx="95.9987" cy="16.7646" rx="2.7604" ry="2.80353" fill="white"/>
<circle cx="32" cy="32" r="32" fill="#0055FF"/>
<path d="M19.1875 33.6512L26.9195 41.9379L45.4658 22.0621" stroke="white" stroke-width="4" stroke-linecap="round" stroke-linejoin="round"/>
<rect y="64" width="64" height="64" rx="21.3333" fill="#EBF0FF"/>
<g clip-path="url(#clip0_487_489)">
<path d="M26.11 96.89H21C18.2386 96.89 16 99.1286 16 101.89V107C16 109.761 18.2386 112 21 112H26.11C28.8714 112 31.11 109.761 31.11 107V101.89C31.11 99.1286 28.8714 96.89 26.11 96.89Z" fill="#AAC6FF"/>
<path d="M26.11 80H21C18.2386 80 16 82.2386 16 85V90.11C16 92.8714 18.2386 95.11 21 95.11H26.11C28.8714 95.11 31.11 92.8714 31.11 90.11V85C31.11 82.2386 28.8714 80 26.11 80Z" fill="#AAC6FF"/>
<path d="M43.0006 96.89H37.8906C35.1292 96.89 32.8906 99.1286 32.8906 101.89V107C32.8906 109.761 35.1292 112 37.8906 112H43.0006C45.762 112 48.0006 109.761 48.0006 107V101.89C48.0006 99.1286 45.762 96.89 43.0006 96.89Z" fill="#0046FF"/>
<path d="M20 87.56H27.11" stroke="white" stroke-width="2.66667" stroke-linecap="round" stroke-linejoin="round"/>
<path d="M43.0006 80H37.8906C35.1292 80 32.8906 82.2386 32.8906 85V90.11C32.8906 92.8714 35.1292 95.11 37.8906 95.11H43.0006C45.762 95.11 48.0006 92.8714 48.0006 90.11V85C48.0006 82.2386 45.762 80 43.0006 80Z" fill="#AAC6FF"/>
<path d="M36.8906 87.5599H44.0006" stroke="white" stroke-width="2.66667" stroke-linecap="round" stroke-linejoin="round"/>
<path d="M36.8924 102.67H44.0024" stroke="white" stroke-width="2.66667" stroke-linecap="round" stroke-linejoin="round"/>
<path d="M36.8924 106.22H44.0024" stroke="white" stroke-width="2.66667" stroke-linecap="round" stroke-linejoin="round"/>
<path d="M23.56 91.11V84" stroke="white" stroke-width="2.66667" stroke-linecap="round" stroke-linejoin="round"/>
<path d="M21.0391 106.96L26.0691 101.93" stroke="white" stroke-width="2.66667" stroke-linecap="round" stroke-linejoin="round"/>
<path d="M26.0691 106.96L21.0391 101.93" stroke="white" stroke-width="2.66667" stroke-linecap="round" stroke-linejoin="round"/>
</g>
<rect x="9.68221" y="233.152" width="9.18498" height="16.533" rx="4.59249" fill="#2E55C1"/>
<rect x="45.6417" y="233.152" width="9.18498" height="16.533" rx="4.59249" fill="#2E55C1"/>
<g filter="url(#filter0_ii_487_489)">
<path fill-rule="evenodd" clip-rule="evenodd" d="M21.508 204.119C17.841 204.119 14.7072 206.761 14.0871 210.375L12.2662 220.988C9.00234 221.812 6.58686 224.768 6.58686 228.288V241.446C6.58686 242.486 7.42962 243.328 8.46921 243.328H55.528C56.5676 243.328 57.4104 242.486 57.4104 241.446V228.288C57.4104 224.797 55.0348 221.861 51.8121 221.009L49.9876 210.375C49.3675 206.761 46.2337 204.119 42.5666 204.119H21.508Z" fill="url(#paint0_linear_487_489)"/>
</g>
<path opacity="0.4" d="M6.58651 236.236H57.41V241.431C57.41 242.471 56.5673 243.314 55.5277 243.314H8.46887C7.42928 243.314 6.58651 242.471 6.58651 241.431V236.236Z" fill="#0046FF"/>
<circle cx="17.4619" cy="229.567" r="2.82353" fill="white"/>
<circle cx="47.9582" cy="229.567" r="2.82353" fill="white"/>
<rect x="23.5796" y="228.935" width="16.6029" height="1.125" rx="0.5625" fill="white"/>
<g filter="url(#filter1_i_487_489)">
<path fill-rule="evenodd" clip-rule="evenodd" d="M45.9501 220.959H17.7632C17.65 220.513 17.6172 220.037 17.6803 219.549L18.5882 212.534C18.8311 210.658 20.4294 209.253 22.3217 209.253H41.3915C43.2839 209.253 44.8822 210.658 45.1251 212.534L46.033 219.549C46.0961 220.037 46.0633 220.513 45.9501 220.959Z" fill="url(#paint1_linear_487_489)"/>
</g>
<rect x="0.233456" y="192" width="63.9998" height="63.9998" fill="white"/>
<g style="mix-blend-mode:multiply" opacity="0.3" filter="url(#filter2_f_487_489)">
<rect x="12.1356" y="241.993" width="42.3513" height="4.83915" rx="2.41957" fill="#20448A"/>
</g>
<g filter="url(#filter3_i_487_489)">
<path d="M18.5841 205.884C19.1473 204.865 20.2202 204.232 21.3852 204.232H44.8315C46.0986 204.232 47.2464 204.979 47.7585 206.138L54.6997 221.847H9.76746L18.5841 205.884Z" fill="#C5D6F0"/>
</g>
<g filter="url(#filter4_i_487_489)">
<rect x="19.2317" y="207.688" width="26.0038" height="30.0573" rx="2.13333" fill="url(#paint2_linear_487_489)"/>
<rect x="19.2317" y="207.688" width="26.0038" height="30.0573" rx="2.13333" fill="#BEC6D7" fill-opacity="0.2"/>
</g>
<g filter="url(#filter5_i_487_489)">
<rect x="17.2537" y="212.188" width="30.1176" height="29.1765" rx="2.13333" fill="url(#paint3_linear_487_489)"/>
</g>
<path d="M21.1752 224.423C21.1752 224.423 21.1752 224.423 21.1752 224.423C21.1752 224.423 20.5478 224.423 20.5478 223.796C20.5478 223.169 21.1752 221.286 24.3125 221.286C27.4498 221.286 28.0772 223.169 28.0772 223.796C28.0772 224.423 27.4498 224.423 27.4498 224.423C27.4498 224.423 27.4498 224.423 27.4498 224.423H21.1752ZM24.3125 220.659C24.8117 220.659 25.2905 220.46 25.6435 220.107C25.9965 219.754 26.1949 219.276 26.1949 218.776C26.1949 218.277 25.9965 217.798 25.6435 217.445C25.2905 217.092 24.8117 216.894 24.3125 216.894C23.8133 216.894 23.3345 217.092 22.9815 217.445C22.6285 217.798 22.4302 218.277 22.4302 218.776C22.4302 219.276 22.6285 219.754 22.9815 220.107C23.3345 220.46 23.8133 220.659 24.3125 220.659Z" fill="#97B6E0"/>
<g style="mix-blend-mode:multiply" opacity="0.56">
<path d="M32.1847 217.874H36.3198" stroke="#BDCDE6" stroke-width="1.71297" stroke-linecap="round"/>
</g>
<g style="mix-blend-mode:multiply" opacity="0.56">
<path d="M32.1847 221.517H42.8905" stroke="#BDCDE6" stroke-width="1.71297" stroke-linecap="round"/>
</g>
<g style="mix-blend-mode:multiply" opacity="0.56">
<path d="M32.1847 225.162H42.8905" stroke="#BDCDE6" stroke-width="1.71297" stroke-linecap="round"/>
</g>
<g style="mix-blend-mode:multiply" opacity="0.56">
<path d="M30.7729 228.808H41.4786" stroke="#BDCDE6" stroke-width="1.71297" stroke-linecap="round"/>
</g>
<path fill-rule="evenodd" clip-rule="evenodd" d="M20.8628 221.851C22.1467 221.851 23.1874 222.892 23.1874 224.176C23.1874 226.325 24.9298 228.068 27.0792 228.068H37.3879C39.5373 228.068 41.2797 226.325 41.2797 224.176C41.2797 222.892 42.3205 221.851 43.6043 221.851H54.6997V240.764C54.6997 243.72 52.3038 246.115 49.3484 246.115H15.1187C12.1633 246.115 9.76746 243.72 9.76746 240.764V221.851H20.8628ZM28.6608 233.853C27.8984 233.853 27.2803 234.471 27.2803 235.233C27.2803 235.996 27.8984 236.614 28.6608 236.614H35.1287C35.8911 236.614 36.5092 235.996 36.5092 235.233C36.5092 234.471 35.8911 233.853 35.1287 233.853H28.6608Z" fill="url(#paint4_linear_487_489)"/>
<g style="mix-blend-mode:multiply" opacity="0.3" filter="url(#filter6_f_487_489)">
<ellipse cx="46.4301" cy="209.835" rx="10.3529" ry="10.353" fill="#FF7A85"/>
</g>
<ellipse cx="49.2537" cy="207.011" rx="10.3529" ry="10.353" fill="#FF7A85"/>
<rect x="48.0584" y="202.515" width="1.92572" height="8.31863" rx="0.96286" fill="white"/>
<rect x="53.181" y="205.721" width="1.92573" height="8.31858" rx="0.962865" transform="rotate(90 53.181 205.721)" fill="white"/>
<g opacity="0.6">
<rect width="64" height="64" transform="translate(0.234375 192)" fill="#F1F1F1"/>
<path d="M14.3778 219.195V217.191H24.9844V219.195H20.8851V230.5H18.4954V219.195H14.3778ZM26.6711 230.5V217.191H31.7631C34.6491 217.191 36.0737 218.662 36.0829 220.647C36.0737 222.265 35.0535 223.165 33.7483 223.478V223.607C35.1638 223.68 36.5976 224.857 36.5976 226.879C36.5976 228.947 35.0994 230.5 32.0572 230.5H26.6711ZM29.0608 228.496H31.6895C33.4358 228.496 34.1619 227.752 34.1711 226.695C34.1619 225.5 33.2336 224.59 31.7447 224.581H29.0608V228.496ZM29.0608 222.853H31.4689C32.7281 222.853 33.684 222.127 33.6932 220.941C33.684 219.921 32.9487 219.176 31.5241 219.176H29.0608V222.853ZM42.88 230.5H38.3579V217.191H42.9535C46.9241 217.191 49.323 219.682 49.3322 223.827C49.323 227.991 46.9241 230.5 42.88 230.5ZM40.7476 228.423H42.7513C45.5362 228.432 46.9425 226.897 46.9425 223.827C46.9425 220.776 45.5362 219.259 42.8248 219.268H40.7476V228.423Z" fill="#414141" fill-opacity="0.2"/>
</g>
<rect x="192" y="128" width="64" height="64" rx="20" fill="#00C300"/>
<path d="M229.068 161.476L218.518 145.778H209.777V175.111H218.931V159.413L229.482 175.111H238.222V145.778H229.068V161.476Z" fill="white"/>
<rect x="128" y="128" width="64" height="64" rx="20" fill="#202632"/>
<path d="M162.134 150.501L163.77 142.876C163.841 142.485 163.521 142.148 163.129 142.237C160.765 142.663 158.311 143.392 155.876 144.423C144.923 149.026 138.292 158.072 141.083 164.612C143.181 169.517 149.991 171.614 157.885 170.388L156.249 178.013C156.178 178.404 156.498 178.741 156.889 178.652C159.254 178.226 161.707 177.497 164.143 176.466C175.095 171.863 181.709 162.817 178.917 156.259C176.837 151.372 170.028 149.274 162.134 150.501Z" fill="white"/>
<rect x="64" y="128" width="64" height="64" rx="20" fill="#FAE100"/>
<path d="M95.1203 142.222C83.8243 142.222 74.668 149.406 74.668 158.284C74.668 164.053 78.5539 169.122 84.375 171.952C83.9502 173.538 82.8332 177.689 82.5972 178.591C82.314 179.695 83.0062 179.68 83.4467 179.384C83.7928 179.151 89.0475 175.606 91.313 174.067C92.5401 174.253 93.8145 174.346 95.1045 174.346C106.401 174.346 115.557 167.163 115.557 158.284C115.557 149.406 106.401 142.222 95.1045 142.222" fill="#371D1E"/>
<rect y="128" width="64" height="64" rx="20" fill="#0046FF"/>
<path d="M32.0004 142.222C22.1856 142.222 14.2227 150.185 14.2227 160C14.2227 169.815 22.1856 177.778 32.0004 177.778C41.8152 177.778 49.7782 169.815 49.7782 160C49.7782 150.185 41.8212 142.222 32.0004 142.222ZM32.3708 174.522C30.2442 174.821 26.7794 174.283 24.4377 172.796C22.3828 171.499 21.1581 169.875 20.3636 168.226C19.5512 166.541 19.1689 164.498 20.0351 164.6C20.4413 164.648 20.7878 165.412 21.5703 166.41C22.102 167.091 22.5978 167.664 22.9682 167.748C23.1354 167.784 23.2728 167.706 23.3923 167.485C23.6133 167.061 23.912 166.26 24.4437 165.609C24.8738 165.114 25.3935 164.881 25.6982 166.093C25.8415 166.697 25.961 167.324 26.0267 167.867C26.1223 168.638 26.1701 169.098 26.4389 169.223C26.6958 169.349 27.1259 169.188 27.8308 168.925C28.3326 168.74 28.9777 168.501 29.7961 168.268C30.5488 168.053 31.0267 168.166 30.5428 169.331C30.3158 169.881 30.0829 170.346 29.2704 171.517C29.1271 171.726 29.1569 171.93 29.3302 172.103C29.605 172.372 30.2203 172.7 30.9013 172.999C31.4449 173.232 32.09 173.441 32.5201 173.56C33.1892 173.752 33.0578 174.427 32.3828 174.522H32.3708ZM41.4927 170.699C40.8296 171.774 39.4437 172.939 37.7591 173.716C37.5022 173.829 37.2334 173.793 37.1617 173.584C37.102 173.405 37.2454 173.196 37.4126 172.999C39.605 170.155 37.9742 167.545 34.4377 165.526C31.8212 164.032 30.1605 163.172 28.231 162.037C22.5799 158.71 21.4867 155.806 21.2657 154.092C20.7101 149.761 24.2943 146.511 27.9742 145.729C28.0877 145.705 28.3804 145.657 28.4759 145.902C28.5715 146.147 28.3505 146.326 28.225 146.404C26.5763 147.312 24.9574 149.235 25.1366 151.374C25.2322 152.569 25.746 154.289 28.9837 156.595C30.9371 157.987 33.3266 159.128 38.1474 162.019C43.243 165.072 42.6635 168.799 41.4927 170.693V170.699ZM42.2872 154.438C41.1223 155.86 39.9634 155.335 39.0673 153.327C38.5118 152.079 37.777 151.774 37.2573 152.103C36.6898 152.461 36.9168 153.315 37.55 154.301C37.9622 154.946 37.777 155.705 37.3469 156.153C36.8929 156.625 36.1581 156.81 35.3517 156.637C33.918 156.32 32.5082 154.403 33.5357 150.209C33.9538 148.519 33.1414 147.796 32.6217 147.145C32.3648 146.822 32.335 146.625 32.4246 146.493C32.5261 146.35 32.7651 146.338 33.1832 146.428C33.7328 146.541 34.5512 146.828 35.2203 146.93C35.6623 147.001 36.1641 147.019 36.6898 146.995C38.1175 146.941 39.1749 147.162 40.2501 147.694C42.0781 148.602 42.2693 150.161 41.2477 150.036C40.8953 149.994 40.4413 149.725 40.0649 149.546C39.8141 149.427 39.599 149.385 39.4377 149.498C39.2884 149.606 39.2227 149.833 39.3302 150.06C39.5572 150.538 40.3278 150.783 41.3672 151.075C43.1892 151.577 43.225 153.268 42.2752 154.438H42.2872Z" fill="white"/>
<rect x="512" y="64" width="64" height="64" rx="20" fill="#EBF0FF"/>
<g clip-path="url(#clip1_487_489)">
<path d="M553.934 80.5135H533C530.522 80.5135 528.514 82.5219 528.514 84.9994V105.934C528.514 108.411 530.522 110.42 533 110.42H553.934C556.412 110.42 558.42 108.411 558.42 105.934V84.9994C558.42 82.5219 556.412 80.5135 553.934 80.5135Z" fill="#5784FF"/>
<path opacity="0.7" d="M553.934 80.5135H533C530.522 80.5135 528.514 82.5219 528.514 84.9994V105.934C528.514 108.411 530.522 110.42 533 110.42H553.934C556.412 110.42 558.42 108.411 558.42 105.934V84.9994C558.42 82.5219 556.412 80.5135 553.934 80.5135Z" fill="white"/>
<path d="M528.514 87.99V84.9994C528.514 82.5172 530.517 80.5135 533 80.5135H535.99" stroke="#5784FF" stroke-width="2.09344" stroke-linecap="round" stroke-linejoin="round"/>
<path d="M558.416 87.99V84.9994C558.416 82.5172 556.412 80.5135 553.93 80.5135H550.939" stroke="#5784FF" stroke-width="2.09344" stroke-linecap="round" stroke-linejoin="round"/>
<path d="M558.416 102.943V105.934C558.416 108.416 556.412 110.42 553.93 110.42H550.939" stroke="#5784FF" stroke-width="2.09344" stroke-linecap="round" stroke-linejoin="round"/>
<path d="M528.514 102.943V105.934C528.514 108.416 530.517 110.42 533 110.42H535.99" stroke="#5784FF" stroke-width="2.09344" stroke-linecap="round" stroke-linejoin="round"/>
<path d="M540.94 89.1714C540.94 88.3456 540.27 87.6761 539.445 87.6761C538.619 87.6761 537.949 88.3456 537.949 89.1714V90.6667C537.949 91.4925 538.619 92.162 539.445 92.162C540.27 92.162 540.94 91.4925 540.94 90.6667V89.1714Z" fill="#5784FF"/>
<path d="M548.985 89.1714C548.985 88.3456 548.315 87.6761 547.489 87.6761C546.664 87.6761 545.994 88.3456 545.994 89.1714V90.6667C545.994 91.4925 546.664 92.162 547.489 92.162C548.315 92.162 548.985 91.4925 548.985 90.6667V89.1714Z" fill="#5784FF"/>
<path d="M550.194 96.5283C550.194 100.252 547.189 103.257 543.465 103.257C539.742 103.257 536.736 100.252 536.736 96.5283" stroke="#5784FF" stroke-width="2.09344" stroke-linecap="round" stroke-linejoin="round"/>
<path d="M543.465 93.5226V97.4104" stroke="#5784FF" stroke-width="2.09344" stroke-linecap="round" stroke-linejoin="round"/>
</g>
<rect x="448" y="64" width="64" height="64" rx="20" fill="#EBF0FF"/>
<g clip-path="url(#clip2_487_489)">
<path d="M479.363 94.2422C483.293 94.2422 486.474 91.0897 486.474 87.2032C486.474 83.3166 483.293 80.1642 479.363 80.1642C475.433 80.1642 472.252 83.3166 472.252 87.2032C472.252 91.0897 475.433 94.2422 479.363 94.2422ZM482.962 95.9983H475.764C470.884 95.9983 466.926 99.9569 466.926 104.851V110.076C466.926 111.041 467.718 111.832 468.696 111.832H490.044C491.023 111.832 491.815 111.041 491.815 110.062V104.837C491.815 99.9569 487.856 95.9983 482.976 95.9983H482.962Z" fill="#5784FF"/>
<path d="M475.043 103.41L478.066 106.649L483.68 101.179" stroke="white" stroke-width="2.13333" stroke-linecap="round" stroke-linejoin="round"/>
</g>
<rect x="384" y="64" width="64" height="64" rx="20" fill="#EBF0FF"/>
<path d="M411.744 86.1091V83.8141C411.744 81.4707 413.651 79.5636 415.995 79.5636C418.338 79.5636 420.245 81.4707 420.245 83.8141V86.1091" stroke="#5784FF" stroke-width="2.58586" stroke-linecap="round" stroke-linejoin="round"/>
<path d="M421.399 85.0584H410.603C409.121 85.0584 407.92 86.2596 407.92 87.7412V94.6584C407.92 96.1401 409.121 97.3412 410.603 97.3412H421.399C422.88 97.3412 424.082 96.1401 424.082 94.6584V87.7412C424.082 86.2596 422.88 85.0584 421.399 85.0584Z" fill="#5784FF"/>
<path opacity="0.3" d="M421.399 85.0584H410.603C409.121 85.0584 407.92 86.2596 407.92 87.7412V94.6584C407.92 96.1401 409.121 97.3412 410.603 97.3412H421.399C422.88 97.3412 424.082 96.1401 424.082 94.6584V87.7412C424.082 86.2596 422.88 85.0584 421.399 85.0584Z" fill="white"/>
<path d="M427.312 100.574H404.685C401.115 100.574 398.221 103.468 398.221 107.038C398.221 110.609 401.115 113.503 404.685 113.503H427.312C430.882 113.503 433.776 110.609 433.776 107.038C433.776 103.468 430.882 100.574 427.312 100.574Z" fill="#5784FF"/>
<path d="M405.477 108.978C406.548 108.978 407.416 108.109 407.416 107.038C407.416 105.967 406.548 105.099 405.477 105.099C404.405 105.099 403.537 105.967 403.537 107.038C403.537 108.109 404.405 108.978 405.477 108.978Z" fill="white"/>
<path d="M412.49 108.978C413.561 108.978 414.43 108.109 414.43 107.038C414.43 105.967 413.561 105.099 412.49 105.099C411.419 105.099 410.551 105.967 410.551 107.038C410.551 108.109 411.419 108.978 412.49 108.978Z" fill="white"/>
<path d="M419.504 108.978C420.575 108.978 421.443 108.109 421.443 107.038C421.443 105.967 420.575 105.099 419.504 105.099C418.433 105.099 417.564 105.967 417.564 107.038C417.564 108.109 418.433 108.978 419.504 108.978Z" fill="white"/>
<path d="M426.518 108.978C427.589 108.978 428.457 108.109 428.457 107.038C428.457 105.967 427.589 105.099 426.518 105.099C425.446 105.099 424.578 105.967 424.578 107.038C424.578 108.109 425.446 108.978 426.518 108.978Z" fill="white"/>
<rect x="64" y="64" width="64" height="64" rx="20" fill="#EBF0FF"/>
<g clip-path="url(#clip3_487_489)">
<path d="M86.3867 86.3839H105.619V105.616" stroke="#5784FF" stroke-width="2.35062" stroke-miterlimit="10"/>
<path d="M86.3838 111.11C89.4186 111.11 91.8787 108.65 91.8787 105.615C91.8787 102.581 89.4186 100.12 86.3838 100.12C83.349 100.12 80.8888 102.581 80.8888 105.615C80.8888 108.65 83.349 111.11 86.3838 111.11Z" fill="#5784FF"/>
<path opacity="0.3" d="M86.3838 111.11C89.4186 111.11 91.8787 108.65 91.8787 105.615C91.8787 102.581 89.4186 100.12 86.3838 100.12C83.349 100.12 80.8888 102.581 80.8888 105.615C80.8888 108.65 83.349 111.11 86.3838 111.11Z" fill="white"/>
<path d="M105.616 91.8788C108.651 91.8788 111.111 89.4186 111.111 86.3839C111.111 83.3491 108.651 80.8889 105.616 80.8889C102.581 80.8889 100.121 83.3491 100.121 86.3839C100.121 89.4186 102.581 91.8788 105.616 91.8788Z" fill="#5784FF"/>
<path d="M105.616 111.111C108.651 111.111 111.111 108.651 111.111 105.616C111.111 102.581 108.651 100.121 105.616 100.121C102.581 100.121 100.121 102.581 100.121 105.616C100.121 108.651 102.581 111.111 105.616 111.111Z" fill="#5784FF"/>
<path d="M86.3856 91.8788C89.4204 91.8788 91.8805 89.4186 91.8805 86.3839C91.8805 83.3491 89.4204 80.8889 86.3856 80.8889C83.3508 80.8889 80.8906 83.3491 80.8906 86.3839C80.8906 89.4186 83.3508 91.8788 86.3856 91.8788Z" fill="#5784FF"/>
<path d="M86.3842 88.7203C87.674 88.7203 88.7195 87.6748 88.7195 86.385C88.7195 85.0952 87.674 84.0496 86.3842 84.0496C85.0944 84.0496 84.0488 85.0952 84.0488 86.385C84.0488 87.6748 85.0944 88.7203 86.3842 88.7203Z" fill="white"/>
<path d="M105.619 88.7203C106.908 88.7203 107.954 87.6748 107.954 86.385C107.954 85.0952 106.908 84.0496 105.619 84.0496C104.329 84.0496 103.283 85.0952 103.283 86.385C103.283 87.6748 104.329 88.7203 105.619 88.7203Z" fill="white"/>
<path d="M105.619 107.953C106.908 107.953 107.954 106.907 107.954 105.617C107.954 104.327 106.908 103.282 105.619 103.282C104.329 103.282 103.283 104.327 103.283 105.617C103.283 106.907 104.329 107.953 105.619 107.953Z" fill="white"/>
</g>
<rect x="320" y="64" width="64" height="64" rx="20" fill="#EBF0FF"/>
<g clip-path="url(#clip4_487_489)">
<path d="M348.383 108.638C351.904 104.669 353.665 99.2457 352.735 93.6953" stroke="#5784FF" stroke-width="1.7178" stroke-linecap="round" stroke-linejoin="round"/>
<path d="M348.869 96.2505C348.983 100.375 347.265 104.258 344.316 106.97" stroke="#5784FF" stroke-width="1.7178" stroke-linecap="round" stroke-linejoin="round"/>
<path d="M357.059 96.5905C357.059 95.1499 356.915 93.6952 356.615 92.2405C356.171 90.0513 354.009 88.6249 351.791 89.0768C350.13 89.4017 348.913 90.6869 348.584 92.2122" stroke="#5784FF" stroke-width="1.7178" stroke-linecap="round" stroke-linejoin="round"/>
<path d="M353.119 109.174C354.909 106.589 356.154 103.637 356.712 100.502" stroke="#5784FF" stroke-width="1.7178" stroke-linecap="round" stroke-linejoin="round"/>
<path d="M344.103 100.277C343.458 101.901 342.399 103.342 341.039 104.457" stroke="#5784FF" stroke-width="1.7178" stroke-linecap="round" stroke-linejoin="round"/>
<path d="M360.809 100.884C361.324 97.8336 361.281 94.6417 360.637 91.4357C359.75 87.0575 355.426 84.2328 350.989 85.1084C346.551 85.9841 343.688 90.2494 344.575 94.6276C344.676 95.0937 344.733 95.5597 344.761 96.0258" stroke="#5784FF" stroke-width="1.7178" stroke-linecap="round" stroke-linejoin="round"/>
<path d="M358.477 108.113C358.992 107.053 359.45 105.966 359.822 104.85" stroke="#5784FF" stroke-width="1.7178" stroke-linecap="round" stroke-linejoin="round"/>
<path d="M340.34 93.5254C340.369 94.1609 340.44 94.7965 340.569 95.4462C341.027 97.6918 340.168 99.895 338.508 101.279" stroke="#5784FF" stroke-width="1.7178" stroke-linecap="round" stroke-linejoin="round"/>
<path d="M364.918 92.2103C364.846 91.6877 364.746 91.1652 364.646 90.6426C363.3 84.0894 356.815 79.8382 350.173 81.1658C345.792 82.0415 342.428 85.1204 341.025 88.9902" stroke="#5784FF" stroke-width="1.7178" stroke-linecap="round" stroke-linejoin="round"/>
<path d="M364.215 104.415C364.873 101.985 365.231 99.4433 365.246 96.8587" stroke="#5784FF" stroke-width="1.7178" stroke-linecap="round" stroke-linejoin="round"/>
</g>
<rect x="256" y="64" width="64" height="64" rx="20" fill="#EBF0FF"/>
<g clip-path="url(#clip5_487_489)">
<path d="M272.848 84.6129V82.1805C272.848 80.5784 274.159 79.2676 275.761 79.2676H278.193" stroke="#5784FF" stroke-width="1.74781" stroke-linecap="round" stroke-linejoin="round"/>
<path d="M303.099 84.6129V82.1806C303.099 80.5785 301.788 79.2676 300.186 79.2676H297.754" stroke="#5784FF" stroke-width="1.74781" stroke-linecap="round" stroke-linejoin="round"/>
<path d="M272.848 105.965V108.397C272.848 109.999 274.159 111.31 275.761 111.31H278.193" stroke="#5784FF" stroke-width="1.74781" stroke-linecap="round" stroke-linejoin="round"/>
<path d="M303.099 105.965V108.397C303.099 109.999 301.788 111.31 300.186 111.31H297.754" stroke="#5784FF" stroke-width="1.74781" stroke-linecap="round" stroke-linejoin="round"/>
<path d="M296.501 93.8617V88.4727C296.501 85.4141 293.995 82.9089 290.937 82.9089H284.586C281.528 82.9089 279.022 85.4141 279.022 88.4727V93.8617C277.42 93.8617 276.109 95.1725 276.109 96.7746C276.109 98.3768 277.42 99.6876 279.022 99.6876C279.037 99.6876 279.066 99.6876 279.081 99.6876C279.459 103.067 281.746 105.849 284.848 106.955C285.766 107.276 286.742 107.465 287.762 107.465C288.781 107.465 289.757 107.276 290.675 106.955C293.777 105.863 296.078 103.067 296.442 99.6876C296.457 99.6876 296.486 99.6876 296.501 99.6876C298.103 99.6876 299.414 98.3768 299.414 96.7746C299.414 95.1725 298.103 93.8617 296.501 93.8617Z" fill="#5784FF"/>
<path opacity="0.3" d="M290.674 88.9388L293.747 92.012L296.5 92.0411V88.4873C296.5 85.4287 293.995 82.9235 290.936 82.9235H284.585C281.527 82.9235 279.021 85.4287 279.021 88.4873V91.8809H287.761L290.674 88.9388Z" fill="white"/>
<path d="M290.676 99.5273C290.676 101.129 289.365 102.44 287.763 102.44C286.16 102.44 284.85 101.129 284.85 99.5273" stroke="white" stroke-width="1.31086" stroke-linecap="round" stroke-linejoin="round"/>
</g>
<rect x="192" y="64" width="64" height="64" rx="19.2" fill="#EBF0FF"/>
<path d="M232.888 74.6667H215.111C212.165 74.6667 209.777 77.0545 209.777 80V110.222C209.777 113.168 212.165 115.556 215.111 115.556H232.888C235.834 115.556 238.222 113.168 238.222 110.222V80C238.222 77.0545 235.834 74.6667 232.888 74.6667Z" fill="#5784FF"/>
<path d="M209.777 104.889H238.222V110.755C238.222 113.406 236.073 115.555 233.422 115.555H214.577C211.926 115.555 209.777 113.406 209.777 110.755V104.889Z" fill="white" fill-opacity="0.3"/>
<path d="M223.997 112C224.978 112 225.774 111.204 225.774 110.222C225.774 109.24 224.978 108.444 223.997 108.444C223.015 108.444 222.219 109.24 222.219 110.222C222.219 111.204 223.015 112 223.997 112Z" fill="white"/>
<path d="M218.666 81.7778H229.333" stroke="white" stroke-width="1.6" stroke-linecap="round"/>
<g opacity="0.6" clip-path="url(#clip6_487_489)">
<rect width="64" height="64" transform="translate(192 64)" fill="#F1F1F1"/>
<path d="M190.715 87.6458V83.8611H210.75V87.6458H203.007V109H198.493V87.6458H190.715ZM213.936 109V83.8611H223.554C229.006 83.8611 231.697 86.6389 231.714 90.3889C231.697 93.4444 229.769 95.1458 227.304 95.7361V95.9792C229.978 96.1181 232.686 98.3403 232.686 102.16C232.686 106.066 229.856 109 224.11 109H213.936ZM218.45 105.215H223.415C226.714 105.215 228.085 103.809 228.103 101.812C228.085 99.5556 226.332 97.8368 223.519 97.8194H218.45V105.215ZM218.45 94.5556H222.999C225.377 94.5556 227.183 93.184 227.2 90.9444C227.183 89.0174 225.794 87.6111 223.103 87.6111H218.45V94.5556ZM244.553 109H236.011V83.8611H244.692C252.192 83.8611 256.723 88.566 256.74 96.3958C256.723 104.26 252.192 109 244.553 109ZM240.525 105.076H244.31C249.57 105.094 252.226 102.194 252.226 96.3958C252.226 90.6319 249.57 87.7674 244.449 87.7847H240.525V105.076Z" fill="#414141" fill-opacity="0.2"/>
</g>
<rect x="128" y="64" width="64" height="64" rx="20" fill="#EBF0FF"/>
<path d="M167.777 77.2222H152.221C149.644 77.2222 147.555 79.3116 147.555 81.8889V108.333C147.555 110.911 149.644 113 152.221 113H167.777C170.354 113 172.444 110.911 172.444 108.333V81.8889C172.444 79.3116 170.354 77.2222 167.777 77.2222Z" fill="#5784FF"/>
<path d="M147.555 103.666H172.444V108.8C172.444 111.119 170.563 113 168.244 113H151.755C149.435 113 147.555 111.119 147.555 108.8V103.666Z" fill="white" fill-opacity="0.3"/>
<path d="M159.995 109.889C160.854 109.889 161.551 109.192 161.551 108.333C161.551 107.474 160.854 106.778 159.995 106.778C159.136 106.778 158.44 107.474 158.44 108.333C158.44 109.192 159.136 109.889 159.995 109.889Z" fill="white"/>
<path d="M155.332 83.4445H164.665" stroke="white" stroke-width="1.4" stroke-linecap="round"/>
<defs>
<filter id="filter0_ii_487_489" x="6.58686" y="203.178" width="50.8235" height="41.0916" filterUnits="userSpaceOnUse" color-interpolation-filters="sRGB">
<feFlood flood-opacity="0" result="BackgroundImageFix"/>
<feBlend mode="normal" in="SourceGraphic" in2="BackgroundImageFix" result="shape"/>
<feColorMatrix in="SourceAlpha" type="matrix" values="0 0 0 0 0 0 0 0 0 0 0 0 0 0 0 0 0 0 127 0" result="hardAlpha"/>
<feOffset dy="-0.941176"/>
<feGaussianBlur stdDeviation="0.470588"/>
<feComposite in2="hardAlpha" operator="arithmetic" k2="-1" k3="1"/>
<feColorMatrix type="matrix" values="0 0 0 0 0 0 0 0 0 0.27451 0 0 0 0 1 0 0 0 0.12 0"/>
<feBlend mode="normal" in2="shape" result="effect1_innerShadow_487_489"/>
<feColorMatrix in="SourceAlpha" type="matrix" values="0 0 0 0 0 0 0 0 0 0 0 0 0 0 0 0 0 0 127 0" result="hardAlpha"/>
<feOffset dy="0.941176"/>
<feGaussianBlur stdDeviation="0.941176"/>
<feComposite in2="hardAlpha" operator="arithmetic" k2="-1" k3="1"/>
<feColorMatrix type="matrix" values="0 0 0 0 1 0 0 0 0 1 0 0 0 0 1 0 0 0 0.4 0"/>
<feBlend mode="normal" in2="effect1_innerShadow_487_489" result="effect2_innerShadow_487_489"/>
</filter>
<filter id="filter1_i_487_489" x="17.6486" y="209.253" width="28.4161" height="12.6467" filterUnits="userSpaceOnUse" color-interpolation-filters="sRGB">
<feFlood flood-opacity="0" result="BackgroundImageFix"/>
<feBlend mode="normal" in="SourceGraphic" in2="BackgroundImageFix" result="shape"/>
<feColorMatrix in="SourceAlpha" type="matrix" values="0 0 0 0 0 0 0 0 0 0 0 0 0 0 0 0 0 0 127 0" result="hardAlpha"/>
<feOffset dy="0.941176"/>
<feGaussianBlur stdDeviation="0.470588"/>
<feComposite in2="hardAlpha" operator="arithmetic" k2="-1" k3="1"/>
<feColorMatrix type="matrix" values="0 0 0 0 1 0 0 0 0 1 0 0 0 0 1 0 0 0 0.3 0"/>
<feBlend mode="normal" in2="shape" result="effect1_innerShadow_487_489"/>
</filter>
<filter id="filter2_f_487_489" x="10.0022" y="239.859" width="46.618" height="9.10581" filterUnits="userSpaceOnUse" color-interpolation-filters="sRGB">
<feFlood flood-opacity="0" result="BackgroundImageFix"/>
<feBlend mode="normal" in="SourceGraphic" in2="BackgroundImageFix" result="shape"/>
<feGaussianBlur stdDeviation="1.06666" result="effect1_foregroundBlur_487_489"/>
</filter>
<filter id="filter3_i_487_489" x="9.76746" y="204.232" width="44.9322" height="19.4973" filterUnits="userSpaceOnUse" color-interpolation-filters="sRGB">
<feFlood flood-opacity="0" result="BackgroundImageFix"/>
<feBlend mode="normal" in="SourceGraphic" in2="BackgroundImageFix" result="shape"/>
<feColorMatrix in="SourceAlpha" type="matrix" values="0 0 0 0 0 0 0 0 0 0 0 0 0 0 0 0 0 0 127 0" result="hardAlpha"/>
<feOffset dy="1.88235"/>
<feGaussianBlur stdDeviation="3.76471"/>
<feComposite in2="hardAlpha" operator="arithmetic" k2="-1" k3="1"/>
<feColorMatrix type="matrix" values="0 0 0 0 0 0 0 0 0 0 0 0 0 0 0 0 0 0 0.05 0"/>
<feBlend mode="normal" in2="shape" result="effect1_innerShadow_487_489"/>
</filter>
<filter id="filter4_i_487_489" x="19.2317" y="207.688" width="26.0037" height="30.3239" filterUnits="userSpaceOnUse" color-interpolation-filters="sRGB">
<feFlood flood-opacity="0" result="BackgroundImageFix"/>
<feBlend mode="normal" in="SourceGraphic" in2="BackgroundImageFix" result="shape"/>
<feColorMatrix in="SourceAlpha" type="matrix" values="0 0 0 0 0 0 0 0 0 0 0 0 0 0 0 0 0 0 127 0" result="hardAlpha"/>
<feOffset dy="0.266666"/>
<feGaussianBlur stdDeviation="0.133333"/>
<feComposite in2="hardAlpha" operator="arithmetic" k2="-1" k3="1"/>
<feColorMatrix type="matrix" values="0 0 0 0 1 0 0 0 0 1 0 0 0 0 1 0 0 0 0.3 0"/>
<feBlend mode="normal" in2="shape" result="effect1_innerShadow_487_489"/>
</filter>
<filter id="filter5_i_487_489" x="17.2537" y="212.188" width="30.1176" height="29.4431" filterUnits="userSpaceOnUse" color-interpolation-filters="sRGB">
<feFlood flood-opacity="0" result="BackgroundImageFix"/>
<feBlend mode="normal" in="SourceGraphic" in2="BackgroundImageFix" result="shape"/>
<feColorMatrix in="SourceAlpha" type="matrix" values="0 0 0 0 0 0 0 0 0 0 0 0 0 0 0 0 0 0 127 0" result="hardAlpha"/>
<feOffset dy="0.266666"/>
<feGaussianBlur stdDeviation="0.133333"/>
<feComposite in2="hardAlpha" operator="arithmetic" k2="-1" k3="1"/>
<feColorMatrix type="matrix" values="0 0 0 0 1 0 0 0 0 1 0 0 0 0 1 0 0 0 0.3 0"/>
<feBlend mode="normal" in2="shape" result="effect1_innerShadow_487_489"/>
</filter>
<filter id="filter6_f_487_489" x="30.4301" y="193.835" width="32" height="32.0001" filterUnits="userSpaceOnUse" color-interpolation-filters="sRGB">
<feFlood flood-opacity="0" result="BackgroundImageFix"/>
<feBlend mode="normal" in="SourceGraphic" in2="BackgroundImageFix" result="shape"/>
<feGaussianBlur stdDeviation="2.82353" result="effect1_foregroundBlur_487_489"/>
</filter>
<linearGradient id="paint0_linear_487_489" x1="43.459" y1="223.461" x2="43.459" y2="202.806" gradientUnits="userSpaceOnUse">
<stop stop-color="#63ADFF"/>
<stop offset="1" stop-color="#88BCF6"/>
</linearGradient>
<linearGradient id="paint1_linear_487_489" x1="21.7926" y1="210.96" x2="27.6324" y2="225.137" gradientUnits="userSpaceOnUse">
<stop stop-color="#F9FCFF"/>
<stop offset="1" stop-color="#BBDCFF"/>
</linearGradient>
<linearGradient id="paint2_linear_487_489" x1="23.0239" y1="212.071" x2="44.0922" y2="230.298" gradientUnits="userSpaceOnUse">
<stop stop-color="#F9FCFF"/>
<stop offset="1" stop-color="#BBDCFF"/>
</linearGradient>
<linearGradient id="paint3_linear_487_489" x1="21.6458" y1="216.443" x2="42.3014" y2="237.765" gradientUnits="userSpaceOnUse">
<stop stop-color="#F9FCFF"/>
<stop offset="1" stop-color="#BBDCFF"/>
</linearGradient>
<linearGradient id="paint4_linear_487_489" x1="32.2336" y1="221.851" x2="32.2336" y2="247.527" gradientUnits="userSpaceOnUse">
<stop stop-color="#489DFF"/>
<stop offset="1" stop-color="#2475EE"/>
</linearGradient>
<clipPath id="clip0_487_489">
<rect width="32" height="32" fill="white" transform="translate(16 80)"/>
</clipPath>
<clipPath id="clip1_487_489">
<rect width="32" height="31.9995" fill="white" transform="translate(527.463 79.467)"/>
</clipPath>
<clipPath id="clip2_487_489">
<rect width="24.8889" height="31.6683" fill="white" transform="translate(466.926 80.1641)"/>
</clipPath>
<clipPath id="clip3_487_489">
<rect width="30.2222" height="30.2222" fill="white" transform="translate(80.8906 80.8889)"/>
</clipPath>
<clipPath id="clip4_487_489">
<rect width="28.4444" height="29.9416" fill="white" transform="translate(337.662 80.0779)"/>
</clipPath>
<clipPath id="clip5_487_489">
<rect width="32" height="33.7904" fill="white" transform="translate(271.973 78.3937)"/>
</clipPath>
<clipPath id="clip6_487_489">
<rect width="64" height="64" fill="white" transform="translate(192 64)"/>
</clipPath>
</defs>
</svg>
