<svg width="240" height="480" viewBox="0 0 240 480" fill="none" xmlns="http://www.w3.org/2000/svg">
<g clip-path="url(#clip0_0_1)">
<path d="M92 292L84 300M84 292L92 300" stroke="#A8AEBD" stroke-width="1.5" stroke-linecap="round"/>
<path d="M116.464 291.854L115.757 292.561L123.535 300.339L124.242 299.632L116.464 291.854Z" fill="#656B7B"/>
<path d="M115.758 299.632L116.465 300.339L124.243 292.561L123.536 291.854L115.758 299.632Z" fill="#656B7B"/>
<path d="M120 293.253C120.387 293.253 120.7 292.94 120.7 292.553C120.7 292.166 120.387 291.853 120 291.853C119.613 291.853 119.3 292.166 119.3 292.553C119.3 292.94 119.613 293.253 120 293.253Z" fill="#656B7B"/>
<path d="M120 300.339C120.387 300.339 120.7 300.026 120.7 299.639C120.7 299.252 120.387 298.939 120 298.939C119.613 298.939 119.3 299.252 119.3 299.639C119.3 300.026 119.613 300.339 120 300.339Z" fill="#656B7B"/>
<path d="M116.457 296.796C116.844 296.796 117.157 296.483 117.157 296.096C117.157 295.709 116.844 295.396 116.457 295.396C116.07 295.396 115.757 295.709 115.757 296.096C115.757 296.483 116.07 296.796 116.457 296.796Z" fill="#656B7B"/>
<path d="M123.543 296.796C123.93 296.796 124.243 296.483 124.243 296.096C124.243 295.709 123.93 295.396 123.543 295.396C123.156 295.396 122.843 295.709 122.843 296.096C122.843 296.483 123.156 296.796 123.543 296.796Z" fill="#656B7B"/>
<path d="M0.335882 475.252L3.99722 472L3.99723 480L0.335882 476.748C-0.111961 476.35 -0.111961 475.65 0.335882 475.252Z" fill="#656B7B"/>
<path d="M131.339 283H141.361C141.615 283 141.754 282.704 141.592 282.508L136.581 276.475C136.461 276.33 136.239 276.33 136.119 276.475L131.108 282.508C130.946 282.704 131.085 283 131.339 283Z" fill="#E2E4E9"/>
<path d="M99 264H109" stroke="#313749" stroke-linecap="round" stroke-linejoin="round"/>
<path d="M88 258V270M82 264H94" stroke="#C4C8D4" stroke-width="1.5" stroke-linecap="round" stroke-linejoin="round"/>
<path d="M100 295.471L102.359 298L107 293" stroke="#656B7B" stroke-width="1.2" stroke-linecap="round" stroke-linejoin="round"/>
<path d="M68 296.182L70.6042 298.833L76.3333 293" stroke="#A8BFFF" stroke-width="1.5" stroke-linecap="round" stroke-linejoin="round"/>
<path d="M103 179.818L106.125 183L113 176" stroke="#EDEFF2" stroke-width="2" stroke-linecap="round" stroke-linejoin="round"/>
<path d="M79 179.818L82.125 183L89 176" stroke="#CCDAFF" stroke-width="2" stroke-linecap="round" stroke-linejoin="round"/>
<path d="M11 258L5 264L11 270" stroke="#7E869A" stroke-width="1.5" stroke-linecap="round" stroke-linejoin="round"/>
<path d="M34 261L40 267L46 261" stroke="#7E869A" stroke-width="1.5" stroke-linecap="round" stroke-linejoin="round"/>
<path d="M62 267L56 261L50 267" stroke="#7E869A" stroke-width="1.5" stroke-linecap="round" stroke-linejoin="round"/>
<path d="M56 255C59.866 255 63 251.866 63 248C63 244.134 59.866 241 56 241C52.134 241 49 244.134 49 248C49 251.866 52.134 255 56 255Z" fill="#C4C8D4"/>
<path d="M57.0493 248C57.0493 247.42 56.5792 246.95 55.9993 246.95C55.4194 246.95 54.9493 247.42 54.9493 248V251.15C54.9493 251.73 55.4194 252.2 55.9993 252.2C56.5792 252.2 57.0493 251.73 57.0493 251.15V248Z" fill="white"/>
<path d="M55.9993 245.9C56.5792 245.9 57.0493 245.43 57.0493 244.85C57.0493 244.27 56.5792 243.8 55.9993 243.8C55.4194 243.8 54.9493 244.27 54.9493 244.85C54.9493 245.43 55.4194 245.9 55.9993 245.9Z" fill="white"/>
<path d="M7.74023 180.318L10.3215 183L16.0003 177.1" stroke="white" stroke-width="2" stroke-linecap="round" stroke-linejoin="round"/>
<path d="M115.5 277.75L120 282.25L124.5 277.75" stroke="#7E869A" stroke-linecap="round" stroke-linejoin="round"/>
<path d="M100 281.333L104 277.333L108 281.333" stroke="#7E869A" stroke-linecap="round" stroke-linejoin="round"/>
<path d="M4 296.182L6.60417 298.833L12.3333 293" stroke="white" stroke-width="1.5" stroke-linecap="round" stroke-linejoin="round"/>
<path d="M21 270L27 264L21 258" stroke="#7E869A" stroke-width="1.5" stroke-linecap="round" stroke-linejoin="round"/>
<path d="M213.202 83.9941C220.985 83.9941 227.295 77.6844 227.295 69.9009C227.295 62.1174 220.985 55.8077 213.202 55.8077C205.419 55.8077 199.109 62.1174 199.109 69.9009C199.109 77.6844 205.419 83.9941 213.202 83.9941Z" stroke="#EDEFF2" stroke-width="4" stroke-linecap="round"/>
<path d="M223.804 79.1043L234.892 90.1924" stroke="#EDEFF2" stroke-width="4" stroke-linecap="round"/>
<path d="M213.202 131.994C220.985 131.994 227.295 125.684 227.295 117.901C227.295 110.118 220.985 103.808 213.202 103.808C205.419 103.808 199.109 110.118 199.109 117.901C199.109 125.684 205.419 131.994 213.202 131.994Z" stroke="#EDEFF2" stroke-width="4" stroke-linecap="round"/>
<path d="M223.804 127.104L234.892 138.192" stroke="#EDEFF2" stroke-width="4" stroke-linecap="round"/>
<path d="M213.202 179.994C220.985 179.994 227.295 173.684 227.295 165.901C227.295 158.118 220.985 151.808 213.202 151.808C205.419 151.808 199.109 158.118 199.109 165.901C199.109 173.684 205.419 179.994 213.202 179.994Z" stroke="#EDEFF2" stroke-width="4" stroke-linecap="round"/>
<path d="M223.804 175.104L234.892 186.192" stroke="#EDEFF2" stroke-width="4" stroke-linecap="round"/>
<path d="M213.202 227.994C220.985 227.994 227.295 221.684 227.295 213.901C227.295 206.118 220.985 199.808 213.202 199.808C205.419 199.808 199.109 206.118 199.109 213.901C199.109 221.684 205.419 227.994 213.202 227.994Z" stroke="#EDEFF2" stroke-width="4" stroke-linecap="round"/>
<path d="M223.804 223.104L234.892 234.192" stroke="#EDEFF2" stroke-width="4" stroke-linecap="round"/>
<path d="M213.202 275.994C220.985 275.994 227.295 269.684 227.295 261.901C227.295 254.118 220.985 247.808 213.202 247.808C205.419 247.808 199.109 254.118 199.109 261.901C199.109 269.684 205.419 275.994 213.202 275.994Z" stroke="#EDEFF2" stroke-width="4" stroke-linecap="round"/>
<path d="M223.804 271.104L234.892 282.192" stroke="#EDEFF2" stroke-width="4" stroke-linecap="round"/>
<path d="M213.202 323.994C220.985 323.994 227.295 317.684 227.295 309.901C227.295 302.118 220.985 295.808 213.202 295.808C205.419 295.808 199.109 302.118 199.109 309.901C199.109 317.684 205.419 323.994 213.202 323.994Z" stroke="#EDEFF2" stroke-width="4" stroke-linecap="round"/>
<path d="M223.804 319.104L234.892 330.192" stroke="#EDEFF2" stroke-width="4" stroke-linecap="round"/>
<path d="M213.202 371.994C220.985 371.994 227.295 365.684 227.295 357.901C227.295 350.118 220.985 343.808 213.202 343.808C205.419 343.808 199.109 350.118 199.109 357.901C199.109 365.684 205.419 371.994 213.202 371.994Z" stroke="#EDEFF2" stroke-width="4" stroke-linecap="round"/>
<path d="M223.804 367.104L234.892 378.192" stroke="#EDEFF2" stroke-width="4" stroke-linecap="round"/>
<path d="M213.202 419.994C220.985 419.994 227.295 413.684 227.295 405.901C227.295 398.118 220.985 391.808 213.202 391.808C205.419 391.808 199.109 398.118 199.109 405.901C199.109 413.684 205.419 419.994 213.202 419.994Z" stroke="#EDEFF2" stroke-width="4" stroke-linecap="round"/>
<path d="M223.804 415.104L234.892 426.192" stroke="#EDEFF2" stroke-width="4" stroke-linecap="round"/>
<path d="M213.202 467.994C220.985 467.994 227.295 461.684 227.295 453.901C227.295 446.118 220.985 439.808 213.202 439.808C205.419 439.808 199.109 446.118 199.109 453.901C199.109 461.684 205.419 467.994 213.202 467.994Z" stroke="#EDEFF2" stroke-width="4" stroke-linecap="round"/>
<path d="M223.804 463.104L234.892 474.192" stroke="#EDEFF2" stroke-width="4" stroke-linecap="round"/>
<path d="M117.202 35.9941C124.985 35.9941 131.295 29.6844 131.295 21.9009C131.295 14.1174 124.985 7.80771 117.202 7.80771C109.419 7.80771 103.109 14.1174 103.109 21.9009C103.109 29.6844 109.419 35.9941 117.202 35.9941Z" stroke="#EDEFF2" stroke-width="4" stroke-linecap="round"/>
<path d="M127.804 31.1043L138.892 42.1924" stroke="#EDEFF2" stroke-width="4" stroke-linecap="round"/>
<path d="M213.202 35.9941C220.985 35.9941 227.295 29.6844 227.295 21.9009C227.295 14.1174 220.985 7.80771 213.202 7.80771C205.419 7.80771 199.109 14.1174 199.109 21.9009C199.109 29.6844 205.419 35.9941 213.202 35.9941Z" stroke="#EDEFF2" stroke-width="4" stroke-linecap="round"/>
<path d="M223.804 31.1043L234.892 42.1924" stroke="#EDEFF2" stroke-width="4" stroke-linecap="round"/>
<path d="M165.202 35.9941C172.985 35.9941 179.295 29.6844 179.295 21.9009C179.295 14.1174 172.985 7.80771 165.202 7.80771C157.419 7.80771 151.109 14.1174 151.109 21.9009C151.109 29.6844 157.419 35.9941 165.202 35.9941Z" stroke="#EDEFF2" stroke-width="4" stroke-linecap="round"/>
<path d="M175.804 31.1043L186.892 42.1924" stroke="#EDEFF2" stroke-width="4" stroke-linecap="round"/>
<path d="M69.2016 35.9941C76.9851 35.9941 83.2948 29.6844 83.2948 21.9009C83.2948 14.1174 76.9851 7.80771 69.2016 7.80771C61.4181 7.80771 55.1084 14.1174 55.1084 21.9009C55.1084 29.6844 61.4181 35.9941 69.2016 35.9941Z" stroke="#EDEFF2" stroke-width="4" stroke-linecap="round"/>
<path d="M79.8035 31.1043L90.8915 42.1924" stroke="#EDEFF2" stroke-width="4" stroke-linecap="round"/>
<path d="M35.7814 6H12.2178C10.7718 6 9.59961 7.1722 9.59961 8.61818V39.3818C9.59961 40.8278 10.7718 42 12.2178 42H35.7814C37.2274 42 38.3996 40.8278 38.3996 39.3818V8.61818C38.3996 7.1722 37.2274 6 35.7814 6Z" fill="#EDEFF2"/>
<path d="M32.8362 12.5454H15.1634C14.6212 12.5454 14.1816 12.985 14.1816 13.5272V13.5272C14.1816 14.0695 14.6212 14.5091 15.1634 14.5091H32.8362C33.3784 14.5091 33.818 14.0695 33.818 13.5272C33.818 12.985 33.3784 12.5454 32.8362 12.5454Z" fill="#F9FAFB"/>
<path d="M32.8362 18.4365H15.1634C14.6212 18.4365 14.1816 18.8761 14.1816 19.4183V19.4183C14.1816 19.9606 14.6212 20.4001 15.1634 20.4001H32.8362C33.3784 20.4001 33.818 19.9606 33.818 19.4183C33.818 18.8761 33.3784 18.4365 32.8362 18.4365Z" fill="#F9FAFB"/>
<path d="M32.8362 24.3271H15.1634C14.6212 24.3271 14.1816 24.7667 14.1816 25.3089V25.3089C14.1816 25.8512 14.6212 26.2907 15.1634 26.2907H32.8362C33.3784 26.2907 33.818 25.8512 33.818 25.3089C33.818 24.7667 33.3784 24.3271 32.8362 24.3271Z" fill="#F9FAFB"/>
<path d="M52 296.182L54.6042 298.833L60.3333 293" stroke="#E2E4E9" stroke-width="1.5" stroke-linecap="round" stroke-linejoin="round"/>
<path d="M36 296.182L38.6042 298.833L44.3333 293" stroke="#C4C8D4" stroke-width="1.5" stroke-linecap="round" stroke-linejoin="round"/>
<path d="M20 296.182L22.6042 298.833L28.3333 293" stroke="#0046FF" stroke-width="1.5" stroke-linecap="round" stroke-linejoin="round"/>
<path d="M1.5 387.75L6 392.25L10.5 387.75" stroke="#7E869A" stroke-linecap="round" stroke-linejoin="round"/>
<path d="M62 138L56 132L62 126" stroke="#313749" stroke-width="1.5" stroke-linecap="round" stroke-linejoin="round"/>
<path d="M3 125.25H21" stroke="#313749" stroke-width="1.6" stroke-linecap="round"/>
<path d="M3 132H21" stroke="#313749" stroke-width="1.6" stroke-linecap="round"/>
<path d="M3 138.75H21" stroke="#313749" stroke-width="1.6" stroke-linecap="round"/>
<path d="M29.0002 125.106L42.8944 139" stroke="#313749" stroke-width="1.6" stroke-linecap="round"/>
<path d="M42.8947 125.106L29.0004 139" stroke="#313749" stroke-width="1.6" stroke-linecap="round"/>
<path d="M72 258V270M66 264H78" stroke="#A8AEBD" stroke-width="1.5" stroke-linecap="round" stroke-linejoin="round"/>
<g opacity="0.7">
<path d="M7.98304 253.746C11.3091 253.746 14.0054 251.05 14.0054 247.724C14.0054 244.398 11.3091 241.702 7.98304 241.702C4.65701 241.702 1.96072 244.398 1.96072 247.724C1.96072 251.05 4.65701 253.746 7.98304 253.746Z" stroke="#0046FF" stroke-linecap="round" stroke-linejoin="round"/>
<path d="M7.84961 244.718V248.073H10.8374" stroke="#0046FF" stroke-linecap="round" stroke-linejoin="round"/>
</g>
<path d="M17.9999 388V392" stroke="#0046FF" stroke-linecap="round"/>
<path d="M19.7321 391L16.268 389" stroke="#0046FF" stroke-linecap="round"/>
<path d="M19.7317 389L16.2676 391" stroke="#0046FF" stroke-linecap="round"/>
<path d="M12 164C16.4183 164 20 160.418 20 156C20 151.582 16.4183 148 12 148C7.58172 148 4 151.582 4 156C4 160.418 7.58172 164 12 164Z" fill="#A8AEBD"/>
<path d="M9 153L15 159" stroke="white" stroke-width="1.5" stroke-linecap="round"/>
<path d="M15 153L9 159" stroke="white" stroke-width="1.5" stroke-linecap="round"/>
<path d="M82 126L88 132L82 138" stroke="#313749" stroke-width="1.5" stroke-linecap="round" stroke-linejoin="round"/>
<path d="M138 130L132 136L126 130" stroke="#313749" stroke-width="1.5" stroke-linecap="round" stroke-linejoin="round"/>
<path d="M102 134L108 128L114 134" stroke="#313749" stroke-width="1.5" stroke-linecap="round" stroke-linejoin="round"/>
<path d="M42 101.684H30C28.8954 101.684 28 102.579 28 103.684V113.996C28 115.101 28.8954 115.996 30 115.996H42C43.1046 115.996 44 115.101 44 113.996V103.684C44 102.579 43.1046 101.684 42 101.684Z" stroke="#313749" stroke-width="1.5" stroke-linecap="round" stroke-linejoin="round"/>
<path d="M28 106.184H43.5" stroke="#313749" stroke-width="1.5" stroke-linecap="round" stroke-linejoin="round"/>
<path d="M31 100.003V101.684" stroke="#12192B" stroke-width="1.5" stroke-linecap="round" stroke-linejoin="round"/>
<path d="M41 100.003V101.684" stroke="#12192B" stroke-width="1.5" stroke-linecap="round" stroke-linejoin="round"/>
<path d="M10.7498 113.5C14.4777 113.5 17.4998 110.478 17.4998 106.75C17.4998 103.022 14.4777 100 10.7498 100C7.02189 100 3.99982 103.022 3.99982 106.75C3.99982 110.478 7.02189 113.5 10.7498 113.5Z" stroke="#313749" stroke-width="1.5" stroke-linecap="round" stroke-linejoin="round"/>
<path d="M18.9998 115.001L15.9998 112.001" stroke="#313749" stroke-width="1.5" stroke-linecap="round" stroke-linejoin="round"/>
<path d="M40 254.667C43.6819 254.667 46.6667 251.682 46.6667 248C46.6667 244.318 43.6819 241.333 40 241.333C36.3181 241.333 33.3333 244.318 33.3333 248C33.3333 251.682 36.3181 254.667 40 254.667Z" fill="#F5002C"/>
<path d="M40.6666 244.667H39.3333V249.334H40.6666V244.667Z" fill="white"/>
<path d="M40.6666 250.667H39.3333V252H40.6666V250.667Z" fill="white"/>
<path d="M23.9997 254.667C27.6816 254.667 30.6664 251.682 30.6664 248C30.6664 244.318 27.6816 241.333 23.9997 241.333C20.3178 241.333 17.333 244.318 17.333 248C17.333 251.682 20.3178 254.667 23.9997 254.667Z" fill="#EDEFF2"/>
<path d="M23.333 247.333H24.6663V251.333H23.333V247.333Z" fill="#C4C8D4"/>
<path d="M23.333 244.666H24.6663V245.999H23.333V244.666Z" fill="#C4C8D4"/>
<path d="M31 179.818L34.125 183L41 176" stroke="#0046FF" stroke-width="2" stroke-linecap="round" stroke-linejoin="round"/>
<path d="M55 179.818L58.125 183L65 176" stroke="#E2E4E9" stroke-width="2" stroke-linecap="round" stroke-linejoin="round"/>
<path d="M37.75 284.5L42.25 280L37.75 275.5" stroke="#C4C8D4" stroke-linecap="round" stroke-linejoin="round"/>
<path d="M21.75 284.5L26.25 280L21.75 275.5" stroke="#313749" stroke-linecap="round" stroke-linejoin="round"/>
<path d="M5.75 284.5L10.25 280L5.75 275.5" stroke="#7E869A" stroke-linecap="round" stroke-linejoin="round"/>
<path d="M85.75 284.5L90.25 280L85.75 275.5" stroke="#A8BFFF" stroke-linecap="round" stroke-linejoin="round"/>
<path d="M69.75 284.5L74.25 280L69.75 275.5" stroke="#0036C6" stroke-linecap="round" stroke-linejoin="round"/>
<path d="M53.75 284.5L58.25 280L53.75 275.5" stroke="#0046FF" stroke-linecap="round" stroke-linejoin="round"/>
<path d="M72 255C75.866 255 79 251.866 79 248C79 244.134 75.866 241 72 241C68.134 241 65 244.134 65 248C65 251.866 68.134 255 72 255Z" fill="#EDEFF2"/>
<path d="M70.9877 250.978C70.9877 250.731 71.0612 250.537 71.2082 250.395C71.3552 250.254 71.5625 250.183 71.8303 250.183C72.098 250.183 72.3054 250.256 72.4524 250.403C72.5994 250.545 72.6729 250.737 72.6729 250.978C72.6729 251.22 72.5994 251.414 72.4524 251.561C72.3054 251.703 72.098 251.773 71.8303 251.773C71.5625 251.773 71.3552 251.703 71.2082 251.561C71.0612 251.419 70.9877 251.225 70.9877 250.978ZM71.0349 249.465V248.984C71.0349 248.68 71.069 248.43 71.1373 248.236C71.2055 248.042 71.3499 247.879 71.5704 247.748C71.7437 247.643 71.8985 247.548 72.035 247.464C72.1715 247.38 72.2818 247.302 72.3658 247.228C72.4918 247.113 72.5758 247.008 72.6178 246.913C72.6598 246.813 72.6808 246.695 72.6808 246.559C72.6808 246.375 72.6178 246.231 72.4918 246.126C72.3658 246.021 72.2135 245.968 72.035 245.968C71.8513 245.968 71.6859 246.013 71.5389 246.102C71.3972 246.186 71.3027 246.309 71.2554 246.472C71.1977 246.661 71.0927 246.805 70.9404 246.905C70.7882 247.005 70.6018 247.047 70.3813 247.031C70.292 247.026 70.2054 247.008 70.1214 246.976C70.0374 246.939 69.9639 246.889 69.9009 246.826C69.8432 246.763 69.7959 246.687 69.7592 246.598C69.7224 246.504 69.7067 246.396 69.7119 246.275C69.7172 246.034 69.7828 245.811 69.9088 245.606C70.0348 245.396 70.2028 245.215 70.4128 245.062C70.6228 244.91 70.8669 244.792 71.1452 244.708C71.4234 244.619 71.72 244.574 72.035 244.574C72.3605 244.574 72.6598 244.616 72.9328 244.7C73.211 244.779 73.4499 244.9 73.6494 245.062C73.8489 245.225 74.0038 245.433 74.114 245.685C74.2295 245.931 74.2873 246.223 74.2873 246.559C74.2873 246.826 74.2558 247.057 74.1928 247.252C74.1298 247.446 74.0274 247.627 73.8857 247.795C73.7649 247.932 73.6153 248.068 73.4368 248.205C73.2635 248.341 73.0798 248.472 72.8855 248.598C72.7753 248.672 72.7044 248.751 72.6729 248.835C72.6414 248.913 72.6257 249.005 72.6257 249.11V249.465H71.0349Z" fill="#A8AEBD"/>
<path d="M38 148H34.625C34.0283 148 33.456 148.237 33.034 148.659C32.6121 149.081 32.375 149.653 32.375 150.25V152.731C33.7813 152.331 35.2839 152.441 36.6163 153.043C37.9487 153.646 39.0248 154.7 39.6538 156.02C40.2828 157.34 40.4241 158.84 40.0526 160.254C39.6811 161.668 38.8208 162.905 37.6243 163.746H41.375C41.9717 163.746 42.544 163.508 42.966 163.086C43.3879 162.665 43.625 162.092 43.625 161.496V153.626H39.6875C39.4658 153.626 39.2463 153.582 39.0415 153.498C38.8367 153.413 38.6506 153.288 38.4939 153.131C38.3371 152.975 38.2129 152.788 38.1281 152.584C38.0434 152.379 37.9999 152.159 38 151.938V148ZM43.6216 152.5H39.6864C39.5372 152.5 39.3941 152.441 39.2886 152.335C39.1831 152.23 39.1239 152.087 39.1239 151.938V148H39.1351L43.6216 152.5ZM39.125 158.688C39.125 160.03 38.5916 161.318 37.6422 162.267C36.6928 163.217 35.4052 163.75 34.0625 163.75C32.7198 163.75 31.4322 163.217 30.4828 162.267C29.5334 161.318 29 160.03 29 158.688C29 157.345 29.5334 156.057 30.4828 155.108C31.4322 154.158 32.7198 153.625 34.0625 153.625C35.4052 153.625 36.6928 154.158 37.6422 155.108C38.5916 156.057 39.125 157.345 39.125 158.688ZM33.6642 161.335L33.6676 161.338C33.772 161.441 33.9125 161.499 34.0591 161.5H34.0659C34.2136 161.499 34.355 161.44 34.4596 161.336L36.7096 159.086C36.7619 159.034 36.8034 158.972 36.8318 158.903C36.8601 158.835 36.8747 158.762 36.8748 158.688C36.8748 158.614 36.8603 158.541 36.8321 158.472C36.8038 158.404 36.7624 158.342 36.7102 158.29C36.658 158.238 36.5959 158.196 36.5277 158.168C36.4594 158.139 36.3862 158.125 36.3123 158.125C36.2384 158.125 36.1652 158.139 36.0969 158.167C36.0286 158.196 35.9665 158.237 35.9142 158.289L34.625 159.58V156.438C34.625 156.288 34.5657 156.145 34.4602 156.04C34.3548 155.934 34.2117 155.875 34.0625 155.875C33.9133 155.875 33.7702 155.934 33.6648 156.04C33.5593 156.145 33.5 156.288 33.5 156.438V159.58L32.2108 158.289C32.1051 158.184 31.9619 158.124 31.8125 158.124C31.6631 158.124 31.5199 158.184 31.4142 158.289C31.3086 158.395 31.2493 158.538 31.2493 158.688C31.2493 158.837 31.3086 158.98 31.4142 159.086L33.6642 161.335Z" fill="#A8AEBD"/>
<path d="M62 148H58.625C58.0283 148 57.456 148.237 57.034 148.659C56.6121 149.081 56.375 149.653 56.375 150.25V152.731C57.7813 152.331 59.2839 152.441 60.6163 153.043C61.9487 153.646 63.0248 154.7 63.6538 156.02C64.2828 157.34 64.4241 158.84 64.0526 160.254C63.6811 161.668 62.8208 162.905 61.6243 163.746H65.375C65.9717 163.746 66.544 163.508 66.966 163.086C67.3879 162.665 67.625 162.092 67.625 161.496V153.626H63.6875C63.4658 153.626 63.2463 153.582 63.0415 153.498C62.8367 153.413 62.6506 153.288 62.4939 153.131C62.3371 152.975 62.2129 152.788 62.1281 152.584C62.0434 152.379 61.9999 152.159 62 151.938V148ZM67.6216 152.5H63.6864C63.5372 152.5 63.3941 152.441 63.2886 152.335C63.1831 152.23 63.1239 152.087 63.1239 151.938V148H63.1351L67.6216 152.5ZM63.125 158.688C63.125 160.03 62.5916 161.318 61.6422 162.267C60.6928 163.217 59.4052 163.75 58.0625 163.75C56.7198 163.75 55.4322 163.217 54.4828 162.267C53.5334 161.318 53 160.03 53 158.688C53 157.345 53.5334 156.057 54.4828 155.108C55.4322 154.158 56.7198 153.625 58.0625 153.625C59.4052 153.625 60.6928 154.158 61.6422 155.108C62.5916 156.057 63.125 157.345 63.125 158.688ZM57.6642 161.335L57.6676 161.338C57.772 161.441 57.9125 161.499 58.0591 161.5H58.0659C58.2136 161.499 58.355 161.44 58.4596 161.336L60.7096 159.086C60.7619 159.034 60.8034 158.972 60.8318 158.903C60.8601 158.835 60.8747 158.762 60.8748 158.688C60.8748 158.614 60.8603 158.541 60.8321 158.472C60.8038 158.404 60.7624 158.342 60.7102 158.29C60.658 158.238 60.5959 158.196 60.5277 158.168C60.4594 158.139 60.3862 158.125 60.3123 158.125C60.2384 158.125 60.1652 158.139 60.0969 158.167C60.0286 158.196 59.9665 158.237 59.9142 158.289L58.625 159.58V156.438C58.625 156.288 58.5657 156.145 58.4602 156.04C58.3548 155.934 58.2117 155.875 58.0625 155.875C57.9133 155.875 57.7702 155.934 57.6648 156.04C57.5593 156.145 57.5 156.288 57.5 156.438V159.58L56.2108 158.289C56.1051 158.184 55.9619 158.124 55.8125 158.124C55.6631 158.124 55.5199 158.184 55.4142 158.289C55.3086 158.395 55.2493 158.538 55.2493 158.688C55.2493 158.837 55.3086 158.98 55.4142 159.086L57.6642 161.335Z" fill="#E2E4E9"/>
<path d="M115.766 149.092C115.95 149.226 116.026 149.405 115.992 149.628L113.849 162.485C113.822 162.647 113.732 162.772 113.582 162.862C113.503 162.906 113.417 162.929 113.322 162.929C113.261 162.929 113.194 162.915 113.121 162.887L109.329 161.338L107.304 163.807C107.203 163.936 107.067 164 106.894 164C106.821 164 106.76 163.989 106.71 163.967C106.604 163.927 106.518 163.862 106.454 163.77C106.39 163.678 106.358 163.576 106.358 163.464V160.543L113.59 151.679L104.642 159.421L101.336 158.065C101.129 157.987 101.018 157.834 101.001 157.605C100.99 157.382 101.079 157.217 101.269 157.111L115.197 149.075C115.281 149.025 115.37 149 115.465 149C115.577 149 115.677 149.031 115.766 149.092Z" fill="#E2E4E9"/>
<path d="M91.7663 149.092C91.9504 149.226 92.0258 149.405 91.9923 149.628L89.8495 162.485C89.8216 162.647 89.7323 162.772 89.5816 162.862C89.5035 162.906 89.417 162.929 89.3221 162.929C89.2607 162.929 89.1938 162.915 89.1212 162.887L85.3295 161.338L83.3038 163.807C83.2034 163.936 83.0667 164 82.8937 164C82.8211 164 82.7597 163.989 82.7095 163.967C82.6035 163.927 82.5184 163.862 82.4542 163.77C82.3901 163.678 82.358 163.576 82.358 163.464V160.543L89.59 151.679L80.642 159.421L77.3357 158.065C77.1293 157.987 77.0177 157.834 77.0009 157.605C76.9898 157.382 77.0791 157.217 77.2688 157.111L91.1971 149.075C91.2808 149.025 91.3701 149 91.4649 149C91.5765 149 91.677 149.031 91.7663 149.092Z" fill="#A8AEBD"/>
<rect x="132" y="292.707" width="1" height="11" transform="rotate(-45 132 292.707)" fill="#0046FF"/>
<rect x="132.708" y="300.485" width="1" height="11" transform="rotate(-135 132.708 300.485)" fill="#0046FF"/>
<circle cx="136.242" cy="292.7" r="0.7" fill="#0046FF"/>
<circle cx="136.242" cy="299.785" r="0.7" fill="#0046FF"/>
<circle cx="132.7" cy="296.243" r="0.7" fill="#0046FF"/>
<circle cx="139.785" cy="296.243" r="0.7" fill="#0046FF"/>
</g>
<defs>
<clipPath id="clip0_0_1">
<rect width="240" height="480" fill="white"/>
</clipPath>
</defs>
</svg>
