<svg width="36" height="16" viewBox="0 0 36 16" fill="none" xmlns="http://www.w3.org/2000/svg">
<g clip-path="url(#clip0_7519_16066)">
<g clip-path="url(#clip1_7519_16066)">
<circle cx="8" cy="8" r="8" fill="white"/>
<path d="M7.96598 6.49064L7.13888 7.23257C7.24746 7.60698 7.40022 7.96715 7.59394 8.30547C7.79556 8.64145 8.03811 8.95112 8.31602 9.22738L9.38716 8.89741C9.98723 8.71243 10.6423 8.90241 11.0414 9.37736L11.6514 10.1033C11.8984 10.3947 12.0223 10.7708 11.9967 11.1519C11.9711 11.5331 11.7981 11.8893 11.5144 12.1451C10.5193 13.053 8.98711 13.36 7.83997 12.4591C6.83177 11.6654 5.97872 10.6925 5.32365 9.58934C4.66715 8.49134 4.2278 7.27745 4.02949 6.01369C3.80947 4.59183 4.8506 3.45394 6.14876 3.06598C6.92285 2.834 7.74895 3.23196 8.03299 3.97389L8.36803 4.8488C8.58806 5.42475 8.43004 6.07468 7.96598 6.49064Z" fill="#100D16"/>
</g>
<g clip-path="url(#clip2_7519_16066)">
<path d="M36 8C36 12.4183 32.4183 16 28 16C23.5817 16 20 12.4183 20 8C20 3.58172 23.5817 0 28 0C32.4183 0 36 3.58172 36 8Z" fill="white"/>
<path d="M32 4H24C23.45 4 23 4.45 23 5V11C23 11.55 23.45 12 24 12H32C32.55 12 33 11.55 33 11V5C33 4.45 32.55 4 32 4ZM31.8 6.125L28.53 8.17C28.205 8.375 27.795 8.375 27.47 8.17L24.2 6.125C24.1499 6.09686 24.106 6.05883 24.0709 6.01323C24.0359 5.96762 24.0105 5.91539 23.9963 5.85969C23.982 5.80398 23.9793 5.74597 23.9881 5.68915C23.9969 5.63234 24.0172 5.57791 24.0476 5.52915C24.0781 5.48039 24.1182 5.43833 24.1654 5.4055C24.2126 5.37267 24.2659 5.34976 24.3222 5.33815C24.3786 5.32654 24.4366 5.32648 24.493 5.33797C24.5493 5.34946 24.6027 5.37227 24.65 5.405L28 7.5L31.35 5.405C31.3973 5.37227 31.4507 5.34946 31.507 5.33797C31.5634 5.32648 31.6214 5.32654 31.6778 5.33815C31.7341 5.34976 31.7874 5.37267 31.8346 5.4055C31.8818 5.43833 31.9219 5.48039 31.9524 5.52915C31.9828 5.57791 32.0031 5.63234 32.0119 5.68915C32.0207 5.74597 32.018 5.80398 32.0037 5.85969C31.9895 5.91539 31.9641 5.96762 31.9291 6.01323C31.894 6.05883 31.8501 6.09686 31.8 6.125Z" fill="#08070D"/>
</g>
</g>
<defs>
<clipPath id="clip0_7519_16066">
<rect width="36" height="16" fill="white"/>
</clipPath>
<clipPath id="clip1_7519_16066">
<rect width="16" height="16" fill="white"/>
</clipPath>
<clipPath id="clip2_7519_16066">
<rect width="16" height="16" fill="white" transform="translate(20)"/>
</clipPath>
</defs>
</svg>
