<svg width="237" height="22" viewBox="0 0 237 22" fill="none" xmlns="http://www.w3.org/2000/svg">
<path d="M30.3647 5.02321C30.3647 4.46587 30.3317 4.16154 30.0089 3.80587C29.8072 3.55287 29.9429 3.31454 30.1777 3.31454H33.1048V5.56221C33.1048 7.78054 35.2727 9.08221 37.2352 9.74221L36.5089 11.1135C36.2888 11.5205 35.4598 11.3665 34.0035 10.4719C33.1745 9.96587 32.3785 9.28754 31.854 8.57621C31.2268 9.47087 30.4491 10.2152 29.5541 10.8092C28.5233 11.4839 27.2028 12.1292 26.9827 11.7039L26.2051 10.2335C28.4573 9.35354 30.3684 7.88321 30.3684 5.73454V5.02321H30.3647ZM41.5012 16.8482V18.7585H31.8393C29.7925 18.7585 28.9782 18.2342 28.9782 16.5255V14.0725C28.9782 13.7352 28.8608 13.4822 28.6224 13.1925C28.417 12.9395 28.5564 12.7012 28.7911 12.7012H31.6669V16.1699C31.6669 16.6942 31.8357 16.8482 32.3602 16.8482H41.4975H41.5012ZM38.5557 13.5665V4.77021C38.5557 4.17987 38.453 3.87554 38.1339 3.51987C37.9321 3.26687 38.0678 3.04688 38.3209 3.04688H41.2151V13.5702H38.5594L38.5557 13.5665Z" fill="white"/>
<path d="M47.0983 4.29755C47.0983 3.70355 47.0653 3.43589 46.7425 3.04722C46.5224 2.79422 46.6581 2.57422 46.9112 2.57422H49.8054V4.46989H53.6459V6.32889H51.8705C52.3951 6.92288 52.7179 7.64888 52.7179 8.51055C52.7179 10.6409 51.1443 12.2652 48.3345 12.2652C45.5247 12.2652 43.951 10.6409 43.951 8.51055C43.951 7.63055 44.2555 6.90455 44.7617 6.32889H42.9863V4.46989H47.0983V4.30122V4.29755ZM57.8789 16.8486V18.7589H48.3858C46.339 18.7589 45.5247 18.2346 45.5247 16.5259V14.7512C45.5247 14.4139 45.4073 14.1572 45.1689 13.8712C44.9671 13.6182 45.1028 13.3799 45.3376 13.3799H48.2171V16.1702C48.2171 16.6946 48.3858 16.8486 48.9104 16.8486H57.8789ZM50.1795 8.42255C50.1795 7.27122 49.5046 6.39122 48.3345 6.39122C47.1643 6.39122 46.4894 7.27122 46.4894 8.42255C46.4894 9.50422 47.1497 10.4026 48.3345 10.4026C49.5193 10.4026 50.1795 9.50788 50.1795 8.42255ZM55.0178 13.8016V4.77055C55.0178 4.18022 54.9334 3.90889 54.6106 3.52022C54.3906 3.26722 54.5263 3.04722 54.7794 3.04722H57.6735V7.04022H59.603V8.95055H57.6735V13.8052H55.0141L55.0178 13.8016Z" fill="white"/>
<path d="M60.9423 17.087V5.59929C60.9423 5.02363 60.8396 4.73763 60.5205 4.38196C60.3151 4.12896 60.4508 3.89062 60.6892 3.89062H68.8288V5.87063H63.7008V9.48962H68.3557V11.4696H63.7008V15.1216H69.1993V17.0833H60.9423V17.087Z" fill="white"/>
<path d="M73.6499 15.1253H79.2512V17.087H70.2129V15.6643L75.8985 5.87063H70.466V3.89062H79.1301V5.34629C79.1301 5.75329 78.9761 6.09063 78.7927 6.39496L73.6463 15.1253H73.6499Z" fill="white"/>
<path d="M86.8325 10.4207C86.8325 9.82665 86.7298 9.52598 86.4107 9.17032C86.2053 8.91732 86.3447 8.69732 86.5978 8.69732H89.5763V10.8643H96.2597V12.6903H80.1309V10.8643H86.8325V10.4243V10.4207ZM80.9782 7.79898C84.0411 7.29298 86.8325 5.90332 86.8325 4.56865V4.24598C86.8325 3.95998 86.6785 3.68865 86.4437 3.45032C86.2053 3.21198 86.3263 2.95898 86.5794 2.95898H89.4736V4.56498C89.4736 5.66498 92.1477 7.18665 95.2436 7.71098L94.6347 9.23265C94.4989 9.55532 93.5012 9.47098 91.5718 8.74132C90.1852 8.21698 88.9821 7.60832 88.1384 6.83098C87.3754 7.57532 86.4951 8.08132 85.2442 8.62398C83.5862 9.33532 81.7925 9.69098 81.6055 9.25098L80.9782 7.79532V7.79898ZM82.163 15.1067C82.163 14.7693 82.0456 14.5127 81.8072 14.2267C81.6055 13.9736 81.7412 13.7353 81.9759 13.7353H84.8518V16.357C84.8518 16.7127 85.0718 16.8483 85.3763 16.8483H94.6347V18.7586H84.1915C82.8893 18.7586 82.1593 17.9813 82.1593 16.83V15.103L82.163 15.1067Z" fill="white"/>
<path d="M100.146 4.56882C100.146 3.96015 100.043 3.60448 99.8087 3.30015C99.6069 3.02882 99.7243 2.82715 99.9957 2.82715H102.721V5.21415H105.564V7.12448H96.9512V5.21415H100.15V4.57248L100.146 4.56882ZM101.415 7.70015C104.089 7.70015 105.461 9.40882 105.461 11.9131C105.461 14.4175 104.089 16.1261 101.415 16.1261C98.7412 16.1261 97.3693 14.4175 97.3693 11.9131C97.3693 9.40882 98.7412 7.70015 101.415 7.70015ZM101.415 9.57748C100.264 9.57748 99.7756 10.4721 99.7756 11.9131C99.7756 13.3541 100.267 14.2488 101.415 14.2488C102.563 14.2488 103.055 13.3541 103.055 11.9131C103.055 10.4721 102.563 9.57748 101.415 9.57748ZM106.51 4.89148C106.51 4.28282 106.408 3.92715 106.173 3.62282C105.971 3.35148 106.088 3.14982 106.36 3.14982H108.968V8.68282H110.406V3.05081H112.875V18.9715H110.406V10.7655H108.968V18.5131H106.514V4.88781L106.51 4.89148Z" fill="white"/>
<path d="M118.73 12.856C116.716 12.856 115.817 12.2657 115.817 10.6414V5.29536C115.817 4.73803 115.7 4.44836 115.377 4.05969C115.176 3.78836 115.293 3.56836 115.546 3.56836H118.44V6.51269H125.446V3.56836H128.069V12.856H123.414V15.562H130.098V17.4724H113.969V15.562H120.67V12.856H118.723H118.73ZM125.45 10.9604V8.39003H118.444V9.94836C118.444 10.5387 118.613 10.964 119.409 10.964H125.45V10.9604Z" fill="white"/>
<path d="M135.007 4.29755C135.007 3.70355 134.973 3.43589 134.651 3.04722C134.431 2.79422 134.566 2.57422 134.819 2.57422H137.714V4.46989H141.554V6.32889H139.812C140.318 6.90455 140.626 7.61589 140.626 8.45922C140.626 10.5896 138.968 12.1626 136.243 12.1626C133.517 12.1626 131.859 10.5896 131.859 8.45922C131.859 7.59755 132.164 6.88622 132.655 6.32889H130.895V4.46989H135.007V4.30122V4.29755ZM136.987 18.8469C134.94 18.8469 134.093 18.4069 134.093 16.6982V14.4139C134.093 14.0766 133.976 13.8199 133.737 13.5339C133.536 13.2809 133.671 13.0426 133.906 13.0426H145.839C146.11 13.0426 146.227 13.1269 146.227 13.4166V18.8469H136.987ZM138.088 8.37489C138.088 7.26022 137.409 6.39489 136.243 6.39489C135.076 6.39489 134.398 7.25655 134.398 8.37489C134.398 9.42355 135.058 10.3219 136.243 10.3219C137.427 10.3219 138.088 9.42722 138.088 8.37489ZM143.623 17.0209V14.8539H136.701V16.3242C136.701 16.9329 136.921 17.0172 137.479 17.0172H143.623V17.0209ZM143.557 12.0636V9.42355H141.305V7.51322H143.557V4.77422C143.557 4.18389 143.473 3.91255 143.15 3.52389C142.93 3.27089 143.065 3.05089 143.319 3.05089H146.213V12.0672H143.557V12.0636Z" fill="white"/>
<path d="M224.032 17.0446H233.457V18.8576H222.596C221.415 18.8576 220.971 18.3616 220.971 17.3353V16.1552C220.971 15.5907 220.851 15.2658 220.526 14.8724C220.321 14.5987 220.44 14.3764 220.697 14.3764H230.498V13.4185H220.919V11.6226H232.841C233.115 11.6226 233.234 11.7081 233.234 11.9989V16.0697H223.707V16.7196C223.707 16.9591 223.793 17.0446 224.032 17.0446ZM221.552 7.63739V8.20182C221.552 8.69783 221.74 8.86888 222.219 8.86888H228.736V10.1859C228.24 10.5451 227.368 10.6306 226.222 10.6306H220.919C219.705 10.6306 218.867 9.75828 218.867 8.68073V4.72971C218.867 4.13107 218.781 3.8232 218.439 3.46402C218.234 3.20746 218.371 2.968 218.627 2.968H227.556V4.71261H221.552V5.94409H226.512V7.63739H221.552ZM227.898 7.74001V5.80726H230.549V4.43894C230.549 3.8403 230.463 3.56664 230.138 3.17325C229.916 2.91669 230.053 2.69434 230.309 2.69434H233.234V10.7161H230.549V7.74001H227.898Z" fill="white"/>
<path d="M204.481 10.6134V7.7741C204.481 7.20967 204.464 6.93601 204.139 6.54261C203.934 6.26895 204.054 6.0466 204.31 6.0466H207.15V10.6134H211.203V6.0466H213.871V10.6134H215.924V12.5461H210.536V15.3512H217.292V17.2839H200.992V15.3512H207.765V12.5461H202.343V10.6134H204.481ZM216.044 3.42969V5.36244H202.224V3.42969H216.044Z" fill="white"/>
<path d="M198.975 18.7892H196.29V9.3991H191.757V7.41504H196.29V4.45605C196.29 3.85741 196.204 3.58374 195.879 3.19035C195.657 2.93379 195.794 2.69434 196.05 2.69434H198.975V18.7892ZM192.407 15.796H187.943C185.874 15.796 184.916 15.0263 184.916 13.2988V5.02048C184.916 4.42184 184.83 4.11397 184.488 3.75478C184.283 3.49822 184.42 3.25877 184.676 3.25877H187.618V12.8028C187.618 13.4185 187.806 13.8632 188.61 13.8632H194.922V15.3513C194.426 15.7105 193.553 15.796 192.407 15.796Z" fill="white"/>
<path d="M168.444 3.46387H181.101V5.3282H171.489V7.26095H181.05V9.12529H171.489V10.4252C171.489 10.9212 171.66 11.0751 172.19 11.0751H181.324V12.9566H171.557C169.59 12.9566 168.718 12.2895 168.718 10.5278V5.22558C168.718 4.62694 168.615 4.31907 168.29 3.95988C168.085 3.70332 168.188 3.46387 168.444 3.46387ZM166.785 15.1801H183.085V17.1128H166.785V15.1801Z" fill="white"/>
<path d="M156.061 14.0343V5.85857H158.643V14.0343H160.935V15.5223C160.439 15.8815 159.567 15.967 158.421 15.967H149.51V14.0343H151.306V7.58608C151.306 7.02164 151.289 6.74798 150.964 6.35459C150.758 6.08092 150.878 5.85857 151.135 5.85857H153.888V14.0343H156.061ZM164.219 18.7892H161.534V4.45605C161.534 3.85741 161.448 3.58374 161.123 3.19035C160.901 2.93379 161.038 2.69434 161.294 2.69434H164.219V8.61232H166.306V10.5793H164.219V18.7892ZM159.909 3.34429V5.25993H149.852V3.34429H159.909Z" fill="white"/>
<path d="M10.9164 0C4.88962 0 0 4.88767 0 10.912C0 16.9363 4.88962 21.824 10.9164 21.824C16.9431 21.824 21.8327 16.9363 21.8327 10.912C21.8327 4.88767 16.9468 0 10.9164 0ZM11.1438 19.8257C9.83794 20.009 7.71042 19.679 6.27251 18.766C5.01067 17.9703 4.2587 16.973 3.77084 15.961C3.27198 14.927 3.03721 13.673 3.56909 13.7353C3.81853 13.7647 4.03128 14.234 4.51181 14.8463C4.83827 15.2643 5.14272 15.6163 5.37015 15.6677C5.47286 15.6897 5.55722 15.642 5.63059 15.5063C5.76631 15.246 5.94971 14.7547 6.27618 14.355C6.54028 14.0507 6.85941 13.9077 7.04649 14.652C7.13452 15.0223 7.20788 15.4073 7.24823 15.741C7.30692 16.214 7.33627 16.4963 7.50133 16.5733C7.65906 16.6503 7.92317 16.5513 8.35601 16.39C8.66413 16.2763 9.06029 16.1297 9.56283 15.9867C10.025 15.8547 10.3185 15.9243 10.0213 16.6393C9.88195 16.9767 9.7389 17.2627 9.24003 17.9813C9.15199 18.1097 9.17034 18.2343 9.27671 18.3407C9.44545 18.5057 9.82326 18.7073 10.2414 18.8907C10.5752 19.0337 10.9714 19.162 11.2355 19.2353C11.6463 19.3527 11.5656 19.767 11.1511 19.8257H11.1438ZM16.745 17.479C16.3379 18.139 15.4869 18.854 14.4524 19.3307C14.2947 19.4003 14.1297 19.3783 14.0856 19.25C14.049 19.14 14.137 19.0117 14.2397 18.8907C15.5859 17.1453 14.5845 15.543 12.413 14.3037C10.8063 13.387 9.78658 12.859 8.60178 12.1623C5.13172 10.12 4.46045 8.338 4.32473 7.28567C3.98359 4.62733 6.18447 2.63267 8.44405 2.15233C8.51374 2.13767 8.69348 2.10833 8.75217 2.25867C8.81086 2.409 8.67514 2.519 8.59811 2.56667C7.5857 3.124 6.59164 4.30467 6.70168 5.61733C6.76037 6.35067 7.07583 7.40667 9.06396 8.822C10.2634 9.67633 11.7307 10.3767 14.6909 12.1513C17.8198 14.025 17.464 16.313 16.745 17.4753V17.479ZM17.2329 7.49833C16.5176 8.371 15.806 8.04833 15.2558 6.81633C14.9146 6.05 14.4635 5.863 14.1443 6.06467C13.7959 6.28467 13.9352 6.809 14.3241 7.414C14.5772 7.81 14.4635 8.27567 14.1993 8.55067C13.9206 8.84033 13.4694 8.954 12.9742 8.84767C12.0938 8.65333 11.2282 7.47633 11.8591 4.90233C12.1158 3.86467 11.617 3.421 11.2979 3.02133C11.1401 2.82333 11.1218 2.70233 11.1768 2.62167C11.2392 2.53367 11.3859 2.52633 11.6427 2.58133C11.9801 2.651 12.4827 2.827 12.8935 2.88933C13.1649 2.93333 13.4731 2.94433 13.7959 2.92967C14.6725 2.89667 15.3218 3.03233 15.9821 3.35867C17.1045 3.916 17.2219 4.873 16.5946 4.796C16.3782 4.77033 16.0994 4.60533 15.8683 4.49533C15.7143 4.422 15.5822 4.39633 15.4832 4.466C15.3915 4.532 15.3511 4.67133 15.4172 4.81067C15.5566 5.104 16.0297 5.25433 16.668 5.434C17.7868 5.742 17.8088 6.77967 17.2256 7.49833H17.2329Z" fill="white"/>
</svg>
