<svg width="132" height="64" viewBox="0 0 132 64" fill="none" xmlns="http://www.w3.org/2000/svg">
<g clip-path="url(#clip0_7498_4833)">
<circle opacity="0.5" cx="32" cy="32" r="32" transform="matrix(-1 0 0 1 64 0)" fill="#12192B"/>
<path fill-rule="evenodd" clip-rule="evenodd" d="M33.6812 19.3951C34.0833 19.0166 34.1024 18.3837 33.7238 17.9815C33.3453 17.5794 32.7124 17.5603 32.3103 17.9389L18.3958 31.0379C17.9743 31.1554 17.665 31.5422 17.665 32.0012C17.665 32.4604 17.9746 32.8473 18.3964 32.9647L32.3103 46.0632C32.7124 46.4418 33.3453 46.4227 33.7238 46.0205C34.1024 45.6184 34.0833 44.9855 33.6812 44.607L21.3529 33.0012H45.3332C45.8854 33.0012 46.3332 32.5535 46.3332 32.0012C46.3332 31.4489 45.8854 31.0012 45.3332 31.0012H21.3526L33.6812 19.3951Z" fill="white"/>
<circle opacity="0.5" cx="100" cy="32" r="32" fill="#12192B"/>
<path fill-rule="evenodd" clip-rule="evenodd" d="M98.3189 19.3951C97.9168 19.0166 97.8977 18.3837 98.2762 17.9815C98.6548 17.5794 99.2877 17.5603 99.6898 17.9389L113.604 31.0378C114.026 31.1554 114.335 31.5422 114.335 32.0012C114.335 32.4603 114.025 32.8472 113.604 32.9646L99.6898 46.0632C99.2877 46.4418 98.6548 46.4227 98.2762 46.0205C97.8977 45.6184 97.9168 44.9855 98.3189 44.607L110.647 33.0012H86.6668C86.1146 33.0012 85.6668 32.5535 85.6668 32.0012C85.6668 31.4489 86.1146 31.0012 86.6668 31.0012H110.647L98.3189 19.3951Z" fill="white"/>
</g>
<defs>
<clipPath id="clip0_7498_4833">
<rect width="132" height="64" fill="white"/>
</clipPath>
</defs>
</svg>
