<svg width="24" height="24" viewBox="0 0 24 24" fill="none" xmlns="http://www.w3.org/2000/svg">
<path d="M8.7671 6.67969C5.95924 7.92163 4 10.7318 4 13.9996C4 18.4178 7.58172 21.9996 12 21.9996C16.4183 21.9996 20 18.4178 20 13.9996C20 11.4732 18.8289 9.2203 17 7.75418" stroke="#7B00F6" stroke-width="1.5"/>
<path d="M15.3353 6.81287L12.0037 10.1125L8.67209 6.81287C8.45234 6.59903 8.27925 6.34201 8.16371 6.05799C8.04817 5.77397 7.9927 5.4691 8.00077 5.16259C8.00884 4.85607 8.0803 4.55455 8.21063 4.277C8.34096 3.99946 8.52734 3.7519 8.75804 3.54993C8.98875 3.34796 9.25877 3.19594 9.55111 3.10345C9.84345 3.01096 10.1518 2.98001 10.4567 3.01253C10.7616 3.04505 11.0564 3.14036 11.3227 3.29243C11.5889 3.44451 11.8208 3.65007 12.0037 3.89616C12.1874 3.65185 12.4195 3.44809 12.6856 3.29763C12.9517 3.14717 13.2459 3.05324 13.55 3.02173C13.854 2.99023 14.1613 3.02181 14.4526 3.11452C14.7438 3.20722 15.0128 3.35905 15.2427 3.5605C15.4726 3.76194 15.6584 4.00867 15.7886 4.28524C15.9187 4.56182 15.9904 4.86228 15.9991 5.16782C16.0078 5.47336 15.9533 5.77741 15.8391 6.06093C15.7249 6.34445 15.5534 6.60135 15.3353 6.81554" stroke="#7B00F6" stroke-width="1.5" stroke-linecap="round" stroke-linejoin="round"/>
</svg>
