<svg width="16" height="16" viewBox="0 0 16 16" fill="none" xmlns="http://www.w3.org/2000/svg">
<path d="M1.5 4C1.5 3.17157 2.17157 2.5 3 2.5H6.01537C6.10389 2.5 6.19083 2.5235 6.2673 2.56811L7.51454 3.29567C7.74395 3.42949 8.00477 3.5 8.27035 3.5H12C12.8284 3.5 13.5 4.17157 13.5 5V12C13.5 12.8284 12.8284 13.5 12 13.5H3C2.17157 13.5 1.5 12.8284 1.5 12V4Z" stroke="#313749"/>
<path d="M3.1239 7.15644C3.28333 6.47887 3.88795 6 4.58403 6H13.4748C14.4421 6 15.1565 6.902 14.9349 7.84356L13.8761 12.3436C13.7167 13.0211 13.112 13.5 12.416 13.5H3.52521C2.55793 13.5 1.84354 12.598 2.06508 11.6564L3.1239 7.15644Z" fill="white" stroke="#313749"/>
</svg>
