<svg width="240" height="240" viewBox="0 0 240 240" fill="none" xmlns="http://www.w3.org/2000/svg">
<path d="M2 12L12 4L22 11.875M5 10C5 9.25 5 20 5 20H19C19 15.8995 19 14.1005 19 10M12 14L12 20" stroke="black" stroke-width="2" stroke-linejoin="round"/>
<path d="M146 60L156 52L166 59.875M149 58C149 57.25 149 68 149 68H163C163 63.8995 163 62.1005 163 58M156 62L156 68" stroke="#555555" stroke-width="2" stroke-linejoin="round"/>
<path d="M39 15L45.3 21.3M41 10C41 13.866 37.866 17 34 17C30.134 17 27 13.866 27 10C27 6.13401 30.134 3 34 3C37.866 3 41 6.13401 41 10Z" stroke="black" stroke-width="2"/>
<rect x="75" y="5" width="18" height="16" rx="1" stroke="black" stroke-width="2"/>
<path d="M79 2V6" stroke="black" stroke-width="2"/>
<path d="M89 2V6" stroke="black" stroke-width="2"/>
<path d="M76 9H92" stroke="black" stroke-width="2"/>
<circle cx="156" cy="12" r="3" stroke="black" stroke-width="2"/>
<path d="M165 12C165 12 160.971 18 156 18C151.029 18 147 12 147 12C147 12 151.029 6 156 6C160.971 6 165 12 165 12Z" stroke="black" stroke-width="2"/>
<path fill-rule="evenodd" clip-rule="evenodd" d="M186.569 16.1555C186.733 16.0151 186.89 15.8747 187.041 15.7356C187.9 14.9444 188.593 14.1563 189.07 13.5668C189.309 13.2712 189.496 13.0236 189.625 12.8478C189.689 12.7599 189.739 12.6897 189.773 12.6404C189.79 12.6157 189.804 12.5962 189.813 12.5823L189.825 12.5656L189.828 12.5605L189.829 12.5587L189.83 12.558C189.83 12.5578 189.83 12.5575 189 12L189.83 12.5575L190.205 12L189.83 11.4425L189 12C189.83 11.4425 189.83 11.4422 189.83 11.442L189.829 11.4413L189.828 11.4395L189.825 11.4344L189.813 11.4177C189.804 11.4038 189.79 11.3843 189.773 11.3596C189.739 11.3103 189.689 11.2401 189.625 11.1522C189.496 10.9764 189.309 10.7288 189.07 10.4332C188.593 9.84372 187.9 9.05563 187.041 8.26443C185.359 6.71494 182.871 5 180 5C178.679 5 177.438 5.36334 176.32 5.90664L177.839 7.42547C178.539 7.1579 179.264 7 180 7C182.1 7 184.112 8.28506 185.687 9.73557C186.456 10.4444 187.082 11.1563 187.516 11.6918C187.606 11.803 187.687 11.9063 187.76 12C187.687 12.0937 187.606 12.197 187.516 12.3082C187.082 12.8437 186.456 13.5556 185.687 14.2644C185.513 14.4243 185.334 14.5822 185.15 14.7365L186.569 16.1555ZM175.989 8.40333C175.392 8.80347 174.829 9.26065 174.313 9.73557C173.544 10.4444 172.918 11.1563 172.484 11.6918C172.394 11.803 172.313 11.9063 172.24 12C172.313 12.0937 172.394 12.197 172.484 12.3082C172.918 12.8437 173.544 13.5556 174.313 14.2644C175.888 15.7149 177.9 17 180 17C181.22 17 182.411 16.566 183.503 15.9178L184.955 17.3698C183.537 18.2895 181.848 19 180 19C177.13 19 174.641 17.2851 172.959 15.7356C172.1 14.9444 171.407 14.1563 170.93 13.5668C170.691 13.2712 170.504 13.0236 170.375 12.8478C170.311 12.7599 170.261 12.6897 170.227 12.6404C170.21 12.6157 170.196 12.5962 170.187 12.5823L170.175 12.5656L170.172 12.5605L170.171 12.5587L170.17 12.558C170.17 12.5578 170.17 12.5575 171 12C170.17 11.4425 170.17 11.4422 170.17 11.442L170.171 11.4413L170.172 11.4395L170.175 11.4344L170.187 11.4177C170.196 11.4038 170.21 11.3843 170.227 11.3596C170.261 11.3103 170.311 11.2401 170.375 11.1522C170.504 10.9764 170.691 10.7288 170.93 10.4332C171.407 9.84372 172.1 9.05563 172.959 8.26443C173.429 7.8308 173.963 7.38421 174.551 6.96588L175.989 8.40333ZM171 12L170.17 12.5575L169.795 12L170.17 11.4425L171 12Z" fill="black"/>
<mask id="path-11-inside-1_30_146" fill="white">
<path fill-rule="evenodd" clip-rule="evenodd" d="M183.766 13.3517C183.917 12.9294 184 12.4744 184 12C184 9.79086 182.209 8 180 8C179.526 8 179.071 8.08257 178.648 8.23413L183.766 13.3517ZM176.972 9.38623C176.366 10.0873 176 11.0009 176 12C176 14.2091 177.791 16 180 16C180.999 16 181.913 15.6337 182.614 15.028L176.972 9.38623Z"/>
</mask>
<path fill-rule="evenodd" clip-rule="evenodd" d="M183.766 13.3517C183.917 12.9294 184 12.4744 184 12C184 9.79086 182.209 8 180 8C179.526 8 179.071 8.08257 178.648 8.23413L183.766 13.3517ZM176.972 9.38623C176.366 10.0873 176 11.0009 176 12C176 14.2091 177.791 16 180 16C180.999 16 181.913 15.6337 182.614 15.028L176.972 9.38623Z" fill="black"/>
<path d="M183.766 13.3517L182.352 14.7659L184.582 16.9966L185.648 14.0274L183.766 13.3517ZM178.648 8.23413L177.973 6.35174L175.003 7.41761L177.234 9.64835L178.648 8.23413ZM176.972 9.38623L178.386 7.97201L176.865 6.45083L175.459 8.07869L176.972 9.38623ZM182.614 15.028L183.921 16.5414L185.549 15.135L184.028 13.6138L182.614 15.028ZM182 12C182 12.2408 181.958 12.4674 181.883 12.6759L185.648 14.0274C185.877 13.3915 186 12.708 186 12H182ZM180 10C181.105 10 182 10.8954 182 12H186C186 8.68629 183.314 6 180 6V10ZM179.324 10.1165C179.533 10.0417 179.759 10 180 10V6C179.292 6 178.609 6.12347 177.973 6.35174L179.324 10.1165ZM177.234 9.64835L182.352 14.7659L185.18 11.9374L180.063 6.81992L177.234 9.64835ZM178 12C178 11.4989 178.182 11.0453 178.485 10.6938L175.459 8.07869C174.551 9.12922 174 10.5028 174 12H178ZM180 14C178.895 14 178 13.1046 178 12H174C174 15.3137 176.686 18 180 18V14ZM181.306 13.5146C180.955 13.8183 180.501 14 180 14V18C181.497 18 182.871 17.449 183.921 16.5414L181.306 13.5146ZM184.028 13.6138L178.386 7.97201L175.558 10.8004L181.2 16.4422L184.028 13.6138Z" fill="black" mask="url(#path-11-inside-1_30_146)"/>
<path d="M171.5 4.5L187 20" stroke="black" stroke-width="2" stroke-linejoin="round"/>
<path fill-rule="evenodd" clip-rule="evenodd" d="M204 20C208.418 20 212 16.4183 212 12C212 7.58172 208.418 4 204 4C199.582 4 196 7.58172 196 12C196 16.4183 199.582 20 204 20ZM204 22C209.523 22 214 17.5228 214 12C214 6.47715 209.523 2 204 2C198.477 2 194 6.47715 194 12C194 17.5228 198.477 22 204 22ZM205 11.125V15H206V16H205H203H202V15H203V11.375L202 11.5V10.375L205 10V11.125ZM204 9C204.552 9 205 8.55228 205 8C205 7.44772 204.552 7 204 7C203.448 7 203 7.44772 203 8C203 8.55228 203.448 9 204 9Z" fill="black"/>
<path fill-rule="evenodd" clip-rule="evenodd" d="M236 12C236 16.4183 232.418 20 228 20C223.582 20 220 16.4183 220 12C220 7.58172 223.582 4 228 4C232.418 4 236 7.58172 236 12ZM238 12C238 17.5228 233.523 22 228 22C222.477 22 218 17.5228 218 12C218 6.47715 222.477 2 228 2C233.523 2 238 6.47715 238 12ZM226.964 14.0166V13.9061C226.991 12.1796 227.462 11.6548 228.283 11.1161C228.848 10.757 229.278 10.3012 229.278 9.62442C229.278 8.87858 228.7 8.39516 227.987 8.38135C227.327 8.39516 226.709 8.82333 226.668 9.70729H225C225.054 7.91174 226.372 6.98634 227.987 7.00015C229.776 6.98634 230.987 8.00842 231 9.5968C230.987 10.7018 230.462 11.42 229.601 11.9448C228.848 12.4144 228.525 12.884 228.525 13.9061V14.0166H226.964ZM227.771 17C227.22 17 226.749 16.5304 226.749 15.9503C226.749 15.384 227.22 14.9144 227.771 14.9006C228.323 14.9144 228.794 15.384 228.794 15.9503C228.794 16.5304 228.323 17 227.771 17Z" fill="#111111"/>
<circle cx="53.5" cy="11.5" r="2.5" stroke="black" stroke-width="2"/>
<circle cx="65.5" cy="5.5" r="2.5" stroke="black" stroke-width="2"/>
<circle cx="65.5" cy="18.5" r="2.5" stroke="black" stroke-width="2"/>
<path d="M64 6L55 11M55 12L64 17.5" stroke="black" stroke-width="2" stroke-linejoin="round"/>
<path fill-rule="evenodd" clip-rule="evenodd" d="M109 2H107V4.07089C103.608 4.55612 101 7.47353 101 11V17H100V19H116V17H115V11C115 7.47353 112.392 4.55612 109 4.07089V2ZM113 17V11C113 8.23858 110.761 6 108 6C105.239 6 103 8.23858 103 11V17H113ZM110 20C110 21.1046 109.105 22 108 22C106.895 22 106 21.1046 106 20H110Z" fill="#111111"/>
<path fill-rule="evenodd" clip-rule="evenodd" d="M138.246 16.9997C139.343 15.6301 140 13.8917 140 12C140 7.58172 136.418 4 132 4C127.582 4 124 7.58172 124 12C124 13.8921 124.657 15.6307 125.755 17.0003C127.221 15.1712 129.474 14 132.001 14C134.527 14 136.78 15.1709 138.246 16.9997ZM134.954 21.5566C139.035 20.2967 142 16.4946 142 12C142 6.47715 137.523 2 132 2C126.477 2 122 6.47715 122 12C122 14.6255 123.012 17.0146 124.667 18.7988C124.667 18.7988 124.667 18.7988 124.667 18.7989C126.058 20.2987 127.904 21.371 129.985 21.7968C130.636 21.93 131.31 22 132 22C133.028 22 134.02 21.8448 134.954 21.5566ZM136.801 18.3997C135.705 16.9407 133.961 16 132.001 16C130.04 16 128.295 16.941 127.199 18.4002C128.473 19.3566 130.04 19.942 131.742 19.9959C131.828 19.9986 131.914 20 132 20C132.112 20 132.224 19.9977 132.335 19.9931C134.007 19.9243 135.547 19.342 136.801 18.3997ZM132 9C132.552 9 133 9.44772 133 10C133 10.5523 132.552 11 132 11C131.448 11 131 10.5523 131 10C131 9.44772 131.448 9 132 9ZM132 7C133.657 7 135 8.34315 135 10C135 11.6569 133.657 13 132 13C130.343 13 129 11.6569 129 10C129 8.34315 130.343 7 132 7Z" fill="#111111"/>
<path d="M21 26V32H15" stroke="black" stroke-width="2"/>
<path d="M21 36C21 36.6874 20.9229 37.3568 20.777 38C19.8675 42.008 16.2832 45 12 45C7.02944 45 3 40.9706 3 36C3 31.0294 7.02944 27 12 27C15.5337 27 18.5918 29.0366 20.0645 32" stroke="black" stroke-width="2"/>
<path d="M38 30C38 31.1046 37.1046 32 36 32C34.8954 32 34 31.1046 34 30C34 28.8954 34.8954 28 36 28C37.1046 28 38 28.8954 38 30Z" fill="black"/>
<path d="M38 36C38 37.1046 37.1046 38 36 38C34.8954 38 34 37.1046 34 36C34 34.8954 34.8954 34 36 34C37.1046 34 38 34.8954 38 36Z" fill="black"/>
<path d="M38 42C38 43.1046 37.1046 44 36 44C34.8954 44 34 43.1046 34 42C34 40.8954 34.8954 40 36 40C37.1046 40 38 40.8954 38 42Z" fill="black"/>
<path d="M54 34C55.1046 34 56 34.8954 56 36C56 37.1046 55.1046 38 54 38C52.8954 38 52 37.1046 52 36C52 34.8954 52.8954 34 54 34Z" fill="black"/>
<path d="M60 34C61.1046 34 62 34.8954 62 36C62 37.1046 61.1046 38 60 38C58.8954 38 58 37.1046 58 36C58 34.8954 58.8954 34 60 34Z" fill="black"/>
<path d="M66 34C67.1046 34 68 34.8954 68 36C68 37.1046 67.1046 38 66 38C64.8954 38 64 37.1046 64 36C64 34.8954 64.8954 34 66 34Z" fill="black"/>
<path d="M75 31C75 28.7909 76.7909 27 79 27H89C91.2091 27 93 28.7909 93 31V37C93 39.2091 91.2091 41 89 41H79L75 45V31Z" stroke="black" stroke-width="2" stroke-linejoin="round"/>
<path d="M79 36H89" stroke="black" stroke-width="2" stroke-linejoin="round"/>
<path d="M79 32H89" stroke="black" stroke-width="2" stroke-linejoin="round"/>
<rect x="99" y="27" width="18" height="18" rx="2" stroke="black" stroke-width="2"/>
<path d="M103 36H113" stroke="black" stroke-width="2" stroke-linejoin="round"/>
<path d="M103 40H109" stroke="black" stroke-width="2" stroke-linejoin="round"/>
<path d="M103 32H113" stroke="black" stroke-width="2" stroke-linejoin="round"/>
<rect x="123" y="27" width="18" height="18" stroke="black" stroke-width="2" stroke-linejoin="round"/>
<path d="M137.5 30.5L133.5 34.5M133.5 30.5L137.5 34.5" stroke="black" stroke-width="1.5"/>
<path d="M126 32.5H131" stroke="black" stroke-width="1.5" stroke-linejoin="round"/>
<path d="M133 38.5H138" stroke="black" stroke-width="1.5" stroke-linejoin="round"/>
<path d="M133 40.5H138" stroke="black" stroke-width="1.5" stroke-linejoin="round"/>
<path d="M126 39.5H131" stroke="black" stroke-width="1.5" stroke-linejoin="round"/>
<path d="M128.5 37V42" stroke="black" stroke-width="1.5" stroke-linejoin="round"/>
<path fill-rule="evenodd" clip-rule="evenodd" d="M162 36.9999V44H148V30H155L157 28H147C146.448 28 146 28.4477 146 29V45C146 45.5523 146.448 46 147 46H163C163.552 46 164 45.5523 164 45V34.9999L162 36.9999ZM163 28C163.552 28.0001 164 28.4477 164 28.9998L163 28Z" fill="black"/>
<path d="M153 39V36L162 27L165 30L156 39H153Z" stroke="black" stroke-width="2" stroke-linejoin="round"/>
<rect x="171" y="29" width="18" height="14" stroke="#111111" stroke-width="2" stroke-linejoin="round"/>
<path d="M172 30L180 36L188 30" stroke="#111111" stroke-width="2" stroke-linejoin="round"/>
<path fill-rule="evenodd" clip-rule="evenodd" d="M206.604 26L207.294 28.9584C207.713 29.1537 208.112 29.385 208.487 29.6484L211.396 28.7666L213.999 33.2767L211.782 35.3547C211.801 35.5817 211.812 35.8115 211.812 36.0437C211.812 36.2759 211.801 36.5057 211.782 36.7327L213.999 38.8107L211.396 43.3208L208.487 42.439C208.105 42.7072 207.699 42.9422 207.271 43.1396L206.604 46H201.396L200.728 43.1395C200.301 42.942 199.894 42.707 199.512 42.4387L196.604 43.3204L194 38.8103L196.218 36.7324C196.198 36.5054 196.188 36.2758 196.188 36.0437C196.188 35.8117 196.198 35.582 196.218 35.3551L194 33.2771L196.604 28.767L199.512 29.6487C199.887 29.3851 200.286 29.1537 200.706 28.9584L201.396 26H206.604ZM209.067 31.5624L210.457 31.141L211.474 32.9023L210.414 33.8952L209.704 34.5601L209.789 35.5288C209.804 35.698 209.812 35.8697 209.812 36.0437C209.812 36.2177 209.804 36.3894 209.789 36.5586L209.704 37.5273L210.414 38.1922L211.474 39.1851L210.457 40.9464L209.067 40.525L208.134 40.2422L207.337 40.8028C207.053 41.0025 206.75 41.1772 206.433 41.3239L205.545 41.7335L205.323 42.6852L205.017 44H202.983L202.676 42.6851L202.454 41.7335L201.567 41.3238C201.249 41.1771 200.947 41.0024 200.662 40.8026L199.865 40.2419L198.932 40.5247L197.542 40.946L196.526 39.1847L197.585 38.1919L198.295 37.527L198.21 36.5583C198.196 36.3892 198.188 36.2176 198.188 36.0437C198.188 35.8698 198.196 35.6982 198.21 35.5291L198.295 34.5604L197.585 33.8955L196.526 32.9027L197.542 31.1414L198.932 31.5627L199.865 31.8455L200.662 31.2848C200.942 31.0886 201.238 30.9165 201.55 30.7715L202.432 30.3606L202.653 29.4129L202.983 28H205.017L205.346 29.4129L205.567 30.3606L206.45 30.7715C206.761 30.9164 207.058 31.0885 207.337 31.2846L208.134 31.8452L209.067 31.5624ZM206 36C206 37.1046 205.105 38 204 38C202.895 38 202 37.1046 202 36C202 34.8954 202.895 34 204 34C205.105 34 206 34.8954 206 36ZM208 36C208 38.2091 206.209 40 204 40C201.791 40 200 38.2091 200 36C200 33.7909 201.791 32 204 32C206.209 32 208 33.7909 208 36Z" fill="#111111"/>
<path d="M219 41V45H237V41" stroke="black" stroke-width="2" stroke-linejoin="round"/>
<path d="M228 26V39" stroke="black" stroke-width="2"/>
<path d="M223 35L228 40L233 35" stroke="black" stroke-width="2" stroke-linejoin="round"/>
<path d="M171 65V69H189V65" stroke="white" stroke-width="2" stroke-linejoin="round"/>
<path d="M180 50V63" stroke="white" stroke-width="2"/>
<path d="M175 59L180 64L185 59" stroke="white" stroke-width="2" stroke-linejoin="round"/>
<path fill-rule="evenodd" clip-rule="evenodd" d="M9 50V52H6H4H2V54H4V69C4 69.5523 4.44772 70 5 70H19C19.5523 70 20 69.5523 20 69V54H22V52H20H18H15V50H9ZM6 54H18V68H6V54ZM9 65V57H11V65H9ZM13 57V65H15V57H13Z" fill="#111111"/>
<path d="M34.1609 54.8357L34.1939 54.882L34.2319 54.9241C34.2964 54.9956 34.3185 55.0451 34.3271 55.071C34.3354 55.096 34.3401 55.1257 34.3353 55.1707C34.3238 55.2769 34.2574 55.4671 34.0535 55.742C33.9625 55.8646 33.85 55.9958 33.6966 56.157C33.6232 56.2342 33.5661 56.2921 33.4337 56.4247L32.6673 57.1915C32.3739 57.4849 32.3656 57.8371 32.3647 57.9213C32.3634 58.0518 32.3853 58.1608 32.4 58.2232C32.4314 58.3557 32.4811 58.4843 32.527 58.59C32.6233 58.8118 32.7674 59.079 32.9472 59.3673C33.3095 59.9485 33.8602 60.6848 34.5833 61.4086C35.3061 62.1322 36.042 62.6833 36.6231 63.0459C36.9115 63.2258 37.1788 63.37 37.4009 63.4664C37.5067 63.5123 37.6356 63.5621 37.7684 63.5934C37.8311 63.6081 37.9403 63.63 38.0711 63.6284C38.1564 63.6273 38.5073 63.6181 38.7996 63.3256L39.5658 62.559L39.566 62.5588C39.9806 62.1438 40.1436 62.0023 40.3596 61.8606C40.584 61.7133 40.7451 61.6699 40.8374 61.6657C40.899 61.6628 40.9649 61.6717 41.0664 61.7624L41.1069 61.7986L41.1511 61.8303C43.0875 63.2154 44.091 64.0027 44.5464 64.4759C45.1768 65.1309 45.1111 66.1798 44.5464 66.7767C44.2501 67.0899 43.8683 67.4722 43.4101 67.9139L43.4034 67.9204L43.3968 67.9269C42.3455 68.9789 40.5921 69.3017 38.3681 68.7045C36.1647 68.1129 33.6929 66.6524 31.5188 64.4763C29.3441 62.2994 27.8844 59.8258 27.2924 57.6217C26.6946 55.3964 27.0167 53.6442 28.0648 52.5955L28.0648 52.5955L28.0701 52.5902C28.5702 52.0822 28.7327 51.9198 29.2197 51.44C29.779 50.8888 30.887 50.8169 31.5177 51.44C32.0009 51.9173 32.8367 52.9828 34.1609 54.8357Z" stroke="black" stroke-width="2"/>
<rect x="55" y="63" width="10" height="6" stroke="black" stroke-width="2" stroke-linejoin="round"/>
<path fill-rule="evenodd" clip-rule="evenodd" d="M53 56C51.3431 56 50 57.3431 50 59V65C50 65.5523 50.4477 66 51 66H55V64H52V59C52 58.4477 52.4477 58 53 58H67C67.5523 58 68 58.4477 68 59V64H65V66H69C69.5523 66 70 65.5523 70 65V59C70 57.3431 68.6569 56 67 56H53Z" fill="black"/>
<rect x="54" y="51" width="12" height="6" stroke="black" stroke-width="2" stroke-linejoin="round"/>
<circle cx="66" cy="60" r="1" fill="black"/>
<path d="M91 58C91 60.8205 89.2198 63.5807 87.2604 65.7338C86.2995 66.7897 85.3354 67.6561 84.6107 68.2586C84.3792 68.4511 84.173 68.6159 84 68.7508C83.827 68.6159 83.6208 68.4511 83.3893 68.2586C82.6646 67.6561 81.7005 66.7897 80.7396 65.7338C78.7802 63.5807 77 60.8205 77 58C77 54.134 80.134 51 84 51C87.866 51 91 54.134 91 58Z" stroke="black" stroke-width="2"/>
<circle cx="84" cy="58" r="2" fill="black"/>
<path d="M7 108.818L10.125 112L17 105" stroke="white" stroke-width="2" stroke-linejoin="round"/>
<path d="M31 107.818L34.125 111L41 104" stroke="#004FE9" stroke-width="2" stroke-linejoin="round"/>
<path d="M79 107.818L82.125 111L89 104" stroke="#E8E8E8" stroke-width="2" stroke-linejoin="round"/>
<circle cx="12" cy="84" r="10" fill="#229639"/>
<path d="M7 84L10.6364 88L17 80" stroke="white" stroke-width="2"/>
<circle cx="36" cy="84" r="10" fill="#F5002C"/>
<rect x="35" y="79" width="2" height="7" fill="white"/>
<rect x="35" y="88" width="2" height="2" fill="white"/>
<path d="M50.3947 89.7178L58.7201 76.0944C59.305 75.1373 60.695 75.1373 61.2799 76.0944L69.6053 89.7178C70.2162 90.7174 69.4968 92 68.3254 92H51.6746C50.5032 92 49.7838 90.7174 50.3947 89.7178Z" fill="#FC5925"/>
<rect x="59" y="81" width="2" height="5" fill="white"/>
<rect x="59" y="88" width="2" height="2" fill="white"/>
<circle cx="84" cy="84" r="10" fill="#E8E8E8"/>
<path d="M83 83H85V89H83V83Z" fill="black"/>
<path d="M83 79H85V81H83V79Z" fill="black"/>
<rect x="99" y="51" width="18" height="18" rx="1" stroke="black" stroke-width="2"/>
<path d="M99 63L102.586 59.4142C103.367 58.6332 104.633 58.6332 105.414 59.4142L115 69" stroke="black" stroke-width="2"/>
<path d="M109 63L110.586 61.4142C111.367 60.6332 112.633 60.6332 113.414 61.4142L117 65" stroke="black" stroke-width="2"/>
<circle cx="112.5" cy="55.5" r="1.5" fill="black"/>
<circle cx="132" cy="60" r="9" stroke="black" stroke-width="2"/>
<path d="M132 55L127.707 59.2929C127.317 59.6834 127.317 60.3166 127.707 60.7071L132 65" stroke="black" stroke-width="2"/>
<path d="M128 60H138" stroke="black" stroke-width="2"/>
<circle cx="12" cy="132" r="10" fill="#004FE9"/>
<rect x="7.5" y="130.5" width="9" height="6" rx="0.5" stroke="white"/>
<path d="M14.5 129V130.5H9.5V129C9.5 127.619 10.6193 126.5 12 126.5C13.3807 126.5 14.5 127.619 14.5 129Z" stroke="white"/>
<path d="M12 133V135" stroke="white"/>
<circle cx="36" cy="132" r="10" fill="#003DB2"/>
<mask id="path-84-inside-2_30_146" fill="white">
<path d="M30 128C30 126.895 30.8954 126 32 126H34V130H30V128Z"/>
</mask>
<path d="M29 128C29 126.343 30.3431 125 32 125H34V127H32C31.4477 127 31 127.448 31 128H29ZM34 130H30H34ZM29 130V128C29 126.343 30.3431 125 32 125V127C31.4477 127 31 127.448 31 128V130H29ZM34 126V130V126Z" fill="white" mask="url(#path-84-inside-2_30_146)"/>
<mask id="path-86-inside-3_30_146" fill="white">
<path d="M38 126H40C41.1046 126 42 126.895 42 128V130H38V126Z"/>
</mask>
<path d="M38 125H40C41.6569 125 43 126.343 43 128H41C41 127.448 40.5523 127 40 127H38V125ZM42 130H38H42ZM38 130V126V130ZM40 125C41.6569 125 43 126.343 43 128V130H41V128C41 127.448 40.5523 127 40 127V125Z" fill="white" mask="url(#path-86-inside-3_30_146)"/>
<mask id="path-88-inside-4_30_146" fill="white">
<path d="M30 134H34V138H32C30.8954 138 30 137.105 30 136V134Z"/>
</mask>
<path d="M30 134H34H30ZM34 139H32C30.3431 139 29 137.657 29 136H31C31 136.552 31.4477 137 32 137H34V139ZM32 139C30.3431 139 29 137.657 29 136V134H31V136C31 136.552 31.4477 137 32 137V139ZM34 134V138V134Z" fill="white" mask="url(#path-88-inside-4_30_146)"/>
<path fill-rule="evenodd" clip-rule="evenodd" d="M36 129C34.3431 129 33 130.343 33 132C33 133.657 34.3431 135 36 135C37.6569 135 39 133.657 39 132C39 130.343 37.6569 129 36 129ZM32 132C32 129.791 33.7909 128 36 128C38.2091 128 40 129.791 40 132C40 132.924 39.6865 133.775 39.1599 134.453L42.0036 137.296L41.2964 138.004L38.4528 135.16C37.7755 135.686 36.9244 136 36 136C33.7909 136 32 134.209 32 132Z" fill="white"/>
<path d="M6 217L1 226" stroke="#CCCCCC"/>
<path d="M55 107.818L58.125 111L65 104" stroke="#CCCCCC" stroke-width="2" stroke-linejoin="round"/>
<circle cx="32" cy="224" r="8" fill="#F5002C"/>
<path d="M35 227.5H33.8303L30.3714 222.714H30.3109V227.5H29V220.5H30.1899L33.6286 225.286H33.6992V220.5H35V227.5Z" fill="white"/>
<circle cx="69.5" cy="218.5" r="2.5" fill="#F5002C"/>
</svg>
