<svg width="240" height="240" viewBox="0 0 240 240" fill="none" xmlns="http://www.w3.org/2000/svg">
<circle cx="11.9999" cy="108" r="10.5" fill="#0046FF"/>
<path d="M14.6112 109.291C14.5093 109.193 14.3721 109.134 14.2171 109.134C14.0621 109.134 13.9205 109.193 13.8186 109.295L13.429 109.687C13.1833 109.93 12.7848 109.93 12.5413 109.687L11.4277 108.574L10.3142 107.46C10.0685 107.215 10.0685 106.816 10.3142 106.571L10.7038 106.181C10.8057 106.077 10.8654 105.935 10.8654 105.783C10.8654 105.63 10.8057 105.493 10.7083 105.391L8.69592 102.958C8.58966 102.832 8.43027 102.75 8.25316 102.75C8.06499 102.75 7.89896 102.841 7.79491 102.981L7.75949 103.027C7.32337 103.618 6.75 104.559 6.75 105.442C6.75 106.652 7.66208 108.169 9.30693 109.82L9.7364 110.249C9.7364 110.249 9.74083 110.254 9.74304 110.256L9.74968 110.265C11.4012 111.909 13.3493 113.25 14.558 113.25C15.4413 113.25 16.38 112.677 16.9733 112.239L17.0198 112.206C17.1592 112.099 17.25 111.936 17.25 111.748C17.25 111.57 17.1681 111.411 17.0419 111.307L14.609 109.293L14.6112 109.291Z" fill="white"/>
<circle cx="36" cy="108" r="9" fill="#0046FF"/>
<path d="M35.9323 104.143V111.722M32.1429 107.932H39.7218" stroke="white" stroke-width="1.28571" stroke-linecap="round" stroke-linejoin="round"/>
<path d="M103 59.8182L106.125 63L113 56" stroke="#EDEFF2" stroke-width="2" stroke-linecap="round" stroke-linejoin="round"/>
<path d="M79 59.8182L82.125 63L89 56" stroke="#CCDAFF" stroke-width="2" stroke-linecap="round" stroke-linejoin="round"/>
<path d="M7.74023 60.3182L10.3215 63L16.0003 57.1" stroke="white" stroke-width="2" stroke-linecap="round" stroke-linejoin="round"/>
<path d="M14 42L8 36L14 30" stroke="#313749" stroke-width="1.5" stroke-linecap="round" stroke-linejoin="round"/>
<path d="M51 5.25H69" stroke="#313749" stroke-width="1.6" stroke-linecap="round"/>
<path d="M51 12H69" stroke="#313749" stroke-width="1.6" stroke-linecap="round"/>
<path d="M51 18.75H69" stroke="#313749" stroke-width="1.6" stroke-linecap="round"/>
<path d="M77.0002 5.10596L90.8944 19" stroke="#313749" stroke-width="1.6" stroke-linecap="round"/>
<path d="M90.8947 5.10596L77.0004 19" stroke="#313749" stroke-width="1.6" stroke-linecap="round"/>
<circle cx="12" cy="84" r="8" fill="#A8AEBD"/>
<path d="M9 81L15 87" stroke="white" stroke-width="1.5" stroke-linecap="round"/>
<path d="M15 81L9 87" stroke="white" stroke-width="1.5" stroke-linecap="round"/>
<path d="M34 30L40 36L34 42" stroke="#313749" stroke-width="1.5" stroke-linecap="round" stroke-linejoin="round"/>
<path d="M90 34L84 40L78 34" stroke="#313749" stroke-width="1.5" stroke-linecap="round" stroke-linejoin="round"/>
<path d="M54 38L60 32L66 38" stroke="#313749" stroke-width="1.5" stroke-linecap="round" stroke-linejoin="round"/>
<rect x="28" y="5.68445" width="16" height="14.312" rx="2" stroke="#313749" stroke-width="1.5" stroke-linecap="round" stroke-linejoin="round"/>
<path d="M28 10.1844H43.5" stroke="#313749" stroke-width="1.5" stroke-linecap="round" stroke-linejoin="round"/>
<path d="M31 4.00348V5.68448" stroke="#12192B" stroke-width="1.5" stroke-linecap="round" stroke-linejoin="round"/>
<path d="M41 4.00348V5.68448" stroke="#12192B" stroke-width="1.5" stroke-linecap="round" stroke-linejoin="round"/>
<path d="M10.7498 17.5C14.4777 17.5 17.4998 14.4779 17.4998 10.75C17.4998 7.02208 14.4777 4 10.7498 4C7.02189 4 3.99982 7.02208 3.99982 10.75C3.99982 14.4779 7.02189 17.5 10.7498 17.5Z" stroke="#313749" stroke-width="1.5" stroke-linecap="round" stroke-linejoin="round"/>
<path d="M18.9998 19.0015L15.9998 16.0015" stroke="#313749" stroke-width="1.5" stroke-linecap="round" stroke-linejoin="round"/>
<path d="M31 59.8182L34.125 63L41 56" stroke="#0046FF" stroke-width="2" stroke-linecap="round" stroke-linejoin="round"/>
<path d="M55 59.8182L58.125 63L65 56" stroke="#E2E4E9" stroke-width="2" stroke-linecap="round" stroke-linejoin="round"/>
<path d="M38 76H34.625C34.0283 76 33.456 76.2371 33.034 76.659C32.6121 77.081 32.375 77.6533 32.375 78.25V80.7306C33.7813 80.3305 35.2839 80.4414 36.6163 81.0435C37.9487 81.6456 39.0248 82.7001 39.6538 84.0201C40.2828 85.34 40.4241 86.84 40.0526 88.2541C39.6811 89.6683 38.8208 90.9052 37.6243 91.7455H41.375C41.9717 91.7455 42.544 91.5084 42.966 91.0865C43.3879 90.6645 43.625 90.0922 43.625 89.4955V81.6261H39.6875C39.4658 81.6261 39.2463 81.5824 39.0415 81.4976C38.8367 81.4127 38.6506 81.2883 38.4939 81.1315C38.3371 80.9747 38.2129 80.7885 38.1281 80.5836C38.0434 80.3788 37.9999 80.1592 38 79.9375V76ZM43.6216 80.5H39.6864C39.5372 80.5 39.3941 80.4407 39.2886 80.3352C39.1831 80.2298 39.1239 80.0867 39.1239 79.9375V76H39.1351L43.6216 80.5ZM39.125 86.6875C39.125 88.0302 38.5916 89.3178 37.6422 90.2672C36.6928 91.2166 35.4052 91.75 34.0625 91.75C32.7198 91.75 31.4322 91.2166 30.4828 90.2672C29.5334 89.3178 29 88.0302 29 86.6875C29 85.3448 29.5334 84.0572 30.4828 83.1078C31.4322 82.1584 32.7198 81.625 34.0625 81.625C35.4052 81.625 36.6928 82.1584 37.6422 83.1078C38.5916 84.0572 39.125 85.3448 39.125 86.6875ZM33.6642 89.3346L33.6676 89.338C33.772 89.441 33.9125 89.4991 34.0591 89.5H34.0659C34.2136 89.4991 34.355 89.4401 34.4596 89.3358L36.7096 87.0858C36.7619 87.0335 36.8034 86.9715 36.8318 86.9032C36.8601 86.835 36.8747 86.7618 36.8748 86.6879C36.8748 86.614 36.8603 86.5408 36.8321 86.4725C36.8038 86.4042 36.7624 86.3421 36.7102 86.2898C36.658 86.2375 36.5959 86.196 36.5277 86.1677C36.4594 86.1393 36.3862 86.1247 36.3123 86.1247C36.2384 86.1246 36.1652 86.1391 36.0969 86.1674C36.0286 86.1956 35.9665 86.237 35.9142 86.2892L34.625 87.5796V84.4375C34.625 84.2883 34.5657 84.1452 34.4602 84.0398C34.3548 83.9343 34.2117 83.875 34.0625 83.875C33.9133 83.875 33.7702 83.9343 33.6648 84.0398C33.5593 84.1452 33.5 84.2883 33.5 84.4375V87.5796L32.2108 86.2892C32.1051 86.1836 31.9619 86.1243 31.8125 86.1243C31.6631 86.1243 31.5199 86.1836 31.4142 86.2892C31.3086 86.3949 31.2493 86.5381 31.2493 86.6875C31.2493 86.8369 31.3086 86.9801 31.4142 87.0858L33.6642 89.3358V89.3346Z" fill="#A8AEBD"/>
<path d="M62 76H58.625C58.0283 76 57.456 76.2371 57.034 76.659C56.6121 77.081 56.375 77.6533 56.375 78.25V80.7306C57.7813 80.3305 59.2839 80.4414 60.6163 81.0435C61.9487 81.6456 63.0248 82.7001 63.6538 84.0201C64.2828 85.34 64.4241 86.84 64.0526 88.2541C63.6811 89.6683 62.8208 90.9052 61.6243 91.7455H65.375C65.9717 91.7455 66.544 91.5084 66.966 91.0865C67.3879 90.6645 67.625 90.0922 67.625 89.4955V81.6261H63.6875C63.4658 81.6261 63.2463 81.5824 63.0415 81.4976C62.8367 81.4127 62.6506 81.2883 62.4939 81.1315C62.3371 80.9747 62.2129 80.7885 62.1281 80.5836C62.0434 80.3788 61.9999 80.1592 62 79.9375V76ZM67.6216 80.5H63.6864C63.5372 80.5 63.3941 80.4407 63.2886 80.3352C63.1831 80.2298 63.1239 80.0867 63.1239 79.9375V76H63.1351L67.6216 80.5ZM63.125 86.6875C63.125 88.0302 62.5916 89.3178 61.6422 90.2672C60.6928 91.2166 59.4052 91.75 58.0625 91.75C56.7198 91.75 55.4322 91.2166 54.4828 90.2672C53.5334 89.3178 53 88.0302 53 86.6875C53 85.3448 53.5334 84.0572 54.4828 83.1078C55.4322 82.1584 56.7198 81.625 58.0625 81.625C59.4052 81.625 60.6928 82.1584 61.6422 83.1078C62.5916 84.0572 63.125 85.3448 63.125 86.6875ZM57.6642 89.3346L57.6676 89.338C57.772 89.441 57.9125 89.4991 58.0591 89.5H58.0659C58.2136 89.4991 58.355 89.4401 58.4596 89.3358L60.7096 87.0858C60.7619 87.0335 60.8034 86.9715 60.8318 86.9032C60.8601 86.835 60.8747 86.7618 60.8748 86.6879C60.8748 86.614 60.8603 86.5408 60.8321 86.4725C60.8038 86.4042 60.7624 86.3421 60.7102 86.2898C60.658 86.2375 60.5959 86.196 60.5277 86.1677C60.4594 86.1393 60.3862 86.1247 60.3123 86.1247C60.2384 86.1246 60.1652 86.1391 60.0969 86.1674C60.0286 86.1956 59.9665 86.237 59.9142 86.2892L58.625 87.5796V84.4375C58.625 84.2883 58.5657 84.1452 58.4602 84.0398C58.3548 83.9343 58.2117 83.875 58.0625 83.875C57.9133 83.875 57.7702 83.9343 57.6648 84.0398C57.5593 84.1452 57.5 84.2883 57.5 84.4375V87.5796L56.2108 86.2892C56.1051 86.1836 55.9619 86.1243 55.8125 86.1243C55.6631 86.1243 55.5199 86.1836 55.4142 86.2892C55.3086 86.3949 55.2493 86.5381 55.2493 86.6875C55.2493 86.8369 55.3086 86.9801 55.4142 87.0858L57.6642 89.3358V89.3346Z" fill="#E2E4E9"/>
<path d="M115.766 77.0921C115.95 77.226 116.026 77.4046 115.992 77.6278L113.849 90.4849C113.822 90.6468 113.732 90.7723 113.582 90.8616C113.503 90.9062 113.417 90.9286 113.322 90.9286C113.261 90.9286 113.194 90.9146 113.121 90.8867L109.329 89.3382L107.304 91.8075C107.203 91.9358 107.067 92 106.894 92C106.821 92 106.76 91.9888 106.71 91.9665C106.604 91.9275 106.518 91.8619 106.454 91.7698C106.39 91.6777 106.358 91.5759 106.358 91.4643V88.543L113.59 79.6786L104.642 87.4213L101.336 86.0653C101.129 85.9872 101.018 85.8337 101.001 85.6049C100.99 85.3817 101.079 85.2171 101.269 85.111L115.197 77.0753C115.281 77.0251 115.37 77 115.465 77C115.577 77 115.677 77.0307 115.766 77.0921Z" fill="#E2E4E9"/>
<path d="M91.7663 77.0921C91.9504 77.226 92.0258 77.4046 91.9923 77.6278L89.8495 90.4849C89.8216 90.6468 89.7323 90.7723 89.5816 90.8616C89.5035 90.9062 89.417 90.9286 89.3221 90.9286C89.2607 90.9286 89.1938 90.9146 89.1212 90.8867L85.3295 89.3382L83.3038 91.8075C83.2034 91.9358 83.0667 92 82.8937 92C82.8211 92 82.7597 91.9888 82.7095 91.9665C82.6035 91.9275 82.5184 91.8619 82.4542 91.7698C82.3901 91.6777 82.358 91.5759 82.358 91.4643V88.543L89.59 79.6786L80.642 87.4213L77.3357 86.0653C77.1293 85.9872 77.0177 85.8337 77.0009 85.6049C76.9898 85.3817 77.0791 85.2171 77.2688 85.111L91.1971 77.0753C91.2808 77.0251 91.3701 77 91.4649 77C91.5765 77 91.677 77.0307 91.7663 77.0921Z" fill="#A8AEBD"/>
<circle cx="108" cy="36" r="12" fill="#FF0000"/>
<path d="M114 34L108 40L102 34" stroke="#313749" stroke-width="1.5" stroke-linecap="round" stroke-linejoin="round"/>
<path d="M8 134L12 138M12 138L16 134M12 138V126" stroke="#7E869A" stroke-width="1.5" stroke-linecap="round" stroke-linejoin="round"/>
<path d="M27 125H34M34 125C34 126.105 34.8954 127 36 127C37.1046 127 38 126.105 38 125M34 125C34 123.895 34.8954 123 36 123C37.1046 123 38 123.895 38 125M27 132H36M43 132H45M43 132C43 133.105 42.1046 134 41 134C39.8954 134 39 133.105 39 132C39 130.895 39.8954 130 41 130C42.1046 130 43 130.895 43 132ZM38 125H45M36 139H45M27 139H29M29 139C29 140.105 29.8954 141 31 141C32.1046 141 33 140.105 33 139C33 137.895 32.1046 137 31 137C29.8954 137 29 137.895 29 139Z" stroke="#656B7B" stroke-width="1.5" stroke-linecap="round"/>
</svg>
