<svg width="30" height="30" viewBox="0 0 30 30" fill="none" xmlns="http://www.w3.org/2000/svg">
<rect width="30" height="30" rx="2" fill="#E2E4E9"/>
<path d="M11.25 7.49995V9.99995H3.5V7.49995H11.25ZM11.25 13.75V16.25H3.5V13.75H11.25ZM22.5 20V22.5H3.5V20H22.5ZM24.1375 14.375C24.6875 13.525 25 12.5 25 11.3875C25 8.26245 22.5 5.76245 19.375 5.76245C16.25 5.76245 13.75 8.26245 13.75 11.3875C13.75 14.5125 16.25 17.0125 19.375 17.0125C20.4625 17.0125 21.4875 16.7 22.35 16.1625L26.25 20L27.9875 18.2625L24.1375 14.375ZM19.375 14.5125C17.65 14.5125 16.25 13.125 16.25 11.3875C16.25 9.64995 17.65 8.26245 19.375 8.26245C20.2038 8.26245 20.9987 8.59169 21.5847 9.17774C22.1708 9.76379 22.5 10.5586 22.5 11.3875C22.5 12.2163 22.1708 13.0111 21.5847 13.5972C20.9987 14.1832 20.2038 14.5125 19.375 14.5125Z" fill="white"/>
</svg>
