<svg width="20" height="20" viewBox="0 0 20 20" fill="none" xmlns="http://www.w3.org/2000/svg">
<g id="iconoir:trash">
<path id="Vector" d="M16.6667 6.6665L15.0042 16.1215C14.9363 16.5076 14.7346 16.8575 14.4343 17.1096C14.1341 17.3617 13.7545 17.4999 13.3625 17.4998H6.6375C6.24545 17.4999 5.86594 17.3617 5.56569 17.1096C5.26543 16.8575 5.06366 16.5076 4.99583 16.1215L3.33333 6.6665M17.5 4.99984H12.8125M12.8125 4.99984V3.33317C12.8125 2.89114 12.6369 2.46722 12.3243 2.15466C12.0118 1.8421 11.5879 1.6665 11.1458 1.6665H8.85417C8.41214 1.6665 7.98822 1.8421 7.67566 2.15466C7.36309 2.46722 7.1875 2.89114 7.1875 3.33317V4.99984M12.8125 4.99984H7.1875M2.5 4.99984H7.1875M8.85417 8.74984V13.7498M11.1458 8.74984V13.7498" stroke="#313749" stroke-linecap="round" stroke-linejoin="round"/>
</g>
</svg>
