<svg width="232" height="18" viewBox="0 0 232 18" fill="none" xmlns="http://www.w3.org/2000/svg">
<g id="&#236;&#152;&#129;&#235;&#172;&#184;&#235;&#161;&#156;&#234;&#179;&#160;" clip-path="url(#clip0_8293_4843)">
<path id="Vector" d="M9.01183 0C4.03352 0 0 4.02823 0 9C0 13.9718 4.03352 18 9.01183 18C13.9901 18 18.0237 13.9718 18.0237 9C18.0237 4.02823 13.9901 0 9.01183 0ZM9.2026 16.3488C8.12154 16.503 6.36824 16.2308 5.17817 15.4778C4.13345 14.8246 3.5157 13.999 3.11598 13.1643C2.70718 12.3115 2.50732 11.2772 2.95246 11.3317C3.16141 11.3589 3.33401 11.7399 3.73373 12.248C4.00627 12.5927 4.25155 12.8831 4.44232 12.9284C4.52408 12.9466 4.59676 12.9103 4.66035 12.7923C4.76936 12.5746 4.9238 12.1754 5.19633 11.8397C5.41436 11.5857 5.67781 11.4677 5.83225 12.0847C5.90493 12.3931 5.96852 12.7107 5.99577 12.9829C6.04119 13.373 6.06845 13.6089 6.20471 13.6724C6.3319 13.7359 6.54993 13.6542 6.91331 13.5181C7.16767 13.4274 7.49471 13.3004 7.9126 13.1825C8.29415 13.0736 8.53943 13.128 8.29415 13.7177C8.17605 13.999 8.05795 14.2349 7.64915 14.8246C7.57647 14.9244 7.59464 15.0333 7.6764 15.124C7.81267 15.2601 8.13063 15.4234 8.47584 15.5776C8.74837 15.6956 9.07542 15.8044 9.29344 15.8589C9.62957 15.9587 9.56598 16.2944 9.22077 16.3488H9.2026ZM13.8266 14.4163C13.4905 14.9607 12.791 15.5504 11.937 15.9405C11.8099 15.995 11.6736 15.9768 11.6372 15.877C11.61 15.7863 11.6827 15.6774 11.7644 15.5776C12.8727 14.1351 12.046 12.8196 10.2564 11.7944C8.93006 11.0413 8.08521 10.6058 7.11316 10.0252C4.25155 8.3377 3.69739 6.86794 3.57929 6.00605C3.29767 3.81048 5.11457 2.16835 6.9769 1.76915C7.0314 1.76008 7.18584 1.73286 7.23126 1.85988C7.27669 1.9869 7.16767 2.07762 7.10408 2.11391C6.26831 2.57661 5.4507 3.54738 5.54155 4.62702C5.59605 5.23488 5.85042 6.10585 7.49471 7.26714C8.48492 7.9748 9.69316 8.54637 12.1369 10.0161C14.7169 11.5585 14.4262 13.4456 13.8357 14.4073L13.8266 14.4163ZM14.2263 6.1875C13.6358 6.90423 13.0453 6.64113 12.5911 5.625C12.3095 4.98992 11.937 4.83569 11.6736 5.00806C11.3829 5.18952 11.501 5.625 11.8189 6.12399C12.0279 6.4506 11.937 6.83165 11.719 7.05847C11.4919 7.29435 11.1194 7.39415 10.7106 7.30343C9.98387 7.14012 9.26619 6.16935 9.79309 4.04637C10.002 3.19355 9.59323 2.82157 9.32978 2.49496C9.2026 2.33165 9.18443 2.23185 9.22985 2.16835C9.28436 2.09577 9.40246 2.08669 9.6114 2.13206C9.89302 2.19556 10.3018 2.33165 10.647 2.38609C10.8741 2.42238 11.1285 2.43145 11.392 2.42238C12.1187 2.39516 12.6547 2.50403 13.1998 2.77621C14.1264 3.23891 14.2263 4.02823 13.7085 3.96472C13.5268 3.94657 13.2997 3.81048 13.1089 3.71976C12.9818 3.65625 12.8727 3.6381 12.791 3.69254C12.7183 3.74698 12.682 3.86492 12.7365 3.97379C12.8546 4.21875 13.2452 4.33669 13.7721 4.49093C14.6987 4.74496 14.7169 5.59778 14.2354 6.19657L14.2263 6.1875Z" fill="#0046FF"/>
<g id="Group">
<g id="Group_2">
<path id="Vector_2" d="M21.9387 12.1663C22.7927 12.8467 24.1372 13.2732 25.0729 13.2732C26.2266 13.2732 26.917 12.7742 26.917 11.8306C26.917 11.0957 26.6172 10.624 25.6815 10.1613C24.6005 9.60783 23.7193 9.27215 22.9017 8.57356C22.1658 7.92033 21.6389 7.13102 21.6389 5.95158C21.6389 4.30944 23.0016 3.15723 25.2727 3.15723C26.5264 3.15723 27.5711 3.35682 28.5522 3.78323V5.52517C28.5522 5.7792 28.307 5.86993 28.1071 5.69755C27.3077 5.02618 26.4901 4.71771 25.5544 4.71771C24.546 4.71771 23.9736 5.18948 23.9736 5.95158C23.9736 6.50501 24.1735 6.88606 24.546 7.18545C25.2546 7.7661 26.1358 8.19251 26.917 8.56448C28.3978 9.26307 29.2608 10.0796 29.2608 11.8125C29.2608 13.9717 27.4258 14.8609 25.1001 14.8609C23.3832 14.8609 21.212 14.0352 21.4936 13.3276L21.9296 12.1754L21.9387 12.1663Z" fill="#0046FF"/>
<path id="Vector_3" d="M32.9577 3.30253V7.25817C33.5573 6.75011 34.3113 6.43257 35.2016 6.43257C36.9913 6.43257 38.1722 7.46684 38.1722 8.97289V14.6705H35.9465V9.26321C35.9465 8.45576 35.5377 8.08378 34.6565 8.08378C34.0751 8.08378 33.5301 8.33781 32.9668 8.74608V14.6614H30.7411V4.71785C30.7411 4.23701 30.6684 3.99205 30.3868 3.69265C30.2142 3.48398 30.3323 3.29346 30.5413 3.29346H32.9668L32.9577 3.30253Z" fill="#0046FF"/>
<path id="Vector_4" d="M42.3607 6.70484V14.6796H40.135V8.11109C40.135 7.65746 40.0351 7.4125 39.7807 7.12218C39.6081 6.91351 39.7262 6.71391 39.9261 6.71391H42.3698L42.3607 6.70484ZM41.098 5.52541C40.3167 5.52541 39.7535 4.94476 39.7535 4.17359C39.7535 3.40242 40.3258 2.82178 41.098 2.82178C41.8702 2.82178 42.4516 3.40242 42.4516 4.17359C42.4516 4.94476 41.8792 5.52541 41.098 5.52541Z" fill="#0046FF"/>
<path id="Vector_5" d="M46.5577 6.70479V7.48504C47.1392 6.91346 47.8477 6.43262 48.847 6.43262C50.5368 6.43262 51.8268 7.38524 51.8268 9.12717V14.6705H49.601V9.32677C49.601 8.42858 49.2013 8.03846 48.3111 8.03846C47.6842 8.03846 47.1482 8.2925 46.6395 8.74613V14.6705H44.4138V8.12919C44.4138 7.64834 44.332 7.40338 44.0595 7.10399C43.8778 6.89532 43.9868 6.69572 44.2049 6.69572H46.5759L46.5577 6.70479Z" fill="#0046FF"/>
<path id="Vector_6" d="M55.9421 3.30253V7.25817C56.5417 6.75011 57.2957 6.43257 58.186 6.43257C59.9756 6.43257 61.1566 7.46684 61.1566 8.97289V14.6705H58.9309V9.26321C58.9309 8.45576 58.5221 8.08378 57.6409 8.08378C57.0595 8.08378 56.5144 8.33781 55.9512 8.74608V14.6614H53.7255V4.71785C53.7255 4.23701 53.6528 3.99205 53.3712 3.69265C53.1986 3.48398 53.3167 3.29346 53.5256 3.29346H55.9512L55.9421 3.30253Z" fill="#0046FF"/>
<path id="Vector_7" d="M63.7909 8.74613C63.482 8.95479 63.2912 8.84592 63.2912 8.51931V7.03141C64.127 6.65943 65.3898 6.43262 66.3436 6.43262C68.5421 6.43262 69.8139 7.28544 69.8139 9.04552V14.6796H67.6246V13.8177C66.9977 14.5798 66.1074 14.9427 65.1536 14.9427C63.5638 14.9427 62.4736 13.9175 62.4736 12.4205C62.4736 10.7149 63.6546 9.65338 66.1529 9.65338H67.5882V9.05459C67.5882 8.27435 67.0886 7.94774 66.2074 7.94774C65.3262 7.94774 64.4359 8.34693 63.7909 8.7552V8.74613ZM67.5791 11.1141H66.1347C65.0446 11.1141 64.6176 11.6131 64.6176 12.3661C64.6176 12.9921 64.99 13.4185 65.6441 13.4185C66.4072 13.4185 67.0886 13.0647 67.5882 12.4931V11.1141H67.5791Z" fill="#0046FF"/>
<path id="Vector_8" d="M73.838 6.70479V7.48504C74.4194 6.91346 75.128 6.43262 76.1273 6.43262C77.817 6.43262 79.107 7.38524 79.107 9.12717V14.6705H76.8813V9.32677C76.8813 8.42858 76.4816 8.03846 75.5913 8.03846C74.9645 8.03846 74.4285 8.2925 73.9198 8.74613V14.6705H71.6941V8.12919C71.6941 7.64834 71.6123 7.40338 71.3398 7.10399C71.1581 6.89532 71.2671 6.69572 71.4851 6.69572H73.8562L73.838 6.70479Z" fill="#0046FF"/>
</g>
<g id="Group_3">
<path id="Vector_9" d="M84.0583 14.6796V5.04451C84.0583 4.79955 84.031 4.60903 83.9765 4.46387C83.922 4.31871 83.8312 4.17354 83.6949 4.02838C83.6131 3.92858 83.5859 3.82879 83.6222 3.74713C83.6586 3.66548 83.7312 3.62012 83.8312 3.62012H90.6627V5.2804H86.3567V8.31971H90.263V9.98H86.3567V13.0465H90.9716V14.6887H84.0401L84.0583 14.6796Z" fill="#0046FF"/>
<path id="Vector_10" d="M94.7238 13.0375H99.4205V14.6796H91.835V13.4911L96.6043 5.2804H92.0439V3.62012H99.3115V4.84492C99.3115 5.01729 99.2843 5.17153 99.2298 5.30762C99.1752 5.45278 99.1026 5.58887 99.0299 5.71588L94.7148 13.0375H94.7238Z" fill="#0046FF"/>
<path id="Vector_11" d="M111.076 10.5973C111.076 10.3705 111.049 10.189 110.994 10.0439C110.94 9.90778 110.849 9.75354 110.713 9.60838C110.631 9.50858 110.604 9.40879 110.649 9.32713C110.694 9.24548 110.767 9.20919 110.867 9.20919H113.383V13.2828C113.383 13.5096 113.256 13.7273 113.011 13.9451C112.766 14.1537 112.439 14.3443 112.039 14.4985C111.639 14.6527 111.176 14.7798 110.667 14.8705C110.158 14.9612 109.631 15.0156 109.105 15.0156C107.17 15.0156 105.725 14.5166 104.771 13.5096C103.817 12.5025 103.336 11.0328 103.336 9.10939C103.336 8.27471 103.445 7.50354 103.672 6.79588C103.89 6.08822 104.235 5.47129 104.69 4.95415C105.144 4.43701 105.716 4.03782 106.416 3.7475C107.115 3.45717 107.933 3.31201 108.896 3.31201C109.595 3.31201 110.267 3.37552 110.921 3.51161C111.566 3.6477 112.157 3.82915 112.675 4.07411V5.78883C112.675 5.93399 112.629 6.02471 112.529 6.061C112.439 6.09729 112.339 6.07008 112.23 5.97935C111.803 5.67996 111.321 5.435 110.776 5.24447C110.231 5.05395 109.659 4.96322 109.068 4.96322C108.432 4.96322 107.896 5.07209 107.46 5.28076C107.024 5.4985 106.67 5.78883 106.406 6.15173C106.134 6.52371 105.943 6.95919 105.825 7.46725C105.707 7.97532 105.643 8.51967 105.643 9.10939C105.643 10.4703 105.925 11.5227 106.47 12.2576C107.024 12.9925 107.905 13.3644 109.123 13.3644C109.486 13.3644 109.831 13.3281 110.158 13.2556C110.495 13.183 110.794 13.0923 111.067 12.9743V10.6064L111.076 10.5973Z" fill="#0046FF"/>
<path id="Vector_12" d="M116.926 11.2595C116.972 12.0035 117.181 12.5478 117.553 12.8926C117.925 13.2373 118.443 13.4097 119.134 13.4097C119.515 13.4097 119.897 13.3734 120.297 13.2918C120.696 13.2101 121.096 13.0559 121.487 12.82L121.832 13.7817C121.868 13.9178 121.814 14.0448 121.668 14.1809C121.523 14.317 121.305 14.444 121.023 14.5529C120.742 14.6617 120.406 14.7525 120.015 14.825C119.624 14.8976 119.215 14.9339 118.798 14.9339C118.253 14.9339 117.726 14.8523 117.226 14.6889C116.726 14.5256 116.29 14.2807 115.918 13.9359C115.545 13.5912 115.246 13.1648 115.028 12.6295C114.8 12.1033 114.691 11.4591 114.691 10.7152C114.691 10.1889 114.773 9.66274 114.928 9.15468C115.082 8.64661 115.327 8.18391 115.654 7.77564C115.981 7.36738 116.39 7.04076 116.89 6.7958C117.39 6.55084 117.971 6.42383 118.643 6.42383C119.252 6.42383 119.788 6.5327 120.251 6.75044C120.714 6.96818 121.105 7.26758 121.432 7.64863C121.75 8.02968 121.995 8.47423 122.168 8.99137C122.331 9.50851 122.413 10.0619 122.413 10.6517V11.2504H116.944L116.926 11.2595ZM120.151 9.77161C120.133 9.53572 120.088 9.30891 120.033 9.08209C119.97 8.85528 119.879 8.66476 119.761 8.51052C119.642 8.34722 119.488 8.2202 119.306 8.1204C119.125 8.0206 118.898 7.97524 118.634 7.97524C118.371 7.97524 118.134 8.0206 117.925 8.1204C117.717 8.2202 117.544 8.35629 117.399 8.51959C117.253 8.69197 117.144 8.8825 117.062 9.10024C116.981 9.31798 116.935 9.5448 116.926 9.76254H120.151V9.77161Z" fill="#0046FF"/>
<path id="Vector_13" d="M125.856 6.705V7.48524C126.146 7.20399 126.482 6.95903 126.846 6.75036C127.209 6.54169 127.645 6.44189 128.145 6.44189C128.572 6.44189 128.963 6.49633 129.326 6.61427C129.689 6.73222 129.998 6.9046 130.271 7.13141C130.543 7.35823 130.752 7.63948 130.907 7.97516C131.061 8.31085 131.134 8.70097 131.134 9.12738V14.6707H128.908V9.32697C128.908 8.87335 128.808 8.54673 128.599 8.33806C128.399 8.13847 128.063 8.0296 127.609 8.0296C127.3 8.0296 127 8.0931 126.728 8.21105C126.455 8.33806 126.192 8.51044 125.928 8.73726V14.6617H123.703V8.12032C123.703 7.87536 123.675 7.67577 123.63 7.53968C123.575 7.39452 123.485 7.24935 123.348 7.10419C123.257 6.99532 123.23 6.9046 123.267 6.82294C123.303 6.74129 123.385 6.69593 123.485 6.69593H125.856V6.705Z" fill="#0046FF"/>
<path id="Vector_14" d="M134.605 11.2595C134.65 12.0035 134.859 12.5478 135.232 12.8926C135.604 13.2373 136.122 13.4097 136.812 13.4097C137.194 13.4097 137.576 13.3734 137.975 13.2918C138.375 13.2101 138.775 13.0559 139.165 12.82L139.511 13.7817C139.547 13.9178 139.492 14.0448 139.347 14.1809C139.202 14.317 138.984 14.444 138.702 14.5529C138.42 14.6617 138.084 14.7525 137.694 14.825C137.303 14.8976 136.894 14.9339 136.476 14.9339C135.931 14.9339 135.404 14.8523 134.905 14.6889C134.405 14.5256 133.969 14.2807 133.597 13.9359C133.224 13.5912 132.924 13.1648 132.706 12.6295C132.479 12.1033 132.37 11.4591 132.37 10.7152C132.37 10.1889 132.452 9.66274 132.606 9.15468C132.761 8.64661 133.006 8.18391 133.333 7.77564C133.66 7.36738 134.069 7.04076 134.569 6.7958C135.068 6.55084 135.65 6.42383 136.322 6.42383C136.931 6.42383 137.467 6.5327 137.93 6.75044C138.393 6.96818 138.784 7.26758 139.111 7.64863C139.429 8.02968 139.674 8.47423 139.847 8.99137C140.01 9.50851 140.092 10.0619 140.092 10.6517V11.2504H134.623L134.605 11.2595ZM137.83 9.77161C137.812 9.53572 137.766 9.30891 137.712 9.08209C137.648 8.85528 137.557 8.66476 137.439 8.51052C137.321 8.34722 137.167 8.2202 136.985 8.1204C136.803 8.0206 136.576 7.97524 136.313 7.97524C136.049 7.97524 135.813 8.0206 135.604 8.1204C135.395 8.2202 135.223 8.35629 135.077 8.51959C134.932 8.69197 134.823 8.8825 134.741 9.10024C134.659 9.31798 134.614 9.5448 134.605 9.76254H137.83V9.77161Z" fill="#0046FF"/>
<path id="Vector_15" d="M145.475 6.35107C145.712 6.35107 145.939 6.37829 146.157 6.42365V8.01136C146.157 8.16559 146.13 8.24724 146.066 8.26539C146.002 8.28353 145.921 8.27446 145.821 8.23817C145.675 8.19281 145.512 8.14745 145.33 8.12023C145.148 8.08394 144.949 8.07486 144.74 8.07486C144.594 8.07486 144.467 8.10208 144.349 8.15652C144.231 8.21095 144.113 8.28353 144.004 8.36519C143.895 8.44684 143.795 8.53757 143.713 8.62829C143.631 8.71902 143.55 8.80974 143.486 8.88232V14.5981H141.26V8.0295C141.26 7.80269 141.233 7.62124 141.188 7.47607C141.133 7.33091 141.042 7.18575 140.906 7.04059C140.815 6.93172 140.788 6.84099 140.824 6.75934C140.861 6.67769 140.942 6.63232 141.042 6.63232H143.431V7.91156C143.522 7.71196 143.64 7.52144 143.768 7.33091C143.895 7.14039 144.04 6.97708 144.213 6.83192C144.385 6.68676 144.576 6.57789 144.785 6.48716C144.994 6.40551 145.23 6.36015 145.475 6.36015V6.35107Z" fill="#0046FF"/>
<path id="Vector_16" d="M150.357 7.9298C149.921 7.9298 149.494 8.01145 149.067 8.17476C148.64 8.33806 148.267 8.52859 147.949 8.73726C147.786 8.83706 147.668 8.87335 147.577 8.81891C147.495 8.77355 147.45 8.66468 147.45 8.51044V7.03161C147.877 6.84109 148.367 6.69593 148.931 6.59613C149.494 6.49633 150.021 6.44189 150.502 6.44189C151.61 6.44189 152.464 6.65056 153.064 7.07698C153.664 7.50339 153.963 8.15661 153.963 9.04573V14.6798H151.774V13.8179C151.465 14.208 151.093 14.4893 150.666 14.6707C150.239 14.8522 149.784 14.9429 149.303 14.9429C148.903 14.9429 148.54 14.8794 148.213 14.7615C147.877 14.6344 147.595 14.4711 147.368 14.2443C147.132 14.0175 146.95 13.7544 146.823 13.4459C146.687 13.1375 146.623 12.7927 146.623 12.4207C146.623 11.5679 146.923 10.8965 147.522 10.3975C148.122 9.89855 149.049 9.65359 150.302 9.65359H151.738V9.0548C151.738 8.6556 151.62 8.36528 151.383 8.1929C151.147 8.02052 150.802 7.93887 150.357 7.93887V7.9298ZM151.738 11.1324H150.293C149.748 11.1324 149.357 11.2413 149.121 11.4681C148.885 11.6949 148.776 11.9943 148.776 12.3663C148.776 12.6748 148.867 12.9288 149.04 13.1193C149.212 13.3098 149.466 13.4096 149.803 13.4096C150.193 13.4096 150.548 13.328 150.884 13.1647C151.211 13.0014 151.501 12.7746 151.747 12.4933V11.1324H151.738Z" fill="#0046FF"/>
<path id="Vector_17" d="M158.243 12.711C158.243 12.8471 158.261 12.9469 158.288 13.0285C158.325 13.1102 158.37 13.1646 158.434 13.21C158.497 13.2554 158.57 13.2735 158.642 13.2826C158.724 13.2916 158.815 13.3007 158.906 13.3007C158.933 13.3007 158.979 13.3007 159.051 13.2826C159.115 13.2826 159.169 13.2644 159.197 13.2554L159.378 14.5074C159.378 14.6435 159.26 14.7433 158.988 14.8249C158.715 14.9066 158.397 14.9429 158.016 14.9429C157.389 14.9429 156.898 14.7795 156.544 14.4529C156.19 14.1263 156.008 13.6455 156.008 13.0104V4.69084C156.008 4.46402 155.981 4.28257 155.935 4.13741C155.89 3.99225 155.799 3.84709 155.663 3.69286C155.572 3.59306 155.545 3.49326 155.581 3.42068C155.626 3.33902 155.699 3.30273 155.799 3.30273H158.225V12.711H158.243Z" fill="#0046FF"/>
<path id="Vector_18" d="M164.011 14.6796V5.04451C164.011 4.79955 163.984 4.60903 163.93 4.46387C163.875 4.31871 163.784 4.17354 163.648 4.02838C163.566 3.92858 163.539 3.82879 163.575 3.74713C163.612 3.66548 163.684 3.62012 163.784 3.62012H166.31V14.6796H163.993H164.011Z" fill="#0046FF"/>
<path id="Vector_19" d="M170.707 6.705V7.48524C170.997 7.20399 171.333 6.95903 171.697 6.75036C172.06 6.54169 172.496 6.44189 172.996 6.44189C173.423 6.44189 173.813 6.49633 174.177 6.61427C174.54 6.73222 174.849 6.9046 175.122 7.13141C175.394 7.35823 175.603 7.63948 175.757 7.97516C175.912 8.31085 175.985 8.70097 175.985 9.12738V14.6707H173.759V9.32697C173.759 8.87335 173.659 8.54673 173.45 8.33806C173.25 8.13847 172.914 8.0296 172.46 8.0296C172.151 8.0296 171.851 8.0931 171.579 8.21105C171.306 8.33806 171.043 8.51044 170.779 8.73726V14.6617H168.553V8.12032C168.553 7.87536 168.526 7.67577 168.472 7.53968C168.417 7.39452 168.326 7.24935 168.19 7.10419C168.099 6.99532 168.072 6.9046 168.108 6.82294C168.145 6.74129 168.226 6.69593 168.326 6.69593H170.697L170.707 6.705Z" fill="#0046FF"/>
<path id="Vector_20" d="M177.52 12.7199C177.693 12.8379 177.883 12.9286 178.111 13.0193C178.338 13.101 178.565 13.1735 178.792 13.228C179.028 13.2824 179.246 13.3278 179.473 13.355C179.691 13.3822 179.891 13.4004 180.046 13.4004C180.754 13.4004 181.108 13.1554 181.108 12.6746C181.108 12.484 181.045 12.3298 180.927 12.2028C180.809 12.0758 180.582 11.9306 180.255 11.7582C179.873 11.5677 179.519 11.3681 179.173 11.1685C178.828 10.9689 178.492 10.7239 178.165 10.4518C177.947 10.2612 177.756 10.0435 177.584 9.78947C177.411 9.53544 177.329 9.19975 177.329 8.77334C177.329 8.46488 177.393 8.16548 177.52 7.88423C177.647 7.60298 177.838 7.35802 178.083 7.14028C178.329 6.92254 178.637 6.75016 179.001 6.62314C179.364 6.49613 179.773 6.43262 180.236 6.43262C180.436 6.43262 180.645 6.44169 180.872 6.46891C181.09 6.49613 181.317 6.52334 181.545 6.56871C181.772 6.61407 181.999 6.65943 182.217 6.71387C182.435 6.7683 182.635 6.84088 182.816 6.91346V8.47395C182.816 8.62818 182.771 8.71891 182.68 8.74613C182.589 8.77334 182.48 8.73705 182.344 8.63725C182.071 8.44673 181.763 8.2925 181.417 8.16548C181.072 8.03846 180.727 7.98403 180.391 7.98403C180.1 7.98403 179.873 8.05661 179.719 8.1927C179.564 8.33786 179.482 8.51024 179.482 8.72798C179.482 9.00016 179.637 9.25419 179.955 9.49008C180.073 9.57173 180.2 9.66246 180.354 9.76225C180.509 9.85298 180.663 9.95278 180.827 10.0435C180.99 10.1342 181.154 10.225 181.317 10.3157C181.481 10.3973 181.626 10.479 181.763 10.5516C182.017 10.6967 182.244 10.8328 182.435 10.9689C182.626 11.105 182.789 11.2592 182.907 11.4316C183.034 11.604 183.125 11.7945 183.18 12.0123C183.243 12.23 183.271 12.484 183.271 12.7744C183.271 13.4185 182.998 13.9356 182.453 14.3258C181.908 14.7159 181.154 14.9155 180.2 14.9155C179.837 14.9155 179.473 14.8792 179.092 14.8157C178.71 14.7522 178.374 14.6614 178.074 14.5616C177.774 14.4619 177.538 14.3439 177.357 14.2078C177.175 14.0717 177.111 13.9447 177.157 13.8086L177.511 12.7018L177.52 12.7199Z" fill="#0046FF"/>
<path id="Vector_21" d="M184.678 8.11104C184.678 7.88423 184.651 7.70278 184.597 7.55762C184.542 7.41246 184.451 7.26729 184.315 7.12213C184.233 7.01326 184.206 6.92254 184.242 6.84088C184.279 6.75923 184.351 6.71387 184.451 6.71387H186.895V12.0758C186.895 12.4931 186.968 12.8106 187.104 13.0193C187.24 13.228 187.531 13.3369 187.976 13.3369C188.303 13.3369 188.63 13.2643 188.939 13.1282C189.248 12.983 189.52 12.7925 189.748 12.5475V6.71387H191.973V14.6887H189.784V13.854C189.548 14.2078 189.221 14.4709 188.794 14.6614C188.367 14.852 187.94 14.9427 187.513 14.9427C186.622 14.9427 185.923 14.6977 185.414 14.2169C184.906 13.736 184.651 13.0556 184.651 12.1756V8.12012L184.678 8.11104Z" fill="#0046FF"/>
<path id="Vector_22" d="M197.969 6.44189C198.205 6.44189 198.432 6.46911 198.65 6.51448V8.10218C198.65 8.25641 198.623 8.33806 198.559 8.35621C198.496 8.37435 198.414 8.36528 198.314 8.32899C198.169 8.28363 198.005 8.23827 197.824 8.21105C197.642 8.17476 197.442 8.16568 197.233 8.16568C197.088 8.16568 196.961 8.1929 196.842 8.24734C196.724 8.30177 196.606 8.37435 196.497 8.45601C196.388 8.53766 196.288 8.62839 196.206 8.71911C196.125 8.80984 196.043 8.90056 195.979 8.97314V14.6889H193.754V8.12032C193.754 7.89351 193.726 7.71206 193.672 7.56689C193.617 7.42173 193.527 7.27657 193.39 7.13141C193.299 7.02254 193.272 6.93181 193.309 6.85016C193.354 6.76851 193.427 6.72314 193.527 6.72314H195.916V8.00238C196.007 7.80278 196.125 7.61226 196.252 7.42173C196.379 7.23121 196.524 7.0679 196.697 6.92274C196.87 6.77758 197.06 6.66871 197.269 6.57798C197.478 6.49633 197.715 6.45097 197.96 6.45097L197.969 6.44189Z" fill="#0046FF"/>
<path id="Vector_23" d="M202.729 7.9298C202.293 7.9298 201.866 8.01145 201.439 8.17476C201.012 8.33806 200.639 8.52859 200.321 8.73726C200.158 8.83706 200.04 8.87335 199.949 8.81891C199.867 8.77355 199.822 8.66468 199.822 8.51044V7.03161C200.249 6.84109 200.739 6.69593 201.303 6.59613C201.866 6.49633 202.393 6.44189 202.874 6.44189C203.983 6.44189 204.836 6.65056 205.436 7.07698C206.036 7.50339 206.335 8.15661 206.335 9.04573V14.6798H204.146V13.8179C203.837 14.208 203.465 14.4893 203.038 14.6707C202.611 14.8522 202.157 14.9429 201.675 14.9429C201.275 14.9429 200.912 14.8794 200.585 14.7615C200.249 14.6344 199.976 14.4711 199.74 14.2443C199.504 14.0175 199.322 13.7544 199.195 13.4459C199.059 13.1375 198.995 12.7927 198.995 12.4207C198.995 11.5679 199.295 10.8965 199.894 10.3975C200.494 9.89855 201.421 9.65359 202.674 9.65359H204.11V9.0548C204.11 8.6556 203.992 8.36528 203.755 8.1929C203.519 8.02052 203.174 7.93887 202.729 7.93887V7.9298ZM204.11 11.1324H202.665C202.12 11.1324 201.73 11.2413 201.493 11.4681C201.257 11.6949 201.148 11.9943 201.148 12.3663C201.148 12.6748 201.239 12.9288 201.412 13.1193C201.584 13.3098 201.839 13.4096 202.175 13.4096C202.565 13.4096 202.92 13.328 203.256 13.1647C203.583 13.0014 203.873 12.7746 204.119 12.4933V11.1324H204.11Z" fill="#0046FF"/>
<path id="Vector_24" d="M210.261 6.705V7.48524C210.551 7.20399 210.878 6.95903 211.251 6.75036C211.614 6.54169 212.05 6.44189 212.55 6.44189C212.977 6.44189 213.368 6.49633 213.731 6.61427C214.094 6.73222 214.403 6.9046 214.676 7.13141C214.948 7.35823 215.157 7.63948 215.312 7.97516C215.466 8.31085 215.539 8.70097 215.539 9.12738V14.6707H213.313V9.32697C213.313 8.87335 213.213 8.54673 213.004 8.33806C212.804 8.13847 212.468 8.0296 212.014 8.0296C211.705 8.0296 211.405 8.0931 211.133 8.21105C210.86 8.33806 210.597 8.51044 210.342 8.73726V14.6617H208.117V8.12032C208.117 7.87536 208.089 7.67577 208.035 7.53968C207.98 7.39452 207.89 7.24935 207.762 7.10419C207.672 6.99532 207.644 6.9046 207.681 6.82294C207.717 6.74129 207.799 6.69593 207.899 6.69593H210.27L210.261 6.705Z" fill="#0046FF"/>
<path id="Vector_25" d="M221.134 7.9931C220.78 7.9931 220.471 8.06568 220.207 8.20177C219.935 8.33786 219.717 8.52838 219.535 8.77334C219.353 9.0183 219.217 9.29955 219.135 9.62616C219.045 9.95278 218.999 10.3066 218.999 10.6786C218.999 11.4951 219.181 12.1483 219.553 12.6383C219.926 13.1282 220.453 13.3731 221.161 13.3731C221.579 13.3731 221.97 13.3278 222.351 13.228C222.724 13.1373 223.087 12.9649 223.441 12.729L223.896 13.8177C223.941 13.9356 223.896 14.0536 223.75 14.1806C223.605 14.3076 223.396 14.4256 223.133 14.5344C222.869 14.6433 222.56 14.734 222.206 14.8157C221.852 14.8883 221.497 14.9246 221.125 14.9246C220.444 14.9246 219.835 14.8157 219.29 14.607C218.754 14.3983 218.3 14.0989 217.927 13.7179C217.555 13.3369 217.273 12.8832 217.073 12.3661C216.873 11.8489 216.773 11.2864 216.773 10.6695C216.773 10.0526 216.873 9.47193 217.082 8.95479C217.291 8.43766 217.582 7.98403 217.964 7.61205C218.345 7.24008 218.799 6.94975 219.326 6.74108C219.853 6.53242 220.444 6.43262 221.089 6.43262C221.579 6.43262 222.024 6.48705 222.433 6.58685C222.833 6.68665 223.223 6.84088 223.587 7.03141V8.43766C223.587 8.59189 223.541 8.67354 223.46 8.70076C223.378 8.72798 223.278 8.70076 223.16 8.61911C222.824 8.40137 222.506 8.24713 222.188 8.14733C221.87 8.04754 221.525 8.00217 221.143 8.00217L221.134 7.9931Z" fill="#0046FF"/>
<path id="Vector_26" d="M226.531 11.2595C226.576 12.0035 226.785 12.5478 227.158 12.8926C227.53 13.2373 228.048 13.4097 228.738 13.4097C229.12 13.4097 229.501 13.3734 229.901 13.2918C230.301 13.2101 230.7 13.0559 231.091 12.82L231.436 13.7817C231.473 13.9178 231.418 14.0448 231.273 14.1809C231.127 14.317 230.909 14.444 230.628 14.5529C230.346 14.6617 230.01 14.7525 229.619 14.825C229.229 14.8976 228.82 14.9339 228.402 14.9339C227.848 14.9339 227.33 14.8523 226.83 14.6889C226.331 14.5256 225.895 14.2807 225.522 13.9359C225.15 13.5912 224.85 13.1648 224.632 12.6295C224.405 12.1033 224.296 11.4591 224.296 10.7152C224.296 10.1889 224.378 9.66274 224.532 9.15468C224.687 8.64661 224.932 8.18391 225.259 7.77564C225.586 7.36738 225.995 7.04076 226.494 6.7958C226.994 6.55084 227.575 6.42383 228.248 6.42383C228.856 6.42383 229.392 6.5327 229.856 6.75044C230.319 6.96818 230.71 7.26758 231.037 7.64863C231.355 8.02968 231.6 8.47423 231.763 8.99137C231.927 9.50851 232.009 10.0619 232.009 10.6517V11.2504H226.54L226.531 11.2595ZM229.756 9.77161C229.738 9.53572 229.692 9.30891 229.638 9.08209C229.574 8.85528 229.483 8.66476 229.365 8.51052C229.247 8.34722 229.093 8.2202 228.911 8.1204C228.729 8.0206 228.502 7.97524 228.239 7.97524C227.975 7.97524 227.739 8.0206 227.53 8.1204C227.321 8.2202 227.148 8.35629 227.003 8.51959C226.858 8.69197 226.749 8.8825 226.667 9.10024C226.585 9.31798 226.54 9.5448 226.531 9.76254H229.756V9.77161Z" fill="#0046FF"/>
</g>
</g>
</g>
<defs>
<clipPath id="clip0_8293_4843">
<rect width="232" height="18" fill="white"/>
</clipPath>
</defs>
</svg>
