<svg width="602" height="50" viewBox="0 0 602 50" fill="none" xmlns="http://www.w3.org/2000/svg">
<path d="M66.2647 12.0632C66.2647 10.8219 66.1912 10.144 65.4722 9.35188C65.0229 8.78838 65.3252 8.25754 65.848 8.25754H72.3676V13.2637C72.3676 18.2045 77.1961 21.1037 81.567 22.5737L79.9493 25.628C79.4591 26.5345 77.6127 26.1915 74.3693 24.1989C72.5229 23.0719 70.75 21.561 69.5817 19.9767C68.1846 21.9694 66.4526 23.6272 64.4591 24.9502C62.1634 26.4529 59.2222 27.8902 58.732 26.9429L57 23.668C62.0163 21.708 66.2729 18.4332 66.2729 13.6475V12.0632H66.2647ZM91.0686 38.4007V42.6555H69.549C64.9902 42.6555 63.1765 41.4877 63.1765 37.682V32.2185C63.1765 31.4672 62.915 30.9037 62.384 30.2585C61.9265 29.695 62.2369 29.1642 62.7598 29.1642H69.165V36.8899C69.165 38.0577 69.5408 38.4007 70.7091 38.4007H91.0605H91.0686ZM84.5082 31.0915V11.4997C84.5082 10.1849 84.2794 9.50704 83.5686 8.71488C83.1193 8.15138 83.4216 7.66138 83.9853 7.66138H90.4314V31.0997H84.5163L84.5082 31.0915Z" fill="#0046FF"/>
<path d="M103.536 10.4462C103.536 9.12324 103.462 8.52708 102.743 7.66141C102.253 7.09791 102.556 6.60791 103.119 6.60791H109.565V10.8301H118.119V14.9706H114.165C115.333 16.2936 116.052 17.9106 116.052 19.8297C116.052 24.5746 112.547 28.1924 106.289 28.1924C100.031 28.1924 96.5261 24.5746 96.5261 19.8297C96.5261 17.8697 97.2042 16.2527 98.3317 14.9706H94.3774V10.8301H103.536V10.4544V10.4462ZM127.547 38.4007V42.6556H106.404C101.845 42.6556 100.031 41.4877 100.031 37.6821V33.7294C100.031 32.9781 99.7696 32.4064 99.2386 31.7694C98.7892 31.2059 99.0915 30.6751 99.6144 30.6751H106.028V36.8899C106.028 38.0577 106.404 38.4007 107.572 38.4007H127.547ZM110.399 19.6337C110.399 17.0694 108.895 15.1094 106.289 15.1094C103.683 15.1094 102.18 17.0694 102.18 19.6337C102.18 22.0429 103.65 24.0437 106.289 24.0437C108.928 24.0437 110.399 22.0511 110.399 19.6337ZM121.175 31.6142V11.4997C121.175 10.1849 120.987 9.58058 120.268 8.71491C119.778 8.15141 120.08 7.66141 120.644 7.66141H127.09V16.5549H131.387V20.8097H127.09V31.6224H121.167L121.175 31.6142Z" fill="#0046FF"/>
<path d="M134.369 38.9316V13.3455C134.369 12.0633 134.14 11.4263 133.429 10.6341C132.972 10.0706 133.274 9.53979 133.805 9.53979H151.934V13.9498H140.513V22.0103H150.88V26.4203H140.513V34.5543H152.759V38.9235H134.369V38.9316Z" fill="#0046FF"/>
<path d="M162.671 34.5625H175.146V38.9316H155.015V35.763L167.679 13.9498H155.579V9.53979H174.876V12.782C174.876 13.6885 174.533 14.4398 174.125 15.1176L162.662 34.5625H162.671Z" fill="#0046FF"/>
<path d="M192.033 24.0845C192.033 22.7615 191.804 22.0918 191.093 21.2997C190.636 20.7362 190.946 20.2462 191.51 20.2462H198.144V25.0727H213.029V29.1397H177.106V25.0727H192.033V24.0927V24.0845ZM178.993 18.2453C185.815 17.1183 192.033 14.0232 192.033 11.0505V10.3318C192.033 9.69483 191.69 9.0905 191.167 8.55967C190.636 8.02883 190.905 7.46533 191.469 7.46533H197.915V11.0423C197.915 13.4923 203.871 16.8815 210.766 18.0493L209.41 21.4385C209.108 22.1572 206.886 21.9693 202.588 20.3442C199.5 19.1763 196.82 17.8207 194.941 16.0893C193.242 17.7472 191.281 18.8742 188.495 20.0828C184.802 21.6672 180.807 22.4593 180.391 21.4793L178.993 18.2372V18.2453ZM181.632 34.5215C181.632 33.7702 181.371 33.1985 180.84 32.5615C180.391 31.998 180.693 31.4672 181.216 31.4672H187.621V37.3063C187.621 38.0985 188.111 38.4007 188.789 38.4007H209.41V42.6555H186.15C183.25 42.6555 181.624 40.9242 181.624 38.3598V34.5133L181.632 34.5215Z" fill="#0046FF"/>
<path d="M221.689 11.0506C221.689 9.69489 221.46 8.90272 220.937 8.22489C220.488 7.62055 220.749 7.17139 221.354 7.17139H227.424V12.4879H233.756V16.7427H214.573V12.4879H221.697V11.0587L221.689 11.0506ZM224.516 18.0249C230.471 18.0249 233.527 21.8306 233.527 27.4084C233.527 32.9862 230.471 36.7919 224.516 36.7919C218.56 36.7919 215.504 32.9862 215.504 27.4084C215.504 21.8306 218.56 18.0249 224.516 18.0249ZM224.516 22.2062C221.95 22.2062 220.864 24.1989 220.864 27.4084C220.864 30.6179 221.958 32.6106 224.516 32.6106C227.073 32.6106 228.168 30.6179 228.168 27.4084C228.168 24.1989 227.073 22.2062 224.516 22.2062ZM235.864 11.7692C235.864 10.4136 235.635 9.62139 235.112 8.94355C234.663 8.33922 234.924 7.89005 235.529 7.89005H241.337V20.2136H244.54V7.66955H250.038V43.1292H244.54V24.8522H241.337V42.1084H235.872V11.7611L235.864 11.7692Z" fill="#0046FF"/>
<path d="M263.078 29.5072C258.593 29.5072 256.591 28.1924 256.591 24.5745V12.6675C256.591 11.4262 256.33 10.781 255.611 9.91538C255.162 9.31105 255.423 8.82104 255.987 8.82104H262.433V15.3789H278.037V8.82104H283.879V29.5072H273.511V35.5342H288.397V39.789H252.474V35.5342H267.4V29.5072H263.062H263.078ZM278.046 25.285V19.5602H262.441V23.031C262.441 24.3459 262.817 25.2932 264.59 25.2932H278.046V25.285Z" fill="#0046FF"/>
<path d="M299.329 10.4462C299.329 9.12324 299.255 8.52708 298.536 7.66141C298.046 7.09791 298.348 6.60791 298.912 6.60791H305.358V10.8301H313.912V14.9706H310.031C311.159 16.2527 311.845 17.8371 311.845 19.7154C311.845 24.4602 308.152 27.9637 302.082 27.9637C296.012 27.9637 292.319 24.4602 292.319 19.7154C292.319 17.7962 292.997 16.2119 294.092 14.9706H290.17V10.8301H299.329V10.4544V10.4462ZM303.74 42.8516C299.182 42.8516 297.294 41.8716 297.294 38.0659V32.9781C297.294 32.2267 297.033 31.6551 296.502 31.0181C296.053 30.4546 296.355 29.9237 296.878 29.9237H323.454C324.059 29.9237 324.321 30.1116 324.321 30.7567V42.8516H303.74ZM306.191 19.5276C306.191 17.0449 304.68 15.1176 302.082 15.1176C299.484 15.1176 297.972 17.0367 297.972 19.5276C297.972 21.8632 299.443 23.8641 302.082 23.8641C304.721 23.8641 306.191 21.8714 306.191 19.5276ZM318.52 38.7846V33.9581H303.103V37.2329C303.103 38.5886 303.593 38.7764 304.835 38.7764H318.52V38.7846ZM318.373 27.7432V21.8632H313.356V17.6084H318.373V11.5079C318.373 10.1931 318.185 9.58874 317.466 8.72308C316.976 8.15958 317.278 7.66958 317.842 7.66958H324.288V27.7514H318.373V27.7432Z" fill="#0046FF"/>
<path d="M24.3137 0.60791C10.8905 0.60791 0 11.4941 0 24.9119C0 38.3297 10.8905 49.2159 24.3137 49.2159C37.7369 49.2159 48.6275 38.3297 48.6275 24.9119C48.6275 11.4941 37.7451 0.60791 24.3137 0.60791ZM24.8203 44.7651C21.9118 45.1734 17.1732 44.4384 13.9706 42.4049C11.1601 40.6327 9.48529 38.4114 8.39869 36.1574C7.28758 33.8544 6.76471 31.0614 7.94935 31.2002C8.5049 31.2656 8.97876 32.3109 10.049 33.6747C10.7761 34.6057 11.4542 35.3897 11.9608 35.5041C12.1895 35.5531 12.3775 35.4469 12.5408 35.1447C12.8431 34.5649 13.2516 33.4706 13.9788 32.5804C14.567 31.9026 15.2778 31.5841 15.6944 33.2419C15.8905 34.0667 16.0539 34.9242 16.1438 35.6674C16.2745 36.7209 16.3399 37.3497 16.7075 37.5212C17.0588 37.6927 17.6471 37.4722 18.6111 37.1129C19.2974 36.8597 20.1797 36.5331 21.299 36.2146C22.3284 35.9206 22.982 36.0757 22.3203 37.6682C22.0098 38.4196 21.6912 39.0566 20.5801 40.6572C20.384 40.9431 20.4248 41.2207 20.6618 41.4576C21.0376 41.8251 21.8791 42.2742 22.8105 42.6826C23.5539 43.0011 24.4363 43.2869 25.0245 43.4502C25.9395 43.7116 25.7598 44.6344 24.8366 44.7651H24.8203ZM37.2958 39.5384C36.3889 41.0084 34.4935 42.6009 32.1895 43.6626C31.8382 43.8177 31.4706 43.7687 31.3726 43.4829C31.2909 43.2379 31.4869 42.9521 31.7157 42.6826C34.7141 38.7952 32.4837 35.2264 27.6471 32.4661C24.0686 30.4244 21.7974 29.2484 19.1585 27.6967C11.4297 23.1479 9.93464 19.1789 9.63235 16.8351C8.87255 10.9142 13.7745 6.47158 18.8072 5.40174C18.9624 5.36908 19.3627 5.30374 19.4935 5.63858C19.6242 5.97341 19.3219 6.21841 19.1503 6.32458C16.8954 7.56591 14.6814 10.1956 14.9265 13.1192C15.0572 14.7526 15.7598 17.1046 20.1879 20.2569C22.8595 22.1597 26.1275 23.7196 32.7206 27.6722C39.6895 31.8454 38.8971 36.9414 37.2958 39.5302V39.5384ZM38.3824 17.3087C36.7892 19.2524 35.2043 18.5337 33.9788 15.7897C33.219 14.0829 32.2141 13.6664 31.5033 14.1156C30.7271 14.6056 31.0376 15.7734 31.9036 17.1209C32.4673 18.0029 32.2141 19.0401 31.6258 19.6526C31.0049 20.2977 30 20.5509 28.8971 20.3141C26.9363 19.8812 25.0082 17.2597 26.4134 11.5267C26.9853 9.21558 25.8742 8.22741 25.1634 7.33724C24.8121 6.89624 24.7712 6.62674 24.8938 6.44708C25.0327 6.25108 25.3595 6.23474 25.9314 6.35724C26.683 6.51241 27.8023 6.90441 28.7173 7.04324C29.3219 7.14124 30.0082 7.16574 30.7271 7.13308C32.6797 7.05958 34.1258 7.36174 35.5964 8.08858C38.0964 9.32991 38.3578 11.4614 36.9608 11.2899C36.4788 11.2327 35.8578 10.8652 35.3431 10.6202C35 10.4569 34.7059 10.3997 34.4853 10.5549C34.281 10.7019 34.1912 11.0122 34.3382 11.3226C34.6487 11.9759 35.7026 12.3107 37.1242 12.7109C39.616 13.3969 39.665 15.7081 38.366 17.3087H38.3824Z" fill="#0046FF"/>
<path d="M385.219 10.716V9.28876C385.219 8.04936 385.144 7.67378 384.43 6.88507C383.98 6.32171 384.28 5.7959 384.806 5.7959H391.454V10.716H403.51V14.96H398.853C400.167 16.2745 400.881 17.8519 400.881 19.4669C400.881 24.8376 395.773 27.8798 388.336 27.8798C380.9 27.8798 375.792 24.8376 375.792 19.4669C375.792 17.8519 376.468 16.2745 377.783 14.96H373.126V10.716H385.219ZM398.364 42.1142H392.58V33.8139H384.092V42.1142H378.309V33.8139H370.421V29.5699H406.214V33.8139H398.364V42.1142ZM395.36 19.4669C395.36 16.7252 392.58 15.1102 388.336 15.1102C384.055 15.1102 381.313 16.7252 381.313 19.4669C381.313 22.2086 384.092 23.8236 388.336 23.8236C392.58 23.8236 395.36 22.2086 395.36 19.4669Z" fill="black"/>
<path d="M339.361 12.4437H333.54V8.19965H350.741V12.4437H345.295V21.0444C345.295 26.6405 348.375 30.0958 352.168 32.6121L350.028 35.5416C349.539 36.2177 347.136 34.7154 345.896 33.476C344.432 32.0112 343.38 30.6591 342.441 28.7061C341.652 30.7342 340.676 32.2366 339.174 33.9267C337.521 35.767 335.117 37.382 334.591 36.7435L332 33.7013C336.582 30.584 339.361 25.9644 339.361 21.0444V12.4437ZM348.075 22.8471V18.528H353.37V10.8662C353.37 9.51417 353.145 8.72546 352.619 8.04942C352.168 7.4485 352.431 6.99781 353.032 6.99781H358.816V41.1002H353.37V22.8471H348.075ZM361.933 6.77246H367.417V42.1142H361.933V6.77246Z" fill="black"/>
<path d="M459.427 38.0741H480V42H456.29C453.714 42 452.743 40.9259 452.743 38.7037V36.1481C452.743 34.9259 452.482 34.2222 451.772 33.3704C451.324 32.7778 451.586 32.2963 452.146 32.2963H473.541V30.2222H452.631V26.3333H478.656C479.253 26.3333 479.515 26.5185 479.515 27.1482V35.963H458.717V37.3704C458.717 37.8889 458.904 38.0741 459.427 38.0741ZM454.013 17.7037V18.9259C454.013 20 454.423 20.3704 455.469 20.3704H469.695V23.2222C468.612 24 466.708 24.1852 464.206 24.1852H452.631C449.98 24.1852 448.151 22.2963 448.151 19.963V11.4074C448.151 10.1111 447.964 9.44444 447.217 8.66667C446.769 8.11111 447.068 7.59259 447.628 7.59259H467.118V11.3704H454.013V14.037H464.841V17.7037H454.013ZM467.865 17.9259V13.7407H473.653V10.7778C473.653 9.48148 473.466 8.88889 472.756 8.03704C472.271 7.48148 472.57 7 473.13 7H479.515V24.3704H473.653V17.9259H467.865Z" fill="#010101"/>
<path d="M416.706 24.0741V17.721C416.706 16.458 416.668 15.8457 415.951 14.9654C415.497 14.3531 415.762 13.8556 416.328 13.8556H422.599V24.0741H431.552V13.8556H437.445V24.0741H441.978V28.3988H430.079V34.6753H445V39H409V34.6753H423.959V28.3988H411.984V24.0741H416.706ZM442.242 8V12.3247H411.72V8H442.242Z" fill="#010101"/>
<path d="M572.836 11.7768H565.261V7.45377H586.455V11.7768H579.072V18.1275C579.072 22.2976 580.564 25.5112 583.318 28.2274C584.81 29.6047 586.532 30.9054 588.33 31.9384L586.111 35.3433C585.575 36.1849 583.089 34.6546 580.487 32.1679C578.995 30.7524 577.006 28.2657 576.279 26.3528C575.361 28.5717 573.295 31.3645 571.267 33.2009C568.474 35.7641 566.332 37.2561 565.758 36.5292L563.08 33.2391C565.069 31.9766 566.676 30.6376 568.245 29.0691C571.458 25.8937 572.836 22.6036 572.836 18.1658V11.7768ZM596.173 42H590.166V9.94049C590.166 8.60149 589.975 7.98937 589.248 7.10946C588.789 6.5356 589.057 6 589.631 6H596.173V18.0893H601.146V22.4888H596.173V42Z" fill="black"/>
<path d="M557.79 42H551.783V9.94049C551.783 8.60149 551.592 7.98937 550.865 7.10946C550.368 6.5356 550.674 6 551.248 6H557.79V42ZM548.723 31.8619V35.0755C547.613 35.8789 545.662 36.0701 543.099 36.0701H530.895C528.332 36.0701 526.304 34.3103 526.304 31.7088V23.407C526.304 22.1445 526.036 21.4176 525.309 20.5377C524.85 19.9256 525.118 19.4283 525.692 19.4283H539.197V11.6621H526.228V7.45377H544.285C544.897 7.45377 545.165 7.64506 545.165 8.29543V23.5218H532.272V30.5228C532.272 31.441 532.731 31.8619 533.726 31.8619H548.723Z" fill="black"/>
<path d="M490.82 23.4381V19.9505C490.82 18.5554 490.588 17.7417 490.045 17.0441C489.58 16.4241 489.851 15.9591 490.471 15.9591H497.02V23.4381H511.01V9.95264C511.01 8.59634 510.816 7.97632 510.08 7.08504C509.576 6.50377 509.886 6 510.467 6H516.977V15.9978H521.473V20.3767H516.977V32.1959H511.01V27.197C509.847 27.5845 508.297 27.662 506.437 27.662H484V23.4381H490.82ZM488.34 37.5823V33.591C488.34 32.8159 488.069 32.2347 487.526 31.5759C487.061 30.9946 487.371 30.4521 487.914 30.4521H494.502V36.5748C494.502 37.3886 495.005 37.6986 495.703 37.6986H517.365V42H492.99C490.006 42 488.34 40.2174 488.34 37.5823ZM501.089 20.958L501.632 12.3552C501.671 11.8127 501.361 11.5414 500.702 11.5414H486.131V7.3563H502.872C507.018 7.3563 507.793 8.32508 507.483 11.8902L506.825 20.958H501.089Z" fill="black"/>
</svg>
