<svg width="480" height="49" viewBox="0 0 480 49" fill="none" xmlns="http://www.w3.org/2000/svg">
<path d="M66.2647 11.4553C66.2647 10.214 66.1912 9.53613 65.4722 8.74397C65.0229 8.18047 65.3252 7.64963 65.848 7.64963H72.3676V12.6558C72.3676 17.5966 77.1961 20.4958 81.567 21.9658L79.9493 25.0201C79.4591 25.9266 77.6127 25.5836 74.3693 23.591C72.5229 22.464 70.75 20.9531 69.5817 19.3688C68.1846 21.3615 66.4526 23.0193 64.4591 24.3423C62.1634 25.845 59.2222 27.2823 58.732 26.335L57 23.0601C62.0163 21.1001 66.2729 17.8253 66.2729 13.0396V11.4553H66.2647ZM91.0686 37.7928V42.0476H69.549C64.9902 42.0476 63.1765 40.8798 63.1765 37.0741V31.6106C63.1765 30.8593 62.915 30.2958 62.384 29.6506C61.9265 29.0871 62.2369 28.5563 62.7598 28.5563H69.165V36.282C69.165 37.4498 69.5408 37.7928 70.7091 37.7928H91.0605H91.0686ZM84.5082 30.4836V10.8918C84.5082 9.57697 84.2794 8.89913 83.5686 8.10697C83.1193 7.54347 83.4216 7.05347 83.9853 7.05347H90.4314V30.4918H84.5163L84.5082 30.4836Z" fill="#0046FF"/>
<path d="M103.536 9.83833C103.536 8.51533 103.462 7.91917 102.743 7.0535C102.253 6.49 102.556 6 103.119 6H109.565V10.2222H118.119V14.3627H114.165C115.333 15.6857 116.052 17.3027 116.052 19.2218C116.052 23.9667 112.547 27.5845 106.289 27.5845C100.031 27.5845 96.5261 23.9667 96.5261 19.2218C96.5261 17.2618 97.2042 15.6448 98.3317 14.3627H94.3774V10.2222H103.536V9.8465V9.83833ZM127.547 37.7928V42.0477H106.404C101.845 42.0477 100.031 40.8798 100.031 37.0742V33.1215C100.031 32.3702 99.7696 31.7985 99.2386 31.1615C98.7892 30.598 99.0915 30.0672 99.6144 30.0672H106.028V36.282C106.028 37.4498 106.404 37.7928 107.572 37.7928H127.547ZM110.399 19.0258C110.399 16.4615 108.895 14.5015 106.289 14.5015C103.683 14.5015 102.18 16.4615 102.18 19.0258C102.18 21.435 103.65 23.4358 106.289 23.4358C108.928 23.4358 110.399 21.4432 110.399 19.0258ZM121.175 31.0063V10.8918C121.175 9.577 120.987 8.97267 120.268 8.107C119.778 7.5435 120.08 7.0535 120.644 7.0535H127.09V15.947H131.387V20.2018H127.09V31.0145H121.167L121.175 31.0063Z" fill="#0046FF"/>
<path d="M134.369 38.3237V12.7376C134.369 11.4554 134.14 10.8184 133.429 10.0262C132.972 9.46272 133.274 8.93188 133.805 8.93188H151.934V13.3419H140.513V21.4024H150.88V25.8124H140.513V33.9464H152.759V38.3156H134.369V38.3237Z" fill="#0046FF"/>
<path d="M162.671 33.9546H175.146V38.3237H155.015V35.1551L167.679 13.3419H155.579V8.93188H174.876V12.1741C174.876 13.0806 174.533 13.8319 174.125 14.5097L162.662 33.9546H162.671Z" fill="#0046FF"/>
<path d="M192.033 23.4766C192.033 22.1536 191.804 21.4839 191.093 20.6918C190.636 20.1283 190.946 19.6383 191.51 19.6383H198.144V24.4648H213.029V28.5318H177.106V24.4648H192.033V23.4848V23.4766ZM178.993 17.6374C185.815 16.5104 192.033 13.4153 192.033 10.4426V9.72392C192.033 9.08692 191.69 8.48259 191.167 7.95176C190.636 7.42092 190.905 6.85742 191.469 6.85742H197.915V10.4344C197.915 12.8844 203.871 16.2736 210.766 17.4414L209.41 20.8306C209.108 21.5493 206.886 21.3614 202.588 19.7363C199.5 18.5684 196.82 17.2128 194.941 15.4814C193.242 17.1393 191.281 18.2663 188.495 19.4749C184.802 21.0593 180.807 21.8514 180.391 20.8714L178.993 17.6293V17.6374ZM181.632 33.9136C181.632 33.1623 181.371 32.5906 180.84 31.9536C180.391 31.3901 180.693 30.8593 181.216 30.8593H187.621V36.6984C187.621 37.4906 188.111 37.7928 188.789 37.7928H209.41V42.0476H186.15C183.25 42.0476 181.624 40.3163 181.624 37.7519V33.9054L181.632 33.9136Z" fill="#0046FF"/>
<path d="M221.689 10.4426C221.689 9.08698 221.46 8.29481 220.937 7.61698C220.488 7.01264 220.749 6.56348 221.354 6.56348H227.424V11.88H233.756V16.1348H214.573V11.88H221.697V10.4508L221.689 10.4426ZM224.516 17.417C230.471 17.417 233.527 21.2226 233.527 26.8005C233.527 32.3783 230.471 36.184 224.516 36.184C218.56 36.184 215.504 32.3783 215.504 26.8005C215.504 21.2226 218.56 17.417 224.516 17.417ZM224.516 21.5983C221.95 21.5983 220.864 23.591 220.864 26.8005C220.864 30.01 221.958 32.0026 224.516 32.0026C227.073 32.0026 228.168 30.01 228.168 26.8005C228.168 23.591 227.073 21.5983 224.516 21.5983ZM235.864 11.1613C235.864 9.80564 235.635 9.01348 235.112 8.33564C234.663 7.73131 234.924 7.28214 235.529 7.28214H241.337V19.6056H244.54V7.06164H250.038V42.5213H244.54V24.2443H241.337V41.5005H235.872V11.1531L235.864 11.1613Z" fill="#0046FF"/>
<path d="M263.078 28.8993C258.593 28.8993 256.591 27.5845 256.591 23.9666V12.0596C256.591 10.8183 256.33 10.1731 255.611 9.30747C255.162 8.70313 255.423 8.21313 255.987 8.21313H262.433V14.771H278.037V8.21313H283.879V28.8993H273.511V34.9263H288.397V39.1811H252.474V34.9263H267.4V28.8993H263.062H263.078ZM278.046 24.6771V18.9523H262.441V22.4231C262.441 23.738 262.817 24.6853 264.59 24.6853H278.046V24.6771Z" fill="#0046FF"/>
<path d="M299.329 9.83833C299.329 8.51533 299.255 7.91917 298.536 7.0535C298.046 6.49 298.348 6 298.912 6H305.358V10.2222H313.912V14.3627H310.031C311.159 15.6448 311.845 17.2292 311.845 19.1075C311.845 23.8523 308.152 27.3558 302.082 27.3558C296.012 27.3558 292.319 23.8523 292.319 19.1075C292.319 17.1883 292.997 15.604 294.092 14.3627H290.17V10.2222H299.329V9.8465V9.83833ZM303.74 42.2437C299.182 42.2437 297.294 41.2637 297.294 37.458V32.3702C297.294 31.6188 297.033 31.0472 296.502 30.4102C296.053 29.8467 296.355 29.3158 296.878 29.3158H323.454C324.059 29.3158 324.321 29.5037 324.321 30.1488V42.2437H303.74ZM306.191 18.9197C306.191 16.437 304.68 14.5097 302.082 14.5097C299.484 14.5097 297.972 16.4288 297.972 18.9197C297.972 21.2553 299.443 23.2562 302.082 23.2562C304.721 23.2562 306.191 21.2635 306.191 18.9197ZM318.52 38.1767V33.3502H303.103V36.625C303.103 37.9807 303.593 38.1685 304.835 38.1685H318.52V38.1767ZM318.373 27.1353V21.2553H313.356V17.0005H318.373V10.9C318.373 9.58517 318.185 8.98083 317.466 8.11517C316.976 7.55167 317.278 7.06167 317.842 7.06167H324.288V27.1435H318.373V27.1353Z" fill="#0046FF"/>
<path d="M24.3137 0C10.8905 0 0 10.8862 0 24.304C0 37.7218 10.8905 48.608 24.3137 48.608C37.7369 48.608 48.6275 37.7218 48.6275 24.304C48.6275 10.8862 37.7451 0 24.3137 0ZM24.8203 44.1572C21.9118 44.5655 17.1732 43.8305 13.9706 41.797C11.1601 40.0248 9.48529 37.8035 8.39869 35.5495C7.28758 33.2465 6.76471 30.4535 7.94935 30.5923C8.5049 30.6577 8.97876 31.703 10.049 33.0668C10.7761 33.9978 11.4542 34.7818 11.9608 34.8962C12.1895 34.9452 12.3775 34.839 12.5408 34.5368C12.8431 33.957 13.2516 32.8627 13.9788 31.9725C14.567 31.2947 15.2778 30.9762 15.6944 32.634C15.8905 33.4588 16.0539 34.3163 16.1438 35.0595C16.2745 36.113 16.3399 36.7418 16.7075 36.9133C17.0588 37.0848 17.6471 36.8643 18.6111 36.505C19.2974 36.2518 20.1797 35.9252 21.299 35.6067C22.3284 35.3127 22.982 35.4678 22.3203 37.0603C22.0098 37.8117 21.6912 38.4487 20.5801 40.0493C20.384 40.3352 20.4248 40.6128 20.6618 40.8497C21.0376 41.2172 21.8791 41.6663 22.8105 42.0747C23.5539 42.3932 24.4363 42.679 25.0245 42.8423C25.9395 43.1037 25.7598 44.0265 24.8366 44.1572H24.8203ZM37.2958 38.9305C36.3889 40.4005 34.4935 41.993 32.1895 43.0547C31.8382 43.2098 31.4706 43.1608 31.3726 42.875C31.2909 42.63 31.4869 42.3442 31.7157 42.0747C34.7141 38.1873 32.4837 34.6185 27.6471 31.8582C24.0686 29.8165 21.7974 28.6405 19.1585 27.0888C11.4297 22.54 9.93464 18.571 9.63235 16.2272C8.87255 10.3063 13.7745 5.86367 18.8072 4.79383C18.9624 4.76117 19.3627 4.69583 19.4935 5.03067C19.6242 5.3655 19.3219 5.6105 19.1503 5.71667C16.8954 6.958 14.6814 9.58767 14.9265 12.5113C15.0572 14.1447 15.7598 16.4967 20.1879 19.649C22.8595 21.5518 26.1275 23.1117 32.7206 27.0643C39.6895 31.2375 38.8971 36.3335 37.2958 38.9223V38.9305ZM38.3824 16.7008C36.7892 18.6445 35.2043 17.9258 33.9788 15.1818C33.219 13.475 32.2141 13.0585 31.5033 13.5077C30.7271 13.9977 31.0376 15.1655 31.9036 16.513C32.4673 17.395 32.2141 18.4322 31.6258 19.0447C31.0049 19.6898 30 19.943 28.8971 19.7062C26.9363 19.2733 25.0082 16.6518 26.4134 10.9188C26.9853 8.60767 25.8742 7.6195 25.1634 6.72933C24.8121 6.28833 24.7712 6.01883 24.8938 5.83917C25.0327 5.64317 25.3595 5.62683 25.9314 5.74933C26.683 5.9045 27.8023 6.2965 28.7173 6.43533C29.3219 6.53333 30.0082 6.55783 30.7271 6.52517C32.6797 6.45167 34.1258 6.75383 35.5964 7.48067C38.0964 8.722 38.3578 10.8535 36.9608 10.682C36.4788 10.6248 35.8578 10.2573 35.3431 10.0123C35 9.849 34.7059 9.79183 34.4853 9.947C34.281 10.094 34.1912 10.4043 34.3382 10.7147C34.6487 11.368 35.7026 11.7028 37.1242 12.103C39.616 12.789 39.665 15.1002 38.366 16.7008H38.3824Z" fill="#0046FF"/>
<path d="M459.427 37.0741H480V41H456.29C453.714 41 452.743 39.9259 452.743 37.7037V35.1481C452.743 33.9259 452.482 33.2222 451.772 32.3704C451.324 31.7778 451.586 31.2963 452.146 31.2963H473.541V29.2222H452.631V25.3333H478.656C479.253 25.3333 479.515 25.5185 479.515 26.1482V34.963H458.717V36.3704C458.717 36.8889 458.904 37.0741 459.427 37.0741ZM454.013 16.7037V17.9259C454.013 19 454.423 19.3704 455.469 19.3704H469.695V22.2222C468.612 23 466.708 23.1852 464.206 23.1852H452.631C449.98 23.1852 448.151 21.2963 448.151 18.963V10.4074C448.151 9.11111 447.964 8.44444 447.217 7.66667C446.769 7.11111 447.068 6.59259 447.628 6.59259H467.118V10.3704H454.013V13.037H464.841V16.7037H454.013ZM467.865 16.9259V12.7407H473.653V9.77778C473.653 8.48148 473.466 7.88889 472.756 7.03704C472.271 6.48148 472.57 6 473.13 6H479.515V23.3704H473.653V16.9259H467.865Z" fill="#010101"/>
<path d="M416.706 23.0741V16.721C416.706 15.458 416.668 14.8457 415.951 13.9654C415.497 13.3531 415.762 12.8556 416.328 12.8556H422.599V23.0741H431.552V12.8556H437.445V23.0741H441.978V27.3988H430.079V33.6753H445V38H409V33.6753H423.959V27.3988H411.984V23.0741H416.706ZM442.242 7V11.3247H411.72V7H442.242Z" fill="#010101"/>
<path d="M385.219 10.1078V8.68061C385.219 7.4412 385.144 7.06563 384.43 6.27692C383.98 5.71355 384.28 5.18774 384.806 5.18774H391.454V10.1078H403.51V14.3518H398.853C400.167 15.6663 400.881 17.2438 400.881 18.8587C400.881 24.2295 395.773 27.2716 388.336 27.2716C380.9 27.2716 375.792 24.2295 375.792 18.8587C375.792 17.2438 376.468 15.6663 377.783 14.3518H373.126V10.1078H385.219ZM398.364 41.506H392.58V33.2058H384.092V41.506H378.309V33.2058H370.421V28.9617H406.214V33.2058H398.364V41.506ZM395.36 18.8587C395.36 16.117 392.58 14.502 388.336 14.502C384.055 14.502 381.313 16.117 381.313 18.8587C381.313 21.6004 384.092 23.2154 388.336 23.2154C392.58 23.2154 395.36 21.6004 395.36 18.8587Z" fill="black"/>
<path d="M339.361 11.8355H333.54V7.5915H350.741V11.8355H345.295V20.4362C345.295 26.0323 348.375 29.4876 352.168 32.004L350.028 34.9335C349.539 35.6095 347.136 34.1072 345.896 32.8678C344.432 31.4031 343.38 30.051 342.441 28.098C341.652 30.1261 340.676 31.6284 339.174 33.3185C337.521 35.1588 335.117 36.7738 334.591 36.1353L332 33.0932C336.582 29.9759 339.361 25.3563 339.361 20.4362V11.8355ZM348.075 22.239V17.9199H353.37V10.2581C353.37 8.90602 353.145 8.1173 352.619 7.44127C352.168 6.84035 352.431 6.38965 353.032 6.38965H358.816V40.492H353.37V22.239H348.075ZM361.933 6.16431H367.417V41.5061H361.933V6.16431Z" fill="black"/>
</svg>
