<svg width="136" height="21" viewBox="0 0 136 21" fill="none" xmlns="http://www.w3.org/2000/svg">
<g clip-path="url(#clip0_566_399)">
<path d="M28.2411 4.67394C28.2411 4.15538 28.2104 3.87221 27.9102 3.54129C27.7225 3.30589 27.8487 3.08413 28.0671 3.08413H30.7896V5.17545C30.7896 7.23947 32.8058 8.45059 34.631 9.06468L33.9555 10.3406C33.7508 10.7193 32.9798 10.576 31.6254 9.74359C30.8544 9.27279 30.1141 8.64164 29.6262 7.97979C29.0428 8.81222 28.3195 9.50478 27.4871 10.0575C26.5285 10.6852 25.3003 11.2856 25.0956 10.8899L24.3723 9.52184C26.467 8.70305 28.2445 7.335 28.2445 5.33579V4.67394H28.2411ZM38.5987 15.6764V17.4538H29.6125C27.7089 17.4538 26.9515 16.966 26.9515 15.3762V13.0938C26.9515 12.7799 26.8423 12.5445 26.6206 12.275C26.4295 12.0396 26.5592 11.8179 26.7775 11.8179H29.4522V15.0452C29.4522 15.5331 29.6091 15.6764 30.097 15.6764H38.5953H38.5987ZM35.8592 12.623V4.43854C35.8592 3.88927 35.7637 3.60611 35.4669 3.27518C35.2792 3.03978 35.4055 2.83508 35.6409 2.83508H38.3326V12.6264H35.8626L35.8592 12.623Z" fill="#0046FF"/>
<path d="M43.8049 3.99835C43.8049 3.44567 43.7742 3.19663 43.474 2.835C43.2693 2.59959 43.3955 2.3949 43.6309 2.3949H46.3227V4.1587H49.8946V5.88839H48.2434C48.7312 6.44107 49.0315 7.11657 49.0315 7.91829C49.0315 9.90044 47.5679 11.4118 44.9546 11.4118C42.3413 11.4118 40.8777 9.90044 40.8777 7.91829C40.8777 7.09951 41.1609 6.42401 41.6317 5.88839H39.9805V4.1587H43.8049V4.00177V3.99835ZM53.8316 15.6763V17.4537H45.0024C43.0987 17.4537 42.3413 16.9659 42.3413 15.3761V13.7249C42.3413 13.411 42.2321 13.1722 42.0104 12.9061C41.8227 12.6707 41.949 12.4489 42.1673 12.4489H44.8454V15.0451C44.8454 15.533 45.0024 15.6763 45.4902 15.6763H53.8316ZM46.6706 7.83642C46.6706 6.76517 46.0429 5.94638 44.9546 5.94638C43.8663 5.94638 43.2386 6.76517 43.2386 7.83642C43.2386 8.84284 43.8526 9.67869 44.9546 9.67869C46.0565 9.67869 46.6706 8.84625 46.6706 7.83642ZM51.1706 12.8412V4.43845C51.1706 3.88918 51.0921 3.63672 50.7919 3.27509C50.5872 3.03969 50.7134 2.835 50.9488 2.835H53.6406V6.55024H55.4351V8.32769H53.6406V12.8447H51.1671L51.1706 12.8412Z" fill="#0046FF"/>
<path d="M56.6802 15.8981V5.20956C56.6802 4.67394 56.5847 4.40783 56.2879 4.07691C56.0968 3.84151 56.2231 3.61975 56.4448 3.61975H64.0152V5.46202H59.2458V8.82928H63.5751V10.6716H59.2458V14.0695H64.3598V15.8947H56.6802V15.8981Z" fill="#0046FF"/>
<path d="M68.4983 14.0729H73.7078V15.8981H65.3016V14.5744L70.5896 5.46202H65.537V3.61975H73.5953V4.97416C73.5953 5.35285 73.452 5.66672 73.2814 5.94988L68.4949 14.0729H68.4983Z" fill="#0046FF"/>
<path d="M80.7595 9.6958C80.7595 9.14312 80.664 8.86337 80.3672 8.53244C80.1761 8.29704 80.3058 8.09234 80.5412 8.09234H83.3114V10.1086H89.5273V11.8076H74.5265V10.1086H80.7595V9.69921V9.6958ZM75.3146 7.2565C78.1633 6.7857 80.7595 5.4927 80.7595 4.25087V3.95065C80.7595 3.68454 80.6162 3.43208 80.3979 3.21033C80.1761 2.98858 80.2887 2.75317 80.5241 2.75317H83.2159V4.24746C83.2159 5.27094 85.7029 6.68676 88.5823 7.17462L88.016 8.59044C87.8898 8.89066 86.9618 8.81219 85.1673 8.13328C83.8777 7.64542 82.7587 7.0791 81.974 6.35583C81.2644 7.04839 80.4456 7.51919 79.2823 8.02411C77.7402 8.68596 76.072 9.01689 75.898 8.6075L75.3146 7.25309V7.2565ZM76.4165 14.0558C76.4165 13.742 76.3074 13.5032 76.0856 13.2371C75.898 13.0017 76.0242 12.7799 76.2425 12.7799H78.9172V15.2192C78.9172 15.5501 79.1219 15.6764 79.4051 15.6764H88.016V17.4538H78.3031C77.092 17.4538 76.4131 16.7305 76.4131 15.6593V14.0524L76.4165 14.0558Z" fill="#0046FF"/>
<path d="M93.1433 4.25089C93.1433 3.68456 93.0477 3.35363 92.8294 3.07047C92.6418 2.81801 92.7509 2.63037 93.0034 2.63037H95.5382V4.85133H98.1822V6.62878H90.1718V4.85133H93.1467V4.2543L93.1433 4.25089ZM94.3237 7.1644C96.8108 7.1644 98.0867 8.75421 98.0867 11.0843C98.0867 13.4145 96.8108 15.0043 94.3237 15.0043C91.8366 15.0043 90.5607 13.4145 90.5607 11.0843C90.5607 8.75421 91.8366 7.1644 94.3237 7.1644ZM94.3237 8.91115C93.2524 8.91115 92.7987 9.74358 92.7987 11.0843C92.7987 12.4251 93.2559 13.2575 94.3237 13.2575C95.3915 13.2575 95.8487 12.4251 95.8487 11.0843C95.8487 9.74358 95.3915 8.91115 94.3237 8.91115ZM99.0624 4.55111C99.0624 3.98478 98.9669 3.65385 98.7485 3.37069C98.5609 3.11823 98.6701 2.93059 98.9225 2.93059H101.348V8.07871H102.686V2.83848H104.982V17.6517H102.686V10.0165H101.348V17.2252H99.0658V4.5477L99.0624 4.55111Z" fill="#0046FF"/>
<path d="M110.427 11.9611C108.554 11.9611 107.718 11.4118 107.718 9.90045V4.92633C107.718 4.40776 107.609 4.13824 107.308 3.77661C107.121 3.52415 107.23 3.31946 107.465 3.31946H110.157V6.05898H116.673V3.31946H119.113V11.9611H114.783V14.4788H120.999V16.2563H105.998V14.4788H112.231V11.9611H110.42H110.427ZM116.677 10.1973V7.80573H110.161V9.25566C110.161 9.80493 110.318 10.2007 111.058 10.2007H116.677V10.1973Z" fill="#0046FF"/>
<path d="M125.564 3.99835C125.564 3.44567 125.534 3.19663 125.233 2.835C125.029 2.59959 125.155 2.3949 125.39 2.3949H128.082V4.1587H131.654V5.88839H130.033C130.504 6.42401 130.791 7.08586 130.791 7.87053C130.791 9.85268 129.249 11.3163 126.714 11.3163C124.179 11.3163 122.637 9.85268 122.637 7.87053C122.637 7.0688 122.92 6.40695 123.377 5.88839H121.74V4.1587H125.564V4.00177V3.99835ZM127.407 17.5356C125.503 17.5356 124.715 17.1262 124.715 15.5364V13.411C124.715 13.0971 124.606 12.8583 124.384 12.5922C124.196 12.3568 124.322 12.135 124.541 12.135H135.639C135.891 12.135 136 12.2135 136 12.483V17.5356H127.407ZM128.43 7.79207C128.43 6.75494 127.799 5.9498 126.714 5.9498C125.629 5.9498 124.998 6.75152 124.998 7.79207C124.998 8.76779 125.612 9.60363 126.714 9.60363C127.816 9.60363 128.43 8.7712 128.43 7.79207ZM133.578 15.8366V13.8204H127.14V15.1884C127.14 15.7548 127.345 15.8332 127.864 15.8332H133.578V15.8366ZM133.517 11.2241V8.76779H131.422V6.99034H133.517V4.44186C133.517 3.89259 133.438 3.64014 133.138 3.2785C132.933 3.0431 133.06 2.83841 133.295 2.83841H135.987V11.2276H133.517V11.2241Z" fill="#0046FF"/>
<path d="M10.153 0C4.54768 0 0 4.54768 0 10.153C0 15.7582 4.54768 20.3059 10.153 20.3059C15.7582 20.3059 20.3059 15.7582 20.3059 10.153C20.3059 4.54768 15.7616 0 10.153 0ZM10.3645 18.4466C9.14994 18.6172 7.17121 18.3101 5.83385 17.4606C4.66026 16.7203 3.96088 15.7923 3.50714 14.8507C3.04316 13.8887 2.82481 12.7219 3.3195 12.7799C3.55149 12.8072 3.74936 13.2439 4.19628 13.8136C4.49991 14.2025 4.78308 14.53 4.9946 14.5778C5.09012 14.5983 5.16859 14.5539 5.23682 14.4277C5.36305 14.1855 5.53363 13.7283 5.83727 13.3565C6.0829 13.0733 6.37971 12.9402 6.5537 13.6328C6.63558 13.9774 6.70382 14.3356 6.74134 14.646C6.79593 15.0861 6.82322 15.3488 6.97674 15.4205C7.12344 15.4921 7.36908 15.4 7.77165 15.2499C8.05822 15.1441 8.42668 15.0077 8.89407 14.8746C9.32393 14.7518 9.59686 14.8166 9.32052 15.4819C9.19088 15.7958 9.05783 16.0619 8.59385 16.7305C8.51197 16.8499 8.52903 16.9659 8.62796 17.0649C8.7849 17.2184 9.13629 17.406 9.52522 17.5766C9.83567 17.7097 10.2041 17.8291 10.4498 17.8973C10.8319 18.0065 10.7568 18.392 10.3713 18.4466H10.3645ZM15.574 16.2631C15.1953 16.8772 14.4038 17.5425 13.4417 17.986C13.295 18.0508 13.1415 18.0304 13.1006 17.911C13.0665 17.8086 13.1483 17.6892 13.2439 17.5766C14.4959 15.9527 13.5646 14.4618 11.5449 13.3087C10.0506 12.4558 9.10218 11.9645 8.00023 11.3163C4.77284 9.41604 4.14852 7.758 4.02229 6.77887C3.70501 4.30545 5.75198 2.44954 7.85353 2.00262C7.91835 1.98897 8.08552 1.96168 8.1401 2.10155C8.19469 2.24143 8.06846 2.34378 7.99682 2.38813C7.05521 2.90669 6.13066 4.00523 6.23301 5.22659C6.2876 5.90891 6.581 6.89145 8.43009 8.20834C9.54569 9.00324 10.9103 9.65486 13.6635 11.3061C16.5736 13.0494 16.2427 15.1783 15.574 16.2597V16.2631ZM16.0277 6.97674C15.3625 7.78871 14.7006 7.48849 14.1889 6.34218C13.8716 5.62916 13.452 5.45517 13.1552 5.6428C12.8311 5.8475 12.9607 6.33536 13.3223 6.89828C13.5577 7.26673 13.452 7.70001 13.2063 7.95588C12.9471 8.22539 12.5274 8.33115 12.0669 8.23222C11.2481 8.0514 10.4429 6.95627 11.0297 4.56132C11.2686 3.59584 10.8046 3.18303 10.5078 2.81117C10.3611 2.62694 10.344 2.51436 10.3952 2.4393C10.4532 2.35742 10.5896 2.3506 10.8285 2.40177C11.1423 2.46659 11.6097 2.63035 11.9918 2.68835C12.2443 2.72929 12.5308 2.73952 12.8311 2.72588C13.6464 2.69517 14.2503 2.8214 14.8644 3.12504C15.9083 3.6436 16.0175 4.53403 15.4341 4.46239C15.2328 4.43851 14.9736 4.28498 14.7586 4.18263C14.6153 4.1144 14.4925 4.09052 14.4004 4.15534C14.3151 4.21675 14.2776 4.34639 14.339 4.47603C14.4686 4.74896 14.9087 4.88884 15.5024 5.05601C16.5429 5.34258 16.5634 6.30807 16.0209 6.97674H16.0277Z" fill="#0046FF"/>
</g>
<defs>
<clipPath id="clip0_566_399">
<rect width="136" height="20.3093" fill="white"/>
</clipPath>
</defs>
</svg>
