<svg width="160" height="160" viewBox="0 0 160 160" fill="none" xmlns="http://www.w3.org/2000/svg">
<g clip-path="url(#clip0_11124_107646)">
<path d="M7.99951 15.9999C12.4178 15.9999 15.9995 12.4182 15.9995 7.99994C15.9995 3.58166 12.4178 -6.10352e-05 7.99951 -6.10352e-05C3.58123 -6.10352e-05 -0.000488281 3.58166 -0.000488281 7.99994C-0.000488281 12.4182 3.58123 15.9999 7.99951 15.9999Z" fill="white"/>
<path d="M7.99951 12.158C10.296 12.158 12.1576 10.2964 12.1576 7.99994C12.1576 5.70349 10.296 3.84186 7.99951 3.84186C5.70307 3.84186 3.84143 5.70349 3.84143 7.99994C3.84143 10.2964 5.70307 12.158 7.99951 12.158Z" fill="#E70012"/>
</g>
<g clip-path="url(#clip1_11124_107646)">
<g clip-path="url(#clip2_11124_107646)">
<path d="M156.347 1.2833V14.7167C156.319 14.7348 156.292 14.7519 156.265 14.7691C156.142 14.8471 156.016 14.9216 155.888 14.9929C155.61 15.1476 155.322 15.2863 155.025 15.4075C154.759 15.5163 154.486 15.6114 154.206 15.6916C153.945 15.7665 153.678 15.8286 153.406 15.8766C152.95 15.9577 152.48 16 152 16C151.472 16 150.957 15.9489 150.458 15.8511C150.186 15.7982 149.919 15.7317 149.658 15.6515C149.425 15.5806 149.198 15.4995 148.975 15.4079C148.678 15.2868 148.39 15.148 148.112 14.9929C147.984 14.9216 147.858 14.8471 147.735 14.7691C147.708 14.7519 147.68 14.7348 147.653 14.7167V1.28285C147.803 1.18594 147.956 1.09386 148.112 1.00708C148.39 0.852006 148.678 0.713235 148.975 0.591646C149.143 0.522922 149.314 0.459925 149.488 0.402214C149.491 0.401333 149.494 0.400011 149.498 0.39913C149.5 0.398249 149.502 0.397368 149.505 0.396927C149.556 0.380187 149.607 0.363887 149.658 0.348468C149.919 0.268289 150.186 0.201327 150.458 0.148903C150.926 0.0572703 151.408 0.00660811 151.901 0C151.934 0 151.967 0 152 0C152.033 0 152.067 0 152.1 0C152.334 0.00308379 152.565 0.0158595 152.795 0.0387676C153.001 0.0590325 153.205 0.0872271 153.406 0.122911C153.678 0.17093 153.944 0.232606 154.206 0.307938C154.486 0.387676 154.759 0.482833 155.025 0.591646C155.322 0.712795 155.61 0.852006 155.888 1.00708C156.016 1.07756 156.142 1.15245 156.265 1.23043C156.292 1.24761 156.319 1.26479 156.347 1.28285V1.2833Z" fill="white"/>
<path d="M148.975 0.591644V15.4079C148.678 15.2868 148.39 15.148 148.112 14.9929C147.984 14.9216 147.858 14.8471 147.735 14.7691C147.708 14.7519 147.68 14.7348 147.653 14.7167C147.133 14.3801 146.655 13.9836 146.227 13.5383C146.207 13.5167 146.186 13.4951 146.165 13.4731C146.015 13.3136 145.872 13.1475 145.736 12.9761C145.565 12.762 145.406 12.5391 145.258 12.3078C145.251 12.2968 145.243 12.2854 145.237 12.2739C145.079 12.0259 144.936 11.7695 144.807 11.5043C144.738 11.3642 144.674 11.2219 144.613 11.077C144.583 11.0047 144.554 10.9316 144.526 10.858C144.502 10.7946 144.478 10.7311 144.456 10.6668C144.41 10.5373 144.367 10.4065 144.328 10.2743C144.286 10.1333 144.248 9.99014 144.214 9.84608C144.185 9.72317 144.159 9.59938 144.136 9.47427C144.083 9.19276 144.046 8.90641 144.023 8.61521C144.008 8.41212 144 8.20727 144 8.00022C144 7.49624 144.047 7.00327 144.136 6.52573C144.17 6.34335 144.21 6.1636 144.256 5.98607C144.258 5.97726 144.26 5.96888 144.263 5.96051C144.263 5.95611 144.265 5.9517 144.266 5.9473C144.285 5.87285 144.306 5.79928 144.328 5.72571C144.366 5.59751 144.407 5.47063 144.452 5.34508C144.453 5.34067 144.454 5.33759 144.456 5.33362C144.527 5.12965 144.607 4.93009 144.695 4.73449C144.715 4.68999 144.734 4.64682 144.755 4.60365C144.77 4.57193 144.785 4.53977 144.8 4.50805C144.803 4.50409 144.804 4.49968 144.807 4.49572C144.82 4.46752 144.834 4.44021 144.848 4.41245C144.875 4.35739 144.904 4.3032 144.932 4.24901C144.94 4.23359 144.948 4.21818 144.957 4.20276C145 4.12346 145.044 4.04548 145.089 3.96795C145.208 3.76486 145.336 3.56706 145.471 3.37586C145.478 3.36661 145.484 3.3578 145.491 3.34855C145.495 3.34238 145.499 3.33665 145.504 3.33049C145.664 3.10713 145.837 2.89215 146.02 2.68686C146.498 2.14896 147.047 1.67582 147.653 1.28285C147.803 1.18593 147.956 1.09386 148.112 1.00707C148.39 0.852004 148.678 0.713234 148.975 0.591644Z" fill="#002395"/>
<path d="M160 7.99979C160 8.20729 159.992 8.41214 159.977 8.61523C159.954 8.90643 159.917 9.19278 159.864 9.47429C159.841 9.5994 159.815 9.72319 159.786 9.8461C159.752 9.99016 159.714 10.1333 159.672 10.2743C159.633 10.4065 159.59 10.5373 159.545 10.6664C159.524 10.725 159.503 10.7823 159.481 10.8395C159.451 10.9193 159.419 10.9986 159.387 11.077C159.335 11.1999 159.281 11.3215 159.224 11.4413C159.214 11.4624 159.204 11.4836 159.193 11.5043C159.078 11.7422 158.95 11.9735 158.811 12.1968C158.789 12.2343 158.766 12.2713 158.742 12.3078C158.479 12.7184 158.18 13.1035 157.848 13.4581C157.823 13.485 157.798 13.5118 157.773 13.5383C157.345 13.9837 156.866 14.3801 156.347 14.7167C156.319 14.7348 156.292 14.752 156.265 14.7691C156.142 14.8471 156.016 14.9216 155.888 14.9929C155.611 15.1476 155.322 15.2863 155.025 15.4075V0.592102C155.322 0.713251 155.611 0.852462 155.888 1.00753C156.016 1.07802 156.142 1.15291 156.265 1.23089C156.292 1.24807 156.319 1.26525 156.347 1.28331C156.866 1.61988 157.345 2.01593 157.772 2.46132C157.815 2.50537 157.856 2.54987 157.897 2.5948C158.045 2.75604 158.186 2.923 158.321 3.0957C158.47 3.28777 158.611 3.4869 158.742 3.69219C158.766 3.72875 158.789 3.76576 158.812 3.8032C158.95 4.02656 159.078 4.25784 159.194 4.49573C159.262 4.63583 159.326 4.77856 159.387 4.92306C159.429 5.02394 159.469 5.12571 159.507 5.22835C159.519 5.26316 159.532 5.29796 159.545 5.3332C159.591 5.46316 159.633 5.59312 159.672 5.72572C159.714 5.8667 159.752 6.00943 159.786 6.15393C159.815 6.27684 159.841 6.40063 159.864 6.52575C159.917 6.80725 159.955 7.0936 159.977 7.3848C159.992 7.58789 160 7.79274 160 7.99979Z" fill="#ED2939"/>
</g>
</g>
<g clip-path="url(#clip3_11124_107646)">
<g clip-path="url(#clip4_11124_107646)">
<path d="M144 7.99978L128 8.00022C128 7.49624 128.047 7.00328 128.136 6.52573C128.17 6.34335 128.21 6.16361 128.256 5.98607C128.258 5.97726 128.26 5.96889 128.263 5.96052C128.263 5.95611 128.265 5.95171 128.266 5.9473C128.285 5.87285 128.306 5.79928 128.328 5.72571C128.366 5.59751 128.407 5.47064 128.452 5.34508C128.453 5.34068 128.454 5.33759 128.456 5.33363C128.527 5.12966 128.607 4.93009 128.695 4.73449C128.715 4.69 128.734 4.64682 128.755 4.60365C128.77 4.57193 128.785 4.53977 128.8 4.50805C128.816 4.47589 128.832 4.44418 128.848 4.41246C128.875 4.35739 128.904 4.3032 128.932 4.24902C128.94 4.2336 128.948 4.21818 128.957 4.20276C129 4.12346 129.044 4.04549 129.089 3.96795C129.208 3.76486 129.336 3.56706 129.471 3.37586C129.478 3.36661 129.484 3.3578 129.491 3.34855C129.495 3.34238 129.499 3.33666 129.504 3.33049C129.664 3.10713 129.837 2.89215 130.02 2.68686C130.498 2.14896 131.047 1.67582 131.653 1.28285C131.803 1.18594 131.956 1.09386 132.112 1.00708C132.39 0.852006 132.678 0.713236 132.975 0.591646C133.143 0.522922 133.314 0.459925 133.488 0.402214C133.491 0.401333 133.494 0.400011 133.498 0.39913C133.5 0.398249 133.502 0.397368 133.505 0.396927C133.556 0.380187 133.607 0.363887 133.658 0.348468C133.919 0.268289 134.186 0.201327 134.458 0.148903C134.926 0.0572703 135.408 0.00660811 135.901 0.000440541C135.934 0 135.967 0 136 0C136.033 0 136.067 0 136.1 0.000440541C136.334 0.00352433 136.565 0.0163 136.795 0.0392081C137.001 0.059473 137.205 0.0876676 137.406 0.123351C137.678 0.17137 137.944 0.233046 138.206 0.308379C138.486 0.388116 138.759 0.483273 139.025 0.592087C139.322 0.713236 139.61 0.852446 139.888 1.00752C140.016 1.078 140.142 1.1529 140.265 1.23087C140.292 1.24805 140.319 1.26523 140.347 1.2833C140.866 1.61987 141.345 2.01591 141.772 2.4613C141.814 2.50536 141.856 2.54985 141.897 2.59479C142.045 2.75602 142.186 2.92299 142.321 3.09568C142.47 3.28776 142.611 3.48688 142.742 3.69217C142.766 3.72874 142.789 3.76574 142.812 3.80319C143.032 4.15871 143.224 4.53316 143.387 4.92304C143.429 5.02393 143.469 5.12569 143.507 5.22834C143.519 5.26314 143.532 5.29794 143.544 5.33319C143.591 5.46315 143.633 5.59311 143.672 5.72571C143.714 5.86668 143.752 6.00942 143.786 6.15391C143.815 6.27683 143.841 6.40062 143.864 6.52573C143.917 6.80724 143.955 7.09359 143.977 7.38479C143.992 7.58787 144 7.79273 144 7.99978Z" fill="#E30917"/>
<path d="M144 8.00021C144 8.20727 143.992 8.41212 143.977 8.61521C143.954 8.90641 143.917 9.19276 143.864 9.47426C143.841 9.59938 143.815 9.72317 143.786 9.84608C143.752 9.99014 143.714 10.1333 143.672 10.2743C143.633 10.4064 143.59 10.5373 143.544 10.6664C143.524 10.725 143.503 10.7822 143.481 10.8395C143.451 10.9192 143.419 10.9985 143.387 11.077C143.335 11.1999 143.281 11.3214 143.224 11.4413C143.1 11.7012 142.963 11.9536 142.811 12.1968C142.789 12.2343 142.766 12.2713 142.742 12.3078C142.479 12.7184 142.18 13.1034 141.848 13.4581C141.823 13.4849 141.798 13.5118 141.773 13.5383C141.345 13.9836 140.866 14.3801 140.347 14.7167C140.319 14.7348 140.292 14.7519 140.265 14.7691C140.142 14.8471 140.016 14.9215 139.888 14.9929C139.61 15.1475 139.322 15.2863 139.025 15.4075C138.759 15.5163 138.486 15.6114 138.206 15.6916C137.945 15.7665 137.678 15.8286 137.406 15.8766C136.95 15.9577 136.48 16 136 16C135.472 16 134.957 15.9489 134.458 15.8511C134.186 15.7982 133.919 15.7317 133.658 15.6515C133.425 15.5806 133.197 15.4995 132.975 15.4079C132.678 15.2868 132.39 15.148 132.112 14.9929C131.984 14.9215 131.858 14.8471 131.735 14.7691C131.708 14.7519 131.68 14.7348 131.653 14.7167C131.133 14.3801 130.655 13.9836 130.227 13.5383C130.207 13.5167 130.186 13.4951 130.165 13.4731C130.015 13.3136 129.872 13.1475 129.736 12.9761C129.565 12.762 129.406 12.5391 129.258 12.3078C129.251 12.2968 129.243 12.2854 129.237 12.2739C128.997 11.895 128.788 11.4955 128.613 11.077C128.583 11.0047 128.554 10.9316 128.526 10.858C128.502 10.7946 128.478 10.7311 128.456 10.6668C128.41 10.5373 128.367 10.4064 128.328 10.2743C128.286 10.1333 128.248 9.99014 128.214 9.84608C128.185 9.72317 128.159 9.59938 128.136 9.47426C128.083 9.19276 128.046 8.90641 128.023 8.61521C128.008 8.41212 128 8.20727 128 8.00021H144Z" fill="white"/>
</g>
</g>
<g clip-path="url(#clip5_11124_107646)">
<g clip-path="url(#clip6_11124_107646)">
<path d="M112 8H128C128 3.5965 124.442 0.0241052 120.044 0.000305176H119.956C115.558 0.0241052 112 3.5965 112 8ZM120.691 5.98341L120.255 5.6899L119.819 5.98341L119.983 5.4892L119.544 5.1654H120.09L120.255 4.6668L120.424 5.1654H120.97L120.527 5.4892L120.691 5.98341ZM118.944 3.26481H119.49L119.655 2.76621L119.824 3.26481H120.37L119.927 3.58871L120.091 4.08281L119.655 3.7893L119.219 4.08281L119.383 3.58871L118.944 3.26481ZM122.715 3.26481L122.881 2.76621L123.049 3.26481H123.596L123.153 3.58871L123.317 4.08281L122.881 3.7893L122.445 4.08281L122.608 3.58871L122.169 3.26481H122.715ZM122.256 4.6669L122.424 5.1655H122.971L122.528 5.4893L122.692 5.9835L122.256 5.69L121.82 5.9835L121.983 5.4893L121.544 5.1655H122.09L122.256 4.6669ZM121.256 1.57871L121.424 2.07731H121.971L121.528 2.40111L121.692 2.89521L121.256 2.60171L120.82 2.89521L120.983 2.40111L120.544 2.07731H121.09L121.256 1.57871H121.256ZM119.669 0.974805C120.036 0.974805 120.386 1.04371 120.711 1.16361C119.188 1.20631 117.964 2.45231 117.964 3.98631C117.964 5.52031 119.187 6.7663 120.711 6.8091C120.386 6.929 120.036 6.9979 119.669 6.9979C118.006 6.9979 116.658 5.64941 116.658 3.98641C116.658 2.32341 118.007 0.974805 119.669 0.974805Z" fill="#EB2837"/>
<path d="M128 8H112C112 12.4031 115.557 15.9754 119.955 15.9997H120.045C124.443 15.9753 128 12.4031 128 8H128Z" fill="white"/>
<path d="M122.445 4.0828L122.881 3.7893L123.317 4.0828L123.153 3.5887L123.596 3.2648H123.049L122.881 2.7663L122.715 3.2648H122.169L122.608 3.5887L122.445 4.0828Z" fill="white"/>
<path d="M119.656 3.7893L120.091 4.0828L119.927 3.5887L120.37 3.2648H119.824L119.655 2.7663L119.49 3.2648H118.944L119.383 3.5887L119.219 4.0828L119.656 3.7893Z" fill="white"/>
<path d="M120.983 2.4011L120.82 2.8952L121.256 2.6017L121.692 2.8952L121.528 2.4011L121.971 2.0773H121.424L121.256 1.5787L121.091 2.0773H120.544L120.983 2.4011Z" fill="white"/>
<path d="M121.983 5.4892L121.82 5.9834L122.256 5.6899L122.692 5.9834L122.528 5.4892L122.971 5.1654H122.424L122.256 4.6669L122.091 5.1654H121.544L121.983 5.4892Z" fill="white"/>
<path d="M120.424 5.1654L120.255 4.6669L120.09 5.1654H119.544L119.983 5.4892L119.819 5.9834L120.255 5.6899L120.691 5.9834L120.527 5.4892L120.97 5.1654H120.424Z" fill="white"/>
<path d="M119.67 6.99789C120.036 6.99789 120.386 6.92899 120.711 6.80909C119.188 6.76639 117.964 5.52039 117.964 3.98629C117.964 2.45219 119.187 1.20629 120.711 1.16359C120.386 1.04369 120.036 0.974792 119.67 0.974792C118.007 0.974792 116.658 2.32309 116.658 3.98629C116.658 5.64949 118.007 6.99779 119.67 6.99779V6.99789Z" fill="white"/>
</g>
</g>
<g clip-path="url(#clip7_11124_107646)">
<path d="M104 16C108.418 16 112 12.4183 112 8C112 3.58172 108.418 0 104 0C99.5817 0 96 3.58172 96 8C96 12.4183 99.5817 16 104 16Z" fill="#00297B"/>
<path d="M100.292 8.00016C100.292 11.0646 104 13.5491 104 13.5491C104 13.5491 107.707 11.0651 107.707 8.00016C107.707 4.93519 104 2.45117 104 2.45117C104 2.45117 100.292 4.93519 100.292 8.00016Z" fill="#C62139"/>
<path d="M100.673 7.99983C100.673 10.75 104 12.9796 104 12.9796C104 12.9796 107.327 10.7505 107.327 7.99983C107.327 5.24913 104 3.02002 104 3.02002C104 3.02002 100.673 5.24913 100.673 7.99983Z" fill="#66AFEB"/>
<path d="M102.378 7.77037H102.097C102.088 7.77088 102.079 7.77856 102.079 7.78879V7.8927C102.079 7.90242 102.087 7.91061 102.097 7.91061H102.274V8.05086C102.257 8.06929 102.233 8.08771 102.202 8.1046C102.129 8.14351 102.052 8.14043 101.985 8.0959C101.949 8.07236 101.922 8.03551 101.903 7.98586C101.883 7.93467 101.873 7.87018 101.873 7.79391C101.873 7.73198 101.881 7.67414 101.898 7.62142C101.907 7.59122 101.92 7.56307 101.937 7.5385C101.953 7.51444 101.975 7.49448 102.002 7.47963C102.028 7.46479 102.06 7.45711 102.097 7.45711C102.127 7.45711 102.155 7.46428 102.18 7.4781C102.204 7.49192 102.224 7.51035 102.236 7.53338C102.25 7.55744 102.262 7.59173 102.272 7.63473C102.273 7.63984 102.276 7.64394 102.281 7.6465C102.285 7.64906 102.291 7.64957 102.295 7.64752L102.374 7.61835C102.382 7.61527 102.387 7.60708 102.386 7.59838C102.374 7.53696 102.356 7.48629 102.334 7.4479C102.31 7.40849 102.277 7.37675 102.235 7.35474C102.194 7.33273 102.148 7.32147 102.097 7.32147C102.028 7.32147 101.965 7.34092 101.912 7.3788C101.858 7.41719 101.817 7.47605 101.789 7.55385C101.762 7.63012 101.748 7.71355 101.748 7.80108C101.748 7.8886 101.762 7.97152 101.79 8.04369C101.818 8.11689 101.861 8.17422 101.917 8.21363C101.973 8.25304 102.036 8.27249 102.104 8.27249C102.155 8.27249 102.205 8.26021 102.253 8.23615C102.266 8.23001 102.278 8.22284 102.29 8.21516V8.25918H102.391V8.12969C102.391 8.12969 102.392 8.12969 102.392 8.12917C102.395 8.12559 102.396 8.1215 102.396 8.11689V7.78828C102.396 7.78316 102.394 7.77907 102.391 7.77548C102.387 7.7719 102.383 7.77037 102.378 7.77037Z" fill="#C62139"/>
<path d="M103.593 7.32916H103.506C103.495 7.32916 103.488 7.33735 103.488 7.34708V7.85791C103.488 7.96488 103.475 8.03705 103.45 8.07288C103.426 8.10718 103.385 8.12407 103.327 8.12407C103.293 8.12407 103.265 8.11537 103.242 8.09796C103.219 8.08056 103.202 8.05548 103.192 8.02323C103.182 7.98843 103.177 7.93315 103.177 7.85842V7.34759C103.177 7.33735 103.169 7.32967 103.159 7.32967H103.071C103.061 7.32967 103.053 7.33786 103.053 7.34759V7.85893C103.053 7.95413 103.062 8.0304 103.079 8.08619C103.097 8.14403 103.128 8.18856 103.17 8.21927C103.213 8.24998 103.268 8.26534 103.333 8.26534C103.399 8.26534 103.457 8.24742 103.5 8.21211C103.542 8.17679 103.571 8.13123 103.587 8.07544C103.602 8.0217 103.61 7.94901 103.61 7.85842V7.34708C103.61 7.33684 103.602 7.32916 103.592 7.32916H103.593Z" fill="#C62139"/>
<path d="M104.745 7.34935C104.743 7.34219 104.736 7.33707 104.728 7.33707H104.634C104.626 7.33707 104.619 7.34219 104.617 7.34986L104.362 8.23537C104.361 8.241 104.362 8.24663 104.365 8.25123C104.368 8.25533 104.374 8.2584 104.379 8.2584H104.472C104.481 8.2584 104.487 8.25328 104.49 8.2456L104.559 7.99019H104.809L104.883 8.2456C104.885 8.25328 104.892 8.2584 104.9 8.2584H105C105.005 8.2584 105.01 8.25584 105.014 8.25123C105.017 8.24663 105.018 8.241 105.016 8.23537L104.745 7.34986V7.34935ZM104.772 7.85864H104.594L104.661 7.62166C104.669 7.59299 104.676 7.56433 104.682 7.53515C104.69 7.56535 104.699 7.59914 104.709 7.6365L104.772 7.85916V7.85864Z" fill="#C62139"/>
<path d="M106.247 7.33707H106.128C106.12 7.33707 106.113 7.3427 106.111 7.35038L105.952 7.96664C105.946 7.99275 105.94 8.01629 105.934 8.03677C105.93 8.01936 105.925 7.9994 105.919 7.97739L105.763 7.35038C105.761 7.34219 105.754 7.33707 105.745 7.33707H105.613C105.604 7.33707 105.595 7.34526 105.595 7.35498V8.24049C105.595 8.25021 105.603 8.2584 105.613 8.2584H105.698C105.708 8.2584 105.716 8.25072 105.716 8.24049V7.62882L105.872 8.24458C105.874 8.25277 105.882 8.25789 105.89 8.25789H105.969C105.977 8.25789 105.984 8.25226 105.986 8.24458L106.144 7.63855V8.24049C106.144 8.25021 106.151 8.2584 106.162 8.2584H106.246C106.256 8.2584 106.264 8.25072 106.264 8.24049V7.35498C106.264 7.34526 106.256 7.33707 106.246 7.33707H106.247Z" fill="#C62139"/>
<path d="M100.808 8.97424C101.431 11.2581 104 12.9795 104 12.9795C104 12.9795 106.569 11.2581 107.192 8.97424H100.809H100.808Z" fill="#007BDE"/>
<path d="M103.715 11.0003C102.868 10.557 101.858 10.4972 101.521 10.49C101.774 10.8734 102.062 11.224 102.349 11.5337C102.623 11.1999 103.132 11.2245 103.573 11.202C104.036 11.1784 103.715 10.9998 103.715 10.9998V11.0003Z" fill="#FFF100"/>
<path d="M106.061 10.0498C105.723 10.1629 105.527 10.4122 104.933 10.3467C104.339 10.2811 104.036 10.4301 103.87 10.5427C103.703 10.6558 104.089 10.6676 104.274 10.709C104.457 10.7505 104.713 10.9527 104.689 11.3448C104.666 11.7368 104.048 11.6954 103.721 11.743C103.482 11.7778 103.177 12.0562 103.03 12.2042C103.575 12.6955 104 12.9796 104 12.9796C104 12.9796 105.875 11.7235 106.809 9.9341C106.572 9.92949 106.361 9.94997 106.062 10.0498H106.061Z" fill="#FFF100"/>
<path d="M107.192 8.97426C107.253 8.75007 107.296 8.51974 107.315 8.28531C107.178 8.37028 106.967 8.4578 106.644 8.51667C105.8 8.67125 103.549 8.5223 103.549 8.5223L103.372 8.97375H107.192L107.192 8.97426Z" fill="#9C8431"/>
<path d="M102.942 8.28531H102.8V9.75279H102.942V8.28531Z" fill="black"/>
<path d="M102.295 8.39236C102.295 8.39236 103.055 8.83204 103.335 9.65152C103.335 9.65152 102.676 9.52663 102.289 9.66943C102.289 9.66943 102.153 9.68121 102.046 9.6638C102.046 9.6638 102.414 9.07517 102.295 8.39236Z" fill="white"/>
<path d="M103.572 9.66952C103.073 9.83587 101.772 9.74067 101.772 9.74067C101.772 9.74067 101.789 9.86249 102.284 9.93671L102.287 10.0652C102.212 10.0508 102.166 10.0391 102.164 10.0386C102.151 10.035 102.139 10.0427 102.135 10.0549C102.132 10.0677 102.139 10.0805 102.151 10.0841C102.168 10.0887 102.444 10.1609 102.764 10.1609C102.924 10.1609 103.096 10.143 103.252 10.0892C103.265 10.0851 103.271 10.0713 103.267 10.059C103.263 10.0468 103.249 10.0401 103.237 10.0442C103.193 10.059 103.148 10.0713 103.103 10.081L103.104 9.95104C103.494 9.87528 103.572 9.66901 103.572 9.66901L103.572 9.66952ZM103.056 10.0903C102.791 10.1358 102.509 10.1041 102.335 10.0739L102.332 9.94387C102.414 9.95462 102.508 9.96486 102.616 9.97253C102.793 9.98533 102.937 9.97868 103.056 9.95974L103.055 10.0851C103.055 10.0851 103.056 10.0882 103.056 10.0903Z" fill="#7B4800"/>
<path d="M103.474 7.04156C103.474 7.04156 103.418 6.89107 103.418 7.0651C103.418 7.23913 103.387 7.29083 103.387 7.29083C103.387 7.29083 103.327 7.34253 103.327 7.16031C103.327 6.97809 103.295 7.08148 103.264 7.07329C103.232 7.06561 103.212 7.01801 103.26 6.93868C103.307 6.85934 103.37 6.76465 103.291 6.80406C103.212 6.84347 103.193 6.79587 103.264 6.70118C103.335 6.60597 103.402 6.57475 103.327 6.59062C103.252 6.60648 103.304 6.47545 103.355 6.4519C103.406 6.42836 103.458 6.37666 103.398 6.38485C103.339 6.39304 103.398 6.32138 103.43 6.27787C103.462 6.23437 103.509 6.19086 103.462 6.19495C103.414 6.19854 103.482 6.11152 103.565 6.03628C103.648 5.96104 103.624 5.87812 103.533 5.97281C103.442 6.0675 103.375 5.99277 103.382 5.96104C103.39 5.9293 103.367 5.98458 103.303 6.04805C103.24 6.11152 103.208 6.10333 103.208 6.06802C103.208 6.0327 103.176 6.05624 103.133 6.12739C103.089 6.19854 103.03 6.19854 103.037 6.15094C103.046 6.10333 102.966 6.20212 102.935 6.26201C102.903 6.32138 102.819 6.37308 102.852 6.28965C102.883 6.20673 102.808 6.25382 102.788 6.32548C102.768 6.39662 102.709 6.46828 102.709 6.40072C102.709 6.33316 102.705 6.33725 102.665 6.43245C102.625 6.52715 102.566 6.56707 102.57 6.5036C102.574 6.44013 102.499 6.54301 102.447 6.60648C102.396 6.66995 102.408 6.53124 102.459 6.44013C102.511 6.34902 102.788 5.86583 103.327 5.67952C103.327 5.67952 103.445 5.61605 103.192 5.66775C102.939 5.71944 103.033 5.65598 103.085 5.61605C103.136 5.57664 102.982 5.62424 102.935 5.66365C102.887 5.70307 102.871 5.64011 102.871 5.60786C102.871 5.57561 102.78 5.63141 102.697 5.69129C102.614 5.75067 102.542 5.77012 102.571 5.71484C102.598 5.65905 102.571 5.69129 102.511 5.73838C102.452 5.78599 102.377 5.81363 102.385 5.76193C102.393 5.71074 102.337 5.73429 102.31 5.78189C102.282 5.82949 102.191 5.88119 102.218 5.83359C102.246 5.78599 102.211 5.75016 102.155 5.81772C102.1 5.88477 101.981 5.93647 102.012 5.86891C102.044 5.80134 101.961 5.8254 101.882 5.86891C101.802 5.91241 101.664 5.95234 101.834 5.78547C102.005 5.61912 102.693 4.9619 103.759 5.4886C103.759 5.4886 103.814 5.5362 103.696 5.38981C103.577 5.24342 103.629 5.32634 103.625 5.27516C103.62 5.22346 103.601 5.22346 103.545 5.22346C103.489 5.22346 103.522 5.15999 103.525 5.14822C103.529 5.13645 103.522 5.10062 103.466 5.10471C103.411 5.10829 103.43 5.03715 103.43 5.00541C103.43 4.97368 103.387 4.95781 103.331 4.966C103.275 4.97419 103.311 4.93836 103.319 4.90253C103.327 4.86721 103.358 4.85902 103.28 4.86312C103.201 4.86721 103.213 4.80784 103.216 4.77969C103.22 4.75205 103.149 4.74386 103.129 4.74386C103.11 4.74386 103.106 4.62511 103.077 4.55754C103.05 4.49049 103.569 4.62511 103.937 5.11188C103.937 5.11188 103.96 5.21118 104 5.10778C104.04 5.0049 103.973 5.0525 103.973 5.0525C103.973 5.0525 103.964 5.02077 103.98 4.98494C103.996 4.94911 104.004 4.9532 103.933 4.91379C103.862 4.87438 103.798 4.74744 103.877 4.77917C103.956 4.81091 103.933 4.73567 103.866 4.66042C103.798 4.58518 103.707 4.53348 103.794 4.54935C103.881 4.56522 103.83 4.47053 103.771 4.41832C103.712 4.36713 103.62 4.29547 103.688 4.30776C103.755 4.31953 103.735 4.26016 103.703 4.24429C103.672 4.22842 103.553 4.14908 103.652 4.16905C103.751 4.18901 103.692 4.07794 103.629 4.01856C103.565 3.95919 103.506 3.88804 103.565 3.90391C103.625 3.91977 103.62 3.8604 103.597 3.81689C103.573 3.77338 103.676 3.83634 103.7 3.88394C103.723 3.93155 103.732 3.91977 103.739 3.85221C103.747 3.78465 103.787 3.89981 103.799 3.96277C103.81 4.02624 103.87 4.02214 103.87 3.98683C103.87 3.95151 103.909 3.97915 103.941 4.11735C103.973 4.25606 103.993 4.22023 103.997 4.17263C104 4.12503 104.04 4.12093 104.048 4.24378C104.056 4.36662 104.075 4.45773 104.095 4.38658C104.115 4.31544 104.131 4.30725 104.143 4.44186C104.155 4.57648 104.195 4.65582 104.195 4.60463C104.195 4.55345 104.254 4.54526 104.246 4.67987C104.238 4.81449 104.25 4.81091 104.266 4.78685C104.282 4.76331 104.313 4.8104 104.301 4.92915C104.289 5.0479 104.285 5.17074 104.341 5.08782C104.396 5.00439 104.717 4.426 105.469 4.46592C105.469 4.46592 105.457 4.50533 105.386 4.53707C105.315 4.5688 105.315 4.58467 105.386 4.59235C105.457 4.60003 105.358 4.63176 105.283 4.64404C105.208 4.65582 105.176 4.69932 105.236 4.70751C105.295 4.71519 105.275 4.79453 105.188 4.78276C105.101 4.77098 105.01 4.79453 105.085 4.8063C105.161 4.81807 105.201 4.86158 105.018 4.86977C104.836 4.87745 104.737 4.91328 104.84 4.93324C104.943 4.9532 104.987 4.98494 104.864 5.00439C104.74 5.02435 104.662 5.05199 104.757 5.07144C104.851 5.0914 104.848 5.12723 104.792 5.14259C104.737 5.15846 104.546 5.1861 104.562 5.20606C104.578 5.22602 104.555 5.22193 104.642 5.22193C104.729 5.22193 105.529 5.07502 105.87 5.42769C105.87 5.42769 105.905 5.53467 105.783 5.45533C105.66 5.37599 105.687 5.43946 105.7 5.45942C105.711 5.47939 105.636 5.4712 105.613 5.43946C105.589 5.40773 105.584 5.43178 105.584 5.46301C105.584 5.49423 105.545 5.44714 105.482 5.42718C105.418 5.40722 105.43 5.39135 105.434 5.44304C105.438 5.49474 105.449 5.51829 105.379 5.46301C105.308 5.40773 105.319 5.43946 105.319 5.4671C105.319 5.49474 105.279 5.47887 105.216 5.45123C105.153 5.42359 105.125 5.4154 105.133 5.4671C105.141 5.5188 105.149 5.51061 105.066 5.47887C104.983 5.44714 104.967 5.3719 104.959 5.46301C104.951 5.55412 104.927 5.49065 104.848 5.52648C104.769 5.56231 104.828 5.64523 104.844 5.64523C104.859 5.64523 105.604 5.72456 105.783 6.36643C105.783 6.36643 105.802 6.57628 105.798 6.65153C105.794 6.72677 105.727 6.64794 105.735 6.57628C105.743 6.50514 105.707 6.45344 105.7 6.50514C105.691 6.55683 105.589 6.521 105.597 6.45754C105.604 6.39407 105.557 6.40584 105.549 6.43757C105.541 6.46931 105.457 6.34237 105.466 6.28709C105.474 6.23181 105.454 6.25945 105.438 6.29477C105.422 6.3306 105.359 6.25126 105.359 6.19956C105.359 6.14786 105.308 6.17602 105.303 6.20366C105.299 6.2313 105.248 6.14428 105.255 6.12022C105.263 6.09668 105.196 6.05675 105.196 6.12432C105.196 6.19188 105.113 6.132 105.117 6.08081C105.121 6.02912 105.085 5.97383 105.077 6.03321C105.069 6.09258 105.021 6.04908 105.001 6.01376C104.982 5.97793 104.95 5.99021 104.942 6.02963C104.934 6.06904 104.874 6.04549 104.831 5.95848C104.787 5.87146 104.768 5.89501 104.768 5.94261C104.768 5.99021 104.736 5.99021 104.672 5.92675C104.609 5.86328 104.601 5.9032 104.585 5.91907C104.57 5.93493 104.435 5.86379 104.462 5.93493C104.491 6.00608 104.574 6.06955 104.526 6.06955C104.478 6.06955 104.506 6.10538 104.542 6.10896C104.577 6.11306 104.72 6.23949 104.645 6.23539C104.569 6.23181 104.554 6.25126 104.605 6.2789C104.656 6.30654 104.819 6.38997 104.756 6.39765C104.692 6.40584 104.653 6.38588 104.724 6.4688C104.795 6.55223 104.819 6.60751 104.768 6.59522C104.716 6.58345 104.708 6.63873 104.739 6.65869C104.772 6.67865 104.827 6.7022 104.759 6.7022C104.692 6.7022 104.684 6.74571 104.728 6.79331C104.772 6.84091 104.87 6.90848 104.839 6.92025C104.807 6.93202 104.772 6.92844 104.783 6.98372C104.795 7.039 104.807 7.23709 104.748 7.11015C104.688 6.98372 104.685 7.0349 104.673 7.06254C104.661 7.09018 104.625 7.00726 104.625 6.9356C104.625 6.86395 104.55 6.86446 104.538 6.8921C104.526 6.91974 104.531 6.80099 104.531 6.72574C104.531 6.6505 104.447 6.67047 104.431 6.7063C104.415 6.74161 104.415 6.6546 104.428 6.57168C104.439 6.48876 104.399 6.4647 104.392 6.49234C104.384 6.51998 104.372 6.413 104.372 6.37359C104.372 6.33418 104.349 6.26661 104.333 6.32189C104.317 6.37717 104.309 6.27071 104.313 6.2272C104.317 6.18369 104.285 6.13609 104.266 6.1796C104.246 6.22311 104.238 6.13609 104.246 6.09668C104.254 6.05727 104.202 6.06904 104.187 6.04089C104.171 6.01325 104.139 5.98151 104.139 5.98151C104.139 5.98151 103.937 5.96155 103.933 6.00506C103.929 6.04857 103.929 6.0803 103.886 6.09207C103.842 6.10385 103.819 6.13149 103.819 6.19495C103.819 6.25842 103.814 6.23846 103.783 6.23437C103.751 6.23078 103.735 6.27378 103.747 6.33725C103.759 6.40072 103.779 6.42017 103.719 6.39662C103.66 6.37308 103.672 6.38076 103.664 6.46009C103.656 6.53943 103.636 6.58294 103.616 6.56707C103.596 6.5512 103.581 6.57475 103.593 6.63822C103.605 6.70169 103.6 6.7411 103.581 6.73342C103.561 6.72523 103.569 6.7411 103.569 6.77284C103.569 6.80457 103.569 6.83631 103.542 6.81634C103.514 6.79689 103.53 6.85576 103.53 6.91155C103.53 6.96734 103.514 7.0738 103.475 7.03849L103.474 7.04156Z" fill="#009270"/>
<path d="M103.971 5.93251C103.971 5.93251 103.763 5.85522 103.882 5.7247C103.882 5.7247 103.911 5.68887 103.894 5.67146C103.876 5.65355 103.793 5.42168 104.042 5.48157L104.054 5.52917C104.054 5.52917 104.084 5.54145 104.107 5.5174C104.131 5.49334 104.369 5.49334 104.274 5.6776C104.179 5.86187 104.232 5.79635 104.232 5.79635C104.232 5.79635 104.161 5.85573 104.137 5.86187C104.114 5.8675 104.096 5.8977 104.096 5.8977C104.096 5.8977 104.048 7.42455 104.125 8.32132C104.203 9.2186 104.244 10.0028 105.45 10.7516C105.45 10.7516 105.563 11.0725 105.349 11.0546C105.135 11.0367 104.565 10.5556 104.315 9.97921C104.065 9.40286 103.84 8.86235 103.971 5.93353V5.93251Z" fill="#7B4800"/>
</g>
<g clip-path="url(#clip8_11124_107646)">
<g clip-path="url(#clip9_11124_107646)">
<path d="M88.7945 0.0392081V8.61522H80.0233C80.0079 8.41213 80 8.20683 80 7.99978C80 7.30417 80.089 6.62926 80.256 5.98607L80.2026 5.9473H80.2661C80.389 5.48121 80.5533 5.0323 80.7546 4.60365C80.7696 4.57193 80.785 4.53977 80.8005 4.50805C80.8159 4.47589 80.8317 4.44418 80.848 4.41246C80.8754 4.35739 80.9035 4.3032 80.9322 4.24902C80.9401 4.2336 80.9485 4.21818 80.9569 4.20276C81.1119 3.91641 81.2837 3.64019 81.4714 3.37586L81.4093 3.33049H81.5036C82.4794 1.97494 83.8693 0.93703 85.4883 0.402214C85.4913 0.401333 85.4944 0.400011 85.4975 0.39913C85.4997 0.398249 85.5024 0.397368 85.505 0.396927C86.29 0.139211 87.1288 0 87.9998 0C88.2681 0 88.5328 0.0132162 88.7945 0.0392081Z" fill="#123C9E"/>
<path d="M85.6764 0.923798L85.7865 1.26346L85.4975 1.05332L85.2085 1.26346L85.3187 0.923798L85.0297 0.71366H85.3869L85.4883 0.402198C85.4913 0.401317 85.4944 0.399995 85.4975 0.399114C85.4997 0.398233 85.5024 0.397352 85.505 0.396912L85.6081 0.71366H85.9654L85.6764 0.923798Z" fill="#F9F9F9"/>
<path d="M85.4975 0.399109V0.818504L85.387 0.713655L85.4883 0.402193C85.4914 0.401312 85.4945 0.39999 85.4975 0.399109Z" fill="#F9F9F9"/>
<path d="M85.4975 0.818502L85.3187 0.923791L85.0297 0.713654L85.4975 0.818502Z" fill="#F9F9F9"/>
<path d="M85.4976 0.818502L85.6081 0.713654H85.9654L85.4976 0.818502Z" fill="#F9F9F9"/>
<path d="M85.4975 0.818502L85.0297 0.713654H85.3869L85.4975 0.818502Z" fill="#F9F9F9"/>
<path d="M85.4975 0.818512L85.2085 1.26346L85.4975 1.05332V0.818512Z" fill="#F9F9F9"/>
<path d="M85.9654 0.713654L85.4976 0.818502L85.6764 0.923791L85.9654 0.713654Z" fill="#F9F9F9"/>
<path d="M85.4976 0.818512L85.7866 1.26346L85.4976 1.05332V0.818512Z" fill="#F9F9F9"/>
<path d="M87.9113 0.373566L88.0214 0.713663H88.3791L88.0897 0.923801L88.2003 1.26346L87.9113 1.05332L87.6219 1.26346L87.7324 0.923801L87.443 0.713663H87.8007L87.9113 0.373566Z" fill="#F9F9F9"/>
<path d="M87.9112 0.818512L87.8007 0.713663L87.9112 0.373566V0.818512Z" fill="#F9F9F9"/>
<path d="M87.9113 0.818502L87.7324 0.923791L87.443 0.713654L87.9113 0.818502Z" fill="#F9F9F9"/>
<path d="M87.9113 0.818502L88.0214 0.713654H88.3791L87.9113 0.818502Z" fill="#F9F9F9"/>
<path d="M87.9113 0.818502L87.443 0.713654H87.8007L87.9113 0.818502Z" fill="#F9F9F9"/>
<path d="M87.9113 0.818512L87.6218 1.26346L87.9113 1.05332V0.818512Z" fill="#F9F9F9"/>
<path d="M88.3791 0.713654L87.9113 0.818502L88.0897 0.923791L88.3791 0.713654Z" fill="#F9F9F9"/>
<path d="M87.9113 0.818512L88.2002 1.26346L87.9113 1.05332V0.818512Z" fill="#F9F9F9"/>
<path d="M83.0838 2.1181L83.1944 2.4582H83.5517L83.2627 2.66834L83.3733 3.008L83.0838 2.79786L82.7948 3.008L82.9054 2.66834L82.616 2.4582H82.9737L83.0838 2.1181Z" fill="#F9F9F9"/>
<path d="M83.0838 2.56305L82.9736 2.4582L83.0838 2.1181V2.56305Z" fill="#F9F9F9"/>
<path d="M83.0838 2.56304L82.9054 2.66833L82.616 2.45819L83.0838 2.56304Z" fill="#F9F9F9"/>
<path d="M83.0839 2.56304L83.1944 2.45819H83.5517L83.0839 2.56304Z" fill="#F9F9F9"/>
<path d="M83.0838 2.56304L82.616 2.45819H82.9737L83.0838 2.56304Z" fill="#F9F9F9"/>
<path d="M83.0838 2.56305L82.7948 3.008L83.0838 2.79786V2.56305Z" fill="#F9F9F9"/>
<path d="M83.5517 2.45819L83.0839 2.56304L83.2627 2.66833L83.5517 2.45819Z" fill="#F9F9F9"/>
<path d="M83.0839 2.56305L83.3733 3.008L83.0839 2.79786V2.56305Z" fill="#F9F9F9"/>
<path d="M85.4975 2.1181L85.6081 2.4582H85.9654L85.6764 2.66834L85.7865 3.008L85.4975 2.79786L85.2085 3.008L85.3187 2.66834L85.0297 2.4582H85.3869L85.4975 2.1181Z" fill="#F9F9F9"/>
<path d="M85.4975 2.56305L85.387 2.4582L85.4975 2.1181V2.56305Z" fill="#F9F9F9"/>
<path d="M85.4975 2.56304L85.3187 2.66833L85.0297 2.45819L85.4975 2.56304Z" fill="#F9F9F9"/>
<path d="M85.4976 2.56304L85.6081 2.45819H85.9654L85.4976 2.56304Z" fill="#F9F9F9"/>
<path d="M85.4975 2.56304L85.0297 2.45819H85.3869L85.4975 2.56304Z" fill="#F9F9F9"/>
<path d="M85.4975 2.56305L85.2085 3.008L85.4975 2.79786V2.56305Z" fill="#F9F9F9"/>
<path d="M85.9654 2.45819L85.4976 2.56304L85.6764 2.66833L85.9654 2.45819Z" fill="#F9F9F9"/>
<path d="M85.4976 2.56305L85.7866 3.008L85.4976 2.79786V2.56305Z" fill="#F9F9F9"/>
<path d="M87.9113 2.1181L88.0214 2.4582H88.3791L88.0897 2.66834L88.2003 3.008L87.9113 2.79786L87.6219 3.008L87.7324 2.66834L87.443 2.4582H87.8007L87.9113 2.1181Z" fill="#F9F9F9"/>
<path d="M87.9112 2.56305L87.8007 2.4582L87.9112 2.1181V2.56305Z" fill="#F9F9F9"/>
<path d="M87.9113 2.56304L87.7324 2.66833L87.443 2.45819L87.9113 2.56304Z" fill="#F9F9F9"/>
<path d="M87.9113 2.56304L88.0214 2.45819H88.3791L87.9113 2.56304Z" fill="#F9F9F9"/>
<path d="M87.9113 2.56304L87.443 2.45819H87.8007L87.9113 2.56304Z" fill="#F9F9F9"/>
<path d="M87.9113 2.56305L87.6218 3.008L87.9113 2.79786V2.56305Z" fill="#F9F9F9"/>
<path d="M88.3791 2.45819L87.9113 2.56304L88.0897 2.66833L88.3791 2.45819Z" fill="#F9F9F9"/>
<path d="M87.9113 2.56305L88.2002 3.008L87.9113 2.79786V2.56305Z" fill="#F9F9F9"/>
<path d="M80.8489 4.41287L80.9595 4.75252L80.7546 4.60362C80.7696 4.5719 80.785 4.53974 80.8005 4.50802C80.8159 4.47586 80.8317 4.44414 80.848 4.41243C80.8753 4.35736 80.9035 4.30317 80.9322 4.24898C80.9401 4.23357 80.9485 4.21815 80.9568 4.20273H81.1383L80.8489 4.41287Z" fill="#F9F9F9"/>
<path d="M81.1383 4.20273L80.9321 4.24898C80.9401 4.23357 80.9484 4.21815 80.9568 4.20273H81.1383Z" fill="#F9F9F9"/>
<path d="M81.1383 4.20273L80.8489 4.41287H80.848C80.8753 4.35736 80.9035 4.30317 80.9322 4.24898L81.1383 4.20273Z" fill="#F9F9F9"/>
<path d="M80.9595 4.75253L80.7546 4.60362C80.7696 4.5719 80.785 4.53975 80.8005 4.50803L80.9595 4.75253Z" fill="#F9F9F9"/>
<path d="M83.0838 3.86264L83.1944 4.20274H83.5517L83.2627 4.41288L83.3733 4.75253L83.0838 4.54239L82.7948 4.75253L82.9054 4.41288L82.616 4.20274H82.9737L83.0838 3.86264Z" fill="#F9F9F9"/>
<path d="M83.0838 4.30759L82.9736 4.20274L83.0838 3.86264V4.30759Z" fill="#F9F9F9"/>
<path d="M83.0838 4.30758L82.9054 4.41287L82.616 4.20273L83.0838 4.30758Z" fill="#F9F9F9"/>
<path d="M83.0839 4.30758L83.1944 4.20273H83.5517L83.0839 4.30758Z" fill="#F9F9F9"/>
<path d="M83.0838 4.30758L82.616 4.20273H82.9737L83.0838 4.30758Z" fill="#F9F9F9"/>
<path d="M83.0838 4.30759L82.7948 4.75253L83.0838 4.54239V4.30759Z" fill="#F9F9F9"/>
<path d="M83.5517 4.20273L83.0839 4.30758L83.2627 4.41287L83.5517 4.20273Z" fill="#F9F9F9"/>
<path d="M83.0839 4.30759L83.3733 4.75253L83.0839 4.54239V4.30759Z" fill="#F9F9F9"/>
<path d="M85.4975 3.86264L85.6081 4.20274H85.9654L85.6764 4.41288L85.7865 4.75253L85.4975 4.54239L85.2085 4.75253L85.3187 4.41288L85.0297 4.20274H85.3869L85.4975 3.86264Z" fill="#F9F9F9"/>
<path d="M85.4975 4.30759L85.387 4.20274L85.4975 3.86264V4.30759Z" fill="#F9F9F9"/>
<path d="M85.4975 4.30758L85.3187 4.41287L85.0297 4.20273L85.4975 4.30758Z" fill="#F9F9F9"/>
<path d="M85.4976 4.30758L85.6081 4.20273H85.9654L85.4976 4.30758Z" fill="#F9F9F9"/>
<path d="M85.4975 4.30758L85.0297 4.20273H85.3869L85.4975 4.30758Z" fill="#F9F9F9"/>
<path d="M85.4975 4.30759L85.2085 4.75253L85.4975 4.54239V4.30759Z" fill="#F9F9F9"/>
<path d="M85.9654 4.20273L85.4976 4.30758L85.6764 4.41287L85.9654 4.20273Z" fill="#F9F9F9"/>
<path d="M85.4976 4.30759L85.7866 4.75253L85.4976 4.54239V4.30759Z" fill="#F9F9F9"/>
<path d="M87.9112 3.86264L88.0213 4.20274H88.379L88.0896 4.41288L88.2002 4.75253L87.9112 4.54239L87.6217 4.75253L87.7323 4.41288L87.4429 4.20274H87.8006L87.9112 3.86264Z" fill="#F9F9F9"/>
<path d="M87.9111 4.30759L87.8005 4.20274L87.9111 3.86264V4.30759Z" fill="#F9F9F9"/>
<path d="M87.9112 4.30758L87.7323 4.41287L87.4429 4.20273L87.9112 4.30758Z" fill="#F9F9F9"/>
<path d="M87.9111 4.30758L88.0213 4.20273H88.379L87.9111 4.30758Z" fill="#F9F9F9"/>
<path d="M87.9112 4.30758L87.4429 4.20273H87.8006L87.9112 4.30758Z" fill="#F9F9F9"/>
<path d="M87.9111 4.30759L87.6217 4.75253L87.9111 4.54239V4.30759Z" fill="#F9F9F9"/>
<path d="M88.379 4.20273L87.9111 4.30758L88.0896 4.41287L88.379 4.20273Z" fill="#F9F9F9"/>
<path d="M87.9111 4.30759L88.2001 4.75253L87.9111 4.54239V4.30759Z" fill="#F9F9F9"/>
<path d="M80.8489 6.15741L80.9595 6.49707L80.6705 6.28693L80.3811 6.49707L80.4916 6.15741L80.2559 5.98604L80.2026 5.94728H80.5599L80.6705 5.60718L80.7806 5.94728H81.1383L80.8489 6.15741Z" fill="#F9F9F9"/>
<path d="M80.6705 6.05212L80.5599 5.94728L80.6705 5.60718V6.05212Z" fill="#F9F9F9"/>
<path d="M80.6705 6.05211L80.4916 6.1574L80.2559 5.98603L80.2026 5.94727L80.2626 5.96048L80.6705 6.05211Z" fill="#F9F9F9"/>
<path d="M80.6705 6.05211L80.7807 5.94727H81.1384L80.6705 6.05211Z" fill="#F9F9F9"/>
<path d="M80.6705 6.05211L80.2626 5.96048L80.2026 5.94727H80.5599L80.6705 6.05211Z" fill="#F9F9F9"/>
<path d="M80.6705 6.05212L80.3811 6.49707L80.6705 6.28693V6.05212Z" fill="#F9F9F9"/>
<path d="M81.1384 5.94727L80.6705 6.05211L80.849 6.15696L81.1384 5.94727Z" fill="#F9F9F9"/>
<path d="M80.6705 6.05212L80.9595 6.49707L80.6705 6.28693V6.05212Z" fill="#F9F9F9"/>
<path d="M83.0838 5.60718L83.1944 5.94728H83.5517L83.2627 6.15697L83.3733 6.49707L83.0838 6.28693L82.7948 6.49707L82.9054 6.15697L82.616 5.94728H82.9737L83.0838 5.60718Z" fill="#F9F9F9"/>
<path d="M83.0838 6.05212L82.9736 5.94728L83.0838 5.60718V6.05212Z" fill="#F9F9F9"/>
<path d="M83.0838 6.05211L82.9054 6.15696L82.616 5.94727L83.0838 6.05211Z" fill="#F9F9F9"/>
<path d="M83.0839 6.05211L83.1944 5.94727H83.5517L83.0839 6.05211Z" fill="#F9F9F9"/>
<path d="M83.0838 6.05211L82.616 5.94727H82.9737L83.0838 6.05211Z" fill="#F9F9F9"/>
<path d="M83.0838 6.05212L82.7948 6.49707L83.0838 6.28693V6.05212Z" fill="#F9F9F9"/>
<path d="M83.5517 5.94727L83.0839 6.05211L83.2627 6.15696L83.5517 5.94727Z" fill="#F9F9F9"/>
<path d="M83.0839 6.05212L83.3733 6.49707L83.0839 6.28693V6.05212Z" fill="#F9F9F9"/>
<path d="M85.4975 5.60718L85.6081 5.94728H85.9654L85.6764 6.15697L85.7865 6.49707L85.4975 6.28693L85.2085 6.49707L85.3187 6.15697L85.0297 5.94728H85.3869L85.4975 5.60718Z" fill="#F9F9F9"/>
<path d="M85.4975 6.05212L85.387 5.94728L85.4975 5.60718V6.05212Z" fill="#F9F9F9"/>
<path d="M85.4975 6.05211L85.3187 6.15696L85.0297 5.94727L85.4975 6.05211Z" fill="#F9F9F9"/>
<path d="M85.4976 6.05211L85.6081 5.94727H85.9654L85.4976 6.05211Z" fill="#F9F9F9"/>
<path d="M85.4975 6.05211L85.0297 5.94727H85.3869L85.4975 6.05211Z" fill="#F9F9F9"/>
<path d="M85.4975 6.05212L85.2085 6.49707L85.4975 6.28693V6.05212Z" fill="#F9F9F9"/>
<path d="M85.9654 5.94727L85.4976 6.05211L85.6764 6.15696L85.9654 5.94727Z" fill="#F9F9F9"/>
<path d="M85.4976 6.05212L85.7866 6.49707L85.4976 6.28693V6.05212Z" fill="#F9F9F9"/>
<path d="M87.9112 5.60718L88.0213 5.94728H88.379L88.0896 6.15697L88.2002 6.49707L87.9112 6.28693L87.6217 6.49707L87.7323 6.15697L87.4429 5.94728H87.8006L87.9112 5.60718Z" fill="#F9F9F9"/>
<path d="M87.9111 6.05212L87.8005 5.94728L87.9111 5.60718V6.05212Z" fill="#F9F9F9"/>
<path d="M87.9112 6.05211L87.7323 6.15696L87.4429 5.94727L87.9112 6.05211Z" fill="#F9F9F9"/>
<path d="M87.9111 6.05211L88.0213 5.94727H88.379L87.9111 6.05211Z" fill="#F9F9F9"/>
<path d="M87.9112 6.05211L87.4429 5.94727H87.8006L87.9112 6.05211Z" fill="#F9F9F9"/>
<path d="M87.9111 6.05212L87.6217 6.49707L87.9111 6.28693V6.05212Z" fill="#F9F9F9"/>
<path d="M88.379 5.94727L87.9111 6.05211L88.0896 6.15696L88.379 5.94727Z" fill="#F9F9F9"/>
<path d="M87.9111 6.05212L88.2001 6.49707L87.9111 6.28693V6.05212Z" fill="#F9F9F9"/>
<path d="M80.6705 7.35175L80.7806 7.69184H81.1383L80.8489 7.90154L80.9595 8.24164L80.6705 8.0315L80.3811 8.24164L80.4916 7.90154L80.2026 7.69184H80.5599L80.6705 7.35175Z" fill="#F9F9F9"/>
<path d="M80.6705 7.79669L80.5599 7.69184L80.6705 7.35175V7.79669Z" fill="#F9F9F9"/>
<path d="M80.6705 7.79668L80.4916 7.90153L80.2026 7.69183L80.6705 7.79668Z" fill="#F9F9F9"/>
<path d="M80.6705 7.79668L80.7807 7.69183H81.1384L80.6705 7.79668Z" fill="#F9F9F9"/>
<path d="M80.6705 7.79668L80.2026 7.69183H80.5599L80.6705 7.79668Z" fill="#F9F9F9"/>
<path d="M80.6705 7.79669L80.3811 8.24164L80.6705 8.0315V7.79669Z" fill="#F9F9F9"/>
<path d="M81.1384 7.69183L80.6705 7.79668L80.849 7.90153L81.1384 7.69183Z" fill="#F9F9F9"/>
<path d="M80.6705 7.79669L80.9595 8.24164L80.6705 8.0315V7.79669Z" fill="#F9F9F9"/>
<path d="M83.0838 7.35175L83.1944 7.69184H83.5517L83.2627 7.90154L83.3733 8.24164L83.0838 8.0315L82.7948 8.24164L82.9054 7.90154L82.616 7.69184H82.9737L83.0838 7.35175Z" fill="#F9F9F9"/>
<path d="M83.0838 7.79669L82.9736 7.69184L83.0838 7.35175V7.79669Z" fill="#F9F9F9"/>
<path d="M83.0838 7.79668L82.9054 7.90153L82.616 7.69183L83.0838 7.79668Z" fill="#F9F9F9"/>
<path d="M83.0839 7.79668L83.1944 7.69183H83.5517L83.0839 7.79668Z" fill="#F9F9F9"/>
<path d="M83.0838 7.79668L82.616 7.69183H82.9737L83.0838 7.79668Z" fill="#F9F9F9"/>
<path d="M83.0838 7.79669L82.7948 8.24164L83.0838 8.0315V7.79669Z" fill="#F9F9F9"/>
<path d="M83.5517 7.69183L83.0839 7.79668L83.2627 7.90153L83.5517 7.69183Z" fill="#F9F9F9"/>
<path d="M83.0839 7.79669L83.3733 8.24164L83.0839 8.0315V7.79669Z" fill="#F9F9F9"/>
<path d="M85.4975 7.35175L85.6081 7.69184H85.9654L85.6764 7.90154L85.7865 8.24164L85.4975 8.0315L85.2085 8.24164L85.3187 7.90154L85.0297 7.69184H85.3869L85.4975 7.35175Z" fill="#F9F9F9"/>
<path d="M85.4975 7.79669L85.387 7.69184L85.4975 7.35175V7.79669Z" fill="#F9F9F9"/>
<path d="M85.4975 7.79668L85.3187 7.90153L85.0297 7.69183L85.4975 7.79668Z" fill="#F9F9F9"/>
<path d="M85.4976 7.79668L85.6081 7.69183H85.9654L85.4976 7.79668Z" fill="#F9F9F9"/>
<path d="M85.4975 7.79668L85.0297 7.69183H85.3869L85.4975 7.79668Z" fill="#F9F9F9"/>
<path d="M85.4975 7.79669L85.2085 8.24164L85.4975 8.0315V7.79669Z" fill="#F9F9F9"/>
<path d="M85.9654 7.69183L85.4976 7.79668L85.6764 7.90153L85.9654 7.69183Z" fill="#F9F9F9"/>
<path d="M85.4976 7.79669L85.7866 8.24164L85.4976 8.0315V7.79669Z" fill="#F9F9F9"/>
<path d="M87.9112 7.35175L88.0213 7.69184H88.379L88.0896 7.90154L88.2002 8.24164L87.9112 8.0315L87.6217 8.24164L87.7323 7.90154L87.4429 7.69184H87.8006L87.9112 7.35175Z" fill="#F9F9F9"/>
<path d="M87.9111 7.79669L87.8005 7.69184L87.9111 7.35175V7.79669Z" fill="#F9F9F9"/>
<path d="M87.9112 7.79668L87.7323 7.90153L87.4429 7.69183L87.9112 7.79668Z" fill="#F9F9F9"/>
<path d="M87.9111 7.79668L88.0213 7.69183H88.379L87.9111 7.79668Z" fill="#F9F9F9"/>
<path d="M87.9112 7.79668L87.4429 7.69183H87.8006L87.9112 7.79668Z" fill="#F9F9F9"/>
<path d="M87.9111 7.79669L87.6217 8.24164L87.9111 8.0315V7.79669Z" fill="#F9F9F9"/>
<path d="M88.379 7.69183L87.9111 7.79668L88.0896 7.90153L88.379 7.69183Z" fill="#F9F9F9"/>
<path d="M87.9111 7.79669L88.2001 8.24164L87.9111 8.0315V7.79669Z" fill="#F9F9F9"/>
<path d="M84.2908 1.24585L84.4009 1.58595H84.7587L84.4692 1.79609L84.5798 2.13574L84.2908 1.9256L84.0014 2.13574L84.1119 1.79609L83.8225 1.58595H84.1802L84.2908 1.24585Z" fill="#F9F9F9"/>
<path d="M84.2908 1.6908L84.1802 1.58595L84.2908 1.24585V1.6908Z" fill="#F9F9F9"/>
<path d="M84.2908 1.69079L84.1119 1.79608L83.8225 1.58594L84.2908 1.69079Z" fill="#F9F9F9"/>
<path d="M84.2908 1.69079L84.4009 1.58594H84.7586L84.2908 1.69079Z" fill="#F9F9F9"/>
<path d="M84.2908 1.69079L83.8225 1.58594H84.1802L84.2908 1.69079Z" fill="#F9F9F9"/>
<path d="M84.2908 1.6908L84.0013 2.13574L84.2908 1.9256V1.6908Z" fill="#F9F9F9"/>
<path d="M84.7586 1.58594L84.2908 1.69079L84.4692 1.79608L84.7586 1.58594Z" fill="#F9F9F9"/>
<path d="M84.2908 1.6908L84.5798 2.13574L84.2908 1.9256V1.6908Z" fill="#F9F9F9"/>
<path d="M86.7041 1.24585L86.8146 1.58595H87.1719L86.8829 1.79609L86.9935 2.13574L86.7041 1.9256L86.4151 2.13574L86.5256 1.79609L86.2362 1.58595H86.5939L86.7041 1.24585Z" fill="#F9F9F9"/>
<path d="M86.704 1.6908L86.5939 1.58595L86.704 1.24585V1.6908Z" fill="#F9F9F9"/>
<path d="M86.7041 1.69079L86.5256 1.79608L86.2362 1.58594L86.7041 1.69079Z" fill="#F9F9F9"/>
<path d="M86.7041 1.69079L86.8147 1.58594H87.172L86.7041 1.69079Z" fill="#F9F9F9"/>
<path d="M86.7041 1.69079L86.2362 1.58594H86.5939L86.7041 1.69079Z" fill="#F9F9F9"/>
<path d="M86.704 1.6908L86.415 2.13574L86.704 1.9256V1.6908Z" fill="#F9F9F9"/>
<path d="M87.172 1.58594L86.7041 1.69079L86.883 1.79608L87.172 1.58594Z" fill="#F9F9F9"/>
<path d="M86.7041 1.6908L86.9935 2.13574L86.7041 1.9256V1.6908Z" fill="#F9F9F9"/>
<path d="M82.056 3.54062L82.1662 3.88028L81.8772 3.67014L81.5882 3.88028L81.6983 3.54062L81.4714 3.37586L81.4093 3.33048H81.7666L81.8772 2.99039L81.9877 3.33048H82.345L82.056 3.54062Z" fill="#F9F9F9"/>
<path d="M81.8772 3.43533L81.7666 3.33048L81.8772 2.99039V3.43533Z" fill="#F9F9F9"/>
<path d="M81.8772 3.43532L81.6983 3.54061L81.4714 3.37585L81.4093 3.33047L81.4908 3.34854L81.8772 3.43532Z" fill="#F9F9F9"/>
<path d="M81.8772 3.43532L81.9878 3.33047H82.3451L81.8772 3.43532Z" fill="#F9F9F9"/>
<path d="M81.8772 3.43532L81.4908 3.34854L81.4093 3.33047H81.7666L81.8772 3.43532Z" fill="#F9F9F9"/>
<path d="M81.8771 3.43533L81.5881 3.88028L81.8771 3.67014V3.43533Z" fill="#F9F9F9"/>
<path d="M82.3451 3.33047L81.8772 3.43532L82.0561 3.54061L82.3451 3.33047Z" fill="#F9F9F9"/>
<path d="M81.8772 3.43533L82.1662 3.88028L81.8772 3.67014V3.43533Z" fill="#F9F9F9"/>
<path d="M84.2909 2.99039L84.4011 3.33048H84.7588L84.4693 3.54062L84.5799 3.88028L84.2909 3.67014L84.0015 3.88028L84.1121 3.54062L83.8226 3.33048H84.1804L84.2909 2.99039Z" fill="#F9F9F9"/>
<path d="M84.2909 3.43533L84.1803 3.33048L84.2909 2.99039V3.43533Z" fill="#F9F9F9"/>
<path d="M84.2909 3.43532L84.1121 3.54061L83.8226 3.33047L84.2909 3.43532Z" fill="#F9F9F9"/>
<path d="M84.2909 3.43532L84.401 3.33047H84.7587L84.2909 3.43532Z" fill="#F9F9F9"/>
<path d="M84.2909 3.43532L83.8226 3.33047H84.1804L84.2909 3.43532Z" fill="#F9F9F9"/>
<path d="M84.2909 3.43533L84.0015 3.88028L84.2909 3.67014V3.43533Z" fill="#F9F9F9"/>
<path d="M84.7587 3.33047L84.2909 3.43532L84.4693 3.54061L84.7587 3.33047Z" fill="#F9F9F9"/>
<path d="M84.2909 3.43533L84.5799 3.88028L84.2909 3.67014V3.43533Z" fill="#F9F9F9"/>
<path d="M86.7042 2.99039L86.8148 3.33048H87.172L86.883 3.54062L86.9936 3.88028L86.7042 3.67014L86.4152 3.88028L86.5258 3.54062L86.2363 3.33048H86.594L86.7042 2.99039Z" fill="#F9F9F9"/>
<path d="M86.7041 3.43533L86.594 3.33048L86.7041 2.99039V3.43533Z" fill="#F9F9F9"/>
<path d="M86.7042 3.43532L86.5258 3.54061L86.2363 3.33047L86.7042 3.43532Z" fill="#F9F9F9"/>
<path d="M86.7042 3.43532L86.8148 3.33047H87.1721L86.7042 3.43532Z" fill="#F9F9F9"/>
<path d="M86.7042 3.43532L86.2363 3.33047H86.594L86.7042 3.43532Z" fill="#F9F9F9"/>
<path d="M86.7042 3.43533L86.4152 3.88028L86.7042 3.67014V3.43533Z" fill="#F9F9F9"/>
<path d="M87.1721 3.33047L86.7042 3.43532L86.8831 3.54061L87.1721 3.33047Z" fill="#F9F9F9"/>
<path d="M86.7042 3.43533L86.9937 3.88028L86.7042 3.67014V3.43533Z" fill="#F9F9F9"/>
<path d="M81.8772 4.73492L81.9877 5.07502H82.345L82.056 5.28516L82.1662 5.62482L81.8772 5.41468L81.5882 5.62482L81.6983 5.28516L81.4093 5.07502H81.7666L81.8772 4.73492Z" fill="#F9F9F9"/>
<path d="M81.8772 5.17987L81.7666 5.07502L81.8772 4.73492V5.17987Z" fill="#F9F9F9"/>
<path d="M81.8772 5.17986L81.6983 5.28515L81.4093 5.07501L81.8772 5.17986Z" fill="#F9F9F9"/>
<path d="M81.8772 5.17986L81.9878 5.07501H82.3451L81.8772 5.17986Z" fill="#F9F9F9"/>
<path d="M81.8772 5.17986L81.4093 5.07501H81.7666L81.8772 5.17986Z" fill="#F9F9F9"/>
<path d="M81.8771 5.17987L81.5881 5.62482L81.8771 5.41468V5.17987Z" fill="#F9F9F9"/>
<path d="M82.3451 5.07501L81.8772 5.17986L82.0561 5.28515L82.3451 5.07501Z" fill="#F9F9F9"/>
<path d="M81.8772 5.17987L82.1662 5.62482L81.8772 5.41468V5.17987Z" fill="#F9F9F9"/>
<path d="M84.2909 4.73492L84.4011 5.07502H84.7588L84.4693 5.28516L84.5799 5.62482L84.2909 5.41468L84.0015 5.62482L84.1121 5.28516L83.8226 5.07502H84.1804L84.2909 4.73492Z" fill="#F9F9F9"/>
<path d="M84.2909 5.17987L84.1803 5.07502L84.2909 4.73492V5.17987Z" fill="#F9F9F9"/>
<path d="M84.2909 5.17986L84.1121 5.28515L83.8226 5.07501L84.2909 5.17986Z" fill="#F9F9F9"/>
<path d="M84.2909 5.17986L84.401 5.07501H84.7587L84.2909 5.17986Z" fill="#F9F9F9"/>
<path d="M84.2909 5.17986L83.8226 5.07501H84.1804L84.2909 5.17986Z" fill="#F9F9F9"/>
<path d="M84.2909 5.17987L84.0015 5.62482L84.2909 5.41468V5.17987Z" fill="#F9F9F9"/>
<path d="M84.7587 5.07501L84.2909 5.17986L84.4693 5.28515L84.7587 5.07501Z" fill="#F9F9F9"/>
<path d="M84.2909 5.17987L84.5799 5.62482L84.2909 5.41468V5.17987Z" fill="#F9F9F9"/>
<path d="M86.7042 4.73492L86.8148 5.07502H87.172L86.883 5.28516L86.9936 5.62482L86.7042 5.41468L86.4152 5.62482L86.5258 5.28516L86.2363 5.07502H86.594L86.7042 4.73492Z" fill="#F9F9F9"/>
<path d="M86.7041 5.17987L86.594 5.07502L86.7041 4.73492V5.17987Z" fill="#F9F9F9"/>
<path d="M86.7042 5.17986L86.5258 5.28515L86.2363 5.07501L86.7042 5.17986Z" fill="#F9F9F9"/>
<path d="M86.7042 5.17986L86.8148 5.07501H87.1721L86.7042 5.17986Z" fill="#F9F9F9"/>
<path d="M86.7042 5.17986L86.2363 5.07501H86.594L86.7042 5.17986Z" fill="#F9F9F9"/>
<path d="M86.7042 5.17987L86.4152 5.62482L86.7042 5.41468V5.17987Z" fill="#F9F9F9"/>
<path d="M87.1721 5.07501L86.7042 5.17986L86.8831 5.28515L87.1721 5.07501Z" fill="#F9F9F9"/>
<path d="M86.7042 5.17987L86.9937 5.62482L86.7042 5.41468V5.17987Z" fill="#F9F9F9"/>
<path d="M81.8772 6.47946L81.9877 6.81956H82.345L82.056 7.02926L82.1662 7.36935L81.8772 7.15922L81.5882 7.36935L81.6983 7.02926L81.4093 6.81956H81.7666L81.8772 6.47946Z" fill="#F9F9F9"/>
<path d="M81.8772 6.92441L81.7666 6.81956L81.8772 6.47946V6.92441Z" fill="#F9F9F9"/>
<path d="M81.8772 6.9244L81.6983 7.02925L81.4093 6.81955L81.8772 6.9244Z" fill="#F9F9F9"/>
<path d="M81.8772 6.9244L81.9878 6.81955H82.3451L81.8772 6.9244Z" fill="#F9F9F9"/>
<path d="M81.8772 6.9244L81.4093 6.81955H81.7666L81.8772 6.9244Z" fill="#F9F9F9"/>
<path d="M81.8771 6.92441L81.5881 7.36935L81.8771 7.15922V6.92441Z" fill="#F9F9F9"/>
<path d="M82.3451 6.81955L81.8772 6.9244L82.0561 7.02925L82.3451 6.81955Z" fill="#F9F9F9"/>
<path d="M81.8772 6.92441L82.1662 7.36935L81.8772 7.15922V6.92441Z" fill="#F9F9F9"/>
<path d="M84.2909 6.47946L84.4011 6.81956H84.7588L84.4693 7.02926L84.5799 7.36935L84.2909 7.15922L84.0015 7.36935L84.1121 7.02926L83.8226 6.81956H84.1804L84.2909 6.47946Z" fill="#F9F9F9"/>
<path d="M84.2909 6.92441L84.1803 6.81956L84.2909 6.47946V6.92441Z" fill="#F9F9F9"/>
<path d="M84.2909 6.9244L84.1121 7.02925L83.8226 6.81955L84.2909 6.9244Z" fill="#F9F9F9"/>
<path d="M84.2909 6.9244L84.401 6.81955H84.7587L84.2909 6.9244Z" fill="#F9F9F9"/>
<path d="M84.2909 6.9244L83.8226 6.81955H84.1804L84.2909 6.9244Z" fill="#F9F9F9"/>
<path d="M84.2909 6.92441L84.0015 7.36935L84.2909 7.15922V6.92441Z" fill="#F9F9F9"/>
<path d="M84.7587 6.81955L84.2909 6.9244L84.4693 7.02925L84.7587 6.81955Z" fill="#F9F9F9"/>
<path d="M84.2909 6.92441L84.5799 7.36935L84.2909 7.15922V6.92441Z" fill="#F9F9F9"/>
<path d="M86.7042 6.47946L86.8148 6.81956H87.172L86.883 7.02926L86.9936 7.36935L86.7042 7.15922L86.4152 7.36935L86.5258 7.02926L86.2363 6.81956H86.594L86.7042 6.47946Z" fill="#F9F9F9"/>
<path d="M86.7041 6.92441L86.594 6.81956L86.7041 6.47946V6.92441Z" fill="#F9F9F9"/>
<path d="M86.7042 6.9244L86.5258 7.02925L86.2363 6.81955L86.7042 6.9244Z" fill="#F9F9F9"/>
<path d="M86.7042 6.9244L86.8148 6.81955H87.1721L86.7042 6.9244Z" fill="#F9F9F9"/>
<path d="M86.7042 6.9244L86.2363 6.81955H86.594L86.7042 6.9244Z" fill="#F9F9F9"/>
<path d="M86.7042 6.92441L86.4152 7.36935L86.7042 7.15922V6.92441Z" fill="#F9F9F9"/>
<path d="M87.1721 6.81955L86.7042 6.9244L86.8831 7.02925L87.1721 6.81955Z" fill="#F9F9F9"/>
<path d="M86.7042 6.92441L86.9937 7.36935L86.7042 7.15922V6.92441Z" fill="#F9F9F9"/>
<path d="M92.265 1.23088H88.7944V0.0392151C90.061 0.163888 91.2412 0.584164 92.265 1.23088Z" fill="#DE0A09"/>
<path d="M93.7721 2.4613H88.7944V1.23087H92.265C92.8166 1.57889 93.3228 1.99256 93.7721 2.4613Z" fill="white"/>
<path d="M94.7422 3.69217H88.7944V2.4613H93.7721C94.1338 2.83797 94.4589 3.25031 94.7422 3.69217Z" fill="#DE0A09"/>
<path d="M95.3867 4.92304H88.7944V3.69217H94.7422C94.9911 4.08073 95.2069 4.49219 95.3867 4.92304Z" fill="white"/>
<path d="M95.7858 6.15391H88.7944V4.92303H95.3867C95.5514 5.3182 95.6858 5.72922 95.7858 6.15391Z" fill="#DE0A09"/>
<path d="M95.9766 7.3848H88.7944V6.15393H95.7858C95.8801 6.5535 95.9449 6.96453 95.9766 7.3848Z" fill="white"/>
<path d="M95.9999 7.99979C95.9999 8.20684 95.992 8.41214 95.9766 8.61523H88.7944V7.3848H95.9766C95.992 7.58789 95.9999 7.79274 95.9999 7.99979Z" fill="#DE0A09"/>
<path d="M95.9766 8.61523C95.9445 9.03551 95.8801 9.44653 95.7859 9.84611H80.2141C80.1198 9.44653 80.0555 9.03551 80.0233 8.61523H95.9766Z" fill="white"/>
<path d="M95.7859 9.8461C95.6855 10.2703 95.5515 10.6818 95.3868 11.077H80.6132C80.4485 10.6818 80.3146 10.2703 80.2141 9.8461H95.7859Z" fill="#DE0A09"/>
<path d="M95.3867 11.077C95.207 11.5078 94.9911 11.9193 94.7422 12.3078H81.2577C81.0088 11.9193 80.7929 11.5078 80.6132 11.077H95.3867Z" fill="white"/>
<path d="M94.7422 12.3079C94.4594 12.7497 94.1343 13.1616 93.7726 13.5383H82.2273C81.8656 13.1616 81.5405 12.7497 81.2577 12.3079H94.7422Z" fill="#DE0A09"/>
<path d="M93.7725 13.5383C93.3228 14.007 92.8166 14.4211 92.265 14.7691H83.7348C83.1828 14.4211 82.6766 14.007 82.2273 13.5383H93.7725Z" fill="white"/>
<path d="M92.2651 14.7691C91.0302 15.5489 89.5676 16 87.9997 16C86.4319 16 84.9693 15.5489 83.7349 14.7691H92.2651Z" fill="#DE0A09"/>
</g>
</g>
<g clip-path="url(#clip10_11124_107646)">
<mask id="mask0_11124_107646" style="mask-type:luminance" maskUnits="userSpaceOnUse" x="64" y="0" width="16" height="16">
<path d="M79.9999 8.0003C79.9999 12.4183 76.4182 16.0001 72.0002 16.0001C67.5822 16.0001 64 12.4183 64 8.0003C64 3.5823 67.5818 0 72.0003 0C76.4188 0 80 3.5818 80 8.0003H79.9999Z" fill="white"/>
</mask>
<g mask="url(#mask0_11124_107646)">
<path d="M84 0.000305176H60.0005V16.0002H84V0.000305176Z" fill="#FE0000"/>
<path d="M72.008 0.000305176H60.0005V8.0004H72.008V0.000305176Z" fill="#000095"/>
<path d="M69.9101 4.23331C69.9101 5.06181 69.2387 5.73311 68.4103 5.73311C67.5819 5.73311 66.9105 5.06171 66.9105 4.23331C66.9105 3.40491 67.5819 2.73321 68.4103 2.73321C69.2387 2.73321 69.9101 3.40481 69.9101 4.23331ZM67.9092 2.61851L66.9369 1.66441L67.2698 2.98841C67.4512 2.82191 67.6683 2.69351 67.9092 2.61851ZM68.7796 2.58491L68.4108 1.27191L68.0404 2.58491C68.16 2.55811 68.2835 2.54301 68.4103 2.54301C68.5371 2.54301 68.6605 2.55821 68.7796 2.58491ZM71.3713 4.23361L70.0583 3.86341C70.0853 3.98281 70.1002 4.10621 70.1002 4.23331C70.1002 4.36041 70.0853 4.48351 70.0589 4.60261L71.3713 4.23361ZM69.8836 1.66441L68.9107 2.61851C69.1516 2.69291 69.3688 2.82161 69.5507 2.98811L69.8836 1.66441ZM67.1656 3.09291L65.8416 2.75971L66.7958 3.73261C66.8702 3.49141 66.9992 3.27451 67.1656 3.09291ZM70.0247 3.73201L70.9788 2.75971L69.6548 3.09241C69.8213 3.27401 69.9497 3.49091 70.0246 3.73211L70.0247 3.73201ZM66.7958 4.73411L65.8416 5.70641L67.1656 5.37401C66.9991 5.19211 66.8702 4.97521 66.7958 4.73401V4.73411ZM69.6554 5.37351L70.9789 5.70641L70.0253 4.73321C69.9503 4.97461 69.8219 5.19151 69.6554 5.37341V5.37351ZM68.9113 5.84791L69.8836 6.80181L69.5512 5.47781C69.3693 5.64451 69.1527 5.77321 68.9112 5.84791H68.9113ZM66.7203 4.23331C66.7203 4.10601 66.7352 3.98251 66.7622 3.86341L65.4492 4.23251L66.7622 4.60261C66.7352 4.48351 66.7203 4.36031 66.7203 4.23331ZM66.9369 6.80171L67.9098 5.84781C67.6684 5.77311 67.4517 5.64441 67.2698 5.47791L66.9369 6.80171ZM68.0404 5.88151L68.4097 7.19421L68.7796 5.88181C68.6605 5.90831 68.5376 5.92341 68.4103 5.92341C68.283 5.92341 68.1601 5.90821 68.0404 5.88151Z" fill="white"/>
</g>
</g>
<g clip-path="url(#clip11_11124_107646)">
<g clip-path="url(#clip12_11124_107646)">
<path d="M57.6436 8.03589L49.6163 12.773C51.0664 14.7513 53.4012 16.0351 56.0343 16.0351C60.4058 16.0351 63.9541 12.4991 63.9995 8.12029V8.03599H57.6436V8.03589Z" fill="#CE1126"/>
<path d="M49.616 3.29758L57.6444 8.0354L57.6435 8.0359H63.9994V7.95049C63.954 3.57108 60.4057 0.0350952 56.0342 0.0350952C53.4009 0.0350952 51.066 1.31903 49.616 3.29758Z" fill="#0038A8"/>
<path d="M48.8002 9.09262C48.7772 9.06672 48.7557 9.03972 48.7348 9.01212L48.192 9.43933C48.2015 9.49323 48.2116 9.54703 48.2222 9.60053L48.8001 9.09262H48.8002Z" fill="white"/>
<path d="M48.956 9.24933L48.3096 9.99075C48.3255 10.0545 48.3422 10.1181 48.3598 10.1814L49.0356 9.31413C49.0087 9.29323 48.9818 9.27173 48.956 9.24933Z" fill="white"/>
<path d="M56.252 8.03589L55.7038 8.24399L55.6879 8.89471L55.3076 8.3738L54.6683 8.586L55.0564 8.03589H53.3809L53.3918 8.04749L53.1865 8.26579L51.5768 8.15829C51.5741 8.19299 51.5707 8.22749 51.5664 8.26079L53.024 8.4394L52.8368 8.639L51.5504 8.3656C51.5093 8.5698 51.4286 8.75911 51.3182 8.92671L52.4207 9.64713L52.4125 9.92164L51.2561 9.01211C51.2353 9.03911 51.2139 9.06611 51.1914 9.09201L52.4053 10.1594L52.3965 10.4592L52.098 10.4678L51.0356 9.24942C51.0098 9.27172 50.9829 9.29322 50.9554 9.31422L51.8615 10.4753L51.5882 10.4834L50.8709 9.37602C50.704 9.48763 50.5153 9.56813 50.3123 9.60923L50.5845 10.9013L50.3852 11.0892L50.2085 9.62513C50.1745 9.63033 50.1404 9.63343 50.1059 9.63563L50.2129 11.2524L49.9955 11.4586L49.7782 11.2524L49.8852 9.63563C49.8512 9.63343 49.8166 9.63043 49.7832 9.62513L49.6059 11.0892L49.4073 10.9013L49.6795 9.60923C49.4759 9.56813 49.2871 9.48773 49.1203 9.37602L48.4341 10.4353C48.6996 11.2844 49.1023 12.0723 49.6159 12.7731L57.6431 8.03599H56.2516L56.252 8.03589Z" fill="white"/>
<path d="M48.6733 8.92662C48.5625 8.75902 48.4824 8.56971 48.4413 8.36551L48.0798 8.44231C48.0937 8.71892 48.1215 8.99182 48.1626 9.26033L48.6733 8.92652V8.92662Z" fill="white"/>
<path d="M48.4253 8.26114C48.4209 8.22709 48.4176 8.19284 48.4149 8.15829L48.0712 8.18119C48.0719 8.22211 48.073 8.26304 48.0743 8.30386L48.4253 8.26124V8.26114Z" fill="white"/>
<path d="M49.6798 6.48586L49.4076 5.19442L49.6062 5.00592L49.7835 6.47076C49.8169 6.46586 49.8515 6.46246 49.8855 6.45996L49.7785 4.84302L49.9958 4.63741L50.2132 4.84302L50.1062 6.45996C50.1407 6.46246 50.1748 6.46576 50.2082 6.47076L50.3854 5.00592L50.5847 5.19442L50.3124 6.48646C50.5156 6.52726 50.7037 6.60826 50.8711 6.71986L51.5884 5.61163L51.8617 5.61993L50.9556 6.78136C50.983 6.80226 51.01 6.82376 51.0358 6.84637L52.0982 5.62714L52.3967 5.63594L52.4055 5.93584L51.1916 7.00297C51.2141 7.02887 51.2355 7.05587 51.2563 7.08347L52.4126 6.17395L52.4203 6.44786L51.3183 7.16827C51.4287 7.33638 51.5093 7.52598 51.5505 7.72999L52.8369 7.45658L53.0241 7.65609L51.5665 7.83409C51.5708 7.86769 51.5741 7.90249 51.5769 7.93689L53.1866 7.82939L53.3809 8.0358H55.0564L55.058 8.0336L54.6749 7.50888L55.2967 7.69629L55.6869 7.14397L55.6963 7.82469L56.3109 8.01349L56.252 8.0358H57.6435L57.6444 8.0353L49.616 3.29758C49.0991 4.00289 48.6946 4.79641 48.4292 5.65164L49.1206 6.71906C49.2874 6.60826 49.4762 6.52726 49.6798 6.48586Z" fill="white"/>
<path d="M48.6733 7.16827L48.1592 6.83237C48.1188 7.10167 48.0917 7.37548 48.0787 7.65289L48.4412 7.72999C48.4824 7.52548 48.5625 7.33588 48.6733 7.16827Z" fill="white"/>
<path d="M49.0356 6.78136L48.3547 5.90744C48.3373 5.97094 48.3206 6.03484 48.3048 6.09895L48.9561 6.84636C48.9818 6.82376 49.0087 6.80226 49.0356 6.78136Z" fill="white"/>
<path d="M48.8001 7.00299L48.218 6.49127C48.2075 6.54507 48.1976 6.59907 48.1882 6.65328L48.7348 7.08339C48.7556 7.05589 48.7771 7.02889 48.8002 7.00289L48.8001 7.00299Z" fill="white"/>
<path d="M48.4253 7.83401L48.0735 7.7912C48.0723 7.83192 48.0713 7.87264 48.0707 7.91346L48.4149 7.93636C48.4177 7.90211 48.4209 7.86746 48.4253 7.83401Z" fill="white"/>
<path d="M54.6683 8.586L55.3076 8.3738L55.688 8.89471L55.7039 8.24399L56.252 8.03589H55.0564L54.6683 8.586Z" fill="#FCD116"/>
<path d="M55.6963 7.82479L55.6869 7.14407L55.2967 7.69639L54.6749 7.50888L55.0579 8.0337L55.0565 8.0359H56.252L56.3109 8.0136L55.6963 7.82479Z" fill="#FCD116"/>
<path d="M49.6798 9.60905L49.4076 10.9011L49.6063 11.089L49.7835 9.62495C49.8169 9.63015 49.8515 9.63325 49.8855 9.63545L49.7785 11.2522L49.9959 11.4584L50.2132 11.2522L50.1062 9.63545C50.1407 9.63325 50.1748 9.63025 50.2088 9.62495L50.3856 11.089L50.5848 10.9011L50.3126 9.60905C50.5157 9.56794 50.7045 9.48754 50.8712 9.37584L51.5885 10.4832L51.8618 10.4752L50.9558 9.31404C50.9831 9.29314 51.0101 9.27164 51.0359 9.24924L52.0984 10.4677L52.3968 10.4591L52.4056 10.1593L51.1917 9.09183C51.2142 9.06593 51.2356 9.03893 51.2564 9.01193L52.4128 9.92145L52.421 9.64695L51.3186 8.92653C51.4289 8.75892 51.5095 8.56962 51.5508 8.36541L52.8371 8.63882L53.0243 8.43922L51.5667 8.26061C51.5711 8.22721 51.5743 8.19281 51.5771 8.15811L53.1868 8.26561L53.3921 8.04731L53.3812 8.03571H48.0697C48.0697 8.08431 48.0703 8.13271 48.0712 8.18101L48.4149 8.15801C48.4177 8.19271 48.421 8.22721 48.4253 8.26131L48.0743 8.30411C48.0758 8.35021 48.0776 8.39621 48.0799 8.44202L48.4413 8.36521C48.4824 8.56942 48.5625 8.75872 48.6734 8.92633L48.1626 9.26014C48.1718 9.31994 48.1816 9.37954 48.1921 9.43894L48.7349 9.01173C48.7557 9.03933 48.7771 9.06633 48.8002 9.09223L48.2223 9.60014C48.2482 9.73145 48.2774 9.86155 48.3097 9.99045L48.9561 9.24904C48.9819 9.27134 49.0088 9.29284 49.0357 9.31384L48.3598 10.1811C48.3834 10.2663 48.4083 10.351 48.4346 10.435L49.1208 9.37564C49.2877 9.48724 49.4764 9.56774 49.68 9.60884L49.6798 9.60905Z" fill="#FCD116"/>
<path d="M48.8001 7.00296C48.7771 7.02886 48.7557 7.05586 48.7348 7.08347L48.1882 6.65335C48.1778 6.71286 48.1682 6.77246 48.1592 6.83246L48.6734 7.16837C48.5625 7.33597 48.4824 7.52558 48.4413 7.73008L48.0788 7.65298C48.0766 7.69898 48.0749 7.74508 48.0735 7.79128L48.4253 7.83428C48.421 7.86788 48.4177 7.90269 48.4149 7.93709L48.0707 7.91409C48.0701 7.95449 48.0697 7.99489 48.0697 8.03549C48.0697 8.03569 48.0697 8.03589 48.0697 8.03599H53.3809L53.1866 7.82958L51.5769 7.93709C51.5742 7.90269 51.5709 7.86788 51.5665 7.83428L53.0241 7.65628L52.8369 7.45677L51.5506 7.73018C51.5094 7.52628 51.4287 7.33667 51.3184 7.16847L52.4203 6.44805L52.4127 6.17414L51.2563 7.08367C51.2355 7.05616 51.2141 7.02916 51.1916 7.00316L52.4055 5.93604L52.3967 5.63613L52.0983 5.62733L51.0358 6.84656C51.01 6.82396 50.9831 6.80246 50.9557 6.78156L51.8617 5.62013L51.5884 5.61183L50.8711 6.72006C50.7038 6.60845 50.5155 6.52745 50.3125 6.48665L50.5847 5.19462L50.3855 5.00611L50.2082 6.47095C50.1748 6.46605 50.1407 6.46265 50.1062 6.46015L50.2132 4.84321L49.9959 4.6376L49.7785 4.84321L49.8855 6.46015C49.8515 6.46265 49.8169 6.46595 49.7835 6.47095L49.6063 5.00611L49.4076 5.19462L49.6798 6.48605C49.4762 6.52735 49.2875 6.60845 49.1206 6.71926L48.4292 5.65183C48.4029 5.73653 48.3782 5.82183 48.3547 5.90764L49.0356 6.78156C49.0087 6.80246 48.9818 6.82396 48.956 6.84656L48.3048 6.09914C48.2727 6.22864 48.2438 6.35945 48.2182 6.49135L48.8002 7.00306L48.8001 7.00296Z" fill="#FCD116"/>
</g>
</g>
<g clip-path="url(#clip13_11124_107646)">
<path d="M45.8097 13.5095H34.1903C35.5456 14.9433 37.424 15.8756 39.5195 16H40.4806C42.5761 15.8756 44.4545 14.9433 45.8097 13.5095Z" fill="#ED1C24"/>
<path d="M34.1903 2.49047H45.8097C44.4544 1.0567 42.576 0.124423 40.4805 0H39.5194C37.4239 0.124423 35.5455 1.0567 34.1903 2.49047Z" fill="#ED1C24"/>
<path d="M32.6628 4.80092H47.3371C46.9634 3.94188 46.4438 3.16138 45.8096 2.49048H34.1903C33.5562 3.16138 33.0365 3.94188 32.6628 4.80092Z" fill="white"/>
<path d="M34.1903 13.5095H45.8097C46.4439 12.8386 46.9635 12.058 47.3372 11.1991H32.6628C33.0365 12.0581 33.5561 12.8386 34.1903 13.5095Z" fill="white"/>
<path d="M32 8.00014C32 9.13738 32.2365 10.2192 32.6628 11.1991H47.3372C47.7635 10.2192 48 9.13738 48 8.00014C48 6.8629 47.7635 5.78086 47.3372 4.8009H32.6628C32.2365 5.78086 32 6.8628 32 8.00014Z" fill="#241D4F"/>
</g>
<g clip-path="url(#clip14_11124_107646)">
<path d="M24 15.9998C28.4183 15.9998 32 12.4181 32 7.99979C32 3.58151 28.4183 -0.000213623 24 -0.000213623C19.5817 -0.000213623 16 3.58151 16 7.99979C16 12.4181 19.5817 15.9998 24 15.9998Z" fill="#E60012"/>
<path d="M19.7666 7.04134H22.9916L24.0028 3.9624L25.0075 7.04134H28.2333L25.6275 8.96385L26.6086 12.0371L24.0028 10.1446L21.3913 12.0371L22.3781 8.96385L19.7666 7.04134Z" fill="#FFF100"/>
</g>
<defs>
<clipPath id="clip0_11124_107646">
<rect width="16" height="16" fill="white"/>
</clipPath>
<clipPath id="clip1_11124_107646">
<rect width="16" height="16" fill="white" transform="translate(144)"/>
</clipPath>
<clipPath id="clip2_11124_107646">
<rect width="16" height="16" fill="white" transform="translate(144)"/>
</clipPath>
<clipPath id="clip3_11124_107646">
<rect width="16" height="16" fill="white" transform="translate(128)"/>
</clipPath>
<clipPath id="clip4_11124_107646">
<rect width="16" height="16" fill="white" transform="translate(128)"/>
</clipPath>
<clipPath id="clip5_11124_107646">
<rect width="16" height="16" fill="white" transform="translate(112)"/>
</clipPath>
<clipPath id="clip6_11124_107646">
<rect width="16" height="16" fill="white" transform="translate(112)"/>
</clipPath>
<clipPath id="clip7_11124_107646">
<rect width="16" height="16" fill="white" transform="translate(96)"/>
</clipPath>
<clipPath id="clip8_11124_107646">
<rect width="16" height="16" fill="white" transform="translate(80)"/>
</clipPath>
<clipPath id="clip9_11124_107646">
<rect width="16" height="16" fill="white" transform="translate(80)"/>
</clipPath>
<clipPath id="clip10_11124_107646">
<rect width="16" height="16" fill="white" transform="translate(64)"/>
</clipPath>
<clipPath id="clip11_11124_107646">
<rect width="16" height="16" fill="white" transform="translate(48)"/>
</clipPath>
<clipPath id="clip12_11124_107646">
<rect width="16" height="16" fill="white" transform="translate(48 0.0350952)"/>
</clipPath>
<clipPath id="clip13_11124_107646">
<rect width="16" height="16" fill="white" transform="translate(32)"/>
</clipPath>
<clipPath id="clip14_11124_107646">
<rect width="16" height="16" fill="white" transform="translate(16)"/>
</clipPath>
</defs>
</svg>
