<svg width="283" height="22" viewBox="0 0 283 22" fill="none" xmlns="http://www.w3.org/2000/svg">
<path d="M30.5708 5.02321C30.5708 4.46587 30.5376 4.16154 30.2126 3.80587C30.0095 3.55287 30.1461 3.31454 30.3825 3.31454H33.3296V5.56221C33.3296 7.78054 35.5123 9.08221 37.4881 9.74221L36.7569 11.1135C36.5353 11.5205 35.7006 11.3665 34.2345 10.4719C33.3998 9.96587 32.5984 9.28754 32.0703 8.57621C31.4387 9.47087 30.6558 10.2152 29.7547 10.8092C28.7169 11.4839 27.3873 12.1292 27.1658 11.7039L26.3828 10.2335C28.6504 9.35354 30.5745 7.88321 30.5745 5.73454V5.02321H30.5708ZM41.7833 16.8482V18.7585H32.0555C29.9947 18.7585 29.1748 18.2342 29.1748 16.5255V14.0725C29.1748 13.7352 29.0567 13.4822 28.8166 13.1925C28.6098 12.9395 28.7501 12.7012 28.9865 12.7012H31.8819V16.1699C31.8819 16.6942 32.0518 16.8482 32.5799 16.8482H41.7796H41.7833ZM38.8177 13.5665V4.77021C38.8177 4.17987 38.7143 3.87554 38.3929 3.51987C38.1898 3.26687 38.3265 3.04688 38.5813 3.04688H41.4952V13.5702H38.8214L38.8177 13.5665Z" fill="#0046FF"/>
<path d="M47.4193 4.29755C47.4193 3.70355 47.3861 3.43589 47.0611 3.04722C46.8395 2.79422 46.9761 2.57422 47.231 2.57422H50.1449V4.46989H54.0116V6.32889H52.2241C52.7522 6.92289 53.0772 7.64888 53.0772 8.51055C53.0772 10.6409 51.4929 12.2652 48.6639 12.2652C45.835 12.2652 44.2506 10.6409 44.2506 8.51055C44.2506 7.63055 44.5571 6.90455 45.0668 6.32889H43.2793V4.46989H47.4193V4.30122V4.29755ZM58.2735 16.8486V18.7589H48.7156C46.6548 18.7589 45.835 18.2346 45.835 16.5259V14.7512C45.835 14.4139 45.7168 14.1572 45.4767 13.8712C45.2736 13.6182 45.4102 13.3799 45.6466 13.3799H48.5457V16.1702C48.5457 16.6946 48.7156 16.8486 49.2437 16.8486H58.2735ZM50.5216 8.42255C50.5216 7.27122 49.842 6.39122 48.6639 6.39122C47.4858 6.39122 46.8063 7.27122 46.8063 8.42255C46.8063 9.50422 47.471 10.4026 48.6639 10.4026C49.8568 10.4026 50.5216 9.50788 50.5216 8.42255ZM55.3928 13.8016V4.77055C55.3928 4.18022 55.3079 3.90889 54.9829 3.52022C54.7613 3.26722 54.898 3.04722 55.1528 3.04722H58.0667V7.04022H60.0093V8.95055H58.0667V13.8052H55.3891L55.3928 13.8016Z" fill="#0046FF"/>
<path d="M61.3561 17.087V5.59929C61.3561 5.02363 61.2527 4.73763 60.9314 4.38196C60.7245 4.12896 60.8612 3.89062 61.1012 3.89062H69.2964V5.87063H64.1333V9.48962H68.8199V11.4696H64.1333V15.1216H69.6694V17.0833H61.3561V17.087Z" fill="#0046FF"/>
<path d="M74.1499 15.1253H79.7894V17.087H70.6895V15.6643L76.4138 5.87063H70.9443V3.89062H79.6675V5.34629C79.6675 5.75329 79.5124 6.09063 79.3277 6.39496L74.1462 15.1253H74.1499Z" fill="#0046FF"/>
<path d="M87.4232 10.4207C87.4232 9.82665 87.3198 9.52598 86.9985 9.17032C86.7916 8.91732 86.932 8.69732 87.1868 8.69732H90.1857V10.8643H96.9146V12.6903H80.6758V10.8643H87.4232V10.4243V10.4207ZM81.5289 7.79898C84.6127 7.29298 87.4232 5.90332 87.4232 4.56865V4.24598C87.4232 3.95998 87.2681 3.68865 87.0317 3.45032C86.7916 3.21198 86.9135 2.95898 87.1683 2.95898H90.0822V4.56498C90.0822 5.66498 92.7746 7.18665 95.8916 7.71098L95.2785 9.23265C95.1419 9.55532 94.1373 9.47098 92.1947 8.74132C90.7987 8.21698 89.5874 7.60832 88.7379 6.83098C87.9698 7.57532 87.0834 8.08132 85.824 8.62398C84.1547 9.33532 82.3488 9.69098 82.1604 9.25098L81.5289 7.79532V7.79898ZM82.7218 15.1067C82.7218 14.7693 82.6036 14.5127 82.3636 14.2267C82.1604 13.9737 82.2971 13.7353 82.5334 13.7353H85.4289V16.357C85.4289 16.7127 85.6505 16.8483 85.957 16.8483H95.2785V18.7587H84.7641C83.453 18.7587 82.7181 17.9813 82.7181 16.83V15.103L82.7218 15.1067Z" fill="#0046FF"/>
<path d="M100.83 4.56882C100.83 3.96015 100.727 3.60448 100.49 3.30015C100.287 3.02882 100.405 2.82715 100.679 2.82715H103.423V5.21415H106.285V7.12448H97.6133V5.21415H100.834V4.57248L100.83 4.56882ZM102.108 7.70015C104.8 7.70015 106.181 9.40882 106.181 11.9131C106.181 14.4175 104.8 16.1261 102.108 16.1261C99.4155 16.1261 98.0343 14.4175 98.0343 11.9131C98.0343 9.40882 99.4155 7.70015 102.108 7.70015ZM102.108 9.57748C100.948 9.57748 100.457 10.4721 100.457 11.9131C100.457 13.3541 100.952 14.2488 102.108 14.2488C103.264 14.2488 103.759 13.3541 103.759 11.9131C103.759 10.4721 103.264 9.57748 102.108 9.57748ZM107.238 4.89148C107.238 4.28282 107.134 3.92715 106.898 3.62282C106.695 3.35148 106.813 3.14982 107.086 3.14982H109.712V8.68282H111.16V3.05081H113.645V18.9715H111.16V10.7655H109.712V18.5131H107.241V4.88782L107.238 4.89148Z" fill="#0046FF"/>
<path d="M119.54 12.856C117.512 12.856 116.607 12.2657 116.607 10.6414V5.29536C116.607 4.73803 116.489 4.44836 116.164 4.05969C115.961 3.78836 116.079 3.56836 116.334 3.56836H119.248V6.51269H126.302V3.56836H128.943V12.856H124.256V15.562H130.985V17.4724H114.746V15.562H121.493V12.856H119.532H119.54ZM126.306 10.9604V8.39003H119.252V9.94836C119.252 10.5387 119.422 10.964 120.223 10.964H126.306V10.9604Z" fill="#0046FF"/>
<path d="M135.925 4.29755C135.925 3.70355 135.892 3.43589 135.567 3.04722C135.345 2.79422 135.482 2.57422 135.737 2.57422H138.651V4.46989H142.517V6.32889H140.763C141.273 6.90455 141.583 7.61589 141.583 8.45922C141.583 10.5896 139.914 12.1626 137.17 12.1626C134.426 12.1626 132.756 10.5896 132.756 8.45922C132.756 7.59755 133.063 6.88622 133.558 6.32889H131.785V4.46989H135.925V4.30122V4.29755ZM137.919 18.8469C135.859 18.8469 135.006 18.4069 135.006 16.6982V14.4139C135.006 14.0766 134.887 13.8199 134.647 13.5339C134.444 13.2809 134.581 13.0426 134.817 13.0426H146.831C147.104 13.0426 147.223 13.1269 147.223 13.4166V18.8469H137.919ZM139.027 8.37489C139.027 7.26022 138.344 6.39489 137.17 6.39489C135.995 6.39489 135.312 7.25655 135.312 8.37489C135.312 9.42355 135.977 10.3219 137.17 10.3219C138.363 10.3219 139.027 9.42722 139.027 8.37489ZM144.6 17.0209V14.8539H137.631V16.3242C137.631 16.9329 137.853 17.0172 138.414 17.0172H144.6V17.0209ZM144.534 12.0636V9.42355H142.266V7.51322H144.534V4.77422C144.534 4.18389 144.449 3.91255 144.124 3.52389C143.902 3.27089 144.039 3.05089 144.294 3.05089H147.208V12.0672H144.534V12.0636Z" fill="#0046FF"/>
<path d="M204.797 16.8901H214.272V18.6997H203.353C202.166 18.6997 201.719 18.2046 201.719 17.1803V16.0023C201.719 15.4389 201.599 15.1146 201.272 14.7219C201.066 14.4487 201.186 14.2268 201.444 14.2268H211.297V13.2707H201.668V11.4782H213.653C213.928 11.4782 214.048 11.5635 214.048 11.8537V15.917H204.47V16.5657C204.47 16.8047 204.556 16.8901 204.797 16.8901ZM202.304 7.50031V8.06369C202.304 8.55879 202.493 8.72951 202.974 8.72951H209.526V10.0441C209.027 10.4026 208.15 10.488 206.998 10.488H201.668C200.447 10.488 199.604 9.61727 199.604 8.54172V4.59801C199.604 4.00048 199.518 3.69318 199.174 3.33466C198.968 3.07858 199.105 2.83956 199.363 2.83956H208.339V4.58094H202.304V5.81015H207.291V7.50031H202.304ZM208.683 7.60274V5.67357H211.349V4.30778C211.349 3.71025 211.263 3.43709 210.936 3.04443C210.712 2.78835 210.85 2.56641 211.108 2.56641H214.048V10.5733H211.349V7.60274H208.683Z" fill="black"/>
<path d="M185.143 10.4712V7.63715C185.143 7.07376 185.125 6.80061 184.799 6.40794C184.592 6.13478 184.713 5.91285 184.971 5.91285H187.825V10.4712H191.901V5.91285H194.583V10.4712H196.647V12.4003H191.23V15.2002H198.022V17.1294H181.635V15.2002H188.444V12.4003H182.993V10.4712H185.143ZM196.767 3.30078V5.22995H182.873V3.30078H196.767Z" fill="black"/>
<path d="M179.634 16.7363H176.831V5.14423C176.831 4.56377 176.728 4.27354 176.402 3.91502C176.195 3.65893 176.316 3.41992 176.574 3.41992H179.634V16.7363Z" fill="black"/>
<path d="M164.98 3.44727H170.482C173.337 3.44727 174.919 5.13742 174.919 7.66413C174.919 10.2079 173.337 11.8639 170.482 11.8639H168.04V16.7637H165.238V5.17157C165.238 4.59111 165.134 4.30088 164.808 3.94236C164.601 3.68628 164.739 3.44727 164.98 3.44727ZM168.04 5.44473V9.88353H169.777C171.256 9.88353 172.116 9.16649 172.116 7.66413C172.116 6.16176 171.256 5.44473 169.777 5.44473H168.04Z" fill="black"/>
<path d="M151.051 16.7637L155.453 5.61545C155.728 4.88134 155.659 4.43746 155.453 4.0448C155.229 3.66921 155.315 3.44727 155.78 3.44727H158.342L163.5 16.7637H160.698L159.339 13.059H155.178L153.836 16.7637H151.051ZM157.241 7.20317L155.9 11.0274H158.6L157.241 7.20317Z" fill="black"/>
<path d="M10.9908 0C4.92297 0 0 4.88767 0 10.912C0 16.9363 4.92297 21.824 10.9908 21.824C17.0587 21.824 21.9817 16.9363 21.9817 10.912C21.9817 4.88767 17.0624 0 10.9908 0ZM11.2198 19.8257C9.90504 20.009 7.76301 19.679 6.31529 18.766C5.04485 17.9703 4.28775 16.973 3.79656 15.961C3.29429 14.927 3.05793 13.673 3.59344 13.7353C3.84457 13.7647 4.05878 14.234 4.54258 14.8463C4.87127 15.2643 5.1778 15.6163 5.40678 15.6677C5.51019 15.6897 5.59513 15.642 5.66899 15.5063C5.80564 15.246 5.9903 14.7547 6.31899 14.355C6.58489 14.0507 6.9062 13.9077 7.09455 14.652C7.18319 15.0223 7.25705 15.4073 7.29767 15.741C7.35676 16.214 7.38631 16.4963 7.5525 16.5733C7.71131 16.6503 7.97721 16.5513 8.41301 16.39C8.72323 16.2763 9.12209 16.1297 9.62805 15.9867C10.0934 15.8547 10.3888 15.9243 10.0897 16.6393C9.94936 16.9767 9.80533 17.2627 9.30306 17.9813C9.21442 18.1097 9.23289 18.2343 9.33999 18.3407C9.50987 18.5057 9.89027 18.7073 10.3113 18.8907C10.6474 19.0337 11.0462 19.162 11.3121 19.2353C11.7258 19.3527 11.6445 19.767 11.2272 19.8257H11.2198ZM16.8593 17.479C16.4493 18.139 15.5925 18.854 14.551 19.3307C14.3922 19.4003 14.226 19.3783 14.1817 19.25C14.1448 19.14 14.2334 19.0117 14.3368 18.8907C15.6922 17.1453 14.684 15.543 12.4976 14.3037C10.88 13.387 9.85334 12.859 8.66045 12.1623C5.16672 10.12 4.49088 8.338 4.35423 7.28567C4.01077 4.62733 6.22666 2.63267 8.50164 2.15233C8.57181 2.13767 8.75278 2.10833 8.81187 2.25867C8.87096 2.409 8.73431 2.519 8.65675 2.56667C7.63744 3.124 6.6366 4.30467 6.74739 5.61733C6.80648 6.35067 7.12409 7.40667 9.12578 8.822C10.3334 9.67633 11.8107 10.3767 14.7911 12.1513C17.9413 14.025 17.5831 16.313 16.8593 17.4753V17.479ZM17.3504 7.49833C16.6303 8.371 15.9138 8.04833 15.3598 6.81633C15.0164 6.05 14.5621 5.863 14.2408 6.06467C13.89 6.28467 14.0303 6.809 14.4218 7.414C14.6766 7.81 14.5621 8.27567 14.2962 8.55067C14.0155 8.84033 13.5613 8.954 13.0627 8.84767C12.1763 8.65333 11.3047 7.47633 11.94 4.90233C12.1985 3.86467 11.6962 3.421 11.3749 3.02133C11.2161 2.82333 11.1976 2.70233 11.253 2.62167C11.3158 2.53367 11.4636 2.52633 11.7221 2.58133C12.0618 2.651 12.5678 2.827 12.9814 2.88933C13.2547 2.93333 13.565 2.94433 13.89 2.92967C14.7726 2.89667 15.4263 3.03233 16.0911 3.35867C17.2212 3.916 17.3394 4.873 16.7078 4.796C16.4899 4.77033 16.2093 4.60533 15.9766 4.49533C15.8215 4.422 15.6885 4.39633 15.5888 4.466C15.4965 4.532 15.4559 4.67133 15.5223 4.81067C15.6627 5.104 16.1391 5.25433 16.7817 5.434C17.9081 5.742 17.9303 6.77967 17.3431 7.49833H17.3504Z" fill="#0046FF"/>
</svg>
