<svg width="160" height="160" viewBox="0 0 160 160" fill="none" xmlns="http://www.w3.org/2000/svg">
<path d="M92 52L84 60M84 52L92 60" stroke="#7E869A" stroke-linecap="round"/>
<path d="M72 19V29M67 24H77" stroke="#313749" stroke-linecap="round" stroke-linejoin="round"/>
<path d="M83 24H93" stroke="#313749" stroke-linecap="round" stroke-linejoin="round"/>
<rect x="35.7573" y="68.5607" width="1" height="11" transform="rotate(-45 35.7573 68.5607)" fill="#656B7B"/>
<rect x="36.4648" y="76.3387" width="1" height="11" transform="rotate(-135 36.4648 76.3387)" fill="#656B7B"/>
<circle cx="39.9998" cy="68.5535" r="0.7" fill="#656B7B"/>
<circle cx="39.9998" cy="75.6387" r="0.7" fill="#656B7B"/>
<circle cx="36.4573" cy="72.0962" r="0.7" fill="#656B7B"/>
<circle cx="43.5428" cy="72.0962" r="0.7" fill="#656B7B"/>
<rect x="51.7578" y="68.4645" width="1" height="11" transform="rotate(-45 51.7578 68.4645)" fill="#0046FF"/>
<rect x="52.4648" y="76.2426" width="1" height="11" transform="rotate(-135 52.4648 76.2426)" fill="#0046FF"/>
<circle cx="56.0008" cy="68.4573" r="0.7" fill="#0046FF"/>
<circle cx="56.0008" cy="75.5425" r="0.7" fill="#0046FF"/>
<circle cx="52.4578" cy="72.0001" r="0.7" fill="#0046FF"/>
<circle cx="59.5438" cy="72" r="0.7" fill="#0046FF"/>
<path d="M131.339 43L141.361 43C141.615 43 141.754 42.7038 141.592 42.5083L136.581 36.4746C136.461 36.3301 136.239 36.3301 136.119 36.4746L131.108 42.5083C130.946 42.7038 131.085 43 131.339 43Z" fill="#7E869A"/>
<path d="M4 71.4711L6.35856 74L11 68.9999" stroke="#656B7B" stroke-width="1.2" stroke-linecap="round" stroke-linejoin="round"/>
<path d="M20 71.4711L22.3586 74L27 68.9999" stroke="#0046FF" stroke-width="1.2" stroke-linecap="round" stroke-linejoin="round"/>
<path d="M68 56.1818L70.6042 58.8333L76.3333 53" stroke="#A8BFFF" stroke-width="1.5" stroke-linecap="round" stroke-linejoin="round"/>
<path d="M11 18L5 24L11 30" stroke="#7E869A" stroke-width="1.5" stroke-linecap="round" stroke-linejoin="round"/>
<path d="M34 21L40 27L46 21" stroke="#7E869A" stroke-width="1.5" stroke-linecap="round" stroke-linejoin="round"/>
<path d="M62 27L56 21L50 27" stroke="#7E869A" stroke-width="1.5" stroke-linecap="round" stroke-linejoin="round"/>
<path d="M115.5 53.75L120 58.25L124.5 53.75" stroke="#7E869A" stroke-linecap="round" stroke-linejoin="round"/>
<path d="M100 57.3333L104 53.3333L108 57.3333" stroke="#7E869A" stroke-linecap="round" stroke-linejoin="round"/>
<path d="M4 56.1818L6.60417 58.8333L12.3333 53" stroke="white" stroke-width="1.5" stroke-linecap="round" stroke-linejoin="round"/>
<path d="M21 30L27 24L21 18" stroke="#7E869A" stroke-width="1.5" stroke-linecap="round" stroke-linejoin="round"/>
<path d="M52 56.1818L54.6042 58.8333L60.3333 53" stroke="#E2E4E9" stroke-width="1.5" stroke-linecap="round" stroke-linejoin="round"/>
<path d="M36 56.1818L38.6042 58.8333L44.3333 53" stroke="#7E869A" stroke-width="1.5" stroke-linecap="round" stroke-linejoin="round"/>
<path d="M20 56.1818L22.6042 58.8333L28.3333 53" stroke="#0046FF" stroke-width="1.5" stroke-linecap="round" stroke-linejoin="round"/>
<g opacity="0.7">
<circle cx="7.98305" cy="7.72362" r="6.02232" stroke="#0046FF" stroke-linecap="round" stroke-linejoin="round"/>
<path d="M7.84961 4.71753V8.07312H10.8374" stroke="#0046FF" stroke-linecap="round" stroke-linejoin="round"/>
</g>
<circle cx="40" cy="7.99998" r="6.66667" fill="#FF002B"/>
<rect x="39.3333" y="4.66669" width="1.33333" height="4.66667" fill="white"/>
<rect x="39.3333" y="10.6667" width="1.33333" height="1.33333" fill="white"/>
<path d="M37.75 44.5L42.25 40L37.75 35.5" stroke="#C4C8D4" stroke-linecap="round" stroke-linejoin="round"/>
<path d="M21.75 44.5L26.25 40L21.75 35.5" stroke="#313749" stroke-linecap="round" stroke-linejoin="round"/>
<path d="M5.75 44.5L10.25 40L5.75 35.5" stroke="#7E869A" stroke-linecap="round" stroke-linejoin="round"/>
<path d="M85.75 44.5L90.25 40L85.75 35.5" stroke="#A8BFFF" stroke-linecap="round" stroke-linejoin="round"/>
<path d="M69.75 44.5L74.25 40L69.75 35.5" stroke="#0036C6" stroke-linecap="round" stroke-linejoin="round"/>
<path d="M53.75 44.5L58.25 40L53.75 35.5" stroke="#0046FF" stroke-linecap="round" stroke-linejoin="round"/>
<g opacity="0.5">
<path d="M115.5 37.75L120 42.25L124.5 37.75" stroke="#7E869A" stroke-linecap="round" stroke-linejoin="round"/>
</g>
<g clip-path="url(#clip0_11124_106651)">
<path d="M104 19.4619V26.8462" stroke="#313749" stroke-linecap="round" stroke-linejoin="round"/>
<path d="M106.769 24.0771L104 26.8463L101.23 24.0771" stroke="#313749" stroke-linecap="round" stroke-linejoin="round"/>
<path d="M98.9231 28.7842H109.077" stroke="#313749" stroke-linecap="round" stroke-linejoin="round"/>
</g>
<path d="M150.98 41.3138L147.854 38.1875C147.539 37.8726 147.762 37.334 148.207 37.334H154.46C154.905 37.334 155.128 37.8726 154.813 38.1875L151.687 41.3138C151.492 41.509 151.175 41.509 150.98 41.3138Z" fill="#0046FF"/>
<path fill-rule="evenodd" clip-rule="evenodd" d="M36.6127 82.2033C37.6438 81.1722 39.0418 80.5922 40.5 80.5906C41.9582 80.5922 43.3562 81.1722 44.3872 82.2033C45.4183 83.2344 45.9983 84.6324 46 86.0906C46 90.7968 41 94.3512 40.7869 94.4999C40.7028 94.5588 40.6026 94.5904 40.5 94.5904C40.3973 94.5904 40.2972 94.5588 40.2131 94.4999C40 94.3512 35 90.7968 35 86.0906C35.0016 84.6324 35.5816 83.2344 36.6127 82.2033ZM40.5 88.4999C41.6046 88.4999 42.5 87.6045 42.5 86.4999C42.5 85.3954 41.6046 84.4999 40.5 84.4999C39.3954 84.4999 38.5 85.3954 38.5 86.4999C38.5 87.6045 39.3954 88.4999 40.5 88.4999Z" fill="#C4C8D4"/>
<circle cx="24" cy="84" r="3" fill="#C4C8D4"/>
<path d="M18 92C18 89.7909 19.7909 88 22 88H26C28.2091 88 30 89.7909 30 92C30 93.1046 29.1046 94 28 94H20C18.8954 94 18 93.1046 18 92Z" fill="#C4C8D4"/>
<path fill-rule="evenodd" clip-rule="evenodd" d="M4 83C2.89543 83 2 83.8954 2 85V86H14V85C14 83.8954 13.1046 83 12 83H4ZM14 87H2V93C2 94.1046 2.89543 95 4 95H12C13.1046 95 14 94.1046 14 93V87Z" fill="#C4C8D4"/>
<path fill-rule="evenodd" clip-rule="evenodd" d="M5.75 81.7524C5.75 81.3382 5.41421 81.0024 5 81.0024C4.58579 81.0024 4.25 81.3382 4.25 81.7524V84C4.25 84.4142 4.58579 84.75 5 84.75C5.41421 84.75 5.75 84.4142 5.75 84V81.7524ZM11.75 81.7539C11.75 81.3397 11.4142 81.0039 11 81.0039C10.5858 81.0039 10.25 81.3397 10.25 81.7539V84C10.25 84.4142 10.5858 84.75 11 84.75C11.4142 84.75 11.75 84.4142 11.75 84V81.7539Z" fill="#C4C8D4"/>
<path d="M106.25 35.5L101.75 40L106.25 44.5" stroke="white" stroke-linecap="round" stroke-linejoin="round"/>
<path d="M24.6676 99.1309L25.9735 101.787C26.0392 101.918 26.1632 102.006 26.3019 102.028L29.2275 102.451C29.585 102.502 29.731 102.947 29.4683 103.195L27.3525 105.26C27.2503 105.362 27.1993 105.508 27.2284 105.647L27.7319 108.565C27.7902 108.923 27.4181 109.193 27.0971 109.025L24.4779 107.646C24.3538 107.58 24.2006 107.58 24.0693 107.646L21.4501 109.025C21.129 109.193 20.7569 108.923 20.8153 108.565L21.3187 105.647C21.3406 105.508 21.2968 105.362 21.1947 105.26L19.0716 103.202C18.8089 102.947 18.9548 102.509 19.3123 102.458L22.238 102.035C22.3839 102.013 22.5007 101.925 22.5663 101.794L23.8796 99.1309C24.0401 98.8026 24.5071 98.8026 24.6676 99.1309Z" fill="url(#paint0_linear_11124_106651)"/>
<path d="M8.66757 99.1308L9.97355 101.787C10.0392 101.918 10.1632 102.006 10.3019 102.027L13.2275 102.451C13.585 102.502 13.731 102.947 13.4683 103.195L11.3525 105.26C11.2503 105.362 11.1993 105.508 11.2284 105.646L11.7319 108.565C11.7902 108.922 11.4181 109.192 11.0971 109.025L8.47788 107.646C8.35385 107.58 8.20063 107.58 8.0693 107.646L5.45006 109.025C5.12904 109.192 4.75695 108.922 4.81531 108.565L5.31873 105.646C5.34062 105.508 5.29685 105.362 5.1947 105.26L3.07158 103.202C2.80893 102.947 2.95485 102.509 3.31235 102.458L6.23802 102.035C6.38394 102.013 6.50068 101.925 6.56634 101.794L7.87961 99.1308C8.04012 98.8024 8.50706 98.8024 8.66757 99.1308Z" fill="#C4C8D4" fill-opacity="0.6"/>
<path d="M132 57.3333L136 53.3333L140 57.3333" stroke="#313749" stroke-linecap="round" stroke-linejoin="round"/>
<path d="M86.8557 125.988C87.5563 126.45 88.4437 126.45 89.1443 125.988C90.7114 124.954 93.3333 122.805 93.3333 120V116.257C93.3333 115.702 92.9886 115.204 92.4682 115.009L88.4682 113.509C88.1663 113.396 87.8337 113.396 87.5318 113.509L83.5318 115.009C83.0114 115.204 82.6667 115.702 82.6667 116.257V120C82.6667 122.805 85.2886 124.954 86.8557 125.988Z" fill="url(#paint1_linear_11124_106651)"/>
<path d="M86 119.333L87.3333 120.667L90 118" stroke="white" stroke-linecap="round" stroke-linejoin="round"/>
<path fill-rule="evenodd" clip-rule="evenodd" d="M71.2344 114.333C70.4059 114.333 69.7344 115.005 69.7344 115.833V116.5C69.7344 116.776 69.5105 117 69.2344 117C68.9582 117 68.7344 116.776 68.7344 116.5V115.833C68.7344 114.453 69.8537 113.333 71.2344 113.333H72.5677C73.9484 113.333 75.0677 114.453 75.0677 115.833V116.5C75.0677 116.776 74.8439 117 74.5677 117C74.2916 117 74.0677 116.776 74.0677 116.5V115.833C74.0677 115.005 73.3961 114.333 72.5677 114.333H71.2344Z" fill="#7F7CFF"/>
<path d="M65.2344 119.167C65.2344 117.694 66.4283 116.5 67.901 116.5H75.901C77.3738 116.5 78.5677 117.694 78.5677 119.167V124.5C78.5677 125.973 77.3738 127.167 75.901 127.167H67.901C66.4283 127.167 65.2344 125.973 65.2344 124.5V119.167Z" fill="#BEC3FF"/>
<path d="M67.901 116.5H75.901C77.3738 116.5 78.5677 117.694 78.5677 119.167C78.5677 119.167 77.0488 120.653 73.2106 120.858C73.0347 120.867 72.8887 120.731 72.8185 120.569C72.6645 120.215 72.3117 119.968 71.901 119.968C71.5046 119.968 71.162 120.198 71.0002 120.533C70.9238 120.691 70.7733 120.821 70.5984 120.806C66.7514 120.473 65.2344 119.167 65.2344 119.167C65.2344 117.694 66.4283 116.5 67.901 116.5Z" fill="#7F7CFF"/>
<rect x="71.401" y="120.5" width="1" height="1.86268" rx="0.5" fill="white"/>
<g clip-path="url(#clip1_11124_106651)">
<path d="M56 113.333C52.3172 113.333 49.3333 116.317 49.3333 120C49.3333 123.683 52.3172 126.667 56 126.667C59.6828 126.667 62.6667 123.683 62.6667 120C62.6667 116.317 59.6828 113.333 56 113.333ZM58.1505 117.849C58.6263 117.849 59.0107 118.234 59.0107 118.71C59.0107 119.185 58.6263 119.57 58.1505 119.57C57.6747 119.57 57.2903 119.185 57.2903 118.71C57.2903 118.234 57.6747 117.849 58.1505 117.849ZM53.8495 117.849C54.3253 117.849 54.7097 118.234 54.7097 118.71C54.7097 119.185 54.3253 119.57 53.8495 119.57C53.3737 119.57 52.9892 119.185 52.9892 118.71C52.9892 118.234 53.3737 117.849 53.8495 117.849ZM59.086 122.425C58.3199 123.344 57.1962 123.871 56 123.871C54.8038 123.871 53.6801 123.344 52.914 122.425C52.5484 121.987 53.2097 121.438 53.5753 121.874C54.1774 122.597 55.0591 123.008 56 123.008C56.9409 123.008 57.8226 122.594 58.4247 121.874C58.7849 121.438 59.4489 121.987 59.086 122.425Z" fill="#FBC400"/>
</g>
<path d="M37.0513 114.256C36.8683 113.817 37.1909 113.333 37.6667 113.333H42.3333C42.809 113.333 43.1317 113.817 42.9487 114.256L41.6667 117.333H38.3333L37.0513 114.256Z" fill="#199F87"/>
<path d="M33.3333 122C33.3333 118.318 36.3181 115.333 40 115.333C43.6819 115.333 46.6667 118.318 46.6667 122V123.429V125.333C46.6667 126.07 46.0697 126.667 45.3333 126.667H34.6667C33.9303 126.667 33.3333 126.07 33.3333 125.333V123.429V122Z" fill="#3DBAA3"/>
<path fill-rule="evenodd" clip-rule="evenodd" d="M37.7328 119.555C37.6341 119.357 37.3938 119.277 37.1962 119.376C36.9986 119.474 36.9185 119.715 37.0173 119.912L37.339 120.556H36.9677C36.7468 120.556 36.5677 120.735 36.5677 120.956C36.5677 121.177 36.7468 121.356 36.9677 121.356L37.739 121.356L38.6469 123.171C38.7147 123.307 38.8532 123.393 39.0047 123.393C39.1562 123.393 39.2947 123.307 39.3625 123.171L40.2269 121.443L41.0913 123.171C41.1591 123.307 41.2976 123.393 41.4491 123.393C41.6006 123.393 41.7391 123.307 41.8069 123.171L42.7013 121.383H43.4862C43.7071 121.383 43.8862 121.204 43.8862 120.983C43.8862 120.762 43.7071 120.583 43.4862 120.583H43.1013L43.4365 119.912C43.5353 119.715 43.4552 119.474 43.2576 119.376C43.06 119.277 42.8197 119.357 42.7209 119.555L41.4491 122.098L40.5847 120.369C40.5169 120.234 40.3784 120.148 40.2269 120.148C40.0754 120.148 39.9369 120.234 39.8691 120.369L39.0047 122.098L37.7328 119.555Z" fill="white"/>
<path d="M29.9363 117.667H18.5682C17.7194 117.667 17.0866 118.449 17.2645 119.279L17.8005 124.892C18.064 126.122 19.1506 127 20.408 127H28.0965C29.3539 127 30.4405 126.122 30.7039 124.892L31.24 119.279C31.4178 118.449 30.7851 117.667 29.9363 117.667Z" fill="url(#paint2_linear_11124_106651)"/>
<path d="M29.901 117.667V117C29.901 115.895 29.0056 115 27.901 115H25.7176C25.2722 115 24.8396 114.851 24.4883 114.578L23.8613 114.089C23.51 113.815 23.0774 113.667 22.632 113.667H20.5677C19.4631 113.667 18.5677 114.562 18.5677 115.667V117.667H29.901Z" fill="#4482F9"/>
<path fill-rule="evenodd" clip-rule="evenodd" d="M22.9008 121.833C22.9008 122.478 23.4231 123 24.0675 123C24.7118 123 25.2341 122.478 25.2341 121.833C25.2341 121.189 24.7118 120.667 24.0675 120.667C23.4231 120.667 22.9008 121.189 22.9008 121.833ZM21.9008 121.833C21.9008 123.03 22.8708 124 24.0675 124C24.4847 124 24.8744 123.882 25.205 123.678L26.2141 124.687C26.4094 124.882 26.726 124.882 26.9213 124.687C27.1165 124.492 27.1165 124.175 26.9213 123.98L25.912 122.971C26.1163 122.64 26.2341 122.25 26.2341 121.833C26.2341 120.637 25.2641 119.667 24.0675 119.667C22.8708 119.667 21.9008 120.637 21.9008 121.833Z" fill="white"/>
<path opacity="0.4" d="M14.6667 124.667V122.667C14.6667 121.562 13.7712 120.667 12.6667 120.667H12C11.5803 120.667 11.1851 120.864 10.9333 121.2L10.1333 122.267C9.62972 122.938 8.83935 123.333 8 123.333C7.16065 123.333 6.37028 122.938 5.86667 122.267L5.06667 121.2C4.81486 120.864 4.41968 120.667 4 120.667H3.33334C2.22877 120.667 1.33334 121.562 1.33334 122.667V124.667C1.33334 125.771 2.22877 126.667 3.33334 126.667H12.6667C13.7712 126.667 14.6667 125.771 14.6667 124.667Z" fill="#6E83FF"/>
<path fill-rule="evenodd" clip-rule="evenodd" d="M3.33333 120.667H4C4.41967 120.667 4.81486 120.864 5.06666 121.2L5.86666 122.267C6.37028 122.938 7.16064 123.333 8 123.333C8.83935 123.333 9.62972 122.938 10.1333 122.267L10.9333 121.2C11.1851 120.864 11.5803 120.667 12 120.667H12.6667C12.9004 120.667 13.1248 120.707 13.3333 120.78V116C13.3333 114.527 12.1394 113.333 10.6667 113.333H5.33333C3.86057 113.333 2.66666 114.527 2.66666 116V120.78C2.87518 120.707 3.09957 120.667 3.33333 120.667ZM10.3763 116.329C10.5581 116.121 10.5371 115.806 10.3293 115.624C10.1214 115.442 9.80557 115.463 9.62373 115.671L7.71046 117.857C7.65172 117.924 7.55056 117.933 7.48091 117.878L6.31236 116.943C6.09673 116.77 5.78209 116.805 5.60958 117.021C5.43708 117.237 5.47204 117.551 5.68767 117.724L6.85622 118.659C7.34374 119.049 8.05191 118.986 8.46303 118.516L10.3763 116.329Z" fill="#6E83FF"/>
<path d="M120.328 25.6911C120.328 26.2078 120.132 26.7244 119.737 27.1192L118.588 28.268L117.95 28.9066C117.555 29.3014 117.038 29.4971 116.522 29.4971C116.005 29.4971 115.488 29.3014 115.094 28.9066C114.699 28.5119 114.503 27.9952 114.5 27.4786C114.5 26.9619 114.699 26.4452 115.094 26.0505L115.732 25.4119L116.881 24.263C117.276 23.8683 117.793 23.6725 118.309 23.6725" stroke="#313749" stroke-linecap="round" stroke-linejoin="round"/>
<path d="M119.672 22.308C119.672 21.7913 119.871 21.2746 120.263 20.8799L121.412 19.7311L122.05 19.0924C122.445 18.6977 122.962 18.502 123.478 18.502C123.995 18.502 124.512 18.7009 124.906 19.0924C125.301 19.4872 125.497 20.0038 125.5 20.5205C125.5 21.0372 125.301 21.5538 124.906 21.9486L124.268 22.5872L123.119 23.736C122.724 24.1308 122.208 24.3265 121.691 24.3265" stroke="#313749" stroke-linecap="round" stroke-linejoin="round"/>
<path d="M118.877 25.1204L121.124 22.874" stroke="#313749" stroke-linecap="round" stroke-linejoin="round"/>
<g clip-path="url(#clip2_11124_106651)">
<path d="M81.4691 152.975C81.4691 152.321 81.9997 151.79 82.6542 151.79C83.3088 151.79 83.8394 152.321 83.8394 152.975V155.741C83.8394 156.177 83.4857 156.531 83.0493 156.531H82.2592C81.8228 156.531 81.4691 156.177 81.4691 155.741V152.975Z" fill="#384C96"/>
<path d="M90.1604 152.975C90.1604 152.321 90.691 151.79 91.3456 151.79C92.0002 151.79 92.5308 152.321 92.5308 152.975V155.741C92.5308 156.177 92.177 156.531 91.7407 156.531H90.9505C90.5142 156.531 90.1604 156.177 90.1604 155.741V152.975Z" fill="#384C96"/>
<path fill-rule="evenodd" clip-rule="evenodd" d="M84.1194 145.469C83.3806 145.469 82.7404 145.981 82.5779 146.702L81.9585 149.448C81.2296 149.589 80.679 150.23 80.679 151V154.16C80.679 154.597 81.0328 154.951 81.4691 154.951H92.5309C92.9672 154.951 93.321 154.597 93.321 154.16V151C93.321 150.23 92.7704 149.589 92.0415 149.448L91.4222 146.702C91.2596 145.981 90.6194 145.469 89.8806 145.469H84.1194Z" fill="url(#paint3_linear_11124_106651)"/>
<path d="M80.679 153.37H93.321V154.16C93.321 154.597 92.9672 154.951 92.5308 154.951H81.4691C81.0327 154.951 80.679 154.597 80.679 154.16V153.37Z" fill="#5074F5"/>
<circle cx="82.8518" cy="151.593" r="0.592593" fill="white"/>
<circle cx="91.1481" cy="151.593" r="0.592593" fill="white"/>
<path d="M83.7417 147.239C83.8344 146.894 84.1473 146.654 84.5047 146.654H89.4953C89.8526 146.654 90.1655 146.894 90.2583 147.239L90.9506 149.815H83.0494L83.7417 147.239Z" fill="url(#paint4_linear_11124_106651)"/>
</g>
<g clip-path="url(#clip3_11124_106651)">
<path d="M65.6667 149.299C65.6667 149.021 65.813 148.763 66.0518 148.621L70.595 145.908C70.8445 145.759 71.1556 145.759 71.4051 145.908L75.9484 148.621C76.1872 148.763 76.3334 149.021 76.3334 149.299V156.135C76.3334 156.572 75.9797 156.926 75.5433 156.926H66.4569C66.0205 156.926 65.6667 156.572 65.6667 156.135V149.299Z" fill="#E1E4ED"/>
<path d="M69.4198 153.765C69.4198 153.329 69.7736 152.975 70.21 152.975H72.1853C72.6216 152.975 72.9754 153.329 72.9754 153.765V156.926H69.4198V153.765Z" fill="#ABB6C1"/>
<path fill-rule="evenodd" clip-rule="evenodd" d="M70.4825 145.023C70.7999 144.827 71.2003 144.827 71.5177 145.023L76.6536 148.183C77.1181 148.469 77.2629 149.077 76.9771 149.542C76.6912 150.006 76.0828 150.151 75.6183 149.865L71.0001 147.023L66.3819 149.865C65.9174 150.151 65.3091 150.006 65.0232 149.542C64.7373 149.077 64.8821 148.469 65.3467 148.183L70.4825 145.023Z" fill="#7199FF"/>
<path d="M77.321 154.313C77.321 156.034 75.896 157.418 74.1746 157.315C72.4055 157.21 71.1946 155.509 71.4226 153.73C71.5606 152.648 72.0677 151.721 72.6197 151.001C72.7157 150.876 72.8141 151.886 72.9126 151.775C73.0114 151.661 73.9268 150.076 74.2451 149.52C74.2588 149.495 74.2776 149.474 74.3003 149.458C74.3229 149.441 74.3489 149.429 74.3764 149.424C74.404 149.418 74.4324 149.418 74.4598 149.424C74.4872 149.431 74.5129 149.443 74.5352 149.46C75.1747 149.942 77.321 151.755 77.321 154.313Z" fill="#FF5823"/>
<g filter="url(#filter0_i_11124_106651)">
<path d="M76.5309 155.388C76.5309 156.481 75.5114 157.359 74.2715 157.32C72.933 157.277 72.0153 156.135 72.2117 154.957C72.4953 153.27 74.3523 152.185 74.3523 152.185C74.3523 152.185 76.5309 153.457 76.5309 155.388Z" fill="#FFB02E"/>
</g>
</g>
<path d="M55.3086 157.416C57.5996 157.416 59.4568 156.758 59.4568 155.945C59.4568 155.132 57.5996 154.474 55.3086 154.474C53.0177 154.474 51.1605 155.132 51.1605 155.945C51.1605 156.758 53.0177 157.416 55.3086 157.416Z" fill="url(#paint5_linear_11124_106651)"/>
<path d="M59.3499 148.832C59.3499 151.064 55.3087 155.946 55.3087 155.946C55.3087 155.946 51.2674 151.064 51.2674 148.832C51.2674 146.599 53.0763 144.79 55.3087 144.79C57.541 144.79 59.3499 146.599 59.3499 148.832Z" fill="url(#paint6_linear_11124_106651)"/>
<path d="M55.3082 150.24C56.115 150.24 56.7691 149.586 56.7691 148.779C56.7691 147.972 56.115 147.318 55.3082 147.318C54.5013 147.318 53.8472 147.972 53.8472 148.779C53.8472 149.586 54.5013 150.24 55.3082 150.24Z" fill="white"/>
<rect x="36.965" y="145.398" width="4.02053" height="2.34438" rx="0.689148" stroke="#384C96" stroke-width="0.790123"/>
<g clip-path="url(#clip4_11124_106651)">
<rect x="32.6544" y="146.965" width="12.642" height="8.72337" rx="1.18519" fill="url(#paint7_linear_11124_106651)"/>
<g style="mix-blend-mode:multiply">
<circle cx="32.9021" cy="147.179" r="1.20954" fill="url(#paint8_linear_11124_106651)"/>
</g>
<g style="mix-blend-mode:multiply">
<circle cx="32.9021" cy="155.475" r="1.20954" fill="url(#paint9_linear_11124_106651)"/>
</g>
<g style="mix-blend-mode:multiply">
<circle cx="45.0484" cy="147.179" r="1.20954" fill="url(#paint10_linear_11124_106651)"/>
</g>
<g style="mix-blend-mode:multiply">
<circle cx="45.0484" cy="155.475" r="1.20954" fill="url(#paint11_linear_11124_106651)"/>
</g>
</g>
<rect x="34.7165" y="146.965" width="0.790123" height="8.72337" fill="url(#paint12_linear_11124_106651)"/>
<rect x="42.4445" y="146.965" width="0.790123" height="8.72337" fill="url(#paint13_linear_11124_106651)"/>
<path d="M41.4796 151.875C41.2949 151.921 41.1081 151.808 41.0624 151.623L40.5155 149.411C40.4929 149.32 40.5088 149.223 40.5597 149.143L41.0459 148.382C41.1438 148.229 41.3439 148.178 41.503 148.266L42.3068 148.711C42.3907 148.757 42.4515 148.836 42.4746 148.929L43.0208 151.139C43.0665 151.324 42.9538 151.511 42.769 151.556L41.4796 151.875Z" fill="#384C96"/>
<path d="M40.9858 146.966L41.2869 148.547" stroke="#384C96" stroke-width="0.790123" stroke-linecap="round"/>
<rect x="40.9468" y="149.382" width="1.12547" height="2.0814" rx="0.197531" transform="rotate(-14.6355 40.9468 149.382)" fill="#688DFA"/>
<g clip-path="url(#clip5_11124_106651)">
<path d="M20.3399 153.186C21.7071 153.186 22.8155 152.078 22.8155 150.71C22.8155 149.343 21.7071 148.235 20.3399 148.235C18.9726 148.235 17.8642 149.343 17.8642 150.71C17.8642 152.078 18.9726 153.186 20.3399 153.186Z" fill="url(#paint14_linear_11124_106651)"/>
<path d="M20.7802 153.468H19.8994L18.1266 152.252H22.5529L20.7802 153.468Z" fill="url(#paint15_linear_11124_106651)"/>
<path d="M20.778 153.469H19.8994V154.852H20.778V153.469Z" fill="url(#paint16_linear_11124_106651)"/>
<path d="M27.3457 145.074L24.3534 154.272H20.6838C19.9161 154.272 19.2925 154.892 19.2925 155.655V155.938C19.2925 156.701 19.9161 157.321 20.6838 157.321H23.3981C24.0937 157.321 24.7097 156.871 24.9163 156.211L28.3176 145.272L27.9383 145.074H27.3457Z" fill="url(#paint17_linear_11124_106651)"/>
<path d="M26.1159 148.083L27.0345 144.943C27.0798 144.787 27.2175 144.679 27.3715 144.679H28.1777C28.4151 144.679 28.5854 144.924 28.5147 145.165L27.5961 148.305C27.5508 148.461 27.4131 148.569 27.2591 148.569H26.4529C26.2155 148.569 26.0452 148.324 26.1159 148.083Z" fill="#262C6A"/>
</g>
<path d="M10.6622 148.224L7.82911 151.111L6.07359 149.85L6.04709 149.832L4.72658 148.888L3.17643 147.777L1.38778 146.496C1.36349 146.478 1.34141 146.458 1.32153 146.437C1.14267 146.258 1.13605 145.954 1.32374 145.761C1.86475 145.21 2.67958 145.035 3.39725 145.32L4.98053 145.952L8.08085 147.19L10.6667 148.222L10.6622 148.224Z" fill="url(#paint18_linear_11124_106651)"/>
<path d="M9.99939 147.555L7.11111 150.391L8.38879 152.173L11.727 156.834C11.745 156.859 11.763 156.881 11.7832 156.901C11.9654 157.079 12.2691 157.086 12.4603 156.896C13.0136 156.353 13.1868 155.54 12.9012 154.825L11.0319 150.141L9.99939 147.555Z" fill="url(#paint19_linear_11124_106651)"/>
<path d="M5.33465 156.49L5.31761 155.221L10.8746 150.299C11.8304 149.55 12.4703 148.468 12.665 147.27L12.7465 146.773C12.8697 146.013 12.212 145.353 11.4509 145.478L10.9541 145.56C9.75393 145.754 8.67296 146.394 7.92383 147.349L2.95582 152.86L1.73008 152.887C1.57509 152.859 1.41612 152.909 1.30286 153.02C1.07832 153.245 1.12799 153.618 1.40221 153.777L3.32968 154.891L4.44444 156.818C4.60341 157.092 4.97897 157.142 5.20152 156.917C5.3128 156.806 5.36247 156.647 5.33465 156.49Z" fill="url(#paint20_linear_11124_106651)"/>
<path d="M4.3817 154.457C4.55243 154.286 4.55242 154.01 4.3817 153.839C4.21098 153.668 3.93419 153.668 3.76347 153.839L2.53121 155.071C2.36049 155.241 2.36049 155.518 2.53121 155.689C2.70193 155.859 2.97873 155.859 3.14945 155.689L4.3817 154.457Z" fill="url(#paint21_linear_11124_106651)"/>
<path d="M10.748 147.474C11.058 147.784 11.3203 148.109 11.5349 148.433C11.6899 148.143 11.8131 147.835 11.8946 147.513C11.7297 147.299 11.5468 147.086 11.3422 146.88C11.1375 146.673 10.9229 146.491 10.7083 146.328C10.3864 146.409 10.0784 146.532 9.78828 146.687C10.1142 146.902 10.44 147.164 10.748 147.474Z" fill="url(#paint22_linear_11124_106651)"/>
<path d="M10.748 147.474C11.058 147.784 11.3203 148.109 11.5349 148.433C11.6899 148.143 11.8131 147.835 11.8946 147.513C11.7297 147.299 11.5468 147.086 11.3422 146.88C11.1375 146.673 10.9229 146.491 10.7083 146.328C10.3864 146.409 10.0784 146.532 9.78828 146.687C10.1142 146.902 10.44 147.164 10.748 147.474Z" fill="url(#paint23_linear_11124_106651)"/>
<circle cx="87.9987" cy="8" r="7" transform="rotate(-180 87.9987 8)" fill="#7E869A"/>
<path d="M90.7083 8.8642L87.9995 6.15533L85.2906 8.8642" stroke="white" stroke-linecap="round" stroke-linejoin="round"/>
<path d="M104 66V78M98 72H110" stroke="#7E869A" stroke-width="1.5" stroke-linecap="round" stroke-linejoin="round"/>
<circle cx="56" cy="88" r="7" fill="#C4C8D4"/>
<path d="M52.5 85.5L54.5 90.5L56 86.5L57.5 90.5L59.5 85.5" stroke="white" stroke-linecap="round" stroke-linejoin="round"/>
<path d="M52 88H53.5" stroke="white" stroke-linecap="round" stroke-linejoin="round"/>
<path d="M58.5 88H60" stroke="white" stroke-linecap="round" stroke-linejoin="round"/>
<rect x="48" y="96" width="16" height="16" rx="8" fill="#A8BFFF"/>
<rect x="52" y="103" width="8" height="2" rx="1" fill="white"/>
<rect x="32" y="96" width="16" height="16" rx="8" fill="#A8AEBD"/>
<rect x="36" y="103" width="8" height="2" rx="1" fill="white"/>
<rect x="39" y="108" width="8" height="2" rx="1" transform="rotate(-90 39 108)" fill="white"/>
<path opacity="0.5" d="M8.00561 131C8.39761 131.004 8.78802 131.048 9.17095 131.13C9.25241 131.147 9.32616 131.189 9.38189 131.248C9.43762 131.308 9.47254 131.383 9.48178 131.463L9.57257 132.246C9.58539 132.356 9.62502 132.462 9.68827 132.555C9.75152 132.648 9.83662 132.726 9.93674 132.781C10.0368 132.837 10.1492 132.869 10.2647 132.876C10.3802 132.882 10.4956 132.862 10.6017 132.818L11.3494 132.503C11.4254 132.47 11.5099 132.462 11.5912 132.478C11.6725 132.494 11.7467 132.534 11.8034 132.592C12.344 133.146 12.7466 133.811 12.981 134.537C13.0055 134.613 13.0047 134.694 12.9787 134.77C12.9526 134.846 12.9027 134.912 12.8357 134.96L12.173 135.429C12.0796 135.495 12.0036 135.581 11.9513 135.68C11.8989 135.779 11.8717 135.889 11.8717 136C11.8717 136.111 11.8989 136.221 11.9513 136.32C12.0036 136.419 12.0796 136.505 12.173 136.571L12.8368 137.04C12.9039 137.088 12.9539 137.154 12.9799 137.23C13.0059 137.306 13.0067 137.387 12.9821 137.464C12.7478 138.189 12.3453 138.854 11.805 139.408C11.7484 139.467 11.6744 139.507 11.5931 139.523C11.5119 139.539 11.4275 139.53 11.3516 139.498L10.6007 139.182C10.4947 139.137 10.3793 139.117 10.2638 139.123C10.1482 139.129 10.0358 139.162 9.93568 139.217C9.83553 139.273 9.75042 139.35 9.68724 139.443C9.62407 139.537 9.5846 139.643 9.57203 139.753L9.48124 140.536C9.47218 140.614 9.43802 140.688 9.38344 140.748C9.32886 140.807 9.25651 140.849 9.17629 140.867C8.40271 141.044 7.59675 141.044 6.82318 140.867C6.74285 140.849 6.67039 140.807 6.61571 140.748C6.56102 140.689 6.52679 140.614 6.51769 140.536L6.42743 139.754C6.41432 139.644 6.37451 139.538 6.31118 139.446C6.24786 139.353 6.16279 139.276 6.06282 139.221C5.96284 139.165 5.85074 139.133 5.73551 139.127C5.62029 139.121 5.50515 139.141 5.39935 139.185L4.64844 139.501C4.57242 139.533 4.4879 139.541 4.40657 139.525C4.32525 139.509 4.25113 139.469 4.19448 139.411C3.65404 138.856 3.25177 138.19 3.01793 137.464C2.9933 137.388 2.99406 137.306 3.0201 137.23C3.04613 137.154 3.09615 137.088 3.16319 137.041L3.82704 136.571C3.92042 136.505 3.99636 136.419 4.04871 136.32C4.10105 136.221 4.12833 136.111 4.12833 136C4.12833 135.889 4.10105 135.779 4.04871 135.68C3.99636 135.581 3.92042 135.495 3.82704 135.429L3.16319 134.961C3.09615 134.913 3.04613 134.847 3.0201 134.771C2.99406 134.695 2.9933 134.613 3.01793 134.537C3.25229 133.812 3.65493 133.147 4.19555 132.592C4.25226 132.534 4.32641 132.494 4.40773 132.478C4.48905 132.462 4.57354 132.471 4.64951 132.503L5.39721 132.819C5.5035 132.863 5.61911 132.882 5.73477 132.876C5.85042 132.87 5.96288 132.837 6.06313 132.781C6.16337 132.726 6.2486 132.648 6.31196 132.555C6.37532 132.462 6.41505 132.356 6.42796 132.245L6.51876 131.463C6.52792 131.383 6.56287 131.308 6.61871 131.248C6.67455 131.188 6.74848 131.147 6.83012 131.129C7.21625 131.047 7.61018 131.004 8.00561 131ZM7.9992 134.462C7.57427 134.462 7.16674 134.624 6.86626 134.912C6.56579 135.201 6.39699 135.592 6.39699 136C6.39699 136.408 6.56579 136.8 6.86626 137.088C7.16674 137.377 7.57427 137.539 7.9992 137.539C8.42413 137.539 8.83166 137.377 9.13213 137.088C9.43261 136.8 9.60141 136.408 9.60141 136C9.60141 135.592 9.43261 135.201 9.13213 134.912C8.83166 134.624 8.42413 134.462 7.9992 134.462Z" fill="#12192B"/>
<path d="M74.6667 88C76.5067 88 78 86.5066 78 84.6666C78 82.8266 76.5067 81.3333 74.6667 81.3333C72.8267 81.3333 71.3333 82.8266 71.3333 84.6666C71.3333 86.5066 72.8267 88 74.6667 88ZM78.3 91.7333C78.04 91.4666 77.7133 91.3333 77.3333 91.3333H72.6667L71.28 90.8466L71.5 90.22L72.6667 90.6666H74.5333C74.7667 90.6666 74.9533 90.5733 75.1067 90.42C75.26 90.2666 75.3333 90.08 75.3333 89.8733C75.3333 89.5133 75.16 89.2666 74.8133 89.1266L69.9667 87.3333H68.6667V93.3333L73.3333 94.6666L78.6867 92.6666C78.6933 92.3133 78.56 92 78.3 91.7333ZM67.3333 87.3333H64.656V94.6666H67.3333V87.3333Z" fill="#C4C8D4"/>
<path d="M92 68L84 76M84 68L92 76" stroke="white" stroke-linecap="round"/>
<g clip-path="url(#clip6_11124_106651)">
<path d="M149.604 124.926C152.341 126.507 155.842 125.569 157.422 122.831C159.003 120.094 158.065 116.593 155.327 115.013C152.59 113.432 149.09 114.37 147.509 117.108C146.778 118.374 146.586 119.804 146.861 121.131" stroke="#7E869A" stroke-linecap="round" stroke-linejoin="round"/>
<path d="M149.241 119.119L146.927 121.569L144.646 119.089" stroke="#7E869A" stroke-linecap="round" stroke-linejoin="round"/>
</g>
<circle cx="72" cy="8" r="7" fill="#EDEFF2"/>
<path d="M70.9877 10.9781C70.9877 10.7313 71.0612 10.5371 71.2082 10.3953C71.3552 10.2536 71.5625 10.1827 71.8303 10.1827C72.098 10.1827 72.3054 10.2562 72.4524 10.4032C72.5994 10.545 72.6729 10.7366 72.6729 10.9781C72.6729 11.2196 72.5994 11.4138 72.4524 11.5608C72.3054 11.7026 72.098 11.7735 71.8303 11.7735C71.5625 11.7735 71.3552 11.7026 71.2082 11.5608C71.0612 11.4191 70.9877 11.2248 70.9877 10.9781ZM71.0349 9.46459V8.98422C71.0349 8.67972 71.069 8.43034 71.1373 8.23609C71.2055 8.04184 71.3499 7.87909 71.5704 7.74784C71.7437 7.64284 71.8985 7.54834 72.035 7.46434C72.1715 7.38034 72.2818 7.30159 72.3658 7.22809C72.4918 7.11259 72.5758 7.00759 72.6178 6.91309C72.6598 6.81334 72.6808 6.69522 72.6808 6.55872C72.6808 6.37497 72.6178 6.23059 72.4918 6.12559C72.3658 6.02059 72.2135 5.96809 72.035 5.96809C71.8513 5.96809 71.6859 6.01272 71.5389 6.10197C71.3972 6.18597 71.3027 6.30934 71.2554 6.47209C71.1977 6.66109 71.0927 6.80547 70.9404 6.90522C70.7882 7.00497 70.6018 7.04697 70.3813 7.03122C70.292 7.02597 70.2054 7.00759 70.1214 6.97609C70.0374 6.93934 69.9639 6.88947 69.9009 6.82647C69.8432 6.76347 69.7959 6.68734 69.7592 6.59809C69.7224 6.50359 69.7067 6.39597 69.7119 6.27522C69.7172 6.03372 69.7828 5.81059 69.9088 5.60584C70.0348 5.39584 70.2028 5.21472 70.4128 5.06247C70.6228 4.91022 70.8669 4.79209 71.1452 4.70809C71.4234 4.61884 71.72 4.57422 72.035 4.57422C72.3605 4.57422 72.6598 4.61622 72.9328 4.70022C73.211 4.77897 73.4499 4.89972 73.6494 5.06247C73.8489 5.22522 74.0038 5.43259 74.114 5.68459C74.2295 5.93134 74.2873 6.22272 74.2873 6.55872C74.2873 6.82647 74.2558 7.05747 74.1928 7.25172C74.1298 7.44597 74.0274 7.62709 73.8857 7.79509C73.7649 7.93159 73.6153 8.06809 73.4368 8.20459C73.2635 8.34109 73.0798 8.47234 72.8855 8.59834C72.7753 8.67184 72.7044 8.75059 72.6729 8.83459C72.6414 8.91334 72.6257 9.00522 72.6257 9.11022V9.46459H71.0349Z" fill="#7E869A"/>
<circle cx="56" cy="8" r="7" fill="#7E869A"/>
<rect x="54.9493" y="6.94995" width="2.1" height="5.25" rx="1.05" fill="white"/>
<circle cx="55.9993" cy="4.84993" r="1.05" fill="white"/>
<path fill-rule="evenodd" clip-rule="evenodd" d="M24.0007 13.1667C26.8541 13.1667 29.1673 10.8535 29.1673 8.00004C29.1673 5.14657 26.8541 2.83337 24.0007 2.83337C21.1472 2.83337 18.834 5.14657 18.834 8.00004C18.834 10.8535 21.1472 13.1667 24.0007 13.1667ZM24.0007 14.6667C27.6825 14.6667 30.6673 11.6819 30.6673 8.00004C30.6673 4.31814 27.6825 1.33337 24.0007 1.33337C20.3188 1.33337 17.334 4.31814 17.334 8.00004C17.334 11.6819 20.3188 14.6667 24.0007 14.6667ZM24.6673 7.33337V11.3334H23.334V7.33337H24.6673ZM24.6673 6.00004V4.66671H23.334V6.00004H24.6673Z" fill="#12192B"/>
<circle cx="23.9987" cy="7.99967" r="6.66667" fill="#EDEFF2"/>
<path d="M23.332 7.33301H24.6654V11.333H23.332V7.33301Z" fill="#7E869A"/>
<path d="M23.332 4.66602H24.6654V5.99935H23.332V4.66602Z" fill="#7E869A"/>
<defs>
<filter id="filter0_i_11124_106651" x="72.1852" y="152.185" width="4.34567" height="5.92593" filterUnits="userSpaceOnUse" color-interpolation-filters="sRGB">
<feFlood flood-opacity="0" result="BackgroundImageFix"/>
<feBlend mode="normal" in="SourceGraphic" in2="BackgroundImageFix" result="shape"/>
<feColorMatrix in="SourceAlpha" type="matrix" values="0 0 0 0 0 0 0 0 0 0 0 0 0 0 0 0 0 0 127 0" result="hardAlpha"/>
<feOffset dy="0.790123"/>
<feGaussianBlur stdDeviation="0.592593"/>
<feComposite in2="hardAlpha" operator="arithmetic" k2="-1" k3="1"/>
<feColorMatrix type="matrix" values="0 0 0 0 1 0 0 0 0 0.403922 0 0 0 0 0.137255 0 0 0 0.8 0"/>
<feBlend mode="normal" in2="shape" result="effect1_innerShadow_11124_106651"/>
</filter>
<linearGradient id="paint0_linear_11124_106651" x1="18.6667" y1="98.6667" x2="29.3333" y2="109.333" gradientUnits="userSpaceOnUse">
<stop stop-color="#FFD12D"/>
<stop offset="1" stop-color="#FFA927"/>
</linearGradient>
<linearGradient id="paint1_linear_11124_106651" x1="84.6667" y1="114.667" x2="91.3333" y2="126" gradientUnits="userSpaceOnUse">
<stop stop-color="#ACBCCB"/>
<stop offset="1" stop-color="#9BA8B5"/>
</linearGradient>
<linearGradient id="paint2_linear_11124_106651" x1="24.2522" y1="117.667" x2="24.2522" y2="127" gradientUnits="userSpaceOnUse">
<stop stop-color="#ADC8FF"/>
<stop offset="1" stop-color="#96ADFF"/>
</linearGradient>
<linearGradient id="paint3_linear_11124_106651" x1="89.6869" y1="153.37" x2="89.6869" y2="145.152" gradientUnits="userSpaceOnUse">
<stop stop-color="#6691FF"/>
<stop offset="1" stop-color="#82A5FF"/>
</linearGradient>
<linearGradient id="paint4_linear_11124_106651" x1="83.2469" y1="146.654" x2="85.4265" y2="152.103" gradientUnits="userSpaceOnUse">
<stop stop-color="#F2F9FF"/>
<stop offset="1" stop-color="#DDEEFF"/>
</linearGradient>
<linearGradient id="paint5_linear_11124_106651" x1="55.3086" y1="154.474" x2="55.3086" y2="157.416" gradientUnits="userSpaceOnUse">
<stop stop-color="#B2EDDF"/>
<stop offset="1" stop-color="#CBF1E8"/>
</linearGradient>
<linearGradient id="paint6_linear_11124_106651" x1="52.3456" y1="146.766" x2="57.679" y2="153.284" gradientUnits="userSpaceOnUse">
<stop stop-color="#46D99B"/>
<stop offset="1" stop-color="#1ECDC3"/>
</linearGradient>
<linearGradient id="paint7_linear_11124_106651" x1="37.6225" y1="149.329" x2="40.3637" y2="153.301" gradientUnits="userSpaceOnUse">
<stop stop-color="#E8ECFF"/>
<stop offset="1" stop-color="#D0D8F7"/>
</linearGradient>
<linearGradient id="paint8_linear_11124_106651" x1="32.6433" y1="146.625" x2="33.4563" y2="147.438" gradientUnits="userSpaceOnUse">
<stop stop-color="#E8ECFF"/>
<stop offset="1" stop-color="#D0D8F7"/>
</linearGradient>
<linearGradient id="paint9_linear_11124_106651" x1="32.6433" y1="154.921" x2="33.4563" y2="155.734" gradientUnits="userSpaceOnUse">
<stop stop-color="#E8ECFF"/>
<stop offset="1" stop-color="#D0D8F7"/>
</linearGradient>
<linearGradient id="paint10_linear_11124_106651" x1="44.7895" y1="146.625" x2="45.6026" y2="147.438" gradientUnits="userSpaceOnUse">
<stop stop-color="#E8ECFF"/>
<stop offset="1" stop-color="#D0D8F7"/>
</linearGradient>
<linearGradient id="paint11_linear_11124_106651" x1="44.7895" y1="154.921" x2="45.6026" y2="155.734" gradientUnits="userSpaceOnUse">
<stop stop-color="#E8ECFF"/>
<stop offset="1" stop-color="#D0D8F7"/>
</linearGradient>
<linearGradient id="paint12_linear_11124_106651" x1="35.2795" y1="154.235" x2="35.2795" y2="146.673" gradientUnits="userSpaceOnUse">
<stop stop-color="#6691FF"/>
<stop offset="1" stop-color="#82A5FF"/>
</linearGradient>
<linearGradient id="paint13_linear_11124_106651" x1="43.0075" y1="154.235" x2="43.0075" y2="146.673" gradientUnits="userSpaceOnUse">
<stop stop-color="#6691FF"/>
<stop offset="1" stop-color="#82A5FF"/>
</linearGradient>
<linearGradient id="paint14_linear_11124_106651" x1="19.26" y1="151.79" x2="22.0904" y2="148.96" gradientUnits="userSpaceOnUse">
<stop stop-color="#F3F5FC"/>
<stop offset="1" stop-color="#E2E5F2"/>
</linearGradient>
<linearGradient id="paint15_linear_11124_106651" x1="19.2321" y1="153.357" x2="21.4452" y2="151.146" gradientUnits="userSpaceOnUse">
<stop stop-color="#9ED1FF"/>
<stop offset="0.99" stop-color="#919DFD"/>
</linearGradient>
<linearGradient id="paint16_linear_11124_106651" x1="19.7748" y1="154.725" x2="20.9047" y2="153.593" gradientUnits="userSpaceOnUse">
<stop stop-color="#9ED1FF"/>
<stop offset="0.99" stop-color="#919DFD"/>
</linearGradient>
<linearGradient id="paint17_linear_11124_106651" x1="27.6647" y1="155.461" x2="23.9416" y2="150.524" gradientUnits="userSpaceOnUse">
<stop stop-color="#6A85B6"/>
<stop offset="1" stop-color="#BAC8E0"/>
</linearGradient>
<linearGradient id="paint18_linear_11124_106651" x1="1.18242" y1="148.148" x2="10.6622" y2="148.148" gradientUnits="userSpaceOnUse">
<stop stop-color="#89C7FF"/>
<stop offset="0.99" stop-color="#7E8DFF"/>
</linearGradient>
<linearGradient id="paint19_linear_11124_106651" x1="7.10938" y1="152.296" x2="13.0343" y2="152.296" gradientUnits="userSpaceOnUse">
<stop stop-color="#7E8DFF"/>
<stop offset="1" stop-color="#89C7FF"/>
</linearGradient>
<linearGradient id="paint20_linear_11124_106651" x1="5.72002" y1="148.604" x2="9.61748" y2="152.503" gradientUnits="userSpaceOnUse">
<stop stop-color="#E8ECFF"/>
<stop offset="1" stop-color="#D0D8F7"/>
</linearGradient>
<linearGradient id="paint21_linear_11124_106651" x1="3.14709" y1="154.455" x2="3.76496" y2="155.073" gradientUnits="userSpaceOnUse">
<stop stop-color="#89C7FF"/>
<stop offset="0.99" stop-color="#7E8DFF"/>
</linearGradient>
<linearGradient id="paint22_linear_11124_106651" x1="9.99765" y1="146.219" x2="12.0033" y2="148.225" gradientUnits="userSpaceOnUse">
<stop stop-color="#9ED1FF"/>
<stop offset="0.99" stop-color="#919DFD"/>
</linearGradient>
<linearGradient id="paint23_linear_11124_106651" x1="10.1728" y1="148.049" x2="11.8518" y2="146.666" gradientUnits="userSpaceOnUse">
<stop stop-color="#89C7FF"/>
<stop offset="0.99" stop-color="#7E8DFF"/>
</linearGradient>
<clipPath id="clip0_11124_106651">
<rect width="12" height="10.2458" fill="white" transform="translate(98 19)"/>
</clipPath>
<clipPath id="clip1_11124_106651">
<rect width="13.3333" height="13.3333" fill="white" transform="translate(49.3333 113.333)"/>
</clipPath>
<clipPath id="clip2_11124_106651">
<rect width="14.2222" height="14.2222" fill="white" transform="translate(80 144)"/>
</clipPath>
<clipPath id="clip3_11124_106651">
<rect width="14.2222" height="14.2222" fill="white" transform="translate(64 144)"/>
</clipPath>
<clipPath id="clip4_11124_106651">
<rect x="32.6544" y="146.965" width="12.642" height="8.72337" rx="1.18519" fill="white"/>
</clipPath>
<clipPath id="clip5_11124_106651">
<rect width="14.2222" height="14.2222" fill="white" transform="translate(16 144)"/>
</clipPath>
<clipPath id="clip6_11124_106651">
<rect x="144" y="112" width="16" height="16" fill="white"/>
</clipPath>
</defs>
</svg>
