<svg width="140" height="22" viewBox="0 0 140 22" fill="none" xmlns="http://www.w3.org/2000/svg">
<path d="M29.0726 5.27971C29.0726 4.73824 29.041 4.44256 28.732 4.09702C28.5388 3.85122 28.6688 3.61967 28.8935 3.61967H31.696V5.80337C31.696 7.95857 33.7716 9.22319 35.6505 9.86441L34.9551 11.1967C34.7444 11.5921 33.9507 11.4425 32.5565 10.5733C31.7628 10.0817 31.0007 9.42268 30.4985 8.73159C29.8979 9.6008 29.1534 10.3239 28.2965 10.901C27.3096 11.5565 26.0453 12.1835 25.8346 11.7702L25.0901 10.3418C27.2464 9.4868 29.0761 8.05831 29.0761 5.9708V5.27971H29.0726ZM39.7349 16.7682V18.6241H30.4844C28.5248 18.6241 27.7451 18.1147 27.7451 16.4547V14.0715C27.7451 13.7438 27.6327 13.498 27.4045 13.2165C27.2078 12.9707 27.3412 12.7392 27.566 12.7392H30.3194V16.1091C30.3194 16.6186 30.4809 16.7682 30.9831 16.7682H39.7314H39.7349ZM36.9148 13.5799V5.03391C36.9148 4.46037 36.8165 4.1647 36.5109 3.81916C36.3178 3.57336 36.4477 3.35962 36.69 3.35962H39.4609V13.5835H36.9183L36.9148 13.5799Z" fill="#0046FF"/>
<path d="M45.0951 4.57444C45.0951 3.99734 45.0635 3.73729 44.7544 3.35969C44.5437 3.11389 44.6737 2.90015 44.916 2.90015H47.6869V4.74186H51.3639V6.54796H49.6641C50.1663 7.12505 50.4754 7.83039 50.4754 8.66754C50.4754 10.7372 48.9688 12.3153 46.2786 12.3153C43.5885 12.3153 42.0818 10.7372 42.0818 8.66754C42.0818 7.81258 42.3733 7.10724 42.858 6.54796H41.1582V4.74186H45.0951V4.578V4.57444ZM55.4167 16.7682V18.6242H46.3278C44.3681 18.6242 43.5885 18.1148 43.5885 16.4548V14.7306C43.5885 14.4029 43.4761 14.1535 43.2478 13.8756C43.0546 13.6298 43.1846 13.3983 43.4094 13.3983H46.1662V16.1092C46.1662 16.6186 46.3278 16.7682 46.83 16.7682H55.4167ZM48.0451 8.58204C48.0451 7.46347 47.3989 6.60852 46.2786 6.60852C45.1583 6.60852 44.5121 7.46347 44.5121 8.58204C44.5121 9.63292 45.1443 10.5057 46.2786 10.5057C47.413 10.5057 48.0451 9.63649 48.0451 8.58204ZM52.6774 13.808V5.03397C52.6774 4.46044 52.5966 4.19683 52.2875 3.81922C52.0768 3.57342 52.2068 3.35969 52.4491 3.35969H55.22V7.23905H57.0673V9.09501H55.22V13.8115H52.6739L52.6774 13.808Z" fill="#0046FF"/>
<path d="M58.3478 16.9995V5.83875C58.3478 5.27947 58.2495 5.00161 57.944 4.65606C57.7473 4.41026 57.8772 4.17871 58.1055 4.17871H65.8985V6.10236H60.9888V9.61837H65.4455V11.542H60.9888V15.0901H66.2532V16.9959H58.3478V16.9995Z" fill="#0046FF"/>
<path d="M70.5133 15.0936H75.8761V16.9995H67.2227V15.6173L72.6662 6.10236H67.465V4.17871H75.7602V5.59295C75.7602 5.98837 75.6127 6.3161 75.4371 6.61177L70.5098 15.0936H70.5133Z" fill="#0046FF"/>
<path d="M83.1351 10.5229C83.1351 9.94578 83.0367 9.65367 82.7312 9.30812C82.5345 9.06232 82.668 8.84858 82.9103 8.84858H85.762V10.9539H92.1608V12.7279H76.7188V10.9539H83.1351V10.5264V10.5229ZM77.53 7.97582C80.4625 7.48422 83.1351 6.1341 83.1351 4.83742V4.52393C83.1351 4.24607 82.9876 3.98246 82.7628 3.75091C82.5345 3.51936 82.6504 3.27356 82.8927 3.27356H85.6637V4.83385C85.6637 5.90255 88.2239 7.38091 91.1879 7.89032L90.605 9.36868C90.475 9.68217 89.5198 9.60023 87.6725 8.89133C86.345 8.38192 85.1931 7.79058 84.3853 7.03537C83.6548 7.75852 82.812 8.25012 81.6144 8.77734C80.027 9.46843 78.3097 9.81397 78.1306 9.38649L77.53 7.97225V7.97582ZM78.6644 15.0755C78.6644 14.7478 78.552 14.4984 78.3237 14.2206C78.1306 13.9748 78.2605 13.7432 78.4853 13.7432H81.2386V16.2903C81.2386 16.6358 81.4493 16.7676 81.7408 16.7676H90.605V18.6236H80.6065C79.3597 18.6236 78.6609 17.8684 78.6609 16.7498V15.072L78.6644 15.0755Z" fill="#0046FF"/>
<path d="M95.8831 4.83749C95.8831 4.24614 95.7848 3.9006 95.56 3.60492C95.3669 3.34131 95.4792 3.14539 95.7391 3.14539H98.3485V5.46445H101.07V7.32042H92.8242V5.46445H95.8866V4.84105L95.8831 4.83749ZM97.0983 7.8797C99.6585 7.8797 100.972 9.53974 100.972 11.9728C100.972 14.4059 99.6585 16.0659 97.0983 16.0659C94.5381 16.0659 93.2246 14.4059 93.2246 11.9728C93.2246 9.53974 94.5381 7.8797 97.0983 7.8797ZM97.0983 9.70361C95.9955 9.70361 95.5284 10.5728 95.5284 11.9728C95.5284 13.3728 95.999 14.242 97.0983 14.242C98.1975 14.242 98.6681 13.3728 98.6681 11.9728C98.6681 10.5728 98.1975 9.70361 97.0983 9.70361ZM101.976 5.15097C101.976 4.55963 101.878 4.21408 101.653 3.91841C101.46 3.6548 101.572 3.45887 101.832 3.45887H104.329V8.8344H105.706V3.36269H108.07V18.8303H105.706V10.8578H104.329V18.385H101.98V5.14741L101.976 5.15097Z" fill="#0046FF"/>
<path d="M113.675 12.8891C111.747 12.8891 110.887 12.3155 110.887 10.7374V5.54357C110.887 5.0021 110.775 4.72068 110.466 4.34307C110.272 4.07946 110.385 3.86572 110.627 3.86572H113.398V6.72626H120.106V3.86572H122.617V12.8891H118.16V15.5181H124.559V17.374H109.117V15.5181H115.533V12.8891H113.668H113.675ZM120.109 11.0474V8.55017H113.402V10.0642C113.402 10.6377 113.563 11.0509 114.325 11.0509H120.109V11.0474Z" fill="#0046FF"/>
<path d="M129.257 4.57444C129.257 3.99734 129.226 3.73729 128.917 3.35969C128.706 3.11389 128.836 2.90015 129.078 2.90015H131.849V4.74186H135.526V6.54796H133.858C134.342 7.10724 134.637 7.79833 134.637 8.61766C134.637 10.6874 133.05 12.2156 130.441 12.2156C127.831 12.2156 126.244 10.6874 126.244 8.61766C126.244 7.78052 126.535 7.08943 127.006 6.54796H125.32V4.74186H129.257V4.578V4.57444ZM131.154 18.7097C129.194 18.7097 128.383 18.2822 128.383 16.6222V14.4029C128.383 14.0751 128.27 13.8258 128.042 13.5479C127.849 13.3021 127.979 13.0706 128.204 13.0706H139.628C139.888 13.0706 140 13.1525 140 13.4339V18.7097H131.154ZM132.207 8.53573C132.207 7.45279 131.558 6.61208 130.441 6.61208C129.324 6.61208 128.674 7.44922 128.674 8.53573C128.674 9.55455 129.306 10.4273 130.441 10.4273C131.575 10.4273 132.207 9.55812 132.207 8.53573ZM137.507 16.9357V14.8303H130.88V16.2588C130.88 16.8502 131.09 16.9321 131.624 16.9321H137.507V16.9357ZM137.444 12.1194V9.55455H135.287V7.69859H137.444V5.03754C137.444 4.464 137.363 4.20039 137.054 3.82279C136.843 3.57699 136.973 3.36325 137.215 3.36325H139.986V12.123H137.444V12.1194Z" fill="#0046FF"/>
<path d="M10.4515 0.39856C4.68142 0.39856 0 5.14713 0 11C0 16.8529 4.68142 21.6015 10.4515 21.6015C16.2217 21.6015 20.9031 16.8529 20.9031 11C20.9031 5.14713 16.2252 0.39856 10.4515 0.39856ZM10.6693 19.66C9.41902 19.8381 7.3821 19.5175 6.00542 18.6305C4.79731 17.8575 4.07736 16.8885 3.61027 15.9053C3.13265 14.9007 2.90789 13.6824 3.41712 13.743C3.65593 13.7715 3.85962 14.2275 4.31969 14.8224C4.63225 15.2285 4.92374 15.5705 5.14148 15.6203C5.23981 15.6417 5.32059 15.5954 5.39083 15.4636C5.52077 15.2107 5.69637 14.7333 6.00893 14.345C6.26179 14.0494 6.56733 13.9104 6.74644 14.6336C6.83072 14.9934 6.90096 15.3674 6.93959 15.6916C6.99579 16.1511 7.02388 16.4254 7.18192 16.5002C7.33293 16.575 7.58579 16.4789 8.0002 16.3221C8.2952 16.2117 8.67449 16.0692 9.15563 15.9303C9.59813 15.802 9.87909 15.8697 9.59462 16.5643C9.46117 16.8921 9.3242 17.1699 8.84658 17.8682C8.76229 17.9928 8.77985 18.114 8.8817 18.2173C9.04325 18.3776 9.40498 18.5735 9.80534 18.7516C10.1249 18.8905 10.5042 19.0152 10.7571 19.0865C11.1504 19.2005 11.0731 19.603 10.6763 19.66H10.6693ZM16.032 17.3801C15.6422 18.0213 14.8274 18.716 13.837 19.1791C13.686 19.2468 13.528 19.2254 13.4859 19.1007C13.4507 18.9938 13.535 18.8692 13.6334 18.7516C14.9222 17.0559 13.9635 15.4992 11.8844 14.2952C10.3462 13.4046 9.36986 12.8916 8.2355 12.2148C4.9132 10.2305 4.27052 8.49927 4.14058 7.47688C3.81397 4.8942 5.92113 2.9563 8.08449 2.48964C8.15121 2.47539 8.3233 2.44689 8.37949 2.59295C8.43568 2.739 8.30574 2.84587 8.23199 2.89218C7.26269 3.43365 6.31096 4.58072 6.41632 5.85603C6.47251 6.56849 6.77453 7.59444 8.678 8.96949C9.82641 9.79951 11.2312 10.4799 14.0653 12.2041C17.061 14.0244 16.7203 16.2473 16.032 17.3766V17.3801ZM16.4991 7.6835C15.8143 8.53133 15.133 8.21784 14.6062 7.0209C14.2795 6.27638 13.8476 6.0947 13.542 6.29063C13.2084 6.50437 13.3419 7.01378 13.7141 7.60156C13.9565 7.98629 13.8476 8.43871 13.5947 8.70588C13.3278 8.9873 12.8958 9.09773 12.4217 8.99443C11.5789 8.80562 10.75 7.66212 11.3541 5.16138C11.5999 4.15324 11.1223 3.7222 10.8168 3.33391C10.6658 3.14154 10.6482 3.02399 10.7009 2.94562C10.7606 2.86012 10.9011 2.853 11.1469 2.90643C11.47 2.97411 11.9511 3.14511 12.3445 3.20566C12.6044 3.24841 12.8994 3.2591 13.2084 3.24485C14.0478 3.21279 14.6694 3.34459 15.3015 3.66164C16.3762 4.20311 16.4886 5.13288 15.888 5.05807C15.6808 5.03313 15.4139 4.87283 15.1927 4.76596C15.0452 4.69471 14.9187 4.66978 14.8239 4.73746C14.7361 4.80158 14.6975 4.93695 14.7607 5.07232C14.8941 5.3573 15.3472 5.50336 15.9583 5.67791C17.0294 5.97715 17.0505 6.98528 16.4921 7.6835H16.4991Z" fill="#0046FF"/>
</svg>
