<svg width="252" height="64" viewBox="0 0 252 64" fill="none" xmlns="http://www.w3.org/2000/svg">
<circle cx="126" cy="32" r="32" fill="#C4C8D4"/>
<path d="M123.238 25.132C123.238 23.6075 124.474 22.3716 125.999 22.3716C127.523 22.3716 128.759 23.6075 128.759 25.132L128.759 44.6288C128.759 46.1534 127.523 47.3892 125.999 47.3892C124.474 47.3892 123.238 46.1534 123.238 44.6288L123.238 25.132Z" fill="white"/>
<ellipse cx="125.999" cy="16.7645" rx="2.7604" ry="2.80353" fill="white"/>
<circle cx="220" cy="32" r="32" fill="#F5002C"/>
<path d="M222.76 36.2184C222.76 37.7429 221.524 38.9788 219.999 38.9788C218.475 38.9788 217.239 37.7429 217.239 36.2184L217.239 16.7215C217.239 15.197 218.475 13.9611 219.999 13.9611C221.524 13.9611 222.76 15.197 222.76 16.7215L222.76 36.2184Z" fill="white"/>
<ellipse cx="219.999" cy="44.5856" rx="2.7604" ry="2.80353" transform="rotate(-180 219.999 44.5856)" fill="white"/>
<circle cx="32" cy="32" r="32" fill="#0055FF"/>
<path d="M19.1875 33.6511L26.9195 41.9377L45.4658 22.062" stroke="white" stroke-width="4" stroke-linecap="round" stroke-linejoin="round"/>
</svg>
