<svg width="241" height="48" viewBox="0 0 241 48" fill="none" xmlns="http://www.w3.org/2000/svg">
<g clip-path="url(#clip0_11124_106814)">
<path d="M18.375 2H8.875V4.5C8.875 5.6 7.975 6.5 6.875 6.5H4.375V20C4.375 21.1 5.275 22 6.375 22H18.375C19.475 22 20.375 21.1 20.375 20V4C20.375 2.9 19.475 2 18.375 2Z" fill="url(#paint0_linear_11124_106814)"/>
<path d="M8.875 4.5V2L4.375 6.5H6.875C7.975 6.5 8.875 5.6 8.875 4.5Z" fill="#5C7AFF"/>
<path d="M12.1809 11.2155C13.3402 11.2155 14.2887 10.267 14.2887 9.10776C14.2887 7.94849 13.3402 7 12.1809 7C11.0215 7 10.073 7.94849 10.073 9.10776C10.073 10.267 11.0215 11.2155 12.1809 11.2155ZM13.3285 11.8244H11.0332C9.55774 11.8244 8.375 13.0188 8.375 14.4826V15.9697C8.375 16.2624 8.60921 16.4966 8.90196 16.4966H15.448C15.7408 16.4966 15.975 16.2624 15.975 15.9697V14.4826C15.975 13.0188 14.7805 11.8244 13.3168 11.8244H13.3285Z" fill="url(#paint1_linear_11124_106814)"/>
</g>
<g clip-path="url(#clip1_11124_106814)">
<path d="M42.335 3.64996H30.115C29.0712 3.64996 28.225 4.49615 28.225 5.53996V19.76C28.225 20.8038 29.0712 21.65 30.115 21.65H42.335C43.3788 21.65 44.225 20.8038 44.225 19.76V5.53996C44.225 4.49615 43.3788 3.64996 42.335 3.64996Z" fill="#A594F9"/>
<path d="M30.8558 2.94995V4.34995" stroke="#6C7781" stroke-width="1.2" stroke-linecap="round" stroke-linejoin="round"/>
<path d="M41.5958 2.94995V4.34995" stroke="#6C7781" stroke-width="1.2" stroke-linecap="round" stroke-linejoin="round"/>
<path d="M38.0159 2.94995V4.34995" stroke="#6C7781" stroke-width="1.2" stroke-linecap="round" stroke-linejoin="round"/>
<path d="M34.4358 2.94995V4.34995" stroke="#6C7781" stroke-width="1.2" stroke-linecap="round" stroke-linejoin="round"/>
<path d="M36.225 13V8C33.4583 8 31.225 10.2333 31.225 13C31.225 15.7667 33.4583 18 36.225 18C38.9916 18 41.225 15.7667 41.225 13H36.225Z" fill="#7371FC"/>
<path d="M36.225 8V13H41.225C41.225 10.2333 38.9916 8 36.225 8Z" fill="white" fill-opacity="0.8"/>
</g>
<g clip-path="url(#clip2_11124_106814)">
<path d="M65.075 2H58.075V7C58.075 8.1 57.175 9 56.075 9H51.075V18C51.075 19.1 51.975 20 53.075 20H65.075C66.175 20 67.075 19.1 67.075 18V4C67.075 2.9 66.175 2 65.075 2Z" fill="url(#paint2_linear_11124_106814)"/>
<path d="M58.075 7V2L51.075 9H56.075C57.175 9 58.075 8.1 58.075 7Z" fill="#009F83"/>
<path d="M69.9142 21.0499L67.9342 19.0699C69.7242 16.8899 69.5942 13.6599 67.5642 11.6299C65.3942 9.45994 61.8742 9.45994 59.7142 11.6299C57.5442 13.7999 57.5442 17.3199 59.7142 19.4799C61.7542 21.5199 64.9742 21.6399 67.1542 19.8499L69.1342 21.8299C69.3542 22.0499 69.7042 22.0499 69.9142 21.8299C70.1342 21.6099 70.1342 21.2599 69.9142 21.0399V21.0499Z" fill="#29443F"/>
<path d="M63.6257 20.05C66.111 20.05 68.1257 18.0353 68.1257 15.55C68.1257 13.0648 66.111 11.05 63.6257 11.05C61.1405 11.05 59.1257 13.0648 59.1257 15.55C59.1257 18.0353 61.1405 20.05 63.6257 20.05Z" fill="white"/>
<path d="M61.3757 15.29L62.9557 16.95L65.8757 14.15" stroke="#009F83" stroke-width="1.2" stroke-linecap="round" stroke-linejoin="round"/>
</g>
<g clip-path="url(#clip3_11124_106814)">
<path d="M91.055 3.30005H76.795C75.765 3.30005 74.925 4.14005 74.925 5.17005V15.43C74.925 16.46 75.765 17.3 76.795 17.3H78.925V20.7L83.175 17.3H91.055C92.085 17.3 92.925 16.46 92.925 15.43V5.17005C92.925 4.14005 92.085 3.30005 91.055 3.30005Z" fill="url(#paint3_linear_11124_106814)"/>
<path d="M84.925 7.23004C84.925 6.67776 84.4773 6.23004 83.925 6.23004C83.3728 6.23004 82.925 6.67776 82.925 7.23004C82.925 7.78233 83.3728 8.23004 83.925 8.23004C84.4773 8.23004 84.925 7.78233 84.925 7.23004Z" fill="white"/>
<path d="M84.925 9.80005C84.925 9.24776 84.4773 8.80005 83.925 8.80005C83.3728 8.80005 82.925 9.24776 82.925 9.80005V13.3C82.925 13.8523 83.3728 14.3 83.925 14.3C84.4773 14.3 84.925 13.8523 84.925 13.3V9.80005Z" fill="white"/>
</g>
<g clip-path="url(#clip4_11124_106814)">
<path d="M17.4004 28.4H6.40039C5.29582 28.4 4.40039 29.2955 4.40039 30.4V41.4C4.40039 42.5046 5.29582 43.4 6.40039 43.4H17.4004C18.505 43.4 19.4004 42.5046 19.4004 41.4V30.4C19.4004 29.2955 18.505 28.4 17.4004 28.4Z" fill="#D6D9E1"/>
<path d="M11.9004 35.9H19.4004V41.53C19.4004 42.56 18.5604 43.4 17.5304 43.4H11.9104V35.9H11.9004Z" fill="#386DFF"/>
<path d="M14.4297 33.3701L16.8697 30.9301" stroke="white" stroke-width="0.8" stroke-linecap="round" stroke-linejoin="round"/>
<path d="M16.8697 33.3701L14.4297 30.9301" stroke="white" stroke-width="0.8" stroke-linecap="round" stroke-linejoin="round"/>
<path d="M8.15039 33.8701V30.4301" stroke="white" stroke-width="0.8" stroke-linecap="round" stroke-linejoin="round"/>
<path d="M9.86969 32.15H6.42969" stroke="white" stroke-width="0.8" stroke-linecap="round" stroke-linejoin="round"/>
<path d="M9.86969 39.65H6.42969" stroke="white" stroke-width="0.8" stroke-linecap="round" stroke-linejoin="round"/>
<path d="M17.3697 40.59H13.9297" stroke="white" stroke-width="0.8" stroke-linecap="round" stroke-linejoin="round"/>
<path d="M17.3697 38.71H13.9297" stroke="white" stroke-width="0.8" stroke-linecap="round" stroke-linejoin="round"/>
<path d="M11.9004 28.4V43.4" stroke="white" stroke-width="0.8" stroke-linecap="round" stroke-linejoin="round"/>
<path d="M4.40039 35.9H19.4004" stroke="white" stroke-width="0.8" stroke-linecap="round" stroke-linejoin="round"/>
</g>
<g clip-path="url(#clip5_11124_106814)">
<path d="M42.9094 41.89L40.5894 39.57C42.6794 37.02 42.5294 33.26 40.1494 30.89C37.6294 28.37 33.5294 28.37 30.9994 30.9C28.4694 33.43 28.4694 37.53 30.9994 40.06C33.3794 42.44 37.1394 42.58 39.6794 40.49L41.9994 42.81C42.2494 43.06 42.6594 43.06 42.9094 42.81C43.1594 42.56 43.1594 42.15 42.9094 41.89Z" fill="#A8ADBD"/>
<path d="M35.5804 40.73C38.4799 40.73 40.8304 38.3795 40.8304 35.48C40.8304 32.5805 38.4799 30.23 35.5804 30.23C32.6809 30.23 30.3304 32.5805 30.3304 35.48C30.3304 38.3795 32.6809 40.73 35.5804 40.73Z" fill="#E2EAFF"/>
<path d="M33.0804 35.2L34.8304 36.98L38.0804 33.98" stroke="#386DFF" stroke-width="1.2" stroke-linecap="round" stroke-linejoin="round"/>
</g>
<g clip-path="url(#clip6_11124_106814)">
<path d="M67.2 36C67.2 32.134 64.0659 29 60.2 29C56.334 29 53.2 32.134 53.2 36C53.2 39.866 56.334 43 60.2 43C64.0659 43 67.2 39.866 67.2 36Z" fill="#A8AEBD"/>
<path d="M65.7 35.96C65.7 32.9225 63.2375 30.46 60.2 30.46C57.1624 30.46 54.7 32.9225 54.7 35.96C54.7 38.9976 57.1624 41.46 60.2 41.46C63.2375 41.46 65.7 38.9976 65.7 35.96Z" fill="#E2EAFF"/>
<path d="M65.7 35.96C65.7 32.92 63.24 30.46 60.2 30.46V36L64.07 39.87C65.08 38.87 65.7 37.49 65.7 35.96Z" fill="#ACC2FF"/>
<path d="M60.2 36V32.49V36ZM60.2 36L62.7 38.49" stroke="#386DFF" stroke-width="1.2" stroke-linecap="round" stroke-linejoin="round"/>
</g>
<g clip-path="url(#clip7_11124_106814)">
<path d="M83.3 28V32C83.3 33.1 82.4 34 81.3 34H77.3" fill="#A8BFFF"/>
<path d="M77.3 34H81.3C82.4 34 83.3 33.1 83.3 32V28" fill="#A8ADBD"/>
<path d="M86.6223 28H83.2951V32.1227C83.2951 32.3429 83.2451 32.553 83.1452 32.7432C82.8454 33.4736 82.136 33.994 81.2967 33.994H77.3V40.4983C77.3 41.8793 78.4891 43 79.9678 43H86.6323C88.101 43 89.3 41.8793 89.3 40.4983V30.5017C89.3 29.1207 88.111 28 86.6323 28H86.6223Z" fill="#E2E4E9"/>
<path d="M87.8 43C90.2853 43 92.3 40.9853 92.3 38.5C92.3 36.0147 90.2853 34 87.8 34C85.3148 34 83.3 36.0147 83.3 38.5C83.3 40.9853 85.3148 43 87.8 43Z" fill="#386DFF"/>
<path d="M85.8 38.27L87.2 39.75L89.8 37.25" stroke="white" stroke-width="1.2" stroke-linecap="round" stroke-linejoin="round"/>
</g>
<g clip-path="url(#clip8_11124_106814)">
<path d="M104.4 34V33C104.4 30.51 106.41 28.5 108.9 28.5C111.39 28.5 113.4 30.51 113.4 33V34" stroke="#A8ADBD" stroke-linecap="round" stroke-linejoin="round"/>
<path d="M113.4 38.62V40C113.4 41.38 112.28 42.5 110.9 42.5H108.9" stroke="#A8ADBD" stroke-linecap="round" stroke-linejoin="round"/>
<path d="M108.9 42.5C109.59 42.5 110.15 41.9404 110.15 41.25C110.15 40.5596 109.59 40 108.9 40C108.21 40 107.65 40.5596 107.65 41.25C107.65 41.9404 108.21 42.5 108.9 42.5Z" fill="#A8ADBD" stroke="#A8ADBD" stroke-linecap="round" stroke-linejoin="round"/>
<path d="M106.721 37.23C107.052 37.23 107.321 36.9614 107.321 36.63C107.321 36.2987 107.052 36.03 106.721 36.03C106.389 36.03 106.121 36.2987 106.121 36.63C106.121 36.9614 106.389 37.23 106.721 37.23Z" fill="#A8ADBD"/>
<path d="M108.9 37.23C109.232 37.23 109.5 36.9614 109.5 36.63C109.5 36.2987 109.232 36.03 108.9 36.03C108.569 36.03 108.3 36.2987 108.3 36.63C108.3 36.9614 108.569 37.23 108.9 37.23Z" fill="#A8ADBD"/>
<path d="M111.08 37.23C111.411 37.23 111.68 36.9614 111.68 36.63C111.68 36.2987 111.411 36.03 111.08 36.03C110.749 36.03 110.48 36.2987 110.48 36.63C110.48 36.9614 110.749 37.23 111.08 37.23Z" fill="#A8ADBD"/>
<path d="M115.9 36.75C115.9 36.0596 115.34 35.5 114.65 35.5C113.96 35.5 113.4 36.0596 113.4 36.75V39.25C113.4 39.9404 113.96 40.5 114.65 40.5C115.34 40.5 115.9 39.9404 115.9 39.25V36.75Z" fill="#386DFF" stroke="#386DFF" stroke-miterlimit="10"/>
<path d="M104.4 36.75C104.4 36.0596 103.84 35.5 103.15 35.5C102.46 35.5 101.9 36.0596 101.9 36.75V39.25C101.9 39.9404 102.46 40.5 103.15 40.5C103.84 40.5 104.4 39.9404 104.4 39.25V36.75Z" fill="#386DFF" stroke="#386DFF" stroke-miterlimit="10"/>
</g>
<g clip-path="url(#clip9_11124_106814)">
<path d="M137.5 29H127.5C126.4 29 125.5 29.9 125.5 31V41C125.5 42.1 126.4 43 127.5 43H135.5V39.89C135.5 39.4 135.9 39 136.39 39H139.5V31C139.5 29.9 138.6 29 137.5 29Z" fill="#E2E4E9"/>
<path d="M135.5 39.89V43L139.5 39H136.39C135.9 39 135.5 39.4 135.5 39.89Z" fill="#A8ADBD"/>
<path d="M132.4 32.0152L129.19 33.1711C129.07 33.2117 129 33.3232 129 33.455V35.6046C129 36.2129 129.15 36.8112 129.44 37.3384L129.5 37.4601C129.87 38.1394 130.38 38.7174 130.99 39.1736L131.8 39.7719C132.21 40.076 132.77 40.076 133.18 39.7719L133.99 39.1736C134.6 38.7174 135.11 38.1293 135.48 37.4601L135.54 37.3384C135.83 36.8112 135.98 36.2129 135.98 35.6046V33.455C135.98 33.3333 135.9 33.2218 135.79 33.1711L132.58 32.0152C132.52 31.9949 132.45 31.9949 132.38 32.0152H132.4Z" fill="#386DFF"/>
<path d="M131 35.83L132.05 36.94L134 35.06" stroke="white" stroke-linecap="round" stroke-linejoin="round"/>
</g>
<g clip-path="url(#clip10_11124_106814)">
<path d="M149.6 33.6H163.6V41.6C163.6 42.7 162.7 43.6 161.6 43.6H151.6C150.5 43.6 149.6 42.7 149.6 41.6V33.6Z" fill="#E2E4E9"/>
<path d="M151.6 30.1H161.6C162.7 30.1 163.6 31 163.6 32.1V33.6H149.6V32.1C149.6 31 150.5 30.1 151.6 30.1Z" fill="#386DFF"/>
<path d="M152.6 29.6V30.6" stroke="#7E8393" stroke-width="1.2" stroke-linecap="round" stroke-linejoin="round"/>
<path d="M160.6 29.6V30.6" stroke="#7E8393" stroke-width="1.2" stroke-linecap="round" stroke-linejoin="round"/>
<path d="M153.7 36.1H151.5C151.279 36.1 151.1 36.2791 151.1 36.5V37.7C151.1 37.9209 151.279 38.1 151.5 38.1H153.7C153.921 38.1 154.1 37.9209 154.1 37.7V36.5C154.1 36.2791 153.921 36.1 153.7 36.1Z" fill="#A8ADBD"/>
<path d="M157.7 36.1H155.5C155.279 36.1 155.1 36.2791 155.1 36.5V37.7C155.1 37.9209 155.279 38.1 155.5 38.1H157.7C157.921 38.1 158.1 37.9209 158.1 37.7V36.5C158.1 36.2791 157.921 36.1 157.7 36.1Z" fill="#A8ADBD"/>
<path d="M161.7 36.1H159.5C159.279 36.1 159.1 36.2791 159.1 36.5V37.7C159.1 37.9209 159.279 38.1 159.5 38.1H161.7C161.921 38.1 162.1 37.9209 162.1 37.7V36.5C162.1 36.2791 161.921 36.1 161.7 36.1Z" fill="#A8ADBD"/>
<path d="M153.7 39.1H151.5C151.279 39.1 151.1 39.2791 151.1 39.5V40.7C151.1 40.9209 151.279 41.1 151.5 41.1H153.7C153.921 41.1 154.1 40.9209 154.1 40.7V39.5C154.1 39.2791 153.921 39.1 153.7 39.1Z" fill="#386DFF"/>
<path d="M157.7 39.1H155.5C155.279 39.1 155.1 39.2791 155.1 39.5V40.7C155.1 40.9209 155.279 41.1 155.5 41.1H157.7C157.921 41.1 158.1 40.9209 158.1 40.7V39.5C158.1 39.2791 157.921 39.1 157.7 39.1Z" fill="#A8ADBD"/>
<path d="M161.7 39.1H159.5C159.279 39.1 159.1 39.2791 159.1 39.5V40.7C159.1 40.9209 159.279 41.1 159.5 41.1H161.7C161.921 41.1 162.1 40.9209 162.1 40.7V39.5C162.1 39.2791 161.921 39.1 161.7 39.1Z" fill="#A8ADBD"/>
</g>
<g clip-path="url(#clip11_11124_106814)">
<path d="M181.2 30.51L179.69 33.94L182.37 33.17L181.2 30.51Z" fill="#ACC2FF"/>
<path d="M186.43 42.4L184.36 43H186.7L186.43 42.4Z" fill="#386DFF"/>
<path d="M183.39 35.48L182.37 33.17L179.69 33.94L178.38 36.91L183.39 35.48Z" fill="#386DFF"/>
<path d="M183.389 35.48L178.379 36.91L177.069 39.89L184.399 37.79L183.389 35.48Z" fill="#ACC2FF"/>
<path d="M177.07 39.89L175.76 42.86L185.42 40.1L184.4 37.79L177.07 39.89Z" fill="#386DFF"/>
<path d="M185.42 40.1L175.76 42.86L175.7 43H181.2H184.36L186.43 42.4L185.42 40.1Z" fill="#ACC2FF"/>
<path d="M181.21 32C182.038 32 182.71 31.3284 182.71 30.5C182.71 29.6716 182.038 29 181.21 29C180.382 29 179.71 29.6716 179.71 30.5C179.71 31.3284 180.382 32 181.21 32Z" fill="#386DFF"/>
</g>
<defs>
<linearGradient id="paint0_linear_11124_106814" x1="12.375" y1="2" x2="12.375" y2="22" gradientUnits="userSpaceOnUse">
<stop stop-color="#7CA9FF"/>
<stop offset="1" stop-color="#6398FF"/>
</linearGradient>
<linearGradient id="paint1_linear_11124_106814" x1="8.66776" y1="6.69553" x2="15.6935" y2="16.0637" gradientUnits="userSpaceOnUse">
<stop stop-color="#F2F9FF"/>
<stop offset="1" stop-color="#DDEEFF"/>
</linearGradient>
<linearGradient id="paint2_linear_11124_106814" x1="51.165" y1="3.09" x2="66.985" y2="18.91" gradientUnits="userSpaceOnUse">
<stop stop-color="#61D9B5"/>
<stop offset="1" stop-color="#29BF93"/>
</linearGradient>
<linearGradient id="paint3_linear_11124_106814" x1="74.55" y1="3" x2="92.55" y2="21" gradientUnits="userSpaceOnUse">
<stop stop-color="#FFD576"/>
<stop offset="1" stop-color="#EC9B3C"/>
</linearGradient>
<clipPath id="clip0_11124_106814">
<rect width="16" height="20" fill="white" transform="translate(4.375 2)"/>
</clipPath>
<clipPath id="clip1_11124_106814">
<rect width="16" height="19.3" fill="white" transform="translate(28.225 2.34998)"/>
</clipPath>
<clipPath id="clip2_11124_106814">
<rect width="19" height="20" fill="white" transform="translate(51.075 2)"/>
</clipPath>
<clipPath id="clip3_11124_106814">
<rect width="18" height="17.4" fill="white" transform="translate(74.925 3.30005)"/>
</clipPath>
<clipPath id="clip4_11124_106814">
<rect width="15.8" height="15.8" fill="white" transform="translate(4 28)"/>
</clipPath>
<clipPath id="clip5_11124_106814">
<rect width="14" height="14" fill="white" transform="translate(29.1 29)"/>
</clipPath>
<clipPath id="clip6_11124_106814">
<rect width="14" height="14" fill="white" transform="translate(53.2 29)"/>
</clipPath>
<clipPath id="clip7_11124_106814">
<rect width="15" height="15" fill="white" transform="translate(77.3 28)"/>
</clipPath>
<clipPath id="clip8_11124_106814">
<rect width="15" height="15" fill="white" transform="translate(101.4 28)"/>
</clipPath>
<clipPath id="clip9_11124_106814">
<rect width="14" height="14" fill="white" transform="translate(125.5 29)"/>
</clipPath>
<clipPath id="clip10_11124_106814">
<rect width="14" height="14.6" fill="white" transform="translate(149.6 29)"/>
</clipPath>
<clipPath id="clip11_11124_106814">
<rect width="11" height="14" fill="white" transform="translate(175.7 29)"/>
</clipPath>
</defs>
</svg>
