<svg width="28" height="28" viewBox="0 0 28 28" fill="none" xmlns="http://www.w3.org/2000/svg">
<circle cx="14" cy="14" r="14" fill="#0046FF"/>
<path d="M17.4816 15.721C17.3458 15.5911 17.1628 15.5114 16.9561 15.5114C16.7495 15.5114 16.5606 15.5911 16.4248 15.7269L15.9053 16.2492C15.5777 16.5738 15.0464 16.5738 14.7217 16.2492L13.237 14.7648L11.7523 13.2804C11.4246 12.9528 11.4246 12.4217 11.7523 12.0941L12.2718 11.5747C12.4075 11.436 12.4872 11.2471 12.4872 11.0435C12.4872 10.8399 12.4075 10.6569 12.2777 10.5211L9.59456 7.27789C9.45288 7.10968 9.24035 7.00049 9.00422 7.00049C8.75332 7.00049 8.53194 7.12148 8.39321 7.3074L8.34598 7.36938C7.76449 8.15732 7 9.41153 7 10.589C7 12.2033 8.21611 14.2248 10.4092 16.4263L10.9819 16.9988C10.9819 16.9988 10.9878 17.0047 10.9907 17.0077L10.9996 17.0195C13.2016 19.2121 15.7991 21.0005 17.4107 21.0005C18.5884 21.0005 19.84 20.2362 20.631 19.6518L20.693 19.6076C20.879 19.4659 21 19.2475 21 18.9967C21 18.7606 20.8908 18.5481 20.7225 18.4094L17.4786 15.7239L17.4816 15.721Z" fill="white"/>
</svg>
