<svg width="240" height="24" viewBox="0 0 240 24" fill="none" xmlns="http://www.w3.org/2000/svg">
<path d="M67.6174 16.3511C67.3259 16.3511 67.0582 16.155 66.98 15.8595L64.8254 7.69965C64.7737 7.51148 64.3351 5.78622 65.1342 4.7394C65.3912 4.4015 65.8842 4 66.768 4C67.9274 4 68.7676 4.66652 68.9623 5.73852C69.1585 6.82244 68.6297 7.96201 67.783 8.27871C67.4411 8.40724 67.0622 8.23366 66.9336 7.89311C66.8051 7.55124 66.9787 7.17094 67.3192 7.04373C67.518 6.9682 67.7525 6.45936 67.6638 5.97306C67.5842 5.5318 67.2901 5.31714 66.768 5.31714C66.3943 5.31714 66.2552 5.44302 66.1823 5.53843C65.8603 5.95981 65.9875 6.94567 66.1002 7.35512L68.2561 15.5203C68.3488 15.8728 68.1395 16.2332 67.787 16.3273C67.73 16.3419 67.6744 16.3498 67.6174 16.3498V16.3511Z" fill="white"/>
<path d="M58.3492 16.3487H52.3372C52.1053 16.3487 51.892 16.2255 51.7741 16.0267C51.6561 15.8266 51.6535 15.5802 51.7661 15.3774L55.8381 8.07353C55.9534 7.86681 56.172 7.73828 56.4079 7.73828H65.5868C65.8505 7.73828 66.0877 7.89729 66.1897 8.13978C66.2904 8.3836 66.2361 8.66319 66.0506 8.85136L58.8116 16.1552C58.6897 16.2785 58.5214 16.3487 58.3478 16.3487H58.3492ZM53.4503 15.0422H58.0775L64.0219 9.04482H56.7948L53.4503 15.0422Z" fill="#B2B2B2"/>
<path d="M58.023 16.0899C57.7196 16.0899 57.4479 15.8805 57.379 15.5717L55.8128 8.45602C55.8022 8.40965 55.7969 8.36194 55.7969 8.31424V5.57396C55.7969 5.20956 56.0924 4.91406 56.4568 4.91406C56.8212 4.91406 57.1167 5.20956 57.1167 5.57396V8.24401L58.667 15.2882C58.7452 15.6446 58.5199 15.9958 58.1648 16.074C58.1171 16.0846 58.0694 16.0899 58.0217 16.0899H58.023Z" fill="#B2B2B2"/>
<path d="M67.322 7.04764C66.9801 7.17484 66.8078 7.55514 66.9364 7.89702C67.0636 8.23756 67.4439 8.41115 67.7857 8.28262C68.6325 7.9646 69.1612 6.82502 68.9651 5.74242C68.7703 4.6691 67.9302 4.00391 66.7707 4.00391C65.8869 4.00391 65.394 4.40673 65.1369 4.74331C64.3379 5.79013 64.7765 7.51539 64.8282 7.70355L64.8388 7.74463H57.1175V5.57679C57.1175 5.21239 56.822 4.91689 56.4576 4.91689C56.0932 4.91689 55.7977 5.21239 55.7977 5.57679V8.15408L51.7681 15.3824C51.6554 15.5852 51.6581 15.8316 51.776 16.0317C51.8926 16.2318 52.1073 16.3537 52.3392 16.3537H58.3511C58.526 16.3537 58.693 16.2835 58.8149 16.1603L65.3277 9.58916L66.9841 15.8621C67.0623 16.1576 67.3286 16.3537 67.6214 16.3537C67.6771 16.3537 67.7341 16.3471 67.791 16.3312C68.1435 16.2385 68.3529 15.878 68.2601 15.5242L66.1042 7.35903C65.9916 6.94825 65.8644 5.96371 66.1864 5.54233C66.2592 5.44693 66.3984 5.32104 66.7721 5.32104C67.2955 5.32104 67.5883 5.53571 67.6678 5.97696C67.7566 6.46327 67.5221 6.97211 67.3233 7.04764H67.322ZM56.1833 10.1444L57.2619 15.0472H53.4496L56.1833 10.1444ZM58.5154 14.6046L57.2924 9.04984H64.0198L58.5154 14.6046Z" fill="#AEB8C5"/>
<path d="M52.37 16.5962C51.836 16.5962 51.4014 16.1616 51.4014 15.6262C51.4014 15.0909 51.836 14.6562 52.37 14.6562C52.904 14.6562 53.34 15.0909 53.34 15.6262C53.34 16.1616 52.9053 16.5962 52.37 16.5962Z" fill="#66759C"/>
<path d="M52.3807 20.074C49.9651 20.074 48 18.1089 48 15.6932C48 13.2776 49.9651 11.3125 52.3807 11.3125C54.7964 11.3125 56.7615 13.2776 56.7615 15.6932C56.7615 18.1089 54.7964 20.074 52.3807 20.074ZM52.3807 12.6323C50.6926 12.6323 49.3198 14.0051 49.3198 15.6932C49.3198 17.3814 50.6926 18.7542 52.3807 18.7542C54.0689 18.7542 55.4417 17.3814 55.4417 15.6932C55.4417 14.0051 54.0676 12.6323 52.3807 12.6323Z" fill="#66759C"/>
<path d="M67.619 20.074C65.2034 20.074 63.2383 18.1089 63.2383 15.6932C63.2383 13.2776 65.2034 11.3125 67.619 11.3125C70.0347 11.3125 71.9998 13.2776 71.9998 15.6932C71.9998 18.1089 70.0347 20.074 67.619 20.074ZM67.619 12.6323C65.9309 12.6323 64.5581 14.0051 64.5581 15.6932C64.5581 17.3814 65.9309 18.7542 67.619 18.7542C69.3072 18.7542 70.68 17.3814 70.68 15.6932C70.68 14.0051 69.3072 12.6323 67.619 12.6323Z" fill="#66759C"/>
<path d="M67.619 16.5962C67.085 16.5962 66.6504 16.1616 66.6504 15.6262C66.6504 15.0909 67.085 14.6562 67.619 14.6562C68.153 14.6562 68.589 15.0909 68.589 15.6262C68.589 16.1616 68.1544 16.5962 67.619 16.5962Z" fill="#66759C"/>
<mask id="mask0_13698_123739" style="mask-type:luminance" maskUnits="userSpaceOnUse" x="66" y="14" width="3" height="3">
<path d="M67.6181 16.5962C67.084 16.5962 66.6494 16.1616 66.6494 15.6262C66.6494 15.0909 67.084 14.6562 67.6181 14.6562C68.1521 14.6562 68.588 15.0909 68.588 15.6262" fill="white"/>
</mask>
<g mask="url(#mask0_13698_123739)">
<path d="M67.618 20.074C65.2024 20.074 63.2373 18.1089 63.2373 15.6932C63.2373 13.2776 65.2024 11.3125 67.618 11.3125C70.0337 11.3125 71.9988 13.2776 71.9988 15.6932C71.9988 18.1089 70.0337 20.074 67.618 20.074ZM67.618 12.6323C65.9299 12.6323 64.5571 14.0051 64.5571 15.6932C64.5571 17.3814 65.9299 18.7542 67.618 18.7542C69.3062 18.7542 70.679 17.3814 70.679 15.6932C70.679 14.0051 69.3062 12.6323 67.618 12.6323Z" fill="#9B9B9B"/>
</g>
<rect x="53.7773" y="4.88672" width="5.33333" height="1.33333" rx="0.666667" fill="#FF696A"/>
<g clip-path="url(#clip0_13698_123739)">
<rect x="99.2676" y="6.65234" width="17.4071" height="12.5718" fill="#536373"/>
<rect x="106.521" y="8.10547" width="2.90118" height="10.1541" fill="#B6BECF"/>
<rect x="99.2676" y="8.10547" width="2.90118" height="10.1541" fill="#B6BECF"/>
<rect x="113.774" y="8.10547" width="2.90118" height="10.1541" fill="#B6BECF"/>
<rect x="98.3008" y="18.2617" width="19.3412" height="1.93412" fill="url(#paint0_linear_13698_123739)"/>
<rect x="97.334" y="20.1914" width="21.2753" height="2.41765" rx="0.666667" fill="url(#paint1_linear_13698_123739)"/>
<path d="M97.334 5.54755C97.334 5.26458 97.5126 5.01244 97.7796 4.91861L107.751 1.41365C107.894 1.36335 108.05 1.36335 108.193 1.41365L118.164 4.91861C118.431 5.01244 118.609 5.26458 118.609 5.54755V7.68046C118.609 8.04865 118.311 8.34712 117.943 8.34712H98.0007C97.6325 8.34712 97.334 8.04865 97.334 7.68046V5.54755Z" fill="#E1E5EE"/>
<g opacity="0.4">
<path d="M105.971 4.23828L106.971 6.55676L107.971 4.73824" stroke="#6A7E92" stroke-linecap="round" stroke-linejoin="round"/>
<path d="M109.97 4.23828L108.97 6.55676L107.97 4.73824" stroke="#6A7E92" stroke-linecap="round" stroke-linejoin="round"/>
<path d="M105.553 5.23047H106.388" stroke="#6A7E92" stroke-linecap="round" stroke-linejoin="round"/>
<path d="M109.554 5.23047H110.389" stroke="#6A7E92" stroke-linecap="round" stroke-linejoin="round"/>
</g>
<path d="M110.873 15.9035V16.7571C110.873 17.0561 111.098 17.2974 111.377 17.2974H118.587C118.868 17.2974 119.093 17.0561 119.093 16.7571V15.9035C119.093 15.6046 118.868 15.3633 118.587 15.3633H111.379C111.1 15.3633 110.875 15.6046 110.875 15.9035H110.873Z" fill="#FDDF7B"/>
<path style="mix-blend-mode:multiply" d="M110.873 16.8125V16.8863C110.873 17.113 111.098 17.296 111.377 17.296H118.587C118.868 17.296 119.093 17.113 119.093 16.8863V16.8125H110.875H110.873Z" fill="url(#paint2_linear_13698_123739)" fill-opacity="0.5"/>
<path d="M110.873 17.8371V18.6907C110.873 18.9897 111.098 19.231 111.377 19.231H118.587C118.868 19.231 119.093 18.9897 119.093 18.6907V17.8371C119.093 17.5382 118.868 17.2969 118.587 17.2969H111.378C111.1 17.2969 110.874 17.5382 110.874 17.8371H110.873Z" fill="#FDDF7B"/>
<path style="mix-blend-mode:multiply" d="M110.873 18.7461V18.8199C110.873 19.0466 111.098 19.2296 111.377 19.2296H118.587C118.868 19.2296 119.093 19.0466 119.093 18.8199V18.7461H110.874H110.873Z" fill="url(#paint3_linear_13698_123739)" fill-opacity="0.5"/>
<path d="M110.873 19.7707V20.6243C110.873 20.9233 111.098 21.1646 111.377 21.1646H118.587C118.868 21.1646 119.093 20.9233 119.093 20.6243V19.7707C119.093 19.4718 118.868 19.2305 118.587 19.2305H111.379C111.1 19.2305 110.875 19.4718 110.875 19.7707H110.873Z" fill="#FDDF7B"/>
<path style="mix-blend-mode:multiply" d="M110.873 20.6797V20.7534C110.873 20.9802 111.098 21.1632 111.377 21.1632H118.587C118.868 21.1632 119.093 20.9802 119.093 20.7534V20.6797H110.875H110.873Z" fill="url(#paint4_linear_13698_123739)" fill-opacity="0.5"/>
<path d="M110.873 21.7043V22.5579C110.873 22.8569 111.098 23.0982 111.377 23.0982H118.587C118.868 23.0982 119.093 22.8569 119.093 22.5579V21.7043C119.093 21.4054 118.868 21.1641 118.587 21.1641H111.378C111.1 21.1641 110.874 21.4054 110.874 21.7043H110.873Z" fill="#FDDF7B"/>
<path style="mix-blend-mode:multiply" d="M110.873 22.6133V22.687C110.873 22.9138 111.098 23.0968 111.377 23.0968H118.587C118.868 23.0968 119.093 22.9138 119.093 22.687V22.6133H110.874H110.873Z" fill="url(#paint5_linear_13698_123739)" fill-opacity="0.5"/>
<g filter="url(#filter0_d_13698_123739)">
<path d="M110.873 23.0975C112.742 23.0975 114.258 21.5822 114.258 19.7128C114.258 17.8435 112.742 16.3281 110.873 16.3281C109.004 16.3281 107.488 17.8435 107.488 19.7128C107.488 21.5822 109.004 23.0975 110.873 23.0975Z" fill="url(#paint6_linear_13698_123739)"/>
<circle cx="110.873" cy="19.7137" r="2.56785" stroke="url(#paint7_linear_13698_123739)" stroke-width="0.666667"/>
</g>
</g>
<rect width="24" height="24" fill="white"/>
<path d="M7.58336 15.4581C9.74641 15.4581 11.4999 13.7046 11.4999 11.5415C11.4999 9.3785 9.74641 7.625 7.58336 7.625C5.42031 7.625 3.66681 9.3785 3.66681 11.5415C3.66681 13.7046 5.42031 15.4581 7.58336 15.4581Z" fill="url(#paint8_linear_13698_123739)"/>
<path d="M8.27699 15.8267H6.88702V18.0155H8.27699V15.8267Z" fill="url(#paint9_linear_13698_123739)"/>
<path d="M8.29269 15.896C8.28437 15.9018 8.2745 15.9048 8.2644 15.9048H6.90193C6.89183 15.9048 6.88196 15.9018 6.87363 15.896L4.21477 14.0712C4.17426 14.0434 4.19394 13.98 4.24306 13.98H10.9233C10.9724 13.98 10.9921 14.0434 10.9516 14.0712L8.29269 15.896Z" fill="url(#paint10_linear_13698_123739)"/>
<path d="M18.6662 2.625L13.9323 17.1766H8.12691C6.91246 17.1766 5.9259 18.1574 5.9259 19.3647V19.8119C5.9259 21.0192 6.91246 22 8.12691 22H12.421C13.5215 22 14.496 21.2875 14.8229 20.2441L20.2039 2.9375L19.6037 2.625H18.6662Z" fill="url(#paint11_linear_13698_123739)"/>
<path d="M16.7204 7.385L18.1736 2.41799C18.2453 2.17086 18.4631 2 18.7068 2H19.9823C20.3578 2 20.6272 2.38748 20.5154 2.76885L19.0622 7.73586C18.9905 7.98299 18.7727 8.15385 18.529 8.15385H17.2535C16.878 8.15385 16.6086 7.76637 16.7204 7.385Z" fill="#262C6A"/>
<rect width="24" height="24" transform="translate(24.0001)" fill="white"/>
<g clip-path="url(#clip1_13698_123739)">
<path d="M28.1442 6.65155H28.5029C28.5194 5.23082 29.6177 4.08319 30.9725 4.08319C32.3274 4.08319 33.4256 5.23082 33.4422 6.65155H35.1088C36.2926 6.65155 37.2501 7.66263 37.2501 8.90904C37.2501 10.1554 36.2899 11.1665 35.1088 11.1665H28.1442C26.9604 11.1665 26.0001 10.1554 26.0001 8.90904C26.0001 7.66263 26.9604 6.65155 28.1442 6.65155Z" fill="url(#paint12_linear_13698_123739)"/>
<path d="M41.0001 9.5C39.0355 13.6222 37.9647 15.9334 36.0001 20.0556H26.0001L30.8044 9.97481C30.9427 9.68474 31.2354 9.5 31.5567 9.5H41.0001Z" fill="url(#paint13_linear_13698_123739)"/>
<path d="M41.0365 20.0556H36.0001L40.9549 9.5H41.0453L46.0001 20.0556H41.0365Z" fill="url(#paint14_linear_13698_123739)"/>
<path opacity="0.5" d="M39.3334 20.0556H41.4536H43.0834L41.2084 16.2556L39.3334 20.0556Z" fill="#1A6930"/>
</g>
<rect width="24" height="24" transform="translate(72.0001)" fill="white"/>
<g clip-path="url(#clip2_13698_123739)">
<g filter="url(#filter1_f_13698_123739)">
<ellipse cx="84.0001" cy="19.1367" rx="6.92305" ry="0.769228" fill="#B8CED0"/>
</g>
<path d="M79.8625 12.901L78.8805 20.6753L74.0001 19.0894L75.6975 11.6525L79.8625 12.901Z" fill="white"/>
<path d="M78.8807 20.6752L84.0006 19.0893V11.4445L79.8046 12.9009L78.8807 20.6752Z" fill="white"/>
<path d="M79.8103 13.3137L76.0161 12.0683L74.4516 18.8287L78.9333 20.2624L79.8103 13.3137Z" fill="url(#paint15_linear_13698_123739)"/>
<path d="M79.8094 13.3135L83.9999 11.9316V18.6991L78.9325 20.2623L79.8094 13.3135Z" fill="url(#paint16_linear_13698_123739)"/>
<path d="M88.1384 12.901L89.1196 20.6753L94 19.0894L92.3027 11.6525L88.1384 12.901Z" fill="white"/>
<path d="M89.12 20.6752L84.0009 19.0893V11.4445L88.1969 12.9009L89.12 20.6752Z" fill="white"/>
<path d="M88.1895 13.3137L91.9837 12.0683L93.549 18.8287L89.0672 20.2624L88.1895 13.3137Z" fill="url(#paint17_linear_13698_123739)"/>
<path d="M88.1906 13.3135L84.0009 11.9316V18.6991L89.0683 20.2623L88.1906 13.3135Z" fill="url(#paint18_linear_13698_123739)"/>
<g style="mix-blend-mode:multiply" filter="url(#filter2_f_13698_123739)">
<ellipse cx="84.0001" cy="15.3334" rx="1.66667" ry="0.555556" fill="black" fill-opacity="0.15"/>
</g>
<path d="M88.8153 8.3407C88.8153 10.1342 86.6654 13.3501 85.2388 15.2867C84.6153 16.1332 83.3857 16.1332 82.7621 15.2867C81.3355 13.3501 79.1857 10.1342 79.1857 8.3407C79.1857 5.65665 81.3408 3.48169 84.0005 3.48169C86.6601 3.48169 88.8153 5.65665 88.8153 8.3407Z" fill="url(#paint19_linear_13698_123739)"/>
<path d="M84.0005 10.0161C84.9502 10.0161 85.72 9.24618 85.72 8.29648C85.72 7.34678 84.9502 6.5769 84.0005 6.5769C83.0508 6.5769 82.2809 7.34678 82.2809 8.29648C82.2809 9.24618 83.0508 10.0161 84.0005 10.0161Z" fill="white"/>
</g>
<g clip-path="url(#clip3_13698_123739)">
<rect width="24" height="24" transform="translate(120)" fill="white"/>
<path fill-rule="evenodd" clip-rule="evenodd" d="M123.473 9.9356C124.391 9.79018 125.528 9.49654 126.8 8.91622C128.234 8.25697 129.379 7.85059 130.213 7.60224C131.268 7.28615 132.396 7.28615 133.451 7.60224C134.285 7.8551 135.43 8.26148 136.864 8.91622C138.142 9.50182 139.29 9.79557 140.213 9.94077C140.377 10.6036 140.464 11.2968 140.464 12.0102C140.464 12.8552 140.342 13.6717 140.114 14.4431H136.927C135.326 14.4431 134.023 15.7435 134.023 17.351V20.3272C133.327 20.5082 132.596 20.6046 131.842 20.6046C131.088 20.6046 130.356 20.508 129.659 20.3266V17.3465C129.659 15.7435 128.36 14.4386 126.755 14.4386H123.569C123.342 13.6685 123.22 12.8536 123.22 12.0102C123.22 11.2949 123.308 10.6 123.473 9.9356ZM131.841 13.9509C130.772 13.9509 129.902 13.084 129.902 12.0093C129.902 10.9346 130.768 10.0676 131.841 10.0676C132.914 10.0676 133.78 10.9346 133.78 12.0093C133.78 13.084 132.914 13.9509 131.841 13.9509Z" fill="url(#paint20_linear_13698_123739)"/>
<path d="M132 0.666687C125.741 0.666687 120.667 5.74082 120.667 12C120.667 18.2592 125.741 23.3334 132 23.3334C138.259 23.3334 143.333 18.2589 143.333 12C143.333 5.74112 138.259 0.666687 132 0.666687ZM132 21.0222C127.017 21.0222 122.978 16.9826 122.978 12C122.978 7.01743 127.017 2.97783 132 2.97783C136.983 2.97783 141.023 7.01713 141.023 12C141.023 16.9829 136.983 21.0222 132 21.0222Z" fill="url(#paint21_linear_13698_123739)"/>
<path d="M132 2.79163C126.915 2.79163 122.792 6.9146 122.792 12C122.792 17.0853 126.915 21.2083 132 21.2083C137.085 21.2083 141.208 17.0856 141.208 12C141.208 6.91433 137.086 2.79163 132 2.79163ZM132 20.308C127.412 20.308 123.693 16.5882 123.693 12C123.693 7.41173 127.412 3.69187 132 3.69187C136.588 3.69187 140.308 7.41146 140.308 12C140.308 16.5885 136.588 20.308 132 20.308Z" fill="url(#paint22_linear_13698_123739)"/>
<ellipse cx="131.902" cy="11.9112" rx="2.53655" ry="2.53658" fill="#0E3DA4"/>
</g>
<rect width="24" height="24" transform="translate(144)" fill="white"/>
<path d="M146.667 9.64L156.077 2.66663L165.333 9.48648V20C165.333 21.4727 164.14 22.6666 162.667 22.6666H149.333C147.861 22.6666 146.667 21.4727 146.667 20V9.64Z" fill="url(#paint23_linear_13698_123739)"/>
<path fill-rule="evenodd" clip-rule="evenodd" d="M155.243 1.59367C155.69 1.24653 156.31 1.24653 156.758 1.59367L165.508 8.3815C166.057 8.80749 166.163 9.60607 165.744 10.1652C165.326 10.7243 164.542 10.8322 163.993 10.4062L156 4.20607L148.008 10.4062C147.459 10.8322 146.674 10.7243 146.256 10.1652C145.838 9.60607 145.944 8.80749 146.493 8.3815L155.243 1.59367Z" fill="#8D85EC"/>
<path d="M155.562 20.0472C155.859 20.189 156.212 20.189 156.509 20.0472C158.792 18.9693 160.462 17.6252 161.384 15.2288C162.258 12.9571 161.126 10.4104 159.14 10.1485C156.707 9.83068 156.036 11.9564 156.036 11.9564C156.036 11.9564 155.364 9.83498 152.931 10.1485C150.946 10.4104 149.818 12.9571 150.688 15.2245C151.609 17.6252 153.28 18.9693 155.562 20.0472Z" fill="url(#paint24_linear_13698_123739)"/>
<path d="M152.743 15.4484H154.335L154.67 14.7949L155.424 16.2325L156.681 13.88L157.519 15.4484H158.859" stroke="white" stroke-width="0.666667" stroke-linecap="round" stroke-linejoin="round"/>
<g clip-path="url(#clip4_13698_123739)">
<rect width="24" height="24" transform="translate(168)" fill="white"/>
<path d="M173.884 9.338C175.957 8.23711 177.122 6.36946 176.482 5.16657C175.841 3.96368 173.641 3.88278 171.568 4.98367C169.495 6.08808 168.33 7.95573 168.971 9.15862C169.611 10.3615 171.811 10.4424 173.884 9.34151V9.338Z" fill="#C0A68F"/>
<path d="M179.973 20.1931C184.944 20.1931 188.973 16.6153 188.973 12.2019C188.973 7.78857 184.944 4.21082 179.973 4.21082C175.003 4.21082 170.973 7.78857 170.973 12.2019C170.973 16.6153 175.003 20.1931 179.973 20.1931Z" fill="url(#paint25_linear_13698_123739)"/>
<path d="M179.973 20.1931C184.944 20.1931 188.973 16.6153 188.973 12.2019C188.973 7.78857 184.944 4.21082 179.973 4.21082C175.003 4.21082 170.973 7.78857 170.973 12.2019C170.973 16.6153 175.003 20.1931 179.973 20.1931Z" fill="url(#paint26_linear_13698_123739)" fill-opacity="0.25"/>
<path d="M186.115 10.8871C187.552 12.7445 189.589 13.5757 190.668 12.7421C191.747 11.9084 191.454 9.72934 190.017 7.872C188.58 6.01465 186.543 5.18341 185.464 6.01706C184.385 6.85072 184.678 9.0298 186.115 10.8871Z" fill="#C4AA94"/>
<path d="M179.552 12.1221C179.461 12.6145 179.58 13.0507 179.82 13.0964C180.055 13.1386 180.323 12.7728 180.411 12.2804C180.502 11.788 180.383 11.3518 180.143 11.3061C179.908 11.2639 179.64 11.6297 179.552 12.1221Z" fill="#432A1F"/>
<path d="M174.846 10.7234C174.755 11.2158 174.874 11.652 175.114 11.6977C175.35 11.7399 175.617 11.3741 175.705 10.8817C175.797 10.3893 175.677 9.95315 175.438 9.90743C175.202 9.86522 174.934 10.231 174.846 10.7234Z" fill="#432A1F"/>
<path d="M176.189 12.1376C176.065 12.5386 176.344 12.9783 176.808 13.1154C177.273 13.2561 177.744 13.0451 177.868 12.6441C177.991 12.2432 177.713 11.8035 177.248 11.6663C176.784 11.5257 176.312 11.7367 176.189 12.1376Z" fill="#432A1F"/>
</g>
<defs>
<filter id="filter0_d_13698_123739" x="106.155" y="12.9948" width="12.1027" height="12.1027" filterUnits="userSpaceOnUse" color-interpolation-filters="sRGB">
<feFlood flood-opacity="0" result="BackgroundImageFix"/>
<feColorMatrix in="SourceAlpha" type="matrix" values="0 0 0 0 0 0 0 0 0 0 0 0 0 0 0 0 0 0 127 0" result="hardAlpha"/>
<feOffset dx="1.33333" dy="-0.666667"/>
<feGaussianBlur stdDeviation="1.33333"/>
<feComposite in2="hardAlpha" operator="out"/>
<feColorMatrix type="matrix" values="0 0 0 0 0.714762 0 0 0 0 0.471743 0 0 0 0 0 0 0 0 0.3 0"/>
<feBlend mode="normal" in2="BackgroundImageFix" result="effect1_dropShadow_13698_123739"/>
<feBlend mode="normal" in="SourceGraphic" in2="effect1_dropShadow_13698_123739" result="shape"/>
</filter>
<filter id="filter1_f_13698_123739" x="75.827" y="17.1175" width="16.3461" height="4.03845" filterUnits="userSpaceOnUse" color-interpolation-filters="sRGB">
<feFlood flood-opacity="0" result="BackgroundImageFix"/>
<feBlend mode="normal" in="SourceGraphic" in2="BackgroundImageFix" result="shape"/>
<feGaussianBlur stdDeviation="0.625" result="effect1_foregroundBlur_13698_123739"/>
</filter>
<filter id="filter2_f_13698_123739" x="81.5001" y="13.9445" width="4.99998" height="2.77775" filterUnits="userSpaceOnUse" color-interpolation-filters="sRGB">
<feFlood flood-opacity="0" result="BackgroundImageFix"/>
<feBlend mode="normal" in="SourceGraphic" in2="BackgroundImageFix" result="shape"/>
<feGaussianBlur stdDeviation="0.416667" result="effect1_foregroundBlur_13698_123739"/>
</filter>
<linearGradient id="paint0_linear_13698_123739" x1="107.971" y1="18.2617" x2="107.971" y2="21.1629" gradientUnits="userSpaceOnUse">
<stop stop-color="#DCE0E8"/>
<stop offset="1" stop-color="#B6BECF"/>
</linearGradient>
<linearGradient id="paint1_linear_13698_123739" x1="107.972" y1="20.1914" x2="107.972" y2="22.6091" gradientUnits="userSpaceOnUse">
<stop stop-color="#E9ECF3"/>
<stop offset="1" stop-color="#DDE1EA"/>
</linearGradient>
<linearGradient id="paint2_linear_13698_123739" x1="114.983" y1="17.2646" x2="114.983" y2="16.9778" gradientUnits="userSpaceOnUse">
<stop stop-color="#F9BC4E"/>
<stop offset="1" stop-color="#F9BC4E" stop-opacity="0"/>
</linearGradient>
<linearGradient id="paint3_linear_13698_123739" x1="114.983" y1="19.1982" x2="114.983" y2="18.9114" gradientUnits="userSpaceOnUse">
<stop stop-color="#F9BC4E"/>
<stop offset="1" stop-color="#F9BC4E" stop-opacity="0"/>
</linearGradient>
<linearGradient id="paint4_linear_13698_123739" x1="114.983" y1="21.1318" x2="114.983" y2="20.845" gradientUnits="userSpaceOnUse">
<stop stop-color="#F9BC4E"/>
<stop offset="1" stop-color="#F9BC4E" stop-opacity="0"/>
</linearGradient>
<linearGradient id="paint5_linear_13698_123739" x1="114.983" y1="23.0654" x2="114.983" y2="22.7786" gradientUnits="userSpaceOnUse">
<stop stop-color="#F9BC4E"/>
<stop offset="1" stop-color="#F9BC4E" stop-opacity="0"/>
</linearGradient>
<linearGradient id="paint6_linear_13698_123739" x1="108.048" y1="16.8909" x2="113.777" y2="22.6202" gradientUnits="userSpaceOnUse">
<stop stop-color="#FFE58E"/>
<stop offset="1" stop-color="#FFCD39"/>
</linearGradient>
<linearGradient id="paint7_linear_13698_123739" x1="113.774" y1="16.8125" x2="107.972" y2="22.6149" gradientUnits="userSpaceOnUse">
<stop stop-color="#F8A400"/>
<stop offset="1" stop-color="#FFEF6C"/>
</linearGradient>
<linearGradient id="paint8_linear_13698_123739" x1="5.8749" y1="13.25" x2="10.3527" y2="8.77216" gradientUnits="userSpaceOnUse">
<stop stop-color="#F1F3FD"/>
<stop offset="1" stop-color="#F0F3FF"/>
</linearGradient>
<linearGradient id="paint9_linear_13698_123739" x1="6.68996" y1="17.8149" x2="8.47757" y2="16.0238" gradientUnits="userSpaceOnUse">
<stop stop-color="#9ED1FF"/>
<stop offset="0.99" stop-color="#919DFD"/>
</linearGradient>
<linearGradient id="paint10_linear_13698_123739" x1="5.83075" y1="15.7289" x2="9.33206" y2="12.2311" gradientUnits="userSpaceOnUse">
<stop stop-color="#9ED1FF"/>
<stop offset="0.99" stop-color="#919DFD"/>
</linearGradient>
<linearGradient id="paint11_linear_13698_123739" x1="19.1709" y1="19.0577" x2="13.2808" y2="11.2467" gradientUnits="userSpaceOnUse">
<stop stop-color="#6A85B6"/>
<stop offset="1" stop-color="#BAC8E0"/>
</linearGradient>
<linearGradient id="paint12_linear_13698_123739" x1="31.6251" y1="13.5652" x2="31.6251" y2="4.71421" gradientUnits="userSpaceOnUse">
<stop stop-color="#C1E1FF"/>
<stop offset="1" stop-color="#E1F3FF"/>
</linearGradient>
<linearGradient id="paint13_linear_13698_123739" x1="33.5001" y1="9.5" x2="33.5001" y2="20.0556" gradientUnits="userSpaceOnUse">
<stop stop-color="#CCEB98"/>
<stop offset="1" stop-color="#90E576"/>
</linearGradient>
<linearGradient id="paint14_linear_13698_123739" x1="46.2054" y1="21.5776" x2="36.4015" y2="12.6675" gradientUnits="userSpaceOnUse">
<stop stop-color="#92DB80"/>
<stop offset="1" stop-color="#2DBA65"/>
</linearGradient>
<linearGradient id="paint15_linear_13698_123739" x1="74.5227" y1="15.7505" x2="80.2018" y2="15.7505" gradientUnits="userSpaceOnUse">
<stop stop-color="#ADEDF1"/>
<stop offset="1" stop-color="#92DEE3"/>
</linearGradient>
<linearGradient id="paint16_linear_13698_123739" x1="78.9998" y1="15.6752" x2="84.3701" y2="15.6752" gradientUnits="userSpaceOnUse">
<stop stop-color="#ADEDF1"/>
<stop offset="1" stop-color="#92DEE3"/>
</linearGradient>
<linearGradient id="paint17_linear_13698_123739" x1="88.2607" y1="15.7505" x2="93.9405" y2="15.7505" gradientUnits="userSpaceOnUse">
<stop stop-color="#ADEDF1"/>
<stop offset="1" stop-color="#92DEE3"/>
</linearGradient>
<linearGradient id="paint18_linear_13698_123739" x1="83.6298" y1="15.6752" x2="89.0001" y2="15.6752" gradientUnits="userSpaceOnUse">
<stop stop-color="#ADEDF1"/>
<stop offset="1" stop-color="#81DAE0"/>
</linearGradient>
<linearGradient id="paint19_linear_13698_123739" x1="80.4703" y1="5.85671" x2="86.8942" y2="13.6367" gradientUnits="userSpaceOnUse">
<stop stop-color="#46D99B"/>
<stop offset="1" stop-color="#1ECDC3"/>
</linearGradient>
<linearGradient id="paint20_linear_13698_123739" x1="131.842" y1="20.6046" x2="131.842" y2="7.36517" gradientUnits="userSpaceOnUse">
<stop stop-color="#0036AD"/>
<stop offset="1" stop-color="#2468FF"/>
</linearGradient>
<linearGradient id="paint21_linear_13698_123739" x1="132" y1="23.3334" x2="132" y2="0.666687" gradientUnits="userSpaceOnUse">
<stop stop-color="#175FFF"/>
<stop offset="1" stop-color="#5086FF"/>
</linearGradient>
<linearGradient id="paint22_linear_13698_123739" x1="132" y1="21.2083" x2="132" y2="2.79163" gradientUnits="userSpaceOnUse">
<stop stop-color="#004CF6"/>
<stop offset="1" stop-color="#2F6FFF"/>
</linearGradient>
<linearGradient id="paint23_linear_13698_123739" x1="156.077" y1="2.66663" x2="156.077" y2="22.5302" gradientUnits="userSpaceOnUse">
<stop stop-color="#F2F4FF"/>
<stop offset="1" stop-color="#E2E4FF"/>
</linearGradient>
<linearGradient id="paint24_linear_13698_123739" x1="156.037" y1="10.1161" x2="156.037" y2="20.1535" gradientUnits="userSpaceOnUse">
<stop stop-color="#FF9D7E"/>
<stop offset="1" stop-color="#FD3F6D"/>
</linearGradient>
<linearGradient id="paint25_linear_13698_123739" x1="175.831" y1="5.8261" x2="184.684" y2="18.9235" gradientUnits="userSpaceOnUse">
<stop stop-color="#FFF8F1"/>
<stop offset="1" stop-color="#F0E3D5"/>
</linearGradient>
<linearGradient id="paint26_linear_13698_123739" x1="174.667" y1="6.3333" x2="175.333" y2="6.99997" gradientUnits="userSpaceOnUse">
<stop stop-color="white"/>
<stop offset="1" stop-color="white" stop-opacity="0"/>
</linearGradient>
<clipPath id="clip0_13698_123739">
<rect width="24" height="24" fill="white" transform="translate(96)"/>
</clipPath>
<clipPath id="clip1_13698_123739">
<rect width="20" height="16.6667" fill="white" transform="translate(26.0001 3.66669)"/>
</clipPath>
<clipPath id="clip2_13698_123739">
<rect width="20" height="20" fill="white" transform="translate(74.0001 2)"/>
</clipPath>
<clipPath id="clip3_13698_123739">
<rect width="24" height="24" fill="white" transform="translate(120)"/>
</clipPath>
<clipPath id="clip4_13698_123739">
<rect width="24" height="24" fill="white" transform="translate(168)"/>
</clipPath>
</defs>
</svg>
