<svg width="320" height="320" viewBox="0 0 320 320" fill="none" xmlns="http://www.w3.org/2000/svg">
<g clip-path="url(#clip0_11124_107431)">
<path d="M58 36H45C44.4477 36 44 36.4477 44 37V40C44 40.5523 44.4477 41 45 41H58C58.5523 41 59 40.5523 59 40V37C59 36.4477 58.5523 36 58 36Z" fill="#FFC839"/>
<path d="M57 41H44C43.4477 41 43 41.4477 43 42V45C43 45.5523 43.4477 46 44 46H57C57.5523 46 58 45.5523 58 45V42C58 41.4477 57.5523 41 57 41Z" fill="#FF7F00"/>
<path d="M59 46H46C45.4477 46 45 46.4477 45 47V50C45 50.5523 45.4477 51 46 51H59C59.5523 51 60 50.5523 60 50V47C60 46.4477 59.5523 46 59 46Z" fill="#FFC839"/>
<path opacity="0.06" d="M58 36H45C44.4477 36 44 36.4477 44 37V40C44 40.5523 44.4477 41 45 41H58C58.5523 41 59 40.5523 59 40V37C59 36.4477 58.5523 36 58 36Z" fill="black"/>
<path opacity="0.06" d="M57 41H44C43.4477 41 43 41.4477 43 42V45C43 45.5523 43.4477 46 44 46H57C57.5523 46 58 45.5523 58 45V42C58 41.4477 57.5523 41 57 41Z" fill="black"/>
<path opacity="0.06" d="M59 46H46C45.4477 46 45 46.4477 45 47V50C45 50.5523 45.4477 51 46 51H59C59.5523 51 60 50.5523 60 50V47C60 46.4477 59.5523 46 59 46Z" fill="black"/>
<path d="M44.5 60C49.1944 60 53 56.1944 53 51.5C53 46.8056 49.1944 43 44.5 43C39.8056 43 36 46.8056 36 51.5C36 56.1944 39.8056 60 44.5 60Z" fill="url(#paint0_linear_11124_107431)"/>
<path d="M40.5399 49.21L42.5199 53.8L44.4999 50.2" stroke="white" stroke-width="1.5" stroke-linecap="round" stroke-linejoin="round"/>
<path d="M48.4599 49.21L46.4799 53.8L44.4999 50.2" stroke="white" stroke-width="1.5" stroke-linecap="round" stroke-linejoin="round"/>
<path d="M39.72 51.17H41.37" stroke="white" stroke-width="1.5" stroke-linecap="round" stroke-linejoin="round"/>
<path d="M47.63 51.17H49.28" stroke="white" stroke-width="1.5" stroke-linecap="round" stroke-linejoin="round"/>
</g>
<g clip-path="url(#clip1_11124_107431)">
<path d="M16.6699 38.85L15.9999 39.51L15.3299 38.85C13.0299 36.56 9.24994 36.32 6.86994 38.55C4.48994 40.78 4.36994 44.71 6.73994 47.07L7.57994 47.91L15.4299 55.74C15.7399 56.05 16.2399 56.05 16.5499 55.74L24.3999 47.91L25.2399 47.07C27.6099 44.71 27.5599 40.86 25.1099 38.55C22.7399 36.32 18.9499 36.56 16.6499 38.85H16.6699Z" fill="url(#paint1_linear_11124_107431)"/>
<mask id="mask0_11124_107431" style="mask-type:luminance" maskUnits="userSpaceOnUse" x="5" y="36" width="22" height="20">
<path d="M16.6699 38.85L15.9999 39.51L15.3299 38.85C13.0299 36.56 9.24994 36.32 6.86994 38.55C4.48994 40.78 4.36994 44.71 6.73994 47.07L7.57994 47.91L15.4299 55.74C15.7399 56.05 16.2399 56.05 16.5499 55.74L24.3999 47.91L25.2399 47.07C27.6099 44.71 27.5599 40.86 25.1099 38.55C22.7399 36.32 18.9499 36.56 16.6499 38.85H16.6699Z" fill="white"/>
</mask>
<g mask="url(#mask0_11124_107431)">
<path d="M16 47.32C17.73 47.32 19.13 45.92 19.13 44.2C19.13 42.48 17.73 41.08 16 41.08C14.27 41.08 12.87 42.48 12.87 44.2C12.87 45.92 14.27 47.32 16 47.32ZM17.46 48.16H14.54C12.23 48.16 10.35 50.03 10.35 52.35V55.14C10.35 55.6 10.72 55.98 11.19 55.98H20.8C21.26 55.98 21.64 55.61 21.64 55.14V52.34C21.64 50.03 19.77 48.16 17.46 48.16Z" fill="url(#paint2_linear_11124_107431)"/>
</g>
<path d="M21.95 58.1396C25.2637 58.1396 27.95 55.4534 27.95 52.1396C27.95 48.8259 25.2637 46.1396 21.95 46.1396C18.6362 46.1396 15.95 48.8259 15.95 52.1396C15.95 55.4534 18.6362 58.1396 21.95 58.1396Z" fill="#9F0743"/>
<path d="M19.35 52.1396H24.55" stroke="white" stroke-width="1.8" stroke-linecap="round" stroke-linejoin="round"/>
<path d="M21.95 54.74V49.54" stroke="white" stroke-width="1.8" stroke-linecap="round" stroke-linejoin="round"/>
</g>
<g clip-path="url(#clip2_11124_107431)">
<path d="M48 4H51.38C52.12 4 52.61 4.78 52.27 5.45L50.49 9L48.88 12.21C48.51 12.95 47.46 12.95 47.09 12.21L45.48 9L43.7 5.45C43.37 4.79 43.85 4 44.59 4H47.97L48 4Z" fill="#23B599"/>
<path d="M58.18 17.24C57.12 12.42 52.89 9 48 9C43.11 9 38.88 12.43 37.82 17.24L37.15 20.29C36.28 24.25 39.26 28 43.27 28H48H52.73C56.74 28 59.72 24.25 58.85 20.29L58.18 17.24Z" fill="url(#paint3_linear_11124_107431)"/>
<path d="M51.06 8H44.94C44.4209 8 44 8.42085 44 8.94V9.06C44 9.57915 44.4209 10 44.94 10H51.06C51.5791 10 52 9.57915 52 9.06V8.94C52 8.42085 51.5791 8 51.06 8Z" fill="#0C8E75"/>
<path d="M43.86 16.1L45.93 20.9L48 17.14" stroke="white" stroke-width="1.5" stroke-linecap="round" stroke-linejoin="round"/>
<path d="M52.14 16.1L50.07 20.9L48 17.14" stroke="white" stroke-width="1.5" stroke-linecap="round" stroke-linejoin="round"/>
<path d="M43 18.16H44.72" stroke="white" stroke-width="1.5" stroke-linecap="round" stroke-linejoin="round"/>
<path d="M51.28 18.16H53" stroke="white" stroke-width="1.5" stroke-linecap="round" stroke-linejoin="round"/>
</g>
<path d="M13 8H24C25.66 8 27 9.34 27 11V14H13V8Z" fill="#0046DE"/>
<path d="M17.4 9.2L15.91 7.2C15.34 6.44 14.45 6 13.51 6H9C7.34 6 6 7.34 6 9V23C6 24.66 7.34 26 9 26H24C25.66 26 27 24.66 27 23V13C27 11.34 25.66 10 24 10H19C18.37 10 17.78 9.7 17.4 9.2Z" fill="url(#paint4_linear_11124_107431)"/>
<path d="M16.5 23C19.2614 23 21.5 20.7614 21.5 18C21.5 15.2386 19.2614 13 16.5 13C13.7386 13 11.5 15.2386 11.5 18C11.5 20.7614 13.7386 23 16.5 23Z" fill="#0046DE"/>
<mask id="mask1_11124_107431" style="mask-type:luminance" maskUnits="userSpaceOnUse" x="11" y="13" width="11" height="10">
<path d="M16.5 23C19.2614 23 21.5 20.7614 21.5 18C21.5 15.2386 19.2614 13 16.5 13C13.7386 13 11.5 15.2386 11.5 18C11.5 20.7614 13.7386 23 16.5 23Z" fill="white"/>
</mask>
<g mask="url(#mask1_11124_107431)">
<path d="M16.5 18.36C17.52 18.36 18.35 17.53 18.35 16.52C18.35 15.51 17.52 14.68 16.5 14.68C15.48 14.68 14.65 15.51 14.65 16.52C14.65 17.53 15.48 18.36 16.5 18.36ZM17.49 18.86H15.51C14.22 18.86 13.17 19.91 13.17 21.2V22.54C13.17 22.8 13.38 23.01 13.64 23.01H19.37C19.63 23.01 19.84 22.8 19.84 22.54V21.2C19.84 19.91 18.79 18.86 17.5 18.86H17.49Z" fill="url(#paint5_linear_11124_107431)"/>
</g>
<g clip-path="url(#clip3_11124_107431)">
<path d="M184.92 42.2102C185.13 41.0802 184.88 40.0302 184.34 39.1802C184.17 38.9102 183.77 38.9402 183.62 39.2202C183.06 40.2302 182.1 40.9902 180.96 41.2702C179.43 40.1702 177.55 39.5102 175.51 39.5102C173.47 39.5102 171.59 40.1702 170.06 41.2702C168.9 40.9902 167.94 40.2402 167.38 39.2302C167.23 38.9502 166.83 38.9202 166.66 39.1902C166.11 40.0302 165.86 41.0902 166.08 42.2102C166.24 43.0602 166.68 43.8302 167.29 44.4202C166.59 45.7202 166.19 47.1902 166.19 48.7602C166.19 53.8602 170.36 58.0002 175.5 58.0002C180.64 58.0002 184.81 53.8602 184.81 48.7602C184.81 47.1902 184.41 45.7202 183.72 44.4202C184.33 43.8302 184.76 43.0602 184.93 42.2102H184.92Z" fill="url(#paint6_linear_11124_107431)"/>
<path d="M180.98 49.6104C181.22 49.6104 181.42 49.8104 181.41 50.0504C181.18 53.1104 178.63 55.5304 175.5 55.5304C172.37 55.5304 169.82 53.1104 169.59 50.0504C169.57 49.8104 169.78 49.6104 170.02 49.6104H180.98Z" fill="#A30743"/>
<path d="M178.31 47.99C179.011 47.99 179.58 47.4214 179.58 46.72C179.58 46.0186 179.011 45.45 178.31 45.45C177.609 45.45 177.04 46.0186 177.04 46.72C177.04 47.4214 177.609 47.99 178.31 47.99Z" fill="#41484F" stroke="#41484F" stroke-width="0.4" stroke-miterlimit="10"/>
<path d="M177.78 45.8L180.12 44.83" stroke="#41484F" stroke-width="0.8" stroke-linecap="round" stroke-linejoin="round"/>
<path d="M172.68 47.99C173.381 47.99 173.95 47.4214 173.95 46.72C173.95 46.0186 173.381 45.45 172.68 45.45C171.979 45.45 171.41 46.0186 171.41 46.72C171.41 47.4214 171.979 47.99 172.68 47.99Z" fill="#41484F" stroke="#41484F" stroke-width="0.4" stroke-miterlimit="10"/>
<path d="M173.21 45.8L170.87 44.83" stroke="#41484F" stroke-width="0.8" stroke-linecap="round" stroke-linejoin="round"/>
</g>
<g clip-path="url(#clip4_11124_107431)">
<path d="M137 49.5H134.5L135.75 46L137 42.5L138.25 46L139.5 49.5H137Z" stroke="#616A75" stroke-width="1.2" stroke-linecap="round" stroke-linejoin="round"/>
<path d="M133.5 49H140.5C140.78 49 141 49.22 141 49.5V50.5C141 51.88 139.88 53 138.5 53H135.5C134.12 53 133 51.88 133 50.5V49.5C133 49.22 133.22 49 133.5 49Z" fill="url(#paint7_linear_11124_107431)"/>
<path d="M150.31 49.5H147.81L149.06 46L150.31 42.5L151.56 46L152.81 49.5H150.31Z" stroke="#616A75" stroke-width="1.2" stroke-linecap="round" stroke-linejoin="round"/>
<path d="M146.81 49H153.81C154.09 49 154.31 49.22 154.31 49.5V50.5C154.31 51.88 153.19 53 151.81 53H148.81C147.43 53 146.31 51.88 146.31 50.5V49.5C146.31 49.22 146.53 49 146.81 49Z" fill="url(#paint8_linear_11124_107431)"/>
<path d="M151.15 40.5H148.4C147.76 38.48 145.89 37 143.65 37C141.41 37 139.54 38.48 138.9 40.5H136.15C135.32 40.5 134.65 41.17 134.65 42C134.65 42.83 135.32 43.5 136.15 43.5H151.15C151.98 43.5 152.65 42.83 152.65 42C152.65 41.17 151.98 40.5 151.15 40.5Z" fill="url(#paint9_linear_11124_107431)"/>
<path d="M143.64 40.5H143.68C144.5 40.5 145.16 41.16 145.16 41.98V60H142.16V41.98C142.16 41.16 142.82 40.5 143.64 40.5Z" fill="url(#paint10_linear_11124_107431)"/>
<path d="M139.15 56H148.15C149.53 56 150.65 57.12 150.65 58.5V60H136.65V58.5C136.65 57.12 137.77 56 139.15 56Z" fill="url(#paint11_linear_11124_107431)"/>
</g>
<g clip-path="url(#clip5_11124_107431)">
<path d="M122.67 42.2695H120.7C120.46 42.2695 120.27 42.0795 120.27 41.8395V40.9295C120.27 40.1895 120.87 39.5995 121.6 39.5995H122.67C123.41 39.5995 124 40.1995 124 40.9295C124 41.6695 123.4 42.2595 122.67 42.2595V42.2695Z" fill="#616A75"/>
<path d="M101.33 39.5996H102.4C103.14 39.5996 103.73 40.1996 103.73 40.9296V41.8396C103.73 42.0796 103.54 42.2696 103.3 42.2696H101.33C100.6 42.2696 100 41.6696 100 40.9296C100 40.1996 100.6 39.5996 101.33 39.5996Z" fill="#616A75"/>
<path d="M120.7 41.52L119.45 37.16C119.25 36.47 118.63 36 117.91 36H106.08C105.37 36 104.74 36.47 104.54 37.16L103.29 41.52C103.22 41.75 103.12 41.96 102.99 42.16L101.91 43.71C101.53 44.25 101.33 44.89 101.33 45.55V50.41C101.33 51.29 102.05 52.01 102.93 52.01H121.06C121.94 52.01 122.66 51.29 122.66 50.41V45.55C122.66 44.89 122.46 44.25 122.08 43.71L121 42.16C120.86 41.97 120.76 41.75 120.7 41.52Z" fill="url(#paint12_linear_11124_107431)"/>
<path d="M119.2 44.6904H117.59C116.855 44.6904 116.26 45.2859 116.26 46.0204V46.0304C116.26 46.765 116.855 47.3604 117.59 47.3604H119.2C119.935 47.3604 120.53 46.765 120.53 46.0304V46.0204C120.53 45.2859 119.935 44.6904 119.2 44.6904Z" fill="white"/>
<path d="M103.2 52H106.93V53.26C106.93 53.74 106.54 54.13 106.06 54.13H104.07C103.59 54.13 103.2 53.74 103.2 53.26V52Z" fill="#616A75"/>
<path d="M117.06 52H120.79V53.26C120.79 53.74 120.4 54.13 119.92 54.13H117.93C117.45 54.13 117.06 53.74 117.06 53.26V52Z" fill="#616A75"/>
<path d="M106.4 44.6904H104.79C104.055 44.6904 103.46 45.2859 103.46 46.0204V46.0304C103.46 46.765 104.055 47.3604 104.79 47.3604H106.4C107.134 47.3604 107.73 46.765 107.73 46.0304V46.0204C107.73 45.2859 107.134 44.6904 106.4 44.6904Z" fill="white"/>
<path d="M124.9 52.4995L121.83 54.2395L123.3 57.4395L119.79 57.0295L119.1 60.4895L116.5 58.0995L113.91 60.4895L113.21 57.0295L109.71 57.4395L111.18 54.2395L108.1 52.4995L111.18 50.7695L109.71 47.5695L113.21 47.9695L113.91 44.5195L116.5 46.9095L119.1 44.5195L119.79 47.9695L123.3 47.5695L121.83 50.7695L124.9 52.4995Z" fill="url(#paint13_linear_11124_107431)"/>
<path d="M116.5 49.9404V52.9404" stroke="white" stroke-width="1.2" stroke-linecap="round" stroke-linejoin="round"/>
<circle cx="116.5" cy="55.0701" r="0.7" fill="white"/>
<path d="M118.45 37.8696C118.33 37.3996 117.9 37.0596 117.42 37.0596H106.57C106.08 37.0596 105.66 37.3896 105.54 37.8696L104.52 41.9296H119.48L118.46 37.8696H118.45Z" fill="white"/>
</g>
<rect width="32" height="32" transform="translate(64 32)" fill="white"/>
<path d="M70 48.8182C70 43.3958 74.3958 39 79.8182 39H80.1818C85.6042 39 90 43.3958 90 48.8182V57H70V48.8182Z" fill="url(#paint14_linear_11124_107431)"/>
<path d="M74.4869 44.5C73.5599 45.5761 73 46.968 73 48.4886V50.1503" stroke="white" stroke-opacity="0.25" stroke-width="1.41818" stroke-linecap="round" stroke-linejoin="round"/>
<path d="M68 58.5C68 57.6716 68.6716 57 69.5 57H90.5C91.3284 57 92 57.6716 92 58.5V60H68V58.5Z" fill="url(#paint15_linear_11124_107431)"/>
<path d="M87 63C91.4183 63 95 59.4183 95 55C95 50.5817 91.4183 47 87 47C82.5817 47 79 50.5817 79 55C79 59.4183 82.5817 63 87 63Z" fill="url(#paint16_linear_11124_107431)"/>
<path d="M83.2725 52.8445L85.136 57.1645L86.9995 53.7763" stroke="white" stroke-width="1.2" stroke-linecap="round" stroke-linejoin="round"/>
<path d="M90.7266 52.8445L88.863 57.1645L86.9995 53.7763" stroke="white" stroke-width="1.2" stroke-linecap="round" stroke-linejoin="round"/>
<path d="M82.501 54.6893H84.0539" stroke="white" stroke-width="1.2" stroke-linecap="round" stroke-linejoin="round"/>
<path d="M89.9458 54.6891H91.4987" stroke="white" stroke-width="1.2" stroke-linecap="round" stroke-linejoin="round"/>
<path d="M80 35V37" stroke="#FD665F" stroke-width="1.5" stroke-linecap="round"/>
<path d="M74.5 36.1338L75.5 37.8658" stroke="#FD665F" stroke-width="1.5" stroke-linecap="round"/>
<path d="M85.5 36.1338L84.5 37.8658" stroke="#FD665F" stroke-width="1.5" stroke-linecap="round"/>
<g clip-path="url(#clip6_11124_107431)">
<path d="M48.7 79.97C48.63 79.64 48.37 79.38 48.04 79.31L47.1 79.12L46.05 78.91C45.77 78.85 45.49 78.94 45.29 79.14L41.76 82.67C40.26 81.17 37.71 81.38 36.5 83.29C35.84 84.34 35.83 85.72 36.48 86.77C37.2 87.95 38.42 88.47 39.6 88.39C39.52 89.58 40.04 90.79 41.23 91.51C42.29 92.15 43.67 92.15 44.71 91.49C46.62 90.29 46.83 87.73 45.33 86.23L48.86 82.7C49.06 82.5 49.15 82.22 49.09 81.94L48.88 80.89L48.69 79.95L48.7 79.97ZM59.02 72.56C58.3 71.84 57.35 71.53 56.41 71.6C56.47 70.66 56.16 69.71 55.45 68.99C54.13 67.67 52 67.67 50.69 68.99C49.38 70.31 49.37 72.44 50.69 73.75L46.84 77.6L48.33 77.9L49.27 78.09C49.6 78.16 49.86 78.42 49.93 78.75L50.12 79.69L50.42 81.18L54.27 77.33C55.59 78.65 57.72 78.65 59.03 77.33C60.34 76.01 60.35 73.88 59.03 72.57L59.02 72.56Z" fill="url(#paint17_linear_11124_107431)"/>
<path d="M41 78C43.7614 78 46 75.7614 46 73C46 70.2386 43.7614 68 41 68C38.2386 68 36 70.2386 36 73C36 75.7614 38.2386 78 41 78Z" fill="url(#paint18_linear_11124_107431)"/>
<path d="M41 70.4297V73.4297" stroke="white" stroke-width="1.2" stroke-linecap="round" stroke-linejoin="round"/>
<circle cx="41" cy="75.5701" r="0.7" fill="white"/>
</g>
<rect x="4" y="68" width="24" height="26" rx="4" fill="url(#paint19_linear_11124_107431)"/>
<path d="M16.463 80.98C16.4164 80.76 16.2431 80.5867 16.0232 80.54L15.3968 80.4133L14.6971 80.2733C14.5105 80.2333 14.3239 80.2933 14.1907 80.4267L11.8383 82.78C10.8387 81.78 9.13942 81.92 8.33309 83.1933C7.89328 83.8933 7.88661 84.8133 8.31977 85.5133C8.79957 86.3 9.61256 86.6467 10.3989 86.5933C10.3456 87.3867 10.6921 88.1933 11.4851 88.6733C12.1915 89.1 13.1111 89.1 13.8041 88.66C15.077 87.86 15.2169 86.1533 14.2173 85.1533L16.5697 82.8C16.7029 82.6667 16.7629 82.48 16.7229 82.2933L16.583 81.5933L16.4564 80.9667L16.463 80.98ZM23.3402 76.04C22.8604 75.56 22.2273 75.3533 21.6009 75.4C21.6409 74.7733 21.4343 74.14 20.9612 73.66C20.0815 72.78 18.6621 72.78 17.7892 73.66C16.9162 74.54 16.9095 75.96 17.7892 76.8333L15.2236 79.4L16.2165 79.6L16.8429 79.7267C17.0628 79.7733 17.2361 79.9467 17.2827 80.1667L17.4093 80.7933L17.6092 81.7867L20.1748 79.22C21.0545 80.1 22.4739 80.1 23.3468 79.22C24.2198 78.34 24.2265 76.92 23.3468 76.0467L23.3402 76.04Z" fill="url(#paint20_linear_11124_107431)"/>
<rect x="10" y="67" width="12" height="3" rx="1.5" fill="url(#paint21_linear_11124_107431)"/>
<rect x="303" y="53" width="2" height="9.14286" rx="1" fill="url(#paint22_linear_11124_107431)"/>
<rect x="300" y="52" width="8" height="5" rx="1" fill="url(#paint23_linear_11124_107431)"/>
<rect x="296" y="34" width="16" height="21" rx="2" fill="url(#paint24_linear_11124_107431)"/>
<path d="M296 41H312V53C312 54.1046 311.105 55 310 55H298C296.895 55 296 54.1046 296 53V41Z" fill="url(#paint25_linear_11124_107431)"/>
<rect x="297" y="39" width="1.5" height="12.5714" rx="0.75" fill="url(#paint26_radial_11124_107431)" fill-opacity="0.5"/>
<rect x="301.714" y="38.5714" width="4.57143" height="0.914286" rx="0.457143" fill="white"/>
<rect x="301.714" y="43.4855" width="4.57143" height="0.914286" rx="0.457143" fill="white"/>
<rect x="301.714" y="48.3995" width="4.57143" height="0.914286" rx="0.457143" fill="white"/>
<g clip-path="url(#clip7_11124_107431)">
<path d="M249.85 43H230.15C229.515 43 229 43.5149 229 44.15V57.85C229 58.4851 229.515 59 230.15 59H249.85C250.485 59 251 58.4851 251 57.85V44.15C251 43.5149 250.485 43 249.85 43Z" fill="url(#paint27_linear_11124_107431)"/>
<path d="M246.02 37H233.98C233.439 37 233 37.4388 233 37.98V58.02C233 58.5612 233.439 59 233.98 59H246.02C246.561 59 247 58.5612 247 58.02V37.98C247 37.4388 246.561 37 246.02 37Z" fill="url(#paint28_linear_11124_107431)"/>
<path d="M237.4 44H242.6" stroke="white" stroke-width="1.8" stroke-linecap="round" stroke-linejoin="round"/>
<path d="M240 46.6004V41.4004" stroke="white" stroke-width="1.8" stroke-linecap="round" stroke-linejoin="round"/>
<path d="M238 51H242C243.1 51 244 51.9 244 53V59H236V53C236 51.9 236.9 51 238 51Z" fill="#0C8E75"/>
<path d="M247 37H233C232.448 37 232 37.4477 232 38C232 38.5523 232.448 39 233 39H247C247.552 39 248 38.5523 248 38C248 37.4477 247.552 37 247 37Z" fill="#0C8E75"/>
</g>
<g clip-path="url(#clip8_11124_107431)">
<path d="M208 36H211.38C212.12 36 212.61 36.78 212.27 37.45L210.49 41L208.88 44.21C208.51 44.95 207.46 44.95 207.09 44.21L205.48 41L203.7 37.45C203.37 36.79 203.85 36 204.59 36H207.97H208Z" fill="#23B599"/>
<path d="M218.18 49.24C217.12 44.42 212.89 41 208 41C203.11 41 198.88 44.43 197.82 49.24L197.15 52.29C196.28 56.25 199.26 60 203.27 60H208H212.73C216.74 60 219.72 56.25 218.85 52.29L218.18 49.24Z" fill="url(#paint29_linear_11124_107431)"/>
<path d="M211.06 40H204.94C204.421 40 204 40.4209 204 40.94V41.06C204 41.5791 204.421 42 204.94 42H211.06C211.579 42 212 41.5791 212 41.06V40.94C212 40.4209 211.579 40 211.06 40Z" fill="#0C8E75"/>
<path d="M203.86 48.0996L205.93 52.8996L208 49.1396" stroke="white" stroke-width="1.5" stroke-linecap="round" stroke-linejoin="round"/>
<path d="M212.14 48.0996L210.07 52.8996L208 49.1396" stroke="white" stroke-width="1.5" stroke-linecap="round" stroke-linejoin="round"/>
<path d="M203 50.1592H204.72" stroke="white" stroke-width="1.5" stroke-linecap="round" stroke-linejoin="round"/>
<path d="M211.28 50.1592H213" stroke="white" stroke-width="1.5" stroke-linecap="round" stroke-linejoin="round"/>
</g>
<rect width="32" height="32" transform="translate(256 32)" fill="white"/>
<rect x="261" y="36" width="22" height="19" rx="4" fill="url(#paint30_linear_11124_107431)"/>
<rect opacity="0.56" x="262.162" y="37.8496" width="19.6763" height="15.8848" rx="4" fill="url(#paint31_radial_11124_107431)" fill-opacity="0.5"/>
<path d="M264.5 46.4658H268.404L269.226 44.4384L271.075 48.6986L274.158 43L276.212 46.4658H279.5" stroke="white" stroke-width="1.5" stroke-linecap="round" stroke-linejoin="round"/>
<rect x="261" y="56" width="22" height="3.3" rx="1.65" fill="url(#paint32_linear_11124_107431)"/>
<mask id="mask2_11124_107431" style="mask-type:alpha" maskUnits="userSpaceOnUse" x="0" y="96" width="32" height="32">
<rect y="96" width="32" height="32" fill="#D9D9D9"/>
</mask>
<g mask="url(#mask2_11124_107431)">
<path fill-rule="evenodd" clip-rule="evenodd" d="M25.2075 108.377C24.5313 106.655 23.3798 105.144 21.8682 104.031C19.7671 102.484 17.1377 101.829 14.5527 102.214C11.9672 102.598 9.63625 103.99 8.07088 106.089C6.50551 108.187 5.83509 110.818 6.2032 113.405C6.57125 115.993 7.94734 118.326 10.0288 119.9C12.1103 121.473 14.7313 122.16 17.3208 121.808C19.5794 121.501 21.6541 120.426 23.2035 118.777C23.5818 118.375 24.206 118.287 24.6445 118.623L25.4747 119.259C25.9132 119.594 25.9992 120.225 25.6305 120.636C23.591 122.911 20.8007 124.399 17.7485 124.814C14.364 125.274 10.9323 124.376 8.20413 122.314C5.47594 120.252 3.67592 117.196 3.19485 113.814C2.71385 110.433 3.59027 107.001 5.63001 104.267C7.66973 101.533 10.7093 99.7153 14.0873 99.2132C17.4657 98.711 20.9083 99.5655 23.6621 101.593C25.6923 103.088 27.2249 105.13 28.0999 107.452L29.5007 107.004C29.8925 106.879 30.2596 107.254 30.1259 107.643L28.5511 112.224C28.4423 112.541 28.0596 112.663 27.7874 112.469L23.8464 109.651C23.5118 109.412 23.5931 108.894 23.9849 108.768L25.2075 108.377Z" fill="url(#paint33_linear_11124_107431)"/>
<mask id="path-99-outside-1_11124_107431" maskUnits="userSpaceOnUse" x="10.3531" y="106.274" width="12" height="12" fill="black">
<rect fill="white" x="10.3531" y="106.274" width="12" height="12"/>
<path fill-rule="evenodd" clip-rule="evenodd" d="M14.574 107.82C14.5663 107.715 14.5473 107.622 14.5152 107.542L14.514 107.539C14.4781 107.459 14.419 107.398 14.3392 107.362C14.2734 107.321 14.2004 107.297 14.1213 107.289C14.0498 107.274 13.9727 107.27 13.8906 107.277C13.8177 107.278 13.7519 107.285 13.6946 107.301C13.6509 107.308 13.6075 107.319 13.5642 107.333C13.5197 107.341 13.4725 107.352 13.4225 107.366C13.1918 107.431 12.9647 107.507 12.7412 107.593C12.5281 107.671 12.3078 107.749 12.0804 107.828C11.8639 107.895 11.6816 107.997 11.5359 108.135L11.5344 108.136C11.384 108.287 11.3309 108.492 11.3614 108.738C11.3847 108.976 11.4805 109.151 11.6667 109.231L11.6709 109.233C11.8398 109.294 12.0225 109.313 12.2175 109.291C12.2544 109.29 12.3195 109.282 12.4068 109.269C12.5012 109.254 12.5989 109.236 12.7001 109.215C12.8094 109.193 12.9058 109.167 12.9888 109.137C13.0038 109.132 13.0182 109.126 13.0319 109.121C13.0316 110.023 13.028 110.902 13.0213 111.76C13.0213 112.66 13.0463 113.583 13.0962 114.526C13.0964 114.652 13.1075 114.777 13.1296 114.902L13.1305 114.907C13.166 115.058 13.2664 115.16 13.4183 115.211C13.5511 115.257 13.7038 115.276 13.8746 115.268C14.0561 115.268 14.21 115.227 14.3278 115.135C14.4082 115.078 14.4706 115.008 14.5125 114.924L14.5137 114.921C14.5532 114.834 14.577 114.743 14.5849 114.648C14.5923 114.56 14.5925 114.474 14.5852 114.392V108.421C14.5923 108.32 14.5959 108.219 14.5959 108.118C14.5959 108.016 14.5887 107.916 14.574 107.82ZM12.9624 109.061C13.0481 109.032 13.098 109 13.1123 108.964C13.1123 109.921 13.1088 110.853 13.1016 111.76C13.1085 110.89 13.112 109.996 13.1123 109.08L13.1123 108.964C13.1025 108.989 13.0757 109.012 13.032 109.033C13.0122 109.043 12.989 109.052 12.9624 109.061Z"/>
<path fill-rule="evenodd" clip-rule="evenodd" d="M21.3459 110.724C21.3456 110.895 21.3157 111.049 21.2535 111.182C21.2384 111.219 21.2168 111.266 21.1893 111.321C21.168 111.378 21.1434 111.438 21.1155 111.5C21.0933 111.567 21.0673 111.63 21.0374 111.689L20.9747 111.815L20.9532 111.869C20.8532 112.09 20.7568 112.304 20.664 112.511C20.5708 112.719 20.4669 112.941 20.3523 113.177C20.2383 113.405 20.1274 113.631 20.0205 113.852C19.9205 114.066 19.8204 114.277 19.7204 114.484L19.7199 114.485C19.6925 114.54 19.6687 114.594 19.6483 114.649L19.647 114.652C19.6241 114.706 19.5943 114.761 19.5581 114.82L19.0451 115.921C18.9526 116.105 18.8637 116.287 18.7784 116.464C18.6989 116.645 18.6086 116.826 18.5077 117.006L18.5065 117.008C18.486 117.042 18.4651 117.074 18.444 117.102L18.405 117.2L18.4029 117.205L18.3998 117.211C18.344 117.306 18.2622 117.395 18.1576 117.478C18.0545 117.572 17.9387 117.627 17.8112 117.636C17.5996 117.651 17.4123 117.589 17.2545 117.449C17.1586 117.392 17.083 117.311 17.0278 117.208L17.0252 117.203C16.9905 117.125 16.9754 117.03 16.9754 116.924C16.9754 116.919 16.9758 116.915 16.9765 116.91C16.9829 116.872 16.9861 116.833 16.9861 116.795C16.9861 116.79 16.9866 116.785 16.9877 116.779L17.0091 116.672C17.0101 116.667 17.0115 116.663 17.0133 116.658C17.0258 116.627 17.0351 116.596 17.0412 116.565C17.0489 116.527 17.061 116.49 17.0799 116.459C17.0904 116.432 17.1015 116.408 17.1135 116.388C17.12 116.378 17.1289 116.365 17.1409 116.355L17.1435 116.353L17.8993 114.717L17.8064 114.512C17.7708 114.427 17.739 114.353 17.7107 114.289L17.71 114.287C17.6174 114.067 17.5176 113.835 17.4107 113.593L17.4096 113.59C17.3099 113.341 17.2068 113.095 17.1001 112.853C16.9934 112.605 16.8829 112.362 16.7692 112.128C16.6557 111.893 16.5422 111.67 16.4288 111.457C16.3847 111.384 16.3444 111.307 16.3077 111.226L16.3067 111.224C16.2698 111.135 16.2401 111.05 16.2177 110.968L16.2172 110.966C16.1937 110.872 16.1858 110.777 16.1937 110.683C16.2021 110.582 16.2393 110.485 16.3012 110.391C16.3643 110.274 16.4498 110.187 16.5592 110.135C16.6632 110.08 16.773 110.055 16.8872 110.063C17.0043 110.063 17.1149 110.087 17.2179 110.134C17.3197 110.181 17.4043 110.245 17.4698 110.326C17.5961 110.46 17.6969 110.609 17.7716 110.774C17.8432 110.932 17.9113 111.093 17.9758 111.257C18.1113 111.543 18.2503 111.842 18.3929 112.156C18.5113 112.416 18.6297 112.672 18.7481 112.922L19.2334 111.896C19.2896 111.783 19.3387 111.675 19.3806 111.57L19.3824 111.566C19.4325 111.458 19.4827 111.355 19.5329 111.254C19.5891 111.135 19.6418 111.012 19.691 110.885L19.6924 110.882C19.7505 110.751 19.816 110.63 19.8891 110.52C19.9038 110.491 19.919 110.465 19.9347 110.441C19.9467 110.423 19.9594 110.401 19.9725 110.375C19.9747 110.371 19.9772 110.366 19.9801 110.363C20.0456 110.275 20.1053 110.204 20.1589 110.15C20.161 110.148 20.1633 110.146 20.1656 110.145C20.201 110.116 20.2311 110.093 20.2551 110.077C20.2921 110.05 20.3336 110.032 20.3788 110.022C20.4313 110.007 20.4823 109.999 20.5313 109.998C20.5862 109.991 20.6391 109.991 20.6896 109.999C20.6929 110 20.6962 110.001 20.6995 110.002C20.7745 110.024 20.863 110.058 20.9642 110.101C21.0885 110.151 21.1838 110.238 21.2492 110.359C21.3206 110.472 21.3535 110.594 21.3459 110.724Z"/>
</mask>
<path fill-rule="evenodd" clip-rule="evenodd" d="M14.574 107.82C14.5663 107.715 14.5473 107.622 14.5152 107.542L14.514 107.539C14.4781 107.459 14.419 107.398 14.3392 107.362C14.2734 107.321 14.2004 107.297 14.1213 107.289C14.0498 107.274 13.9727 107.27 13.8906 107.277C13.8177 107.278 13.7519 107.285 13.6946 107.301C13.6509 107.308 13.6075 107.319 13.5642 107.333C13.5197 107.341 13.4725 107.352 13.4225 107.366C13.1918 107.431 12.9647 107.507 12.7412 107.593C12.5281 107.671 12.3078 107.749 12.0804 107.828C11.8639 107.895 11.6816 107.997 11.5359 108.135L11.5344 108.136C11.384 108.287 11.3309 108.492 11.3614 108.738C11.3847 108.976 11.4805 109.151 11.6667 109.231L11.6709 109.233C11.8398 109.294 12.0225 109.313 12.2175 109.291C12.2544 109.29 12.3195 109.282 12.4068 109.269C12.5012 109.254 12.5989 109.236 12.7001 109.215C12.8094 109.193 12.9058 109.167 12.9888 109.137C13.0038 109.132 13.0182 109.126 13.0319 109.121C13.0316 110.023 13.028 110.902 13.0213 111.76C13.0213 112.66 13.0463 113.583 13.0962 114.526C13.0964 114.652 13.1075 114.777 13.1296 114.902L13.1305 114.907C13.166 115.058 13.2664 115.16 13.4183 115.211C13.5511 115.257 13.7038 115.276 13.8746 115.268C14.0561 115.268 14.21 115.227 14.3278 115.135C14.4082 115.078 14.4706 115.008 14.5125 114.924L14.5137 114.921C14.5532 114.834 14.577 114.743 14.5849 114.648C14.5923 114.56 14.5925 114.474 14.5852 114.392V108.421C14.5923 108.32 14.5959 108.219 14.5959 108.118C14.5959 108.016 14.5887 107.916 14.574 107.82ZM12.9624 109.061C13.0481 109.032 13.098 109 13.1123 108.964C13.1123 109.921 13.1088 110.853 13.1016 111.76C13.1085 110.89 13.112 109.996 13.1123 109.08L13.1123 108.964C13.1025 108.989 13.0757 109.012 13.032 109.033C13.0122 109.043 12.989 109.052 12.9624 109.061Z" fill="#313749"/>
<path fill-rule="evenodd" clip-rule="evenodd" d="M21.3459 110.724C21.3456 110.895 21.3157 111.049 21.2535 111.182C21.2384 111.219 21.2168 111.266 21.1893 111.321C21.168 111.378 21.1434 111.438 21.1155 111.5C21.0933 111.567 21.0673 111.63 21.0374 111.689L20.9747 111.815L20.9532 111.869C20.8532 112.09 20.7568 112.304 20.664 112.511C20.5708 112.719 20.4669 112.941 20.3523 113.177C20.2383 113.405 20.1274 113.631 20.0205 113.852C19.9205 114.066 19.8204 114.277 19.7204 114.484L19.7199 114.485C19.6925 114.54 19.6687 114.594 19.6483 114.649L19.647 114.652C19.6241 114.706 19.5943 114.761 19.5581 114.82L19.0451 115.921C18.9526 116.105 18.8637 116.287 18.7784 116.464C18.6989 116.645 18.6086 116.826 18.5077 117.006L18.5065 117.008C18.486 117.042 18.4651 117.074 18.444 117.102L18.405 117.2L18.4029 117.205L18.3998 117.211C18.344 117.306 18.2622 117.395 18.1576 117.478C18.0545 117.572 17.9387 117.627 17.8112 117.636C17.5996 117.651 17.4123 117.589 17.2545 117.449C17.1586 117.392 17.083 117.311 17.0278 117.208L17.0252 117.203C16.9905 117.125 16.9754 117.03 16.9754 116.924C16.9754 116.919 16.9758 116.915 16.9765 116.91C16.9829 116.872 16.9861 116.833 16.9861 116.795C16.9861 116.79 16.9866 116.785 16.9877 116.779L17.0091 116.672C17.0101 116.667 17.0115 116.663 17.0133 116.658C17.0258 116.627 17.0351 116.596 17.0412 116.565C17.0489 116.527 17.061 116.49 17.0799 116.459C17.0904 116.432 17.1015 116.408 17.1135 116.388C17.12 116.378 17.1289 116.365 17.1409 116.355L17.1435 116.353L17.8993 114.717L17.8064 114.512C17.7708 114.427 17.739 114.353 17.7107 114.289L17.71 114.287C17.6174 114.067 17.5176 113.835 17.4107 113.593L17.4096 113.59C17.3099 113.341 17.2068 113.095 17.1001 112.853C16.9934 112.605 16.8829 112.362 16.7692 112.128C16.6557 111.893 16.5422 111.67 16.4288 111.457C16.3847 111.384 16.3444 111.307 16.3077 111.226L16.3067 111.224C16.2698 111.135 16.2401 111.05 16.2177 110.968L16.2172 110.966C16.1937 110.872 16.1858 110.777 16.1937 110.683C16.2021 110.582 16.2393 110.485 16.3012 110.391C16.3643 110.274 16.4498 110.187 16.5592 110.135C16.6632 110.08 16.773 110.055 16.8872 110.063C17.0043 110.063 17.1149 110.087 17.2179 110.134C17.3197 110.181 17.4043 110.245 17.4698 110.326C17.5961 110.46 17.6969 110.609 17.7716 110.774C17.8432 110.932 17.9113 111.093 17.9758 111.257C18.1113 111.543 18.2503 111.842 18.3929 112.156C18.5113 112.416 18.6297 112.672 18.7481 112.922L19.2334 111.896C19.2896 111.783 19.3387 111.675 19.3806 111.57L19.3824 111.566C19.4325 111.458 19.4827 111.355 19.5329 111.254C19.5891 111.135 19.6418 111.012 19.691 110.885L19.6924 110.882C19.7505 110.751 19.816 110.63 19.8891 110.52C19.9038 110.491 19.919 110.465 19.9347 110.441C19.9467 110.423 19.9594 110.401 19.9725 110.375C19.9747 110.371 19.9772 110.366 19.9801 110.363C20.0456 110.275 20.1053 110.204 20.1589 110.15C20.161 110.148 20.1633 110.146 20.1656 110.145C20.201 110.116 20.2311 110.093 20.2551 110.077C20.2921 110.05 20.3336 110.032 20.3788 110.022C20.4313 110.007 20.4823 109.999 20.5313 109.998C20.5862 109.991 20.6391 109.991 20.6896 109.999C20.6929 110 20.6962 110.001 20.6995 110.002C20.7745 110.024 20.863 110.058 20.9642 110.101C21.0885 110.151 21.1838 110.238 21.2492 110.359C21.3206 110.472 21.3535 110.594 21.3459 110.724Z" fill="#313749"/>
<path d="M12.3946 109.189L12.4098 109.288L12.4098 109.288L12.3946 109.189ZM12.6838 109.136L12.6642 109.038L12.6629 109.038L12.6838 109.136ZM12.2125 109.211V109.11L12.201 109.111L12.2125 109.211ZM11.6983 109.157L11.6589 109.249L11.6642 109.251L11.6983 109.157ZM11.4412 108.729L11.5408 108.719L11.5405 108.716L11.4412 108.729ZM13.1766 114.524H13.2767L13.2765 114.518L13.1766 114.524ZM13.2087 114.888L13.1101 114.905L13.1114 114.911L13.2087 114.888ZM13.4444 115.134L13.4777 115.04L13.476 115.039L13.4444 115.134ZM13.8729 115.188V115.088L13.8685 115.088L13.8729 115.188ZM14.2799 115.07L14.2225 114.988L14.2181 114.991L14.2799 115.07ZM14.4406 114.888L14.5301 114.933L14.5316 114.929L14.4406 114.888ZM14.5049 114.642L14.4052 114.633L14.4052 114.633L14.5049 114.642ZM21.1798 111.149L21.0892 111.106L21.087 111.112L21.1798 111.149ZM21.1156 111.289L21.0256 111.244L21.0219 111.254L21.1156 111.289ZM21.0406 111.471L20.9488 111.43L20.9457 111.44L21.0406 111.471ZM20.9656 111.653L20.8761 111.609L20.8761 111.609L20.9656 111.653ZM20.9013 111.782L20.8116 111.737L20.8085 111.745L20.9013 111.782ZM20.8799 111.835L20.9711 111.877L20.9727 111.873L20.8799 111.835ZM20.5907 112.478L20.6819 112.519L20.6819 112.519L20.5907 112.478ZM20.28 113.142L20.3695 113.187L20.37 113.186L20.28 113.142ZM19.948 113.817L19.8579 113.774L19.8573 113.775L19.948 113.817ZM19.648 114.449L19.7375 114.494L19.7381 114.493L19.648 114.449ZM19.573 114.621L19.6651 114.66L19.6667 114.656L19.573 114.621ZM19.4873 114.781L19.4019 114.728L19.3967 114.739L19.4873 114.781ZM18.9732 115.885L19.0626 115.929L19.0638 115.927L18.9732 115.885ZM18.7054 116.431L18.6152 116.388L18.6138 116.391L18.7054 116.431ZM18.4376 116.967L18.5234 117.018L18.5248 117.015L18.4376 116.967ZM18.3733 117.063L18.2933 117.003C18.288 117.01 18.2837 117.018 18.2805 117.026L18.3733 117.063ZM18.3305 117.17L18.4168 117.22C18.4193 117.216 18.4215 117.212 18.4233 117.207L18.3305 117.17ZM18.1055 117.416L18.0435 117.338L18.0377 117.343L18.1055 117.416ZM17.8056 117.556L17.7989 117.456L17.7982 117.456L17.8056 117.556ZM17.3021 117.384L17.369 117.31C17.3639 117.305 17.3584 117.301 17.3525 117.298L17.3021 117.384ZM17.0986 117.17L17.0069 117.211L17.0105 117.217L17.0986 117.17ZM17.8806 114.481L17.7882 114.52L17.7895 114.523L17.8806 114.481ZM17.7841 114.256L17.6919 114.295L17.6928 114.297L17.7841 114.256ZM17.4842 113.56L17.3913 113.597L17.3927 113.6L17.4842 113.56ZM17.1736 112.821L17.0816 112.86L17.0821 112.861L17.1736 112.821ZM16.8415 112.093L16.9315 112.049L16.9315 112.049L16.8415 112.093ZM16.4987 111.418L16.5871 111.371L16.5845 111.366L16.4987 111.418ZM16.3809 111.193L16.2885 111.231L16.2898 111.234L16.3809 111.193ZM16.2952 110.946L16.1982 110.971L16.1987 110.973L16.2952 110.946ZM12.4098 109.288C12.5047 109.274 12.6031 109.255 12.7048 109.234L12.6629 109.038C12.5646 109.059 12.4702 109.077 12.3794 109.091L12.4098 109.288ZM12.2125 109.311C12.2502 109.311 12.3188 109.302 12.4098 109.288L12.3794 109.091C12.2848 109.105 12.232 109.111 12.2125 109.111V109.311ZM11.6642 109.251C11.8375 109.314 12.0247 109.333 12.224 109.31L12.201 109.111C12.029 109.131 11.8734 109.115 11.7325 109.063L11.6642 109.251ZM11.3417 108.738C11.3652 108.981 11.4635 109.165 11.6589 109.249L11.7377 109.065C11.6333 109.021 11.5601 108.919 11.5408 108.719L11.3417 108.738ZM11.3346 108.564C11.3317 108.621 11.3344 108.68 11.342 108.741L11.5405 108.716C11.5341 108.665 11.5321 108.618 11.5343 108.574L11.3346 108.564ZM12.9282 108.967C12.8554 108.993 12.7676 109.017 12.6642 109.038L12.7034 109.234C12.8143 109.212 12.9122 109.185 12.9965 109.155L12.9282 108.967ZM13.2765 114.518C13.2266 113.577 13.2016 112.658 13.2016 111.76H13.0016C13.0016 112.662 13.0267 113.585 13.0767 114.529L13.2765 114.518ZM13.3072 114.87C13.2868 114.755 13.2766 114.639 13.2766 114.524H13.0766C13.0766 114.651 13.0878 114.778 13.1103 114.905L13.3072 114.87ZM13.476 115.039C13.377 115.006 13.3259 114.949 13.3061 114.865L13.1114 114.911C13.1487 115.069 13.2547 115.176 13.4128 115.229L13.476 115.039ZM13.8685 115.088C13.7137 115.095 13.5842 115.078 13.4777 115.04L13.4111 115.229C13.5474 115.277 13.7036 115.295 13.8772 115.288L13.8685 115.088ZM14.2181 114.991C14.141 115.052 14.0296 115.088 13.8729 115.088V115.288C14.0589 115.288 14.2189 115.245 14.3417 115.149L14.2181 114.991ZM14.3512 114.843C14.3236 114.898 14.2816 114.947 14.2226 114.988L14.3373 115.152C14.421 115.093 14.4862 115.02 14.53 114.933L14.3512 114.843ZM14.4052 114.633C14.399 114.707 14.3805 114.778 14.3496 114.846L14.5316 114.929C14.5721 114.84 14.5964 114.747 14.6045 114.65L14.4052 114.633ZM14.4085 114.585C14.4077 114.601 14.4066 114.617 14.4052 114.633L14.6045 114.65C14.6061 114.631 14.6073 114.613 14.6082 114.595L14.4085 114.585ZM14.6046 108.425C14.6062 108.403 14.6076 108.381 14.6088 108.359L14.4091 108.348C14.408 108.369 14.4066 108.39 14.4051 108.411L14.6046 108.425ZM21.1665 110.695C21.1664 110.702 21.1661 110.708 21.1657 110.714L21.3653 110.727C21.3659 110.718 21.3663 110.708 21.3665 110.699L21.1665 110.695ZM21.1654 110.739C21.1634 110.884 21.137 111.005 21.0894 111.107L21.2703 111.192C21.3324 111.06 21.363 110.909 21.3654 110.742L21.1654 110.739ZM21.205 111.334C21.2343 111.275 21.257 111.225 21.2727 111.186L21.087 111.112C21.0741 111.144 21.0539 111.189 21.0261 111.244L21.205 111.334ZM21.132 111.512C21.1612 111.446 21.187 111.384 21.2092 111.324L21.0219 111.254C21.0013 111.309 20.9771 111.368 20.9492 111.431L21.132 111.512ZM21.055 111.698C21.0858 111.637 21.1126 111.571 21.1354 111.503L20.9457 111.44C20.9257 111.5 20.9025 111.556 20.8761 111.609L21.055 111.698ZM20.9908 111.827L21.055 111.698L20.8761 111.609L20.8119 111.737L20.9908 111.827ZM20.9727 111.873L20.9942 111.819L20.8085 111.745L20.787 111.798L20.9727 111.873ZM20.6819 112.519C20.7747 112.312 20.8711 112.098 20.971 111.877L20.7888 111.794C20.6887 112.016 20.5923 112.23 20.4994 112.437L20.6819 112.519ZM20.37 113.186C20.4846 112.95 20.5886 112.727 20.6819 112.519L20.4994 112.437C20.407 112.643 20.3039 112.864 20.19 113.099L20.37 113.186ZM20.038 113.861C20.1449 113.64 20.2554 113.415 20.3695 113.187L20.1906 113.098C20.0761 113.327 19.9653 113.552 19.8579 113.774L20.038 113.861ZM19.7381 114.493C19.8382 114.285 19.9384 114.074 20.0386 113.859L19.8573 113.775C19.7575 113.989 19.6577 114.199 19.558 114.406L19.7381 114.493ZM19.6667 114.656C19.6868 114.602 19.7104 114.548 19.7375 114.494L19.5586 114.404C19.5285 114.465 19.5021 114.525 19.4794 114.585L19.6667 114.656ZM19.5721 114.834C19.61 114.774 19.6411 114.716 19.665 114.66L19.4811 114.581C19.4621 114.626 19.4361 114.675 19.4025 114.728L19.5721 114.834ZM19.0638 115.927L19.578 114.824L19.3967 114.739L18.8825 115.842L19.0638 115.927ZM18.7955 116.474C18.881 116.296 18.97 116.115 19.0626 115.929L18.8837 115.84C18.7907 116.026 18.7012 116.209 18.6152 116.388L18.7955 116.474ZM18.5248 117.015C18.6263 116.834 18.717 116.653 18.7969 116.471L18.6138 116.391C18.5366 116.566 18.4488 116.742 18.3503 116.918L18.5248 117.015ZM18.4533 117.123C18.4771 117.091 18.5004 117.056 18.5233 117.018L18.3518 116.915C18.3319 116.948 18.3124 116.978 18.2933 117.003L18.4533 117.123ZM18.4233 117.207L18.4661 117.1L18.2805 117.026L18.2376 117.133L18.4233 117.207ZM18.1673 117.495C18.2745 117.411 18.359 117.32 18.4168 117.22L18.2441 117.12C18.2019 117.192 18.1365 117.265 18.0437 117.338L18.1673 117.495ZM17.8122 117.655C17.946 117.647 18.0668 117.588 18.1733 117.49L18.0377 117.343C17.9585 117.416 17.8794 117.451 17.7989 117.456L17.8122 117.655ZM17.2352 117.459C17.3984 117.606 17.5931 117.672 17.813 117.655L17.7982 117.456C17.6324 117.468 17.4914 117.42 17.369 117.31L17.2352 117.459ZM17.0105 117.217C17.0687 117.325 17.1491 117.411 17.2517 117.471L17.3525 117.298C17.2837 117.258 17.2285 117.2 17.1866 117.123L17.0105 117.217ZM16.9557 116.924C16.9557 117.032 16.9711 117.129 17.0072 117.211L17.19 117.129C17.1689 117.082 17.1557 117.015 17.1557 116.924H16.9557ZM17.7895 114.523L17.8965 114.758L18.0785 114.675L17.9716 114.44L17.7895 114.523ZM17.6928 114.297C17.7209 114.36 17.7528 114.435 17.7882 114.52L17.9729 114.443C17.9369 114.357 17.9045 114.281 17.8755 114.216L17.6928 114.297ZM17.3927 113.6C17.4996 113.843 17.5994 114.074 17.6919 114.295L17.8764 114.218C17.7833 113.996 17.683 113.763 17.5757 113.52L17.3927 113.6ZM17.0821 112.861C17.1887 113.103 17.2918 113.348 17.3914 113.597L17.5771 113.523C17.4767 113.272 17.3727 113.025 17.2651 112.781L17.0821 112.861ZM16.7515 112.136C16.8651 112.37 16.9751 112.612 17.0817 112.86L17.2655 112.782C17.1578 112.53 17.0464 112.286 16.9315 112.049L16.7515 112.136ZM16.4105 111.465C16.5241 111.678 16.6378 111.902 16.7515 112.136L16.9315 112.049C16.8167 111.812 16.7019 111.586 16.5869 111.371L16.4105 111.465ZM16.2898 111.234C16.3271 111.316 16.3681 111.394 16.413 111.469L16.5845 111.366C16.5436 111.298 16.5061 111.227 16.4719 111.151L16.2898 111.234ZM16.1987 110.973C16.2214 111.056 16.2514 111.142 16.2886 111.231L16.4732 111.154C16.4389 111.072 16.4118 110.994 16.3917 110.92L16.1987 110.973ZM16.1712 110.74C16.17 110.817 16.179 110.894 16.1982 110.971L16.3922 110.922C16.3771 110.862 16.3702 110.802 16.3712 110.743L16.1712 110.74ZM14.5152 107.542L14.7009 107.468L14.6994 107.464L14.5152 107.542ZM14.574 107.82L14.3746 107.835C14.375 107.84 14.3755 107.845 14.3763 107.85L14.574 107.82ZM14.514 107.539L14.6983 107.461L14.6968 107.458L14.514 107.539ZM14.3392 107.362L14.235 107.532C14.2416 107.536 14.2483 107.54 14.2553 107.543L14.3392 107.362ZM14.1213 107.289L14.0794 107.484C14.0861 107.486 14.0929 107.487 14.0998 107.488L14.1213 107.289ZM13.8906 107.277L13.8913 107.477C13.8969 107.477 13.9025 107.477 13.908 107.477L13.8906 107.277ZM13.6946 107.301L13.7284 107.498C13.7349 107.497 13.7414 107.495 13.7477 107.493L13.6946 107.301ZM13.5642 107.333L13.5983 107.53C13.6078 107.528 13.6171 107.526 13.6262 107.523L13.5642 107.333ZM13.4225 107.366L13.4766 107.559L13.4774 107.558L13.4225 107.366ZM12.7412 107.593L12.8101 107.781L12.8134 107.78L12.7412 107.593ZM12.0804 107.828L12.1398 108.019L12.1454 108.017L12.0804 107.828ZM11.5359 108.135L11.3983 107.99L11.3945 107.993L11.5359 108.135ZM11.5344 108.136L11.393 107.995L11.393 107.995L11.5344 108.136ZM11.3614 108.738L11.5605 108.718L11.5599 108.713L11.3614 108.738ZM11.6667 109.231L11.5879 109.415L11.5931 109.417L11.6667 109.231ZM11.6709 109.233L11.5973 109.419L11.6025 109.421L11.6709 109.233ZM12.2175 109.291L12.2137 109.091C12.2075 109.091 12.2013 109.092 12.1951 109.092L12.2175 109.291ZM12.4068 109.269L12.4372 109.466L12.4372 109.466L12.4068 109.269ZM12.7001 109.215L12.6609 109.018L12.6582 109.019L12.7001 109.215ZM12.9888 109.137L12.9253 108.947L12.9206 108.949L12.9888 109.137ZM13.0319 109.121L13.2319 109.121C13.232 109.055 13.199 108.992 13.1439 108.955C13.0888 108.918 13.0189 108.911 12.9572 108.935L13.0319 109.121ZM13.0213 111.76L12.8213 111.758V111.76H13.0213ZM13.0962 114.526L13.2965 114.526L13.296 114.515L13.0962 114.526ZM13.1296 114.902L12.9326 114.937L12.9337 114.942L13.1296 114.902ZM13.1305 114.907L12.9345 114.947L12.9358 114.952L13.1305 114.907ZM13.4183 115.211L13.4847 115.022L13.4818 115.021L13.4183 115.211ZM13.8746 115.268L13.8743 115.068L13.8661 115.069L13.8746 115.268ZM14.3278 115.135L14.2124 114.971L14.2049 114.977L14.3278 115.135ZM14.5125 114.924L14.6915 115.014L14.6946 115.007L14.5125 114.924ZM14.5137 114.921L14.3317 114.839L14.3317 114.839L14.5137 114.921ZM14.5849 114.648L14.3856 114.632L14.3856 114.632L14.5849 114.648ZM14.5852 114.392H14.3852C14.3852 114.398 14.3855 114.404 14.386 114.409L14.5852 114.392ZM14.5852 108.421L14.3852 108.407V108.421H14.5852ZM12.8991 108.871C12.7943 108.906 12.7377 109.019 12.7726 109.124C12.8075 109.229 12.9208 109.285 13.0256 109.25L12.8991 108.871ZM13.1123 108.964H13.3123C13.3123 108.868 13.2443 108.786 13.1501 108.768C13.056 108.75 12.9622 108.801 12.9266 108.89L13.1123 108.964ZM12.9016 111.758C12.9007 111.869 12.9896 111.959 13.1 111.96C13.2105 111.961 13.3007 111.872 13.3016 111.762L12.9016 111.758ZM13.1123 109.08L13.3123 109.08L13.3123 109.08L13.1123 109.08ZM13.032 109.033L12.9447 108.853L12.9447 108.853L13.032 109.033ZM21.2535 111.182L21.0721 111.097L21.068 111.107L21.2535 111.182ZM21.3459 110.724L21.1459 110.712L21.1459 110.724L21.3459 110.724ZM21.1893 111.321L21.0103 111.232C21.0073 111.238 21.0045 111.244 21.0021 111.251L21.1893 111.321ZM21.1155 111.5L20.9327 111.419C20.9302 111.425 20.9279 111.431 20.926 111.437L21.1155 111.5ZM21.0374 111.689L20.8586 111.6L20.8586 111.6L21.0374 111.689ZM20.9747 111.815L20.7958 111.725C20.7933 111.73 20.791 111.735 20.789 111.741L20.9747 111.815ZM20.9532 111.869L21.1356 111.951L21.1389 111.943L20.9532 111.869ZM20.664 112.511L20.8465 112.593L20.8465 112.593L20.664 112.511ZM20.3523 113.177L20.5312 113.267L20.5323 113.265L20.3523 113.177ZM20.0205 113.852L19.8405 113.765L19.8393 113.767L20.0205 113.852ZM19.7204 114.484L19.8999 114.572L19.9005 114.571L19.7204 114.484ZM19.7199 114.485L19.8988 114.575L19.8994 114.573L19.7199 114.485ZM19.6483 114.649L19.461 114.579L19.461 114.579L19.6483 114.649ZM19.647 114.652L19.831 114.731L19.8342 114.722L19.647 114.652ZM19.5581 114.82L19.3882 114.714C19.384 114.721 19.3802 114.728 19.3768 114.735L19.5581 114.82ZM19.0451 115.921L19.224 116.01L19.2263 116.005L19.0451 115.921ZM18.7784 116.464L18.598 116.378L18.5953 116.384L18.7784 116.464ZM18.5077 117.006L18.3332 116.908L18.3331 116.908L18.5077 117.006ZM18.5065 117.008L18.6781 117.111L18.681 117.106L18.5065 117.008ZM18.444 117.102L18.2827 116.984C18.2728 116.998 18.2646 117.013 18.2583 117.028L18.444 117.102ZM18.405 117.2L18.5883 117.28L18.5907 117.274L18.405 117.2ZM18.4029 117.205L18.5796 117.299C18.5819 117.294 18.584 117.29 18.586 117.285L18.4029 117.205ZM18.3998 117.211L18.5727 117.311L18.5765 117.304L18.3998 117.211ZM18.1576 117.478L18.0337 117.321C18.0299 117.324 18.0262 117.327 18.0226 117.33L18.1576 117.478ZM17.8112 117.636L17.7978 117.436L17.7965 117.436L17.8112 117.636ZM17.2545 117.449L17.3868 117.3C17.3778 117.291 17.3679 117.284 17.3576 117.278L17.2545 117.449ZM17.0278 117.208L16.8482 117.296L16.8518 117.303L17.0278 117.208ZM17.0252 117.203L16.8423 117.284L16.8456 117.291L17.0252 117.203ZM16.9765 116.91L16.7792 116.878L16.7792 116.878L16.9765 116.91ZM16.9877 116.779L16.7916 116.74L16.7916 116.74L16.9877 116.779ZM17.0091 116.672L17.2052 116.711L17.2052 116.711L17.0091 116.672ZM17.0133 116.658L16.8276 116.584L16.8276 116.584L17.0133 116.658ZM17.0412 116.565L17.2373 116.604L17.2373 116.604L17.0412 116.565ZM17.0799 116.459L17.251 116.563C17.2571 116.553 17.2623 116.542 17.2665 116.531L17.0799 116.459ZM17.1135 116.388L16.9439 116.282L16.9439 116.282L17.1135 116.388ZM17.1409 116.355L17.0103 116.203L17.0081 116.205L17.1409 116.355ZM17.1435 116.353L17.2741 116.504C17.2957 116.485 17.3131 116.462 17.325 116.436L17.1435 116.353ZM17.8993 114.717L18.0809 114.801C18.1053 114.748 18.1055 114.687 18.0814 114.634L17.8993 114.717ZM17.8064 114.512L17.6216 114.589L17.6243 114.595L17.8064 114.512ZM17.7107 114.289L17.8935 114.208L17.8935 114.208L17.7107 114.289ZM17.71 114.287L17.5256 114.365L17.5273 114.369L17.71 114.287ZM17.4107 113.593L17.5937 113.512L17.5937 113.512L17.4107 113.593ZM17.4096 113.59L17.2238 113.664L17.2266 113.671L17.4096 113.59ZM17.1001 112.853L16.9162 112.932L16.9171 112.934L17.1001 112.853ZM16.7692 112.128L16.5892 112.215L16.5892 112.215L16.7692 112.128ZM16.4288 111.457L16.6055 111.363L16.6004 111.355L16.4288 111.457ZM16.3077 111.226L16.1257 111.309L16.1257 111.309L16.3077 111.226ZM16.3067 111.224L16.122 111.301L16.1246 111.306L16.3067 111.224ZM16.2177 110.968L16.0247 111.02L16.0247 111.02L16.2177 110.968ZM16.2172 110.966L16.0232 111.014L16.0243 111.019L16.2172 110.966ZM16.1937 110.683L15.9944 110.666L15.9944 110.666L16.1937 110.683ZM16.3012 110.391L16.4681 110.501C16.4713 110.496 16.4744 110.491 16.4771 110.486L16.3012 110.391ZM16.5592 110.135L16.644 110.317L16.6534 110.312L16.5592 110.135ZM16.8872 110.063L16.8738 110.263L16.8865 110.263L16.8872 110.063ZM17.2179 110.134L17.3018 109.953L17.3018 109.953L17.2179 110.134ZM17.4698 110.326L17.3143 110.452C17.3175 110.456 17.3208 110.459 17.3242 110.463L17.4698 110.326ZM17.7716 110.774L17.9537 110.691L17.9537 110.691L17.7716 110.774ZM17.9758 111.257L17.7891 111.33L17.7951 111.343L17.9758 111.257ZM18.3929 112.156L18.2108 112.239L18.2108 112.239L18.3929 112.156ZM18.7481 112.922L18.5673 113.008C18.6003 113.078 18.6707 113.122 18.7481 113.122C18.8254 113.122 18.8959 113.078 18.9289 113.008L18.7481 112.922ZM19.2334 111.896L19.0544 111.807L19.0525 111.81L19.2334 111.896ZM19.3806 111.57L19.197 111.491L19.1949 111.496L19.3806 111.57ZM19.3824 111.566L19.2011 111.481L19.1989 111.486L19.3824 111.566ZM19.5329 111.254L19.7118 111.344L19.7139 111.339L19.5329 111.254ZM19.691 110.885L19.5063 110.808L19.5046 110.813L19.691 110.885ZM19.6924 110.882L19.5096 110.8L19.5078 110.805L19.6924 110.882ZM19.8891 110.52L20.0557 110.631C20.0601 110.624 20.064 110.618 20.0675 110.611L19.8891 110.52ZM19.9347 110.441L20.1011 110.552L19.9347 110.441ZM19.9725 110.375L20.1514 110.464L20.1514 110.464L19.9725 110.375ZM19.9801 110.363L19.8201 110.243L19.8201 110.243L19.9801 110.363ZM20.1589 110.15L20.0175 110.009L20.0175 110.009L20.1589 110.15ZM20.1656 110.145L20.2905 110.301L20.2905 110.301L20.1656 110.145ZM20.2551 110.077L20.3667 110.244L20.3739 110.238L20.2551 110.077ZM20.3788 110.022L20.4201 110.218L20.4329 110.215L20.3788 110.022ZM20.5313 109.998L20.5338 110.198C20.5419 110.198 20.5499 110.198 20.5579 110.197L20.5313 109.998ZM20.6896 109.999L20.6567 110.197L20.6567 110.197L20.6896 109.999ZM20.6995 110.002L20.7569 109.81L20.7569 109.81L20.6995 110.002ZM20.9642 110.101L20.8855 110.285L20.8896 110.286L20.9642 110.101ZM21.2492 110.359L21.0732 110.454C21.0754 110.459 21.0779 110.463 21.0804 110.467L21.2492 110.359ZM14.3295 107.616C14.3521 107.673 14.368 107.745 14.3746 107.835L14.7735 107.805C14.7647 107.686 14.7425 107.572 14.7009 107.468L14.3295 107.616ZM14.3297 107.617L14.3309 107.62L14.6994 107.464L14.6983 107.461L14.3297 107.617ZM14.2553 107.543C14.2909 107.56 14.315 107.584 14.3312 107.62L14.6968 107.458C14.6413 107.333 14.5471 107.237 14.4231 107.18L14.2553 107.543ZM14.0998 107.488C14.1515 107.493 14.196 107.509 14.235 107.532L14.4433 107.191C14.3509 107.134 14.2493 107.102 14.1428 107.09L14.0998 107.488ZM13.908 107.477C13.974 107.471 14.0307 107.474 14.0794 107.484L14.1632 107.093C14.069 107.073 13.9715 107.07 13.8733 107.078L13.908 107.477ZM13.7477 107.493C13.7831 107.484 13.8302 107.478 13.8913 107.477L13.89 107.077C13.8052 107.078 13.7207 107.086 13.6414 107.108L13.7477 107.493ZM13.6262 107.523C13.6606 107.512 13.6947 107.503 13.7284 107.498L13.6607 107.103C13.6072 107.113 13.5543 107.126 13.5022 107.143L13.6262 107.523ZM13.4774 107.558C13.5217 107.546 13.562 107.536 13.5983 107.53L13.5302 107.136C13.4775 107.145 13.4232 107.158 13.3676 107.174L13.4774 107.558ZM12.8134 107.78C13.031 107.695 13.2521 107.622 13.4766 107.559L13.3683 107.174C13.1315 107.24 12.8984 107.318 12.669 107.407L12.8134 107.78ZM12.1454 108.017C12.374 107.938 12.5956 107.86 12.81 107.781L12.6723 107.405C12.4606 107.483 12.2416 107.561 12.0154 107.638L12.1454 108.017ZM11.6735 108.28C11.7937 108.166 11.9479 108.078 12.1398 108.019L12.021 107.637C11.78 107.712 11.5696 107.827 11.3984 107.99L11.6735 108.28ZM11.6758 108.278L11.6774 108.276L11.3945 107.993L11.393 107.995L11.6758 108.278ZM11.5599 108.713C11.5348 108.511 11.5804 108.373 11.6758 108.278L11.393 107.995C11.1876 108.2 11.1271 108.474 11.1629 108.762L11.5599 108.713ZM11.7455 109.047C11.6504 109.007 11.5796 108.914 11.5604 108.718L11.1623 108.757C11.1897 109.037 11.3105 109.296 11.5879 109.415L11.7455 109.047ZM11.7445 109.047L11.7403 109.045L11.5931 109.417L11.5973 109.419L11.7445 109.047ZM12.1951 109.092C12.0272 109.111 11.8759 109.095 11.7392 109.045L11.6025 109.421C11.8037 109.494 12.0178 109.515 12.2399 109.49L12.1951 109.092ZM12.3764 109.071C12.2869 109.085 12.235 109.091 12.2137 109.091L12.2213 109.491C12.2738 109.49 12.3521 109.48 12.4372 109.466L12.3764 109.071ZM12.6582 109.019C12.5605 109.04 12.4666 109.057 12.3764 109.071L12.4372 109.466C12.5357 109.451 12.6374 109.432 12.742 109.41L12.6582 109.019ZM12.9206 108.949C12.8494 108.975 12.7631 108.998 12.6609 109.018L12.7394 109.411C12.8557 109.387 12.9623 109.359 13.057 109.325L12.9206 108.949ZM12.9572 108.935C12.9477 108.939 12.937 108.943 12.9253 108.947L13.0523 109.326C13.0705 109.32 13.0887 109.314 13.1066 109.306L12.9572 108.935ZM13.2213 111.761C13.228 110.903 13.2316 110.023 13.2319 109.121L12.8319 109.121C12.8316 110.022 12.828 110.901 12.8213 111.758L13.2213 111.761ZM13.296 114.515C13.2462 113.576 13.2213 112.657 13.2213 111.76H12.8213C12.8213 112.664 12.8464 113.59 12.8965 114.537L13.296 114.515ZM13.3266 114.867C13.3064 114.753 13.2964 114.64 13.2962 114.526L12.8962 114.526C12.8964 114.663 12.9086 114.8 12.9326 114.937L13.3266 114.867ZM13.3264 114.866L13.3255 114.862L12.9337 114.942L12.9346 114.947L13.3264 114.866ZM13.4818 115.021C13.3887 114.99 13.3433 114.937 13.3252 114.861L12.9358 114.952C12.9888 115.178 13.1442 115.33 13.3548 115.4L13.4818 115.021ZM13.8661 115.069C13.714 115.075 13.5878 115.058 13.4847 115.022L13.3519 115.399C13.5143 115.456 13.6936 115.476 13.8831 115.468L13.8661 115.069ZM14.2049 114.977C14.1326 115.033 14.0267 115.068 13.8743 115.068L13.8749 115.468C14.0855 115.468 14.2875 115.42 14.4507 115.293L14.2049 114.977ZM14.3336 114.835C14.3078 114.886 14.2686 114.932 14.2126 114.971L14.443 115.298C14.5479 115.224 14.6333 115.13 14.6914 115.014L14.3336 114.835ZM14.3317 114.839L14.3304 114.841L14.6946 115.007L14.6958 115.004L14.3317 114.839ZM14.3856 114.632C14.3796 114.704 14.3617 114.773 14.3317 114.839L14.6958 115.004C14.7448 114.896 14.7744 114.783 14.7842 114.665L14.3856 114.632ZM14.386 114.409C14.3922 114.479 14.3921 114.554 14.3856 114.632L14.7842 114.665C14.7925 114.566 14.7928 114.469 14.7844 114.374L14.386 114.409ZM14.3852 108.421V114.392H14.7852V108.421H14.3852ZM14.3959 108.118C14.3959 108.214 14.3925 108.311 14.3857 108.407L14.7847 108.435C14.7922 108.329 14.7959 108.224 14.7959 108.118H14.3959ZM14.3763 107.85C14.3893 107.936 14.3959 108.025 14.3959 108.118H14.7959C14.7959 108.006 14.788 107.897 14.7718 107.79L14.3763 107.85ZM12.9266 108.89C12.9342 108.871 12.944 108.859 12.9497 108.853C12.9553 108.847 12.9584 108.845 12.956 108.847C12.9537 108.848 12.9482 108.851 12.9383 108.856C12.9284 108.86 12.9156 108.865 12.8991 108.871L13.0256 109.25C13.077 109.233 13.128 109.212 13.1723 109.183C13.2144 109.156 13.2691 109.111 13.298 109.038L12.9266 108.89ZM13.3016 111.762C13.3088 110.854 13.3123 109.922 13.3123 108.964H12.9123C12.9123 109.921 12.9088 110.852 12.9016 111.758L13.3016 111.762ZM12.9123 109.08C12.912 109.996 12.9085 110.888 12.9016 111.758L13.3016 111.762C13.3085 110.891 13.312 109.997 13.3123 109.08L12.9123 109.08ZM12.9123 108.964L12.9123 109.08L13.3123 109.08L13.3123 108.964L12.9123 108.964ZM13.1192 109.213C13.1753 109.186 13.2596 109.134 13.298 109.038L12.9266 108.89C12.9369 108.864 12.9511 108.851 12.9545 108.848C12.9579 108.845 12.9562 108.848 12.9447 108.853L13.1192 109.213ZM13.0256 109.25C13.0569 109.24 13.0889 109.228 13.1192 109.213L12.9447 108.853C12.9355 108.858 12.9211 108.864 12.8991 108.871L13.0256 109.25ZM21.4347 111.267C21.5117 111.102 21.5455 110.919 21.5459 110.724L21.1459 110.724C21.1456 110.872 21.1197 110.996 21.0723 111.097L21.4347 111.267ZM21.3683 111.411C21.3969 111.353 21.4211 111.301 21.439 111.257L21.068 111.107C21.0557 111.138 21.0368 111.179 21.0103 111.232L21.3683 111.411ZM21.2984 111.581C21.3275 111.516 21.3536 111.452 21.3764 111.392L21.0021 111.251C20.9823 111.303 20.9592 111.36 20.9327 111.419L21.2984 111.581ZM21.2163 111.779C21.2505 111.71 21.2801 111.639 21.3051 111.564L20.926 111.437C20.9065 111.495 20.884 111.549 20.8586 111.6L21.2163 111.779ZM21.1389 111.943L21.1604 111.889L20.789 111.741L20.7675 111.794L21.1389 111.943ZM20.8465 112.593C20.9392 112.386 21.0356 112.172 21.1355 111.951L20.7709 111.786C20.6709 112.008 20.5744 112.222 20.4815 112.429L20.8465 112.593ZM20.5323 113.265C20.6476 113.027 20.7523 112.803 20.8465 112.593L20.4815 112.429C20.3892 112.635 20.2862 112.855 20.1724 113.09L20.5323 113.265ZM20.2006 113.939C20.307 113.719 20.4175 113.494 20.5312 113.267L20.1734 113.088C20.059 113.317 19.9478 113.543 19.8405 113.765L20.2006 113.939ZM19.9005 114.571C20.0009 114.363 20.1014 114.151 20.2018 113.936L19.8393 113.767C19.7396 113.981 19.6399 114.191 19.5403 114.397L19.9005 114.571ZM19.8994 114.573L19.8999 114.572L19.5409 114.396L19.5404 114.397L19.8994 114.573ZM19.8355 114.719C19.8534 114.671 19.8744 114.623 19.8988 114.575L19.541 114.396C19.5106 114.456 19.484 114.517 19.461 114.579L19.8355 114.719ZM19.8342 114.722L19.8355 114.719L19.461 114.579L19.4597 114.582L19.8342 114.722ZM19.728 114.925C19.7682 114.86 19.8032 114.796 19.8308 114.731L19.4631 114.573C19.4451 114.616 19.4204 114.662 19.3882 114.714L19.728 114.925ZM19.2263 116.005L19.7394 114.904L19.3768 114.735L18.8638 115.836L19.2263 116.005ZM18.9587 116.551C19.0435 116.374 19.1319 116.194 19.2239 116.01L18.8662 115.831C18.7733 116.017 18.6839 116.199 18.5981 116.378L18.9587 116.551ZM18.6822 117.103C18.7861 116.918 18.8792 116.732 18.9614 116.545L18.5953 116.384C18.5185 116.558 18.4311 116.733 18.3332 116.908L18.6822 117.103ZM18.681 117.106L18.6822 117.103L18.3331 116.908L18.332 116.91L18.681 117.106ZM18.6053 117.221C18.6305 117.186 18.6547 117.15 18.678 117.111L18.335 116.905C18.3172 116.935 18.2998 116.961 18.2827 116.984L18.6053 117.221ZM18.5907 117.274L18.6297 117.177L18.2583 117.028L18.2194 117.126L18.5907 117.274ZM18.586 117.285L18.5881 117.28L18.2219 117.119L18.2198 117.124L18.586 117.285ZM18.5765 117.304L18.5796 117.299L18.2262 117.111L18.2232 117.117L18.5765 117.304ZM18.2815 117.635C18.4006 117.541 18.5012 117.434 18.5726 117.311L18.2271 117.11C18.1868 117.179 18.1239 117.249 18.0337 117.321L18.2815 117.635ZM17.8246 117.835C18.005 117.823 18.1622 117.745 18.2927 117.625L18.0226 117.33C17.9468 117.4 17.8723 117.431 17.7978 117.436L17.8246 117.835ZM17.1221 117.599C17.3207 117.775 17.5611 117.855 17.8259 117.835L17.7965 117.436C17.638 117.448 17.5039 117.403 17.3868 117.3L17.1221 117.599ZM16.8518 117.303C16.9228 117.435 17.0227 117.543 17.1513 117.621L17.3576 117.278C17.2945 117.24 17.2432 117.186 17.2039 117.113L16.8518 117.303ZM16.8456 117.291L16.8483 117.296L17.2074 117.12L17.2047 117.115L16.8456 117.291ZM16.7754 116.924C16.7754 117.048 16.7927 117.172 16.8424 117.284L17.2079 117.121C17.1884 117.077 17.1754 117.013 17.1754 116.924H16.7754ZM16.7792 116.878C16.7767 116.893 16.7754 116.908 16.7754 116.924H17.1754C17.1754 116.93 17.1749 116.937 17.1738 116.943L16.7792 116.878ZM16.7861 116.795C16.7861 116.822 16.7838 116.85 16.7792 116.878L17.1738 116.943C17.182 116.894 17.1861 116.845 17.1861 116.795H16.7861ZM16.7916 116.74C16.7879 116.758 16.7861 116.777 16.7861 116.795H17.1861C17.1861 116.803 17.1853 116.811 17.1838 116.819L16.7916 116.74ZM16.813 116.633L16.7916 116.74L17.1838 116.819L17.2052 116.711L16.813 116.633ZM16.8276 116.584C16.8212 116.6 16.8163 116.616 16.813 116.633L17.2052 116.711C17.2038 116.719 17.2017 116.726 17.199 116.732L16.8276 116.584ZM16.8451 116.526C16.8415 116.544 16.8359 116.563 16.8276 116.584L17.199 116.732C17.2158 116.69 17.2287 116.648 17.2373 116.604L16.8451 116.526ZM16.9088 116.356C16.8743 116.413 16.8557 116.473 16.8451 116.526L17.2373 116.604C17.2421 116.581 17.2478 116.568 17.251 116.563L16.9088 116.356ZM16.9439 116.282C16.922 116.317 16.9056 116.355 16.8933 116.387L17.2665 116.531C17.2751 116.509 17.2809 116.498 17.2831 116.494L16.9439 116.282ZM17.0081 116.205C16.9762 116.234 16.9555 116.264 16.9439 116.282L17.2831 116.494C17.2835 116.494 17.2831 116.494 17.2819 116.496C17.2807 116.497 17.2781 116.5 17.2738 116.504L17.0081 116.205ZM17.0128 116.201L17.0103 116.203L17.2716 116.506L17.2741 116.504L17.0128 116.201ZM17.7177 114.633L16.9619 116.269L17.325 116.436L18.0809 114.801L17.7177 114.633ZM17.6243 114.595L17.7172 114.799L18.0814 114.634L17.9884 114.429L17.6243 114.595ZM17.528 114.37C17.5554 114.432 17.5866 114.505 17.6217 114.589L17.991 114.435C17.955 114.349 17.9226 114.273 17.8935 114.208L17.528 114.37ZM17.5273 114.369L17.528 114.37L17.8935 114.208L17.8928 114.206L17.5273 114.369ZM17.2277 113.673C17.3342 113.915 17.4335 114.145 17.5256 114.365L17.8945 114.21C17.8013 113.988 17.7011 113.755 17.5937 113.512L17.2277 113.673ZM17.2266 113.671L17.2277 113.673L17.5937 113.512L17.5926 113.509L17.2266 113.671ZM16.9171 112.934C17.0228 113.174 17.1251 113.417 17.2239 113.664L17.5953 113.516C17.4948 113.264 17.3907 113.017 17.283 112.773L16.9171 112.934ZM16.5892 112.215C16.7015 112.446 16.8108 112.686 16.9162 112.932L17.2839 112.775C17.1761 112.523 17.0643 112.278 16.9492 112.04L16.5892 112.215ZM16.2523 111.551C16.3644 111.762 16.4767 111.983 16.5892 112.215L16.9492 112.04C16.8346 111.804 16.72 111.578 16.6053 111.363L16.2523 111.551ZM16.1257 111.309C16.1653 111.396 16.2091 111.48 16.2572 111.56L16.6004 111.355C16.5603 111.288 16.5234 111.217 16.4898 111.143L16.1257 111.309ZM16.1246 111.306L16.1257 111.309L16.4898 111.143L16.4888 111.141L16.1246 111.306ZM16.0247 111.02C16.0497 111.112 16.0823 111.205 16.1221 111.301L16.4913 111.147C16.4573 111.065 16.4305 110.988 16.4106 110.915L16.0247 111.02ZM16.0243 111.019L16.0247 111.02L16.4106 110.915L16.4102 110.913L16.0243 111.019ZM15.9944 110.666C15.9846 110.783 15.9945 110.9 16.0232 111.014L16.4113 110.917C16.3929 110.844 16.387 110.772 16.393 110.699L15.9944 110.666ZM16.1342 110.281C16.0575 110.397 16.006 110.526 15.9944 110.666L16.393 110.699C16.3981 110.638 16.4211 110.572 16.4681 110.501L16.1342 110.281ZM16.4745 109.954C16.3194 110.027 16.2048 110.148 16.1252 110.296L16.4771 110.486C16.5238 110.399 16.5802 110.346 16.6439 110.317L16.4745 109.954ZM16.9005 109.863C16.7471 109.853 16.6002 109.887 16.465 109.959L16.6534 110.312C16.7262 110.273 16.799 110.257 16.8739 110.262L16.9005 109.863ZM17.3018 109.953C17.1714 109.893 17.0323 109.863 16.8878 109.863L16.8865 110.263C16.9763 110.263 17.0584 110.281 17.1341 110.316L17.3018 109.953ZM17.6254 110.2C17.5384 110.093 17.428 110.011 17.3018 109.953L17.1341 110.316C17.2113 110.352 17.2703 110.397 17.3143 110.452L17.6254 110.2ZM17.9537 110.691C17.8696 110.506 17.7565 110.339 17.6155 110.189L17.3242 110.463C17.4358 110.582 17.5241 110.713 17.5895 110.857L17.9537 110.691ZM18.162 111.184C18.0962 111.016 18.0268 110.852 17.9537 110.691L17.5895 110.857C17.6596 111.011 17.7263 111.169 17.7895 111.33L18.162 111.184ZM18.575 112.073C18.432 111.758 18.2925 111.458 18.1564 111.171L17.7951 111.343C17.9301 111.627 18.0687 111.926 18.2108 112.239L18.575 112.073ZM18.9289 112.837C18.811 112.587 18.693 112.333 18.575 112.073L18.2108 112.239C18.3296 112.5 18.4484 112.756 18.5673 113.008L18.9289 112.837ZM19.0525 111.81L18.5673 112.837L18.9289 113.008L19.4142 111.981L19.0525 111.81ZM19.1949 111.496C19.1553 111.595 19.1085 111.698 19.0545 111.807L19.4122 111.985C19.4707 111.869 19.5221 111.755 19.5663 111.644L19.1949 111.496ZM19.1989 111.486L19.1971 111.491L19.5642 111.649L19.5659 111.645L19.1989 111.486ZM19.354 111.165C19.303 111.267 19.252 111.372 19.2012 111.481L19.5636 111.65C19.6131 111.545 19.6624 111.442 19.7118 111.344L19.354 111.165ZM19.5046 110.813C19.457 110.935 19.4061 111.054 19.3519 111.169L19.7139 111.339C19.772 111.216 19.8265 111.088 19.8774 110.958L19.5046 110.813ZM19.5078 110.805L19.5063 110.808L19.8756 110.962L19.8771 110.959L19.5078 110.805ZM19.7224 110.41C19.6427 110.53 19.5719 110.66 19.5097 110.8L19.8752 110.963C19.9292 110.841 19.9894 110.731 20.0557 110.631L19.7224 110.41ZM19.7683 110.33C19.7473 110.362 19.7282 110.395 19.7106 110.43L20.0675 110.611C20.0794 110.587 20.0907 110.568 20.1011 110.552L19.7683 110.33ZM19.7936 110.285C19.7834 110.306 19.7748 110.321 19.7683 110.33L20.1011 110.552C20.1187 110.526 20.1354 110.496 20.1514 110.464L19.7936 110.285ZM19.8201 110.243C19.81 110.256 19.8011 110.27 19.7936 110.285L20.1514 110.464C20.1482 110.471 20.1444 110.477 20.1401 110.483L19.8201 110.243ZM20.0175 110.009C19.9547 110.072 19.8887 110.151 19.8201 110.243L20.1401 110.483C20.2025 110.399 20.2559 110.336 20.3004 110.292L20.0175 110.009ZM20.0406 109.988C20.0325 109.995 20.0248 110.002 20.0175 110.009L20.3004 110.292C20.2973 110.295 20.294 110.298 20.2905 110.301L20.0406 109.988ZM20.1435 109.911C20.1128 109.932 20.0778 109.959 20.0406 109.988L20.2905 110.301C20.3243 110.274 20.3494 110.255 20.3666 110.243L20.1435 109.911ZM20.3376 109.826C20.2649 109.842 20.1968 109.872 20.1362 109.917L20.3739 110.238C20.3874 110.228 20.4023 110.221 20.42 110.218L20.3376 109.826ZM20.5289 109.798C20.4593 109.799 20.3908 109.811 20.3246 109.83L20.4329 110.215C20.4719 110.204 20.5054 110.199 20.5338 110.198L20.5289 109.798ZM20.7225 109.802C20.6495 109.79 20.5763 109.791 20.5047 109.8L20.5579 110.197C20.596 110.192 20.6287 110.192 20.6567 110.197L20.7225 109.802ZM20.7569 109.81C20.7456 109.807 20.7341 109.804 20.7224 109.802L20.6567 110.197C20.6517 110.196 20.6468 110.195 20.642 110.193L20.7569 109.81ZM21.043 109.917C20.9376 109.872 20.8417 109.836 20.7569 109.81L20.642 110.193C20.7074 110.213 20.7883 110.243 20.8855 110.285L21.043 109.917ZM21.4252 110.264C21.3389 110.104 21.2088 109.984 21.0388 109.915L20.8896 110.286C20.9682 110.318 21.0288 110.372 21.0732 110.454L21.4252 110.264ZM21.5455 110.736C21.5557 110.562 21.511 110.398 21.4179 110.252L21.0804 110.467C21.1302 110.545 21.1513 110.626 21.1462 110.712L21.5455 110.736ZM21.1536 111.904L21.2163 111.779L20.8586 111.6L20.7958 111.725L21.1536 111.904Z" fill="#313749" mask="url(#path-99-outside-1_11124_107431)"/>
</g>
<path d="M86.0168 84.0355C82.7102 84.0355 80.0303 81.3506 80.0303 78.0357V68.6297C80.0303 68.2613 79.732 67.963 79.3653 67.963H70.3889C70.0222 67.963 69.7239 68.2613 69.7239 68.6297V77.294C69.7239 78.8207 69.5556 80.3406 69.2206 81.8306L68.9406 83.0805C68.8289 83.5805 68.6939 84.0772 68.5323 84.5638C68.1539 85.6971 67.4623 88.4087 68.7256 90.2437C69.3639 91.1703 70.4989 91.872 72.4255 92.037H90.0051C91.1067 92.037 92 91.142 92 90.037C92 86.7238 89.3217 84.0389 86.0168 84.0372V84.0355Z" fill="url(#paint34_linear_11124_107431)"/>
<path d="M86.0165 84.0359C82.7099 84.0359 80.03 81.3509 80.03 78.036V69.4321C79.6316 69.2188 79.1783 69.0988 78.6967 69.0988H77.3634C74.8034 69.0988 72.7002 70.2358 72.5402 72.7557C72.5285 72.9307 72.3835 73.0674 72.2085 73.0674H70.0569C69.9436 73.0674 69.8319 73.0791 69.7236 73.0957V77.2944C69.7236 78.821 69.5552 80.341 69.2202 81.8309L69.0869 82.4226C69.3252 82.5926 69.5936 82.7259 69.8819 82.8126C72.6002 83.6342 74.4984 86.1925 74.4984 89.0357V92.0357H87.3315V84.1842C86.9081 84.0892 86.4681 84.0359 86.0148 84.0359H86.0165Z" fill="url(#paint35_linear_11124_107431)"/>
<path d="M85.9999 83.2023H85.8499C83.0083 83.2023 80.6967 80.884 80.6967 78.0357V73.9004V71.9317C80.6967 70.8267 79.8017 69.9318 78.6967 69.9318H77.3634C75.1551 69.9318 73.3635 70.8588 73.3635 73.0671C73.3635 73.5271 72.9902 73.9004 72.5302 73.9004H70.0569C69.3203 73.9004 68.7236 74.4971 68.7236 75.2337V80.1073C68.7236 80.9806 69.2886 81.7623 70.1236 82.014C73.1385 82.9239 75.3335 85.7222 75.3335 89.0338V92.0337H86.4998V83.7006C86.4998 83.4256 86.2749 83.2006 85.9999 83.2006V83.2023Z" fill="url(#paint36_linear_11124_107431)"/>
<path d="M81.6719 81.0538L75.3337 92.0318V92.0352H80.3353L85.4451 83.1837C83.8935 83.0621 82.5336 82.2488 81.6719 81.0521V81.0538Z" fill="url(#paint37_linear_11124_107431)"/>
<path d="M77.0434 80.4619H80.71C80.785 80.4619 80.86 80.4536 80.9317 80.4402C80.78 79.9536 80.6983 79.4369 80.6983 78.9003V74.462H77.0451C76.5168 74.462 76.0701 74.8137 75.9268 75.2953H68.7236V79.6286H75.9251C76.0684 80.1102 76.5151 80.4619 77.0434 80.4619Z" fill="url(#paint38_linear_11124_107431)"/>
<path d="M82.0074 81.4723L75.9092 92.0354H79.7574L84.9089 83.1139C83.7656 82.9006 82.7523 82.3089 82.0074 81.4723Z" fill="url(#paint39_linear_11124_107431)"/>
<path d="M68.5439 75.7951H76.3771V79.1284H68.5439C68.2673 79.1284 68.0439 78.905 68.0439 78.6284V76.2951C68.0439 76.0184 68.2673 75.7951 68.5439 75.7951Z" fill="url(#paint40_linear_11124_107431)"/>
<path d="M80.7103 74.9618H77.0437C76.6755 74.9618 76.3771 75.2603 76.3771 75.6284V79.295C76.3771 79.6632 76.6755 79.9617 77.0437 79.9617H80.7103C81.0785 79.9617 81.3769 79.6632 81.3769 79.295V75.6284C81.3769 75.2603 81.0785 74.9618 80.7103 74.9618Z" fill="url(#paint41_linear_11124_107431)"/>
<defs>
<linearGradient id="paint0_linear_11124_107431" x1="44.5" y1="43" x2="44.5" y2="60" gradientUnits="userSpaceOnUse">
<stop stop-color="#FFC839"/>
<stop offset="1" stop-color="#FF7F00"/>
</linearGradient>
<linearGradient id="paint1_linear_11124_107431" x1="16.0033" y1="37.0017" x2="16.0033" y2="55.9805" gradientUnits="userSpaceOnUse">
<stop stop-color="#FF977E"/>
<stop offset="1" stop-color="#F73F6D"/>
</linearGradient>
<linearGradient id="paint2_linear_11124_107431" x1="16" y1="41.08" x2="16" y2="55.97" gradientUnits="userSpaceOnUse">
<stop stop-color="white"/>
<stop offset="1" stop-color="white" stop-opacity="0.2"/>
</linearGradient>
<linearGradient id="paint3_linear_11124_107431" x1="48" y1="-28.91" x2="48" y2="93.96" gradientUnits="userSpaceOnUse">
<stop offset="0.3" stop-color="#61D9B1"/>
<stop offset="0.46" stop-color="#0D9B80"/>
</linearGradient>
<linearGradient id="paint4_linear_11124_107431" x1="16.5" y1="26" x2="16.5" y2="6" gradientUnits="userSpaceOnUse">
<stop stop-color="#3369FF"/>
<stop offset="1" stop-color="#668AFF"/>
</linearGradient>
<linearGradient id="paint5_linear_11124_107431" x1="16.5" y1="14.67" x2="16.5" y2="23" gradientUnits="userSpaceOnUse">
<stop stop-color="white"/>
<stop offset="1" stop-color="white" stop-opacity="0.5"/>
</linearGradient>
<linearGradient id="paint6_linear_11124_107431" x1="175.5" y1="39.0002" x2="175.5" y2="58.0002" gradientUnits="userSpaceOnUse">
<stop stop-color="#FF9B7E"/>
<stop offset="1" stop-color="#FB3F6D"/>
</linearGradient>
<linearGradient id="paint7_linear_11124_107431" x1="137" y1="53" x2="137" y2="49" gradientUnits="userSpaceOnUse">
<stop stop-color="#3369FF"/>
<stop offset="1" stop-color="#668CFF"/>
</linearGradient>
<linearGradient id="paint8_linear_11124_107431" x1="150.31" y1="37" x2="150.31" y2="37" gradientUnits="userSpaceOnUse">
<stop stop-color="#3369FF"/>
<stop offset="1" stop-color="#668CFF"/>
</linearGradient>
<linearGradient id="paint9_linear_11124_107431" x1="143.65" y1="43.5" x2="143.65" y2="37" gradientUnits="userSpaceOnUse">
<stop stop-color="#3369FF"/>
<stop offset="1" stop-color="#668CFF"/>
</linearGradient>
<linearGradient id="paint10_linear_11124_107431" x1="142.15" y1="50.25" x2="145.15" y2="50.25" gradientUnits="userSpaceOnUse">
<stop stop-color="#D7DBE3"/>
<stop offset="1" stop-color="#B1B9CA"/>
</linearGradient>
<linearGradient id="paint11_linear_11124_107431" x1="143.65" y1="60" x2="143.65" y2="56" gradientUnits="userSpaceOnUse">
<stop stop-color="#3369FF"/>
<stop offset="1" stop-color="#668CFF"/>
</linearGradient>
<linearGradient id="paint12_linear_11124_107431" x1="112" y1="36" x2="112" y2="52" gradientUnits="userSpaceOnUse">
<stop stop-color="#D8DCE4"/>
<stop offset="1" stop-color="#B2BACB"/>
</linearGradient>
<linearGradient id="paint13_linear_11124_107431" x1="116.5" y1="44.5195" x2="116.5" y2="60.4895" gradientUnits="userSpaceOnUse">
<stop stop-color="#FF997E"/>
<stop offset="1" stop-color="#F93F6D"/>
</linearGradient>
<linearGradient id="paint14_linear_11124_107431" x1="80" y1="39" x2="80" y2="57" gradientUnits="userSpaceOnUse">
<stop stop-color="#FF8767"/>
<stop offset="1" stop-color="#F93F55"/>
</linearGradient>
<linearGradient id="paint15_linear_11124_107431" x1="80" y1="56.9048" x2="80" y2="60.1266" gradientUnits="userSpaceOnUse">
<stop stop-color="#D7E4F2"/>
<stop offset="1" stop-color="#B7CCE1"/>
</linearGradient>
<linearGradient id="paint16_linear_11124_107431" x1="87" y1="47" x2="87" y2="63" gradientUnits="userSpaceOnUse">
<stop stop-color="#FFC839"/>
<stop offset="1" stop-color="#FF7F00"/>
</linearGradient>
<linearGradient id="paint17_linear_11124_107431" x1="48.01" y1="68" x2="48.01" y2="92" gradientUnits="userSpaceOnUse">
<stop stop-color="#DCE0E8"/>
<stop offset="1" stop-color="#B6BECF"/>
</linearGradient>
<linearGradient id="paint18_linear_11124_107431" x1="41" y1="68" x2="41" y2="78" gradientUnits="userSpaceOnUse">
<stop stop-color="#FFCD39"/>
<stop offset="1" stop-color="#FF7F00"/>
</linearGradient>
<linearGradient id="paint19_linear_11124_107431" x1="16" y1="68" x2="16" y2="94" gradientUnits="userSpaceOnUse">
<stop stop-color="#EAF0F6"/>
<stop offset="1" stop-color="#D6DFE9"/>
</linearGradient>
<linearGradient id="paint20_linear_11124_107431" x1="16.0032" y1="73" x2="16.0032" y2="89" gradientUnits="userSpaceOnUse">
<stop stop-color="#C6D0E3"/>
<stop offset="1" stop-color="#99A5BE"/>
</linearGradient>
<linearGradient id="paint21_linear_11124_107431" x1="16" y1="67" x2="16" y2="70" gradientUnits="userSpaceOnUse">
<stop stop-color="#FFCD39"/>
<stop offset="1" stop-color="#FF7F00"/>
</linearGradient>
<linearGradient id="paint22_linear_11124_107431" x1="305" y1="57.5726" x2="302.557" y2="57.5726" gradientUnits="userSpaceOnUse">
<stop stop-color="#3E6EF7"/>
<stop offset="0.76" stop-color="#93E9FA"/>
<stop offset="1" stop-color="#8AD9FA"/>
</linearGradient>
<linearGradient id="paint23_linear_11124_107431" x1="308.326" y1="54.5013" x2="300.815" y2="54.5013" gradientUnits="userSpaceOnUse">
<stop stop-color="#4153F9"/>
<stop offset="1" stop-color="#7FE8EA"/>
</linearGradient>
<linearGradient id="paint24_linear_11124_107431" x1="302.967" y1="44.5" x2="313.813" y2="44.5" gradientUnits="userSpaceOnUse">
<stop stop-color="#95E0FD"/>
<stop offset="1" stop-color="#80ADFB"/>
</linearGradient>
<linearGradient id="paint25_linear_11124_107431" x1="310.512" y1="48.0012" x2="286.305" y2="48.0012" gradientUnits="userSpaceOnUse">
<stop stop-color="#3E6EF7"/>
<stop offset="0.76" stop-color="#93E9FA"/>
<stop offset="1" stop-color="#8AD9FA"/>
</linearGradient>
<radialGradient id="paint26_radial_11124_107431" cx="0" cy="0" r="1" gradientUnits="userSpaceOnUse" gradientTransform="translate(297.75 45.2857) rotate(90) scale(6.28571 0.75)">
<stop stop-color="white"/>
<stop offset="1" stop-color="white" stop-opacity="0"/>
</radialGradient>
<linearGradient id="paint27_linear_11124_107431" x1="240" y1="43" x2="240" y2="59" gradientUnits="userSpaceOnUse">
<stop stop-color="#D6DAE2"/>
<stop offset="1" stop-color="#B0B8C9"/>
</linearGradient>
<linearGradient id="paint28_linear_11124_107431" x1="240" y1="37" x2="240" y2="59" gradientUnits="userSpaceOnUse">
<stop stop-color="#61D9B1"/>
<stop offset="1" stop-color="#129F83"/>
</linearGradient>
<linearGradient id="paint29_linear_11124_107431" x1="208" y1="3.09" x2="208" y2="125.96" gradientUnits="userSpaceOnUse">
<stop offset="0.3" stop-color="#61D9B1"/>
<stop offset="0.46" stop-color="#0D9B80"/>
</linearGradient>
<linearGradient id="paint30_linear_11124_107431" x1="272" y1="55" x2="272" y2="36" gradientUnits="userSpaceOnUse">
<stop stop-color="#175FFF"/>
<stop offset="1" stop-color="#5086FF"/>
</linearGradient>
<radialGradient id="paint31_radial_11124_107431" cx="0" cy="0" r="1" gradientUnits="userSpaceOnUse" gradientTransform="translate(272 45.792) rotate(90) scale(7.94238 9.83813)">
<stop stop-color="white"/>
<stop offset="1" stop-color="white" stop-opacity="0"/>
</radialGradient>
<linearGradient id="paint32_linear_11124_107431" x1="272" y1="56" x2="272" y2="59.3" gradientUnits="userSpaceOnUse">
<stop stop-color="#D7E2EE"/>
<stop offset="1" stop-color="#B6CAE0"/>
</linearGradient>
<linearGradient id="paint33_linear_11124_107431" x1="22.3672" y1="120.622" x2="22.3672" y2="98.2067" gradientUnits="userSpaceOnUse">
<stop stop-color="#3369FF"/>
<stop offset="1" stop-color="#668FFF"/>
</linearGradient>
<linearGradient id="paint34_linear_11124_107431" x1="65.909" y1="69.5726" x2="89.6017" y2="93.2636" gradientUnits="userSpaceOnUse">
<stop stop-color="#FEF3D0"/>
<stop offset="1" stop-color="#FFD3BD"/>
</linearGradient>
<linearGradient id="paint35_linear_11124_107431" x1="78.21" y1="65.7497" x2="78.21" y2="92.0357" gradientUnits="userSpaceOnUse">
<stop stop-color="#FFD3BD" stop-opacity="0.2"/>
<stop offset="1" stop-color="#FFD3BD"/>
</linearGradient>
<linearGradient id="paint36_linear_11124_107431" x1="69.9253" y1="72.6142" x2="87.9231" y2="90.6121" gradientUnits="userSpaceOnUse">
<stop stop-color="#61D9B1"/>
<stop offset="1" stop-color="#12A188"/>
</linearGradient>
<linearGradient id="paint37_linear_11124_107431" x1="75.3337" y1="86.5437" x2="85.4451" y2="86.5437" gradientUnits="userSpaceOnUse">
<stop stop-color="#12A188" stop-opacity="0.2"/>
<stop offset="1" stop-color="#12A188" stop-opacity="0.6"/>
</linearGradient>
<linearGradient id="paint38_linear_11124_107431" x1="74.8268" y1="74.462" x2="74.8268" y2="80.4619" gradientUnits="userSpaceOnUse">
<stop stop-color="#12A188" stop-opacity="0.2"/>
<stop offset="1" stop-color="#12A188" stop-opacity="0.6"/>
</linearGradient>
<linearGradient id="paint39_linear_11124_107431" x1="75.9092" y1="86.7538" x2="84.9089" y2="86.7538" gradientUnits="userSpaceOnUse">
<stop stop-color="#D4EAFF"/>
<stop offset="1" stop-color="#F1F8FF"/>
</linearGradient>
<linearGradient id="paint40_linear_11124_107431" x1="68.0439" y1="77.4617" x2="76.3771" y2="77.4617" gradientUnits="userSpaceOnUse">
<stop stop-color="#D4EAFF"/>
<stop offset="1" stop-color="#F1F8FF"/>
</linearGradient>
<linearGradient id="paint41_linear_11124_107431" x1="76.3771" y1="77.4617" x2="81.3769" y2="77.4617" gradientUnits="userSpaceOnUse">
<stop stop-color="#A8BACC"/>
<stop offset="1" stop-color="#8294A4"/>
</linearGradient>
<clipPath id="clip0_11124_107431">
<rect width="24" height="24" fill="white" transform="translate(36 36)"/>
</clipPath>
<clipPath id="clip1_11124_107431">
<rect width="22.95" height="21.14" fill="white" transform="translate(5 37)"/>
</clipPath>
<clipPath id="clip2_11124_107431">
<rect width="22" height="24" fill="white" transform="translate(37 4)"/>
</clipPath>
<clipPath id="clip3_11124_107431">
<rect width="19" height="19" fill="white" transform="translate(166 39)"/>
</clipPath>
<clipPath id="clip4_11124_107431">
<rect width="21.31" height="23" fill="white" transform="translate(133 37)"/>
</clipPath>
<clipPath id="clip5_11124_107431">
<rect width="24.9" height="24.49" fill="white" transform="translate(100 36)"/>
</clipPath>
<clipPath id="clip6_11124_107431">
<rect width="24.01" height="24" fill="white" transform="translate(36 68)"/>
</clipPath>
<clipPath id="clip7_11124_107431">
<rect width="22" height="22" fill="white" transform="translate(229 37)"/>
</clipPath>
<clipPath id="clip8_11124_107431">
<rect width="22" height="24" fill="white" transform="translate(197 36)"/>
</clipPath>
</defs>
</svg>
