<svg width="480" height="48" viewBox="0 0 480 48" fill="none" xmlns="http://www.w3.org/2000/svg">
<rect x="58.5" y="15.75" width="27" height="19.5" fill="#7B8FA2"/>
<rect x="69.75" y="18" width="4.5" height="15.75" fill="#B7C9D7"/>
<rect x="58.5" y="18" width="4.5" height="15.75" fill="#B7C9D7"/>
<rect x="81" y="18" width="4.5" height="15.75" fill="#B7C9D7"/>
<rect x="57" y="33.75" width="30" height="4.5" rx="0.75" fill="url(#paint0_linear_11124_107617)"/>
<rect x="55.5" y="36.75" width="33" height="3.75" rx="0.75" fill="url(#paint1_linear_11124_107617)"/>
<path d="M55.5 13.8314C55.5 13.513 55.701 13.2294 56.0013 13.1238L71.7513 7.58743C71.9123 7.53084 72.0877 7.53084 72.2487 7.58743L87.9987 13.1238C88.299 13.2294 88.5 13.513 88.5 13.8314V17.625C88.5 18.0392 88.1642 18.375 87.75 18.375H56.25C55.8358 18.375 55.5 18.0392 55.5 17.625V13.8314Z" fill="url(#paint2_linear_11124_107617)"/>
<g opacity="0.4">
<path d="M68.8975 12L70.4484 15.5962L71.9994 12.7755" stroke="#6A7E92" stroke-width="1.125" stroke-linecap="round" stroke-linejoin="round"/>
<path d="M75.099 12L73.548 15.5962L71.9971 12.7755" stroke="#6A7E92" stroke-width="1.125" stroke-linecap="round" stroke-linejoin="round"/>
<path d="M68.25 13.5408H69.5453" stroke="#6A7E92" stroke-width="1.125" stroke-linecap="round" stroke-linejoin="round"/>
<path d="M74.4551 13.5408H75.7504" stroke="#6A7E92" stroke-width="1.125" stroke-linecap="round" stroke-linejoin="round"/>
</g>
<path d="M78.75 30.088V31.412C78.75 31.8757 79.0991 32.25 79.5316 32.25H90.7158C91.1509 32.25 91.5 31.8757 91.5 31.412V30.088C91.5 29.6243 91.1509 29.25 90.7158 29.25H79.5342C79.1017 29.25 78.7526 29.6243 78.7526 30.088H78.75Z" fill="#FDDF7B"/>
<path style="mix-blend-mode:multiply" d="M78.75 31.5V31.6144C78.75 31.9661 79.0991 32.25 79.5316 32.25H90.7158C91.1509 32.25 91.5 31.9661 91.5 31.6144V31.5H78.7526H78.75Z" fill="url(#paint3_linear_11124_107617)" fill-opacity="0.5"/>
<path d="M78.75 33.088V34.412C78.75 34.8757 79.0991 35.25 79.5316 35.25H90.7158C91.1509 35.25 91.5 34.8757 91.5 34.412V33.088C91.5 32.6243 91.1509 32.25 90.7158 32.25H79.5342C79.1017 32.25 78.7526 32.6243 78.7526 33.088H78.75Z" fill="#FDDF7B"/>
<path style="mix-blend-mode:multiply" d="M78.75 34.5V34.6144C78.75 34.9661 79.0991 35.25 79.5316 35.25H90.7158C91.1509 35.25 91.5 34.9661 91.5 34.6144V34.5H78.7526H78.75Z" fill="url(#paint4_linear_11124_107617)" fill-opacity="0.5"/>
<path d="M78.75 36.088V37.412C78.75 37.8757 79.0991 38.25 79.5316 38.25H90.7158C91.1509 38.25 91.5 37.8757 91.5 37.412V36.088C91.5 35.6243 91.1509 35.25 90.7158 35.25H79.5342C79.1017 35.25 78.7526 35.6243 78.7526 36.088H78.75Z" fill="#FDDF7B"/>
<path style="mix-blend-mode:multiply" d="M78.75 37.5V37.6144C78.75 37.9661 79.0991 38.25 79.5316 38.25H90.7158C91.1509 38.25 91.5 37.9661 91.5 37.6144V37.5H78.7526H78.75Z" fill="url(#paint5_linear_11124_107617)" fill-opacity="0.5"/>
<path d="M78.75 39.088V40.412C78.75 40.8757 79.0991 41.25 79.5316 41.25H90.7158C91.1509 41.25 91.5 40.8757 91.5 40.412V39.088C91.5 38.6243 91.1509 38.25 90.7158 38.25H79.5342C79.1017 38.25 78.7526 38.6243 78.7526 39.088H78.75Z" fill="#FDDF7B"/>
<path style="mix-blend-mode:multiply" d="M78.75 40.5V40.6144C78.75 40.9661 79.0991 41.25 79.5316 41.25H90.7158C91.1509 41.25 91.5 40.9661 91.5 40.6144V40.5H78.7526H78.75Z" fill="url(#paint6_linear_11124_107617)" fill-opacity="0.5"/>
<path d="M78.75 41.25C81.6495 41.25 84 38.8995 84 36C84 33.1005 81.6495 30.75 78.75 30.75C75.8505 30.75 73.5 33.1005 73.5 36C73.5 38.8995 75.8505 41.25 78.75 41.25Z" fill="url(#paint7_linear_11124_107617)"/>
<circle cx="78.75" cy="36" r="4.125" stroke="url(#paint8_linear_11124_107617)" stroke-width="0.75"/>
<g clip-path="url(#clip0_11124_107617)">
<path fill-rule="evenodd" clip-rule="evenodd" d="M106.682 8.56094L104.561 10.6823L108.273 16.5159L111.984 18.1063L122.061 28.1831L124.182 26.0618L114.106 15.9859L114.107 15.9856L112.516 12.2732L106.682 8.56094Z" fill="url(#paint9_linear_11124_107617)"/>
<path d="M119.121 27.3655L123.364 23.1228L134.826 34.5849C135.997 35.7565 135.997 37.656 134.826 38.8275C133.654 39.9991 131.755 39.9991 130.583 38.8275L119.121 27.3655Z" fill="url(#paint10_linear_11124_107617)"/>
<path fill-rule="evenodd" clip-rule="evenodd" d="M132.372 7.92116C132.799 8.1351 132.859 8.7003 132.521 9.03811L128.881 12.6787C128.149 13.4109 128.149 14.5981 128.881 15.3303C129.613 16.0626 130.8 16.0626 131.533 15.3303L135.142 11.7205C135.484 11.3794 136.055 11.4449 136.264 11.88C137.792 15.0674 137.235 19.0044 134.594 21.6459C132.01 24.23 128.186 24.8188 125.037 23.4123L110.467 37.9824C109.272 39.1776 107.334 39.1776 106.138 37.9824C104.943 36.7871 104.943 34.8492 106.138 33.654L120.708 19.0841C119.301 15.9349 119.89 12.1107 122.474 9.52645C125.152 6.84846 129.162 6.31337 132.372 7.92116ZM109.466 33.2737C109.847 32.8925 110.465 32.8925 110.846 33.2737C111.228 33.655 111.228 34.2732 110.846 34.6545L109.27 36.2305C108.889 36.6117 108.271 36.6117 107.89 36.2305C107.508 35.8492 107.508 35.231 107.89 34.8498L109.466 33.2737Z" fill="url(#paint11_linear_11124_107617)"/>
</g>
<path d="M167.955 10.9958C160.855 10.9958 155.098 16.799 155.098 23.9558C155.098 31.1126 160.855 36.9158 167.955 36.9158C175.055 36.9158 180.812 31.1126 180.812 23.9558C180.812 16.799 175.055 10.9958 167.955 10.9958ZM175.995 18.4579L172.526 20.5085C171.761 19.4774 170.661 18.7142 169.383 18.383V14.2675C172.129 14.6765 174.501 16.2403 175.995 18.455V18.4579ZM166.526 14.2704V18.3859C165.372 18.6854 164.358 19.3363 163.606 20.2234L160.023 18.3024C161.523 16.1712 163.843 14.6678 166.523 14.2704H166.526ZM158.241 23.9558C158.241 22.8787 158.415 21.8419 158.735 20.8714L162.355 22.8125C162.281 23.1811 162.241 23.5642 162.241 23.9558C162.241 25.3526 162.735 26.6314 163.552 27.6278L161.155 30.9485C159.355 29.1715 158.238 26.6947 158.238 23.9558H158.241ZM167.955 33.7478C166.335 33.7478 164.812 33.3475 163.469 32.6419L165.869 29.3155C166.515 29.5718 167.218 29.7158 167.955 29.7158C168.752 29.7158 169.509 29.5517 170.201 29.2522L172.766 32.4605C171.349 33.2784 169.706 33.745 167.958 33.745L167.955 33.7478ZM175.012 30.6806L172.461 27.4896C173.215 26.5133 173.669 25.2893 173.669 23.9558C173.669 23.6995 173.646 23.4518 173.615 23.2042L177.238 21.0614C177.518 21.9773 177.669 22.9478 177.669 23.9558C177.669 26.5622 176.658 28.9267 175.012 30.6806Z" fill="url(#paint12_radial_11124_107617)"/>
<path d="M167.957 26.8362C169.535 26.8362 170.814 25.5468 170.814 23.9562C170.814 22.3656 169.535 21.0762 167.957 21.0762C166.379 21.0762 165.1 22.3656 165.1 23.9562C165.1 25.5468 166.379 26.8362 167.957 26.8362Z" fill="#1A2028"/>
<path fill-rule="evenodd" clip-rule="evenodd" d="M149.956 23.9561C149.956 14.0143 158.016 5.95605 167.956 5.95605C177.896 5.95605 185.956 14.0143 185.956 23.9561C185.956 33.8978 177.896 41.9561 167.956 41.9561C166.772 41.9561 165.614 41.8416 164.493 41.6232L164.756 40.986L163.465 40.7787L163.916 39.2928L162.112 39.5607L161.939 35.8728L161.738 39.6162L161.695 39.6227L160.397 37.8533L160.655 39.6109L158.803 38.4337L159.16 39.6643C153.668 36.5822 149.956 30.7028 149.956 23.9561ZM155.765 23.9071C155.765 30.7471 161.265 36.2911 168.05 36.2911C174.836 36.2911 180.336 30.7471 180.336 23.9071C180.336 17.0671 174.836 11.5231 168.05 11.5231C161.265 11.5231 155.765 17.0671 155.765 23.9071Z" fill="url(#paint13_linear_11124_107617)"/>
<path fill-rule="evenodd" clip-rule="evenodd" d="M167.206 5.95605H168.706V8.20605C168.706 8.62027 168.37 8.95605 167.956 8.95605C167.542 8.95605 167.206 8.62027 167.206 8.20605V5.95605ZM168.706 41.9561V39.7061C168.706 39.2918 168.37 38.9561 167.956 38.9561C167.542 38.9561 167.206 39.2918 167.206 39.7061V41.9561H168.706ZM183.706 23.2061H185.956V24.7061H183.706C183.292 24.7061 182.956 24.3703 182.956 23.9561C182.956 23.5418 183.292 23.2061 183.706 23.2061ZM149.956 23.2061V24.7061H152.206C152.62 24.7061 152.956 24.3703 152.956 23.9561C152.956 23.5418 152.62 23.2061 152.206 23.2061H149.956Z" fill="#29333B"/>
<path fill-rule="evenodd" clip-rule="evenodd" d="M180.152 10.6975L181.213 11.7582L179.622 13.3492C179.329 13.6421 178.854 13.6421 178.561 13.3492C178.268 13.0563 178.268 12.5814 178.561 12.2885L180.152 10.6975ZM155.757 37.214L157.348 35.623C157.641 35.3302 157.641 34.8553 157.348 34.5624C157.055 34.2695 156.58 34.2695 156.288 34.5624L154.697 36.1534L155.757 37.214ZM179.622 34.5624L181.213 36.1534L180.152 37.2141L178.561 35.6231C178.268 35.3302 178.268 34.8553 178.561 34.5624C178.854 34.2695 179.329 34.2695 179.622 34.5624ZM154.696 11.7583L156.287 13.3492C156.58 13.6421 157.055 13.6421 157.348 13.3492C157.641 13.0564 157.641 12.5815 157.348 12.2886L155.757 10.6976L154.696 11.7583Z" fill="#29333B"/>
<path d="M188.194 10.992L185.891 12.297L186.994 14.697L184.361 14.3895L183.844 16.9845L181.894 15.192L179.951 16.9845L179.426 14.3895L176.801 14.697L177.904 12.297L175.594 10.992L177.904 9.69452L176.801 7.29452L179.426 7.59452L179.951 5.00702L181.894 6.79952L183.844 5.00702L184.361 7.59452L186.994 7.29452L185.891 9.69452L188.194 10.992Z" fill="url(#paint14_linear_11124_107617)"/>
<rect x="7.94965" y="32.7877" width="6.26603" height="7.16117" rx="1.125" fill="#536373"/>
<path d="M8.84895 22.2659C8.84895 22.2659 6.20461 22.5534 5.84044 22.4262C5.84044 22.4262 5.8501 21.2702 5.71514 20.6312C5.58345 20.0075 4.55509 19.6113 3.19688 19.995C1.83868 20.3787 0.862971 21.0499 0.663706 22.5372C0.464442 24.0245 2.66666 23.9924 3.23009 24.0079C3.79353 24.0234 5.0136 24.04 5.2289 23.9924C5.4442 23.9449 5.57704 23.7204 5.57704 23.7204H8.20949L8.85009 22.267L8.84895 22.2659Z" fill="#D2DDE9"/>
<path d="M39.1511 22.2659C39.1511 22.2659 41.7954 22.5534 42.1596 22.4262C42.1596 22.4262 42.1499 21.2702 42.2849 20.6312C42.4166 20.0075 43.4449 19.6113 44.8031 19.995C46.1613 20.3787 47.137 21.0499 47.3363 22.5372C47.5356 24.0245 45.3333 23.9924 44.7699 24.0079C44.2065 24.0234 42.9864 24.04 42.7711 23.9924C42.5558 23.9449 42.423 23.7204 42.423 23.7204H39.7905L39.1499 22.267L39.1511 22.2659Z" fill="#D2DDE9"/>
<rect x="33.9072" y="32.7877" width="6.26603" height="7.16117" rx="1.125" fill="#536373"/>
<g filter="url(#filter0_i_11124_107617)">
<path fill-rule="evenodd" clip-rule="evenodd" d="M12.9962 8.05115C11.7793 8.05115 10.7004 8.83381 10.3226 9.99064L6.44275 21.8728V23.8019H41.1553V21.7831L37.3047 9.99063C36.9269 8.83381 35.848 8.05115 34.6311 8.05115H12.9962Z" fill="url(#paint15_linear_11124_107617)"/>
</g>
<path d="M10.5127 10.2763L9.84428 10.0581V10.0581L10.5127 10.2763ZM6.71466 21.9078L6.04627 21.6895L6.01154 21.7959V21.9078H6.71466ZM6.71466 23.8019H6.01154V24.5051H6.71466V23.8019ZM40.7977 23.8019V24.5051H41.5008V23.8019H40.7977ZM40.7977 21.8198H41.5008V21.7079L41.4661 21.6015L40.7977 21.8198ZM37.0283 10.2763L37.6967 10.0581V10.0581L37.0283 10.2763ZM11.1811 10.4946C11.4644 9.62698 12.2735 9.03998 13.1863 9.03998V7.63373C11.6651 7.63373 10.3165 8.61206 9.84428 10.0581L11.1811 10.4946ZM7.38306 22.126L11.1811 10.4946L9.84428 10.0581L6.04627 21.6895L7.38306 22.126ZM7.41779 23.8019V21.9078H6.01154V23.8019H7.41779ZM40.7977 23.0988H6.71466V24.5051H40.7977V23.0988ZM40.0946 21.8198V23.8019H41.5008V21.8198H40.0946ZM36.36 10.4946L40.1293 22.038L41.4661 21.6015L37.6967 10.0581L36.36 10.4946ZM34.3548 9.03998C35.2675 9.03998 36.0766 9.62697 36.36 10.4946L37.6967 10.0581C37.2246 8.61205 35.8759 7.63373 34.3548 7.63373V9.03998ZM13.1863 9.03998H34.3548V7.63373H13.1863V9.03998Z" fill="#C8D0DF"/>
<path d="M10.3226 9.99064C10.7004 8.83381 11.7793 8.05115 12.9962 8.05115H34.6311C35.8481 8.05115 36.9269 8.83381 37.3047 9.99063L41.4937 22.8191C41.652 23.3039 41.2907 23.8019 40.7807 23.8019H6.84673C6.33675 23.8019 5.97548 23.3039 6.13378 22.8191L10.3226 9.99064Z" stroke="#E7EDF3" stroke-width="1.125"/>
<path d="M5.26331 23.0588C5.26331 22.4375 5.76699 21.9338 6.38831 21.9338H41.7346C42.3559 21.9338 42.8596 22.4375 42.8596 23.0588V33.7824C42.8596 35.025 41.8522 36.0324 40.6096 36.0324H7.5133C6.27066 36.0324 5.26331 35.025 5.26331 33.7824V23.0588Z" fill="url(#paint16_linear_11124_107617)"/>
<g style="mix-blend-mode:multiply" opacity="0.2">
<path d="M5.26331 32.8994H42.8595V33.7824C42.8595 35.025 41.8521 36.0324 40.6095 36.0324H7.5133C6.27066 36.0324 5.26331 35.025 5.26331 33.7824V32.8994Z" fill="#B6BECF"/>
</g>
<rect opacity="0.65" x="16.2289" y="25.5818" width="15.6651" height="3.13302" rx="1.125" fill="#B4C1D2"/>
<path d="M7.24445 25.4909C7.24445 24.9923 7.68134 24.6066 8.17605 24.6683L12.9408 25.2627C13.808 25.3709 14.459 26.1081 14.459 26.9821C14.459 27.939 13.6832 28.7148 12.7263 28.7148H8.90241C7.98674 28.7148 7.24445 27.9725 7.24445 27.0568V25.4909Z" fill="white"/>
<path d="M40.646 25.4909C40.646 24.9923 40.2091 24.6066 39.7144 24.6683L34.9497 25.2627C34.0824 25.3709 33.4315 26.1081 33.4315 26.9821C33.4315 27.939 34.2072 28.7148 35.1642 28.7148H38.988C39.9037 28.7148 40.646 27.9725 40.646 27.0568V25.4909Z" fill="white"/>
<g style="mix-blend-mode:multiply" opacity="0.6">
<path fill-rule="evenodd" clip-rule="evenodd" d="M15.054 12.5347C13.9726 12.5347 13.0959 13.4114 13.0959 14.4929C13.0959 15.5743 13.9726 16.451 15.054 16.451H18.9703C20.0517 16.451 20.9284 15.5743 20.9284 14.4929C20.9284 13.4114 20.0517 12.5347 18.9703 12.5347H15.054ZM13.7794 16.451C12.5367 16.451 11.5294 17.4584 11.5294 18.701V21.9338H22.4949V18.701C22.4949 17.4584 21.4876 16.451 20.2449 16.451H13.7794Z" fill="#D4DEF1"/>
</g>
<g style="mix-blend-mode:multiply" opacity="0.6">
<path fill-rule="evenodd" clip-rule="evenodd" d="M29.0665 12.5347C27.9851 12.5347 27.1084 13.4114 27.1084 14.4929C27.1084 15.5743 27.9851 16.451 29.0665 16.451H32.9828C34.0642 16.451 34.9409 15.5743 34.9409 14.4929C34.9409 13.4114 34.0642 12.5347 32.9828 12.5347H29.0665ZM27.7919 16.451C26.5492 16.451 25.5419 17.4584 25.5419 18.701V21.9338H36.5074V18.701C36.5074 17.4584 35.5001 16.451 34.2574 16.451H27.7919Z" fill="#D4DEF1"/>
</g>
<path d="M32.6083 17.2635C33.292 16.7987 33.7418 16.0136 33.7418 15.1202C33.7418 13.6944 32.5858 12.5347 31.1644 12.5347C29.743 12.5347 28.587 13.6944 28.587 15.1202C28.587 16.0136 29.0368 16.7987 29.7205 17.2635C27.3906 17.4034 25.5419 19.3255 25.5419 21.6944V21.9336H36.7869V21.6944C36.7869 19.321 34.9382 17.4034 32.6083 17.2635Z" fill="#738FDD"/>
<path d="M28.259 21.9338C28.259 20.2662 29.6125 18.9127 31.2801 18.9127C32.9477 18.9127 34.3011 20.2662 34.3011 21.9338" fill="#738FDD"/>
<path d="M28.259 21.9338C28.259 20.2662 29.6125 18.9127 31.2801 18.9127C32.9477 18.9127 34.3011 20.2662 34.3011 21.9338" stroke="#465C99" stroke-width="1.31016" stroke-miterlimit="10"/>
<defs>
<filter id="filter0_i_11124_107617" x="6.44275" y="8.05115" width="34.7126" height="18.0007" filterUnits="userSpaceOnUse" color-interpolation-filters="sRGB">
<feFlood flood-opacity="0" result="BackgroundImageFix"/>
<feBlend mode="normal" in="SourceGraphic" in2="BackgroundImageFix" result="shape"/>
<feColorMatrix in="SourceAlpha" type="matrix" values="0 0 0 0 0 0 0 0 0 0 0 0 0 0 0 0 0 0 127 0" result="hardAlpha"/>
<feOffset dy="2.25"/>
<feGaussianBlur stdDeviation="1.125"/>
<feComposite in2="hardAlpha" operator="arithmetic" k2="-1" k3="1"/>
<feColorMatrix type="matrix" values="0 0 0 0 0.336738 0 0 0 0 0.548436 0 0 0 0 0.865983 0 0 0 0.1 0"/>
<feBlend mode="normal" in2="shape" result="effect1_innerShadow_11124_107617"/>
</filter>
<linearGradient id="paint0_linear_11124_107617" x1="72" y1="33.6071" x2="72" y2="38.4399" gradientUnits="userSpaceOnUse">
<stop stop-color="#E6EDF4"/>
<stop offset="1" stop-color="#BACCDE"/>
</linearGradient>
<linearGradient id="paint1_linear_11124_107617" x1="72" y1="36.631" x2="72" y2="40.6582" gradientUnits="userSpaceOnUse">
<stop stop-color="#F1F5F8"/>
<stop offset="1" stop-color="#D4DFEA"/>
</linearGradient>
<linearGradient id="paint2_linear_11124_107617" x1="72" y1="7.15476" x2="72" y2="18.8339" gradientUnits="userSpaceOnUse">
<stop stop-color="#F1F5F8"/>
<stop offset="1" stop-color="#D4DFEA"/>
</linearGradient>
<linearGradient id="paint3_linear_11124_107617" x1="85.125" y1="32.2013" x2="85.125" y2="31.7564" gradientUnits="userSpaceOnUse">
<stop stop-color="#F9BC4E"/>
<stop offset="1" stop-color="#F9BC4E" stop-opacity="0"/>
</linearGradient>
<linearGradient id="paint4_linear_11124_107617" x1="85.125" y1="35.2013" x2="85.125" y2="34.7564" gradientUnits="userSpaceOnUse">
<stop stop-color="#F9BC4E"/>
<stop offset="1" stop-color="#F9BC4E" stop-opacity="0"/>
</linearGradient>
<linearGradient id="paint5_linear_11124_107617" x1="85.125" y1="38.2013" x2="85.125" y2="37.7564" gradientUnits="userSpaceOnUse">
<stop stop-color="#F9BC4E"/>
<stop offset="1" stop-color="#F9BC4E" stop-opacity="0"/>
</linearGradient>
<linearGradient id="paint6_linear_11124_107617" x1="85.125" y1="41.2013" x2="85.125" y2="40.7564" gradientUnits="userSpaceOnUse">
<stop stop-color="#F9BC4E"/>
<stop offset="1" stop-color="#F9BC4E" stop-opacity="0"/>
</linearGradient>
<linearGradient id="paint7_linear_11124_107617" x1="74.3678" y1="31.6229" x2="83.2546" y2="40.5097" gradientUnits="userSpaceOnUse">
<stop stop-color="#FFE58E"/>
<stop offset="1" stop-color="#FFCD39"/>
</linearGradient>
<linearGradient id="paint8_linear_11124_107617" x1="83.25" y1="31.5" x2="74.25" y2="40.5" gradientUnits="userSpaceOnUse">
<stop stop-color="#F8A400"/>
<stop offset="1" stop-color="#FFEF6C"/>
</linearGradient>
<linearGradient id="paint9_linear_11124_107617" x1="105.995" y1="9.26021" x2="124.607" y2="27.8717" gradientUnits="userSpaceOnUse">
<stop stop-color="#DDE5ED"/>
<stop offset="0.541667" stop-color="#C8D3DE"/>
<stop offset="1" stop-color="#5A7592"/>
</linearGradient>
<linearGradient id="paint10_linear_11124_107617" x1="121.242" y1="25.2442" x2="135.748" y2="39.75" gradientUnits="userSpaceOnUse">
<stop stop-color="#1B5AD0"/>
<stop offset="0.309211" stop-color="#4D7FFF"/>
</linearGradient>
<linearGradient id="paint11_linear_11124_107617" x1="135.205" y1="8.91574" x2="104.95" y2="39.1708" gradientUnits="userSpaceOnUse">
<stop stop-color="#DDE5ED"/>
<stop offset="1" stop-color="#B0C3D6"/>
</linearGradient>
<radialGradient id="paint12_radial_11124_107617" cx="0" cy="0" r="1" gradientUnits="userSpaceOnUse" gradientTransform="translate(167.955 23.9558) rotate(90) scale(12.96 12.8571)">
<stop stop-color="#C0CAD2"/>
<stop offset="1" stop-color="#99A3AB"/>
</radialGradient>
<linearGradient id="paint13_linear_11124_107617" x1="149.956" y1="5.95605" x2="185.956" y2="41.9561" gradientUnits="userSpaceOnUse">
<stop stop-color="#4B555E"/>
<stop offset="1" stop-color="#333F49"/>
</linearGradient>
<linearGradient id="paint14_linear_11124_107617" x1="181.894" y1="5.00702" x2="181.894" y2="16.9845" gradientUnits="userSpaceOnUse">
<stop stop-color="#FF997E"/>
<stop offset="1" stop-color="#F93F6D"/>
</linearGradient>
<linearGradient id="paint15_linear_11124_107617" x1="23.8136" y1="8.42617" x2="23.8136" y2="23.4269" gradientUnits="userSpaceOnUse">
<stop stop-color="#F0F4FF"/>
<stop offset="1" stop-color="#CAD7F0"/>
</linearGradient>
<linearGradient id="paint16_linear_11124_107617" x1="24.0614" y1="21.4862" x2="24.0614" y2="36.6273" gradientUnits="userSpaceOnUse">
<stop stop-color="#E8EEF4"/>
<stop offset="1" stop-color="#C8D6E3"/>
</linearGradient>
<clipPath id="clip0_11124_107617">
<rect width="36" height="36" fill="white" transform="translate(102 6)"/>
</clipPath>
</defs>
</svg>
